<svg version="1.1" id="_x31_" xmlns="http://www.w3.org/2000/svg" xmlns:xlink="http://www.w3.org/1999/xlink" x="0px" y="0px"
	 width="180px" height="86px" viewBox="0 0 180 86" enable-background="new 0 0 180 86" xml:space="preserve">
<g id="_x31__2_">
	<g>
		<path fill-rule="evenodd" clip-rule="evenodd" fill="#999999" d="M15,70c-1.104,0-2,0.896-2,2s0.896,2,2,2s2-0.896,2-2
			S16.104,70,15,70z M15,73c-0.553,0-1-0.447-1-1s0.447-1,1-1s1,0.447,1,1S15.553,73,15,73z M176,0H4C1.791,0,0,1.791,0,4v78
			c0,2.209,1.791,4,4,4h172c2.209,0,4-1.791,4-4V4C180,1.791,178.209,0,176,0z M179,81c0,2.209-1.791,4-4,4H5c-2.209,0-4-1.791-4-4
			V5c0-2.209,1.791-4,4-4h170c2.209,0,4,1.791,4,4V81z M15,16c1.104,0,2-0.896,2-2s-0.896-2-2-2s-2,0.896-2,2S13.896,16,15,16z
			 M15,13c0.553,0,1,0.447,1,1s-0.447,1-1,1s-1-0.447-1-1S14.447,13,15,13z M73,70c-1.104,0-2,0.896-2,2s0.896,2,2,2s2-0.896,2-2
			S74.104,70,73,70z M73,73c-0.553,0-1-0.447-1-1s0.447-1,1-1s1,0.447,1,1S73.553,73,73,73z M73,12c-1.104,0-2,0.896-2,2
			s0.896,2,2,2s2-0.896,2-2S74.104,12,73,12z M73,15c-0.553,0-1-0.447-1-1s0.447-1,1-1s1,0.447,1,1S73.553,15,73,15z M44,15
			c-15.464,0-28,12.536-28,28s12.536,28,28,28s28-12.536,28-28S59.464,15,44,15z M44,70c-14.912,0-27-12.088-27-27h3
			c0,6.143,2.343,12.284,7.03,16.971C31.716,64.656,37.858,67,44,67V70z M44,66c-12.703,0-23-10.298-23-23h2.989
			c0.004,5.112,1.956,10.223,5.856,14.123c3.908,3.908,9.032,5.859,14.154,5.855V66z M44,62c-10.493,0-19-8.507-19-19h2.977
			c0.004,4.092,1.566,8.182,4.688,11.303c3.13,3.13,7.234,4.691,11.336,4.688V62z M44,58c-8.284,0-15-6.716-15-15h2.997
			c0,3.072,1.172,6.144,3.516,8.487s5.416,3.516,8.487,3.516V58z M44,54c-6.075,0-11-4.925-11-11h11V54z M44,42H33.05
			c0.506-5.606,5.212-10,10.95-10V42z M44,30.997c-3.072,0-6.144,1.172-8.487,3.516c-2.089,2.089-3.241,4.757-3.468,7.487H29.05
			c0.517-7.816,7.003-14,14.95-14V30.997z M44,26.977c-4.102-0.004-8.206,1.558-11.336,4.688C29.789,34.54,28.253,38.237,28.023,42
			H25.05C25.574,31.975,33.844,24,44,24V26.977z M44,22.989c-5.123-0.004-10.246,1.948-14.154,5.856
			C26.191,32.5,24.27,37.216,24.036,42h-3.01C21.549,29.761,31.632,20,44,20V22.989z M44,19c-6.142,0-12.284,2.343-16.971,7.03
			C22.598,30.461,20.288,36.196,20.047,42h-3.022C17.552,27.552,29.423,16,44,16V19z M45,16.025
			C59.115,16.54,70.46,27.885,70.975,42h-3.022c-0.241-5.804-2.55-11.539-6.982-15.971S50.804,19.288,45,19.047V16.025z M45,20.024
			C56.907,20.534,66.465,30.093,66.975,42h-3.042c-0.235-4.784-2.156-9.5-5.81-13.154C54.478,25.2,49.773,23.278,45,23.037V20.024z
			 M45,24.049C54.691,24.555,62.444,32.308,62.95,42h-3.006c-0.23-3.763-1.766-7.46-4.641-10.336
			c-2.867-2.867-6.551-4.402-10.303-4.64V24.049z M45,28.048C52.482,28.543,58.455,34.516,58.95,42h-2.995
			c-0.227-2.73-1.379-5.398-3.468-7.487S47.73,31.272,45,31.045V28.048z M45,32.048c5.276,0.476,9.473,4.676,9.95,9.952H45V32.048z
			 M45,43h10c0,5.737-4.394,10.443-10,10.949V43z M45,54.955c2.73-0.227,5.398-1.379,7.487-3.468
			c2.344-2.344,3.516-5.415,3.516-8.487H59c0,7.946-6.184,14.433-14,14.949V54.955z M45,58.942c3.751-0.237,7.436-1.773,10.303-4.64
			c3.121-3.121,4.683-7.211,4.688-11.303H63c0,10.155-7.975,18.426-18,18.949V58.942z M45,62.931
			c4.773-0.241,9.478-2.162,13.123-5.808c3.9-3.9,5.852-9.011,5.855-14.123H67c0,12.367-9.761,22.451-22,22.975V62.931z M45,69.975
			v-3.022c5.804-0.241,11.539-2.55,15.971-6.981C65.657,55.284,68,49.143,68,43h3C71,57.577,59.448,69.447,45,69.975z M160,60
			c-3.866,0-7,3.134-7,7s3.134,7,7,7s7-3.134,7-7S163.866,60,160,60z M160,73c-3.313,0-6-2.687-6-6s2.687-6,6-6s6,2.687,6,6
			S163.313,73,160,73z M75,8H13c-2.209,0-4,1.791-4,4v62c0,2.209,1.791,4,4,4h62c2.209,0,4-1.791,4-4V12C79,9.791,77.209,8,75,8z
			 M78,73c0,2.209-1.791,4-4,4H14c-2.209,0-4-1.791-4-4V13c0-2.209,1.791-4,4-4h60c2.209,0,4,1.791,4,4V73z"/>
	</g>
</g>
<text id="_x31__1_" transform="matrix(1 0 0 1 86.0684 16.0005)" fill="#444444" font-family="'Arial'" font-size="10">DC</text>
</svg>
