<svg version="1.1" id="_x31_" xmlns="http://www.w3.org/2000/svg" xmlns:xlink="http://www.w3.org/1999/xlink" x="0px" y="0px"
	 width="16px" height="16px" viewBox="0 0 16 16" enable-background="new 0 0 16 16" xml:space="preserve">
<g id="_x31__2_">
	<g>
		<path fill-rule="evenodd" clip-rule="evenodd" fill="#999999" d="M8,1C4.134,1,1,4.134,1,8s3.134,7,7,7s7-3.134,7-7S11.866,1,8,1z
			 M8,14c-3.313,0-6-2.687-6-6s2.687-6,6-6s6,2.687,6,6S11.313,14,8,14z"/>
	</g>
</g>
<path id="_x31__1_" fill-rule="evenodd" clip-rule="evenodd" fill="#00FF00" d="M8,2c3.313,0,6,2.687,6,6s-2.687,6-6,6s-6-2.687-6-6
	S4.687,2,8,2z"/>
</svg>
