<svg version="1.1" id="_x31_" xmlns="http://www.w3.org/2000/svg" xmlns:xlink="http://www.w3.org/1999/xlink" x="0px" y="0px"
	 width="760px" height="77px" viewBox="0 0 760 77" enable-background="new 0 0 760 77" xml:space="preserve">
<g id="_x31__1_">
	<g id="_x31__100_">
		<g id="_x31__90_">
			<path fill="#999999" d="M756.752,7C757.991,7,759,8.001,759,9.231v56.539C759,67,757.991,68,756.752,68H3.248
				C2.008,68,1,67,1,65.771V9.231C1,8.001,2.008,7,3.248,7H756.752 M756.752,6H3.248C1.454,6,0,7.446,0,9.231v56.539
				C0,67.554,1.454,69,3.248,69h753.504c1.795,0,3.248-1.446,3.248-3.229V9.231C760,7.446,758.547,6,756.752,6L756.752,6z"/>
		</g>
		<g id="_x31__99_">
			<path id="_x31__91_" fill="#444444" d="M23.468,17.835h3.312c0.22,0,0.269,0.242,0.098,0.533l-0.657,1.09
				c-0.195,0.293-0.512,0.512-0.755,0.512h-3.312c-0.22,0-0.268-0.219-0.098-0.512l0.683-1.09
				C22.908,18.077,23.249,17.835,23.468,17.835"/>
			<path id="_x31__92_" fill="#444444" d="M39.246,12.718c1.217-0.097,2.653,0.85,1.947,2.084c-0.681,1.142-3.142,1.433-3.896,1.359
				c-0.219-0.023-0.608-0.169-0.608-0.557c0.024-0.268,0.17-1.189,0.682-1.917C37.906,12.985,38.686,12.766,39.246,12.718"/>
			<path id="_x31__93_" fill="#444444" d="M46.817,15.144c0.39-0.17,0.414,0.242,0.414,0.362v0.947c0,0.193,0.146,0.097,0.22,0.071
				c1.145-0.484,2.288-1.188,3.773-1.164c1.29,0.025,1.681,1.067,1.681,2.231v5.019c0,0.438,0.023,0.558,0.243,0.729
				c0.049,0.023,0.414,0.047,0.535,0.047c0.146,0,0.146,0.123,0.098,0.219l-0.292,0.777c-0.073,0.145-0.219,0.169-0.317,0.169
				h-2.946c-1.046-0.024-1.338-0.802-1.338-1.188v-4.777c0-0.969-1.607-1.042-1.607,0.268v4.025
				c0.025,0.193-0.024,0.461,0.487,0.484c0.341,0,0.584-0.023,0.414,0.364l-0.269,0.655c-0.049,0.098-0.194,0.169-0.315,0.169
				h-4.895c-0.098,0-0.194-0.12-0.171-0.194l0.341-0.897c0.024-0.024,0.05-0.097,0.098-0.097c0.17,0,0.268-0.097,0.316-0.558v-5.213
				c0-0.437-0.39-0.388-0.682-0.388c-0.146,0-0.219-0.025-0.171-0.193l0.269-0.583c0.024-0.146,0.098-0.194,0.194-0.218
				C44.505,15.967,45.454,15.847,46.817,15.144"/>
			<path id="_x31__94_" fill="#444444" d="M66.637,13.954c0.073,0,0.146-0.023,0.195-0.023c0.048-0.024,0.073-0.049,0.097-0.098
				c0.049-0.025,0.049-0.073,0.049-0.121c0-0.072-0.024-0.121-0.072-0.17c-0.025-0.023-0.122-0.048-0.269-0.072v-0.146
				c0.195,0,0.316,0.049,0.414,0.122c0.073,0.049,0.122,0.146,0.122,0.267c0,0.096-0.049,0.194-0.122,0.268
				c-0.073,0.047-0.171,0.096-0.292,0.121c0.048,0.023,0.098,0.048,0.121,0.048c0.025,0.025,0.049,0.071,0.098,0.146
				c0.05,0.049,0.098,0.121,0.122,0.17l0.146,0.242h-0.218l-0.147-0.242c-0.097-0.17-0.17-0.267-0.243-0.315V13.954z M66.637,15.337
				c0.316-0.023,0.608-0.145,0.828-0.363c0.269-0.268,0.39-0.559,0.39-0.922c0-0.34-0.121-0.656-0.39-0.896
				c-0.22-0.244-0.512-0.364-0.828-0.364v0.146c0.292,0,0.536,0.121,0.73,0.314c0.219,0.219,0.341,0.509,0.341,0.801
				c0,0.314-0.122,0.581-0.341,0.8c-0.194,0.219-0.438,0.341-0.73,0.341V15.337z M66.271,13.47v0.484h0.171h0.194v0.194
				c-0.073-0.024-0.146-0.048-0.243-0.048h-0.122v0.605h-0.171v-1.383h0.536v0.146h-0.098H66.271z M66.637,12.791h-0.073
				c-0.341,0-0.656,0.12-0.9,0.364c-0.243,0.24-0.365,0.557-0.365,0.896c0,0.363,0.122,0.654,0.365,0.922
				c0.244,0.242,0.56,0.363,0.9,0.363h0.073v-0.145h-0.073c-0.316,0-0.584-0.099-0.803-0.341c-0.22-0.219-0.341-0.485-0.341-0.8
				c0-0.292,0.121-0.582,0.341-0.801c0.219-0.218,0.486-0.314,0.803-0.314h0.073V12.791z"/>
			<path id="_x31__96_" fill="#444444" d="M58.748,12.937c0.293-0.049,0.438,0.121,0.438,0.436v4.996
				c0.049,0.29,0.243,0.096,0.292,0.023l1.753-2.206c0.171-0.219,0.633-0.268,0.901-0.268h3.676h0.122
				c0.073,0,0.098,0.074,0.024,0.171l-0.487,0.654c-0.024,0.049-0.073,0.12-0.292,0.12H64.98c-0.17,0.025-0.193,0.073-0.268,0.122
				l-1.947,2.157c-0.414,0.486-0.316,0.704,0.049,1.044l2.679,2.74c0.584,0.412,1.119,0.436,1.752,0.459
				c0.146,0.025,0.122,0.146,0.049,0.219l-0.682,0.777c-0.073,0.121-0.365,0.169-0.535,0.169h-2.654
				c-0.341,0-0.949-0.097-1.437-0.412c-0.95-0.776-1.559-1.77-2.508-2.644c-0.146-0.168-0.292-0.097-0.292,0.049v1.141
				c0,0.508,0.22,0.654,0.974,0.678c0.292,0.023,0.219,0.17,0.146,0.34l-0.243,0.654c-0.073,0.146-0.171,0.194-0.317,0.194h-5.478
				c-0.17,0-0.292-0.048-0.243-0.145l0.292-0.802c0.073-0.146,0.121-0.193,0.341-0.193c0.39-0.025,0.535-0.146,0.535-0.727v-7.348
				c0-0.267-0.073-0.363-0.244-0.34l-0.706,0.097c-0.194,0.05-0.243-0.12-0.145-0.267l0.413-0.703
				c0.098-0.145,0.243-0.17,0.414-0.193c1.388-0.219,2.8-0.63,3.676-0.945C58.65,12.96,58.7,12.937,58.748,12.937"/>
			<path id="_x31__95_" fill="#444444" d="M41.097,15.896c0.17-0.074,0.389,0.071,0.34,0.436v6.474
				c0.098,0.461,0.244,0.581,0.658,0.63c0,0,0.268,0,0.194,0.194l-0.268,0.679c-0.097,0.219-0.171,0.243-0.415,0.243h-5.088
				c-0.146,0-0.194-0.097-0.146-0.243l0.243-0.63c0.049-0.097,0.072-0.194,0.243-0.219c0.512-0.12,0.535-0.193,0.535-0.872v-3.905
				c0-0.653-0.097-0.604-0.852-0.532c-0.121-0.049-0.121-0.17-0.098-0.219l0.365-0.701c0.122-0.221,0.243-0.221,0.243-0.221
				C38.515,16.912,39.952,16.55,41.097,15.896"/>
			<path id="_x31__97_" fill="#444444" d="M15.701,24.551c1.047,0.024,2.264,0,3.385-0.897c0.9-0.582,1.947-2.934,2.338-3.902
				c0.194-0.512,0.243-1.189,0-1.674c-0.683-1.527-1.656-3.226-2.289-3.905c-0.926-0.849-1.777-0.921-3.239-0.921h-0.194v2.231
				l1.753,3.054c0.171,0.364,0.122,0.535,0,0.777l-1.753,2.958V24.551z M15.409,24.551h0.292v-2.279l-0.341,0.558
				c-0.243,0.363-0.365,0.291-0.682,0.316h-0.828v-8.148c0-0.219,0.024-0.316,0.22-0.34h0.608c0.219,0,0.536-0.048,0.706,0.291
				l0.316,0.534v-2.231H9.76c-0.268,0-0.56,0.072-0.656,0.243l-0.438,0.823c-0.073,0.34,0.341,0.363,0.341,0.363h0.608
				c0.171,0,0.22,0.146,0.22,0.268v7.59c0,0.34-0.39,0.559-0.706,0.63c-0.122,0.024-0.342,0.073-0.438,0.218l-0.438,0.873
				c-0.073,0.172,0.049,0.292,0.195,0.292C10.88,24.551,12.975,24.575,15.409,24.551"/>
			<path id="_x31__98_" fill="#444444" d="M32.939,13.323c0.268,0,0.366,0.171,0.316,0.268l-0.56,0.993c0,0-0.073,0.194-0.536,0.194
				h-0.049c-0.316,0-0.56,0-0.584,0.631v7.201c0,0.316,0.122,0.558,0.512,0.582h0.73c1.217-0.024,1.192-1.26,1.46-2.352
				c0.074-0.17,0.122-0.29,0.317-0.388l1.095-0.363c0.122,0,0.269,0,0.292,0.218v3.637c0.049,0.34-0.267,0.655-0.681,0.606H26
				c-0.341,0-0.414-0.097-0.341-0.315L26,23.483c0,0,0.099-0.193,0.414-0.193c0.683-0.024,1.12-0.049,1.097-1.092V15.46
				c0-0.438-0.099-0.705-0.536-0.705h-0.536c-0.34,0-0.535-0.122-0.438-0.315l0.463-0.872c0.122-0.219,0.22-0.244,0.39-0.244H32.939
				z"/>
		</g>
	</g>
	<g id="_x31__151_">
		<g id="_x31__107_">
			<g id="_x31__103_">
				<g id="_x31__101_">
					<path fill="#888888" d="M521.842,42.602v11.911h-19.34V42.602h6.113h7.112H521.842 M522.842,41.602h-7.114h-7.112h-7.113
						v13.911h21.34V41.602L522.842,41.602z"/>
				</g>
				<g id="_x31__102_">
					<path fill="#888888" d="M523.494,40.965v15.185h-22.644V40.965H523.494 M524.494,39.965h-24.644v17.185h24.644V39.965
						L524.494,39.965z"/>
				</g>
				<text transform="matrix(1.0043 0 0 1 508.2129 64.8418)" fill="#444444" font-family="'Arial'" font-size="6.5449">32</text>
			</g>
			<g id="_x31__104_">
				<g id="_x31__105_">
					<g>
						<path fill="#888888" d="M521.842,20.515v11.91h-19.34v-11.91h6.113h7.112H521.842 M522.842,19.515h-7.114h-7.112h-7.113v13.91
							h21.34V19.515L522.842,19.515z"/>
					</g>
					<g>
						<path fill="#888888" d="M523.494,18.876v15.185h-22.644V18.876H523.494 M524.494,17.876h-24.644v17.185h24.644V17.876
							L524.494,17.876z"/>
					</g>
				</g>
				
					<text id="_x31__106_" transform="matrix(1.0043 0 0 1 508.2129 14.4189)" fill="#444444" font-family="'Arial'" font-size="6.5449">31</text>
			</g>
		</g>
		<g id="_x31__115_">
			<g id="_x31__108_">
				<g id="_x31__110_">
					<path fill="#888888" d="M494.875,42.602v11.911h-19.34V42.602h6.112h7.114H494.875 M495.875,41.602h-7.113h-7.114h-7.112
						v13.911h21.34V41.602L495.875,41.602z"/>
				</g>
				<g id="_x31__109_">
					<path fill="#888888" d="M496.528,40.965v15.185h-22.646V40.965H496.528 M497.528,39.965h-24.646v17.185h24.646V39.965
						L497.528,39.965z"/>
				</g>
				<text transform="matrix(1.0043 0 0 1 481.2461 64.8418)" fill="#444444" font-family="'Arial'" font-size="6.5449">30</text>
			</g>
			<g id="_x31__114_">
				<g id="_x31__111_">
					<g id="_x31__113_">
						<path fill="#888888" d="M494.875,20.515v11.91h-19.34v-11.91h6.112h7.114H494.875 M495.875,19.515h-7.113h-7.114h-7.112v13.91
							h21.34V19.515L495.875,19.515z"/>
					</g>
					<g id="_x31__112_">
						<path fill="#888888" d="M496.528,18.876v15.185h-22.646V18.876H496.528 M497.528,17.876h-24.646v17.185h24.646V17.876
							L497.528,17.876z"/>
					</g>
				</g>
				<text transform="matrix(1.0043 0 0 1 481.2461 14.4189)" fill="#444444" font-family="'Arial'" font-size="6.5449">29</text>
			</g>
		</g>
		<g id="_x31__123_">
			<g id="_x31__118_">
				<g id="_x31__117_">
					<path fill="#888888" d="M467.837,42.603v11.91h-19.341v-11.91h6.114h7.112H467.837 M468.837,41.603h-7.114h-7.112h-7.114v13.91
						h21.341V41.603L468.837,41.603z"/>
				</g>
				<g id="_x31__116_">
					<path fill="#888888" d="M469.489,40.966v15.184h-22.645V40.966H469.489 M470.489,39.966h-24.645v17.184h24.645V39.966
						L470.489,39.966z"/>
				</g>
				<text transform="matrix(1.0043 0 0 1 454.208 64.8428)" fill="#444444" font-family="'Arial'" font-size="6.5449">28</text>
			</g>
			<g id="_x31__119_">
				<g id="_x31__120_">
					<g id="_x31__122_">
						<path fill="#888888" d="M467.837,20.515v11.91h-19.341v-11.91h6.114h7.112H467.837 M468.837,19.515h-7.114h-7.112h-7.114
							v13.91h21.341V19.515L468.837,19.515z"/>
					</g>
					<g id="_x31__121_">
						<path fill="#888888" d="M469.489,18.878v15.184h-22.645V18.878H469.489 M470.489,17.878h-24.645v17.184h24.645V17.878
							L470.489,17.878z"/>
					</g>
				</g>
				<text transform="matrix(1.0043 0 0 1 454.208 14.4199)" fill="#444444" font-family="'Arial'" font-size="6.5449">27</text>
			</g>
		</g>
		<g id="_x31__131_">
			<g id="_x31__126_">
				<g id="_x31__125_">
					<path fill="#888888" d="M440.87,42.603v11.91h-19.34v-11.91h6.112h7.113H440.87 M441.87,41.603h-7.114h-7.113h-7.112v13.91
						h21.34V41.603L441.87,41.603z"/>
				</g>
				<g id="_x31__124_">
					<path fill="#888888" d="M442.523,40.966v15.184h-22.646V40.966H442.523 M443.523,39.966h-24.646v17.184h24.646V39.966
						L443.523,39.966z"/>
				</g>
				<text transform="matrix(1.0043 0 0 1 427.2412 64.8428)" fill="#444444" font-family="'Arial'" font-size="6.5449">26</text>
			</g>
			<g id="_x31__127_">
				<g id="_x31__128_">
					<g id="_x31__130_">
						<path fill="#888888" d="M440.87,20.515v11.91h-19.34v-11.91h6.112h7.113H440.87 M441.87,19.515h-7.114h-7.113h-7.112v13.91
							h21.34V19.515L441.87,19.515z"/>
					</g>
					<g id="_x31__129_">
						<path fill="#888888" d="M442.523,18.878v15.184h-22.646V18.878H442.523 M443.523,17.878h-24.646v17.184h24.646V17.878
							L443.523,17.878z"/>
					</g>
				</g>
				<text transform="matrix(1.0043 0 0 1 427.2412 14.4199)" fill="#444444" font-family="'Arial'" font-size="6.5449">25</text>
			</g>
		</g>
		<g id="_x31__150_">
			<g id="_x31__140_">
				<g id="_x31__139_">
					<g id="_x31__134_">
						<g id="_x31__132_">
							<path fill="#888888" d="M548.809,42.602v11.911H529.47V42.602h6.112h7.114H548.809 M549.809,41.602h-7.112h-7.114h-7.112
								v13.911h21.339V41.602L549.809,41.602z"/>
						</g>
						<g id="_x31__133_">
							<path fill="#888888" d="M550.461,40.965v15.185h-22.645V40.965H550.461 M551.461,39.965h-24.645v17.185h24.645V39.965
								L551.461,39.965z"/>
						</g>
						<text transform="matrix(1.0043 0 0 1 535.1807 64.8418)" fill="#444444" font-family="'Arial'" font-size="6.5449">34</text>
					</g>
					<g id="_x31__138_">
						<g id="_x31__135_">
							<g id="_x31__137_">
								<path fill="#888888" d="M548.809,20.515v11.91H529.47v-11.91h6.112h7.114H548.809 M549.809,19.515h-7.112h-7.114h-7.112
									v13.91h21.339V19.515L549.809,19.515z"/>
							</g>
							<g id="_x31__136_">
								<path fill="#888888" d="M550.461,18.876v15.185h-22.645V18.876H550.461 M551.461,17.876h-24.645v17.185h24.645V17.876
									L551.461,17.876z"/>
							</g>
						</g>
						<text transform="matrix(1.0043 0 0 1 535.1807 14.4189)" fill="#444444" font-family="'Arial'" font-size="6.5449">33</text>
					</g>
				</g>
			</g>
			<g id="_x31__149_">
				<g id="_x31__141_">
					<g id="_x31__143_">
						<g id="_x31__145_">
							<path fill="#888888" d="M575.822,42.602v11.911h-19.338V42.602h6.112h7.114H575.822 M576.822,41.602h-7.111h-7.114h-7.112
								v13.911h21.338V41.602L576.822,41.602z"/>
						</g>
						<g id="_x31__144_">
							<path fill="#888888" d="M577.477,40.965v15.185h-22.645V40.965H577.477 M578.477,39.965h-24.645v17.185h24.645V39.965
								L578.477,39.965z"/>
						</g>
						<text transform="matrix(1.0043 0 0 1 562.1973 64.8418)" fill="#444444" font-family="'Arial'" font-size="6.5449">36</text>
					</g>
					<g id="_x31__142_">
						<g id="_x31__146_">
							<g id="_x31__148_">
								<path fill="#888888" d="M575.822,20.515v11.91h-19.338v-11.91h6.112h7.114H575.822 M576.822,19.515h-7.111h-7.114h-7.112
									v13.91h21.338V19.515L576.822,19.515z"/>
							</g>
							<g id="_x31__147_">
								<path fill="#888888" d="M577.477,18.876v15.185h-22.645V18.876H577.477 M578.477,17.876h-24.645v17.185h24.645V17.876
									L578.477,17.876z"/>
							</g>
						</g>
						<text transform="matrix(1.0043 0 0 1 562.1973 14.4189)" fill="#444444" font-family="'Arial'" font-size="6.5449">35</text>
					</g>
				</g>
			</g>
		</g>
	</g>
	<g id="_x31__203_">
		<g id="_x31__159_">
			<g id="_x31__154_">
				<g id="_x31__152_">
					<path fill="#888888" d="M689.593,42.603v11.91h-19.341v-11.91h6.113h7.113H689.593 M690.593,41.603h-7.114h-7.113h-7.113v13.91
						h21.341V41.603L690.593,41.603z"/>
				</g>
				<g id="_x31__153_">
					<path fill="#888888" d="M691.246,40.966v15.184H668.6V40.966H691.246 M692.246,39.966H667.6v17.184h24.646V39.966
						L692.246,39.966z"/>
				</g>
				<text transform="matrix(1.0043 0 0 1 675.9629 64.8428)" fill="#444444" font-family="'Arial'" font-size="6.5449">44</text>
			</g>
			<g id="_x31__158_">
				<g id="_x31__157_">
					<g id="_x31__156_">
						<path fill="#888888" d="M689.593,20.515v11.91h-19.341v-11.91h6.113h7.113H689.593 M690.593,19.515h-7.114h-7.113h-7.113
							v13.91h21.341V19.515L690.593,19.515z"/>
					</g>
					<g id="_x31__155_">
						<path fill="#888888" d="M691.246,18.878v15.184H668.6V18.878H691.246 M692.246,17.878H667.6v17.184h24.646V17.878
							L692.246,17.878z"/>
					</g>
				</g>
				<text transform="matrix(1.0043 0 0 1 675.9629 14.4199)" fill="#444444" font-family="'Arial'" font-size="6.5449">43</text>
			</g>
		</g>
		<g id="_x31__167_">
			<g id="_x31__162_">
				<g id="_x31__160_">
					<path fill="#888888" d="M662.627,42.603v11.91h-19.341v-11.91h6.112h7.113H662.627 M663.627,41.603h-7.115h-7.113h-7.112v13.91
						h21.341V41.603L663.627,41.603z"/>
				</g>
				<g id="_x31__161_">
					<path fill="#888888" d="M664.277,40.966v15.184h-22.645V40.966H664.277 M665.277,39.966h-24.645v17.184h24.645V39.966
						L665.277,39.966z"/>
				</g>
				<text transform="matrix(1.0043 0 0 1 648.9961 64.8428)" fill="#444444" font-family="'Arial'" font-size="6.5449">42</text>
			</g>
			<g id="_x31__166_">
				<g id="_x31__165_">
					<g id="_x31__164_">
						<path fill="#888888" d="M662.627,20.515v11.91h-19.341v-11.91h6.112h7.113H662.627 M663.627,19.515h-7.115h-7.113h-7.112
							v13.91h21.341V19.515L663.627,19.515z"/>
					</g>
					<g id="_x31__163_">
						<path fill="#888888" d="M664.277,18.878v15.184h-22.645V18.878H664.277 M665.277,17.878h-24.645v17.184h24.645V17.878
							L665.277,17.878z"/>
					</g>
				</g>
				<text transform="matrix(1.0043 0 0 1 648.9961 14.4199)" fill="#444444" font-family="'Arial'" font-size="6.5449">41</text>
			</g>
		</g>
		<g id="_x31__175_">
			<g id="_x31__169_">
				<g id="_x31__168_">
					<path fill="#888888" d="M635.588,42.603v11.912h-19.34V42.603h6.111h7.114H635.588 M636.588,41.603h-7.114h-7.114h-7.111
						v13.912h21.34V41.603L636.588,41.603z"/>
				</g>
				<g id="_x31__170_">
					<path fill="#888888" d="M637.24,40.967v15.185h-22.646V40.967H637.24 M638.24,39.967h-24.646v17.185h24.646V39.967
						L638.24,39.967z"/>
				</g>
				<text transform="matrix(1.0043 0 0 1 621.959 64.8438)" fill="#444444" font-family="'Arial'" font-size="6.5449">40</text>
			</g>
			<g id="_x31__174_">
				<g id="_x31__171_">
					<g id="_x31__173_">
						<path fill="#888888" d="M635.588,20.517v11.909h-19.34V20.517h6.111h7.114H635.588 M636.588,19.517h-7.114h-7.114h-7.111
							v13.909h21.34V19.517L636.588,19.517z"/>
					</g>
					<g id="_x31__172_">
						<path fill="#888888" d="M637.24,18.878v15.184h-22.646V18.878H637.24 M638.24,17.878h-24.646v17.184h24.646V17.878
							L638.24,17.878z"/>
					</g>
				</g>
				<text transform="matrix(1.0043 0 0 1 621.959 14.4209)" fill="#444444" font-family="'Arial'" font-size="6.5449">39</text>
			</g>
		</g>
		<g id="_x31__183_">
			<g id="_x31__178_">
				<g id="_x31__176_">
					<path fill="#888888" d="M608.621,42.603v11.912h-19.34V42.603h6.111h7.115H608.621 M609.621,41.603h-7.113h-7.115h-7.111
						v13.912h21.34V41.603L609.621,41.603z"/>
				</g>
				<g id="_x31__177_">
					<path fill="#888888" d="M610.272,40.967v15.185h-22.645V40.967H610.272 M611.272,39.967h-24.645v17.185h24.645V39.967
						L611.272,39.967z"/>
				</g>
				<text transform="matrix(1.0043 0 0 1 594.9922 64.8438)" fill="#444444" font-family="'Arial'" font-size="6.5449">38</text>
			</g>
			<g id="_x31__182_">
				<g id="_x31__180_">
					<g id="_x31__179_">
						<path fill="#888888" d="M608.621,20.517v11.909h-19.34V20.517h6.111h7.115H608.621 M609.621,19.517h-7.113h-7.115h-7.111
							v13.909h21.34V19.517L609.621,19.517z"/>
					</g>
					<g id="_x31__181_">
						<path fill="#888888" d="M610.272,18.878v15.184h-22.645V18.878H610.272 M611.272,17.878h-24.645v17.184h24.645V17.878
							L611.272,17.878z"/>
					</g>
				</g>
				<text transform="matrix(1.0043 0 0 1 594.9922 14.4209)" fill="#444444" font-family="'Arial'" font-size="6.5449">37</text>
			</g>
		</g>
		<g id="_x31__202_">
			<g id="_x31__191_">
				<g id="_x31__194_">
					<g id="_x31__186_">
						<g id="_x31__184_">
							<path fill="#888888" d="M716.559,42.603v11.91h-19.34v-11.91h6.114h7.112H716.559 M717.559,41.603h-7.113h-7.112h-7.114
								v13.91h21.34V41.603L717.559,41.603z"/>
						</g>
						<g id="_x31__185_">
							<path fill="#888888" d="M718.212,40.966v15.184h-22.644V40.966H718.212 M719.212,39.966h-24.644v17.184h24.644V39.966
								L719.212,39.966z"/>
						</g>
						<text transform="matrix(1.0043 0 0 1 702.9307 64.8428)" fill="#444444" font-family="'Arial'" font-size="6.5449">46</text>
					</g>
					<g id="_x31__190_">
						<g id="_x31__189_">
							<g id="_x31__187_">
								<path fill="#888888" d="M716.559,20.515v11.91h-19.34v-11.91h6.114h7.112H716.559 M717.559,19.515h-7.113h-7.112h-7.114
									v13.91h21.34V19.515L717.559,19.515z"/>
							</g>
							<g id="_x31__188_">
								<path fill="#888888" d="M718.212,18.878v15.184h-22.644V18.878H718.212 M719.212,17.878h-24.644v17.184h24.644V17.878
									L719.212,17.878z"/>
							</g>
						</g>
						<text transform="matrix(1.0043 0 0 1 702.9307 14.4199)" fill="#444444" font-family="'Arial'" font-size="6.5449">45</text>
					</g>
				</g>
			</g>
			<g id="_x31__201_">
				<g id="_x31__200_">
					<g id="_x31__195_">
						<g id="_x31__192_">
							<path fill="#888888" d="M743.574,42.603v11.91h-19.341v-11.91h6.114h7.111H743.574 M744.574,41.603h-7.115h-7.111h-7.114
								v13.91h21.341V41.603L744.574,41.603z"/>
						</g>
						<g id="_x31__193_">
							<path fill="#888888" d="M745.227,40.966v15.184h-22.645V40.966H745.227 M746.227,39.966h-24.645v17.184h24.645V39.966
								L746.227,39.966z"/>
						</g>
						<text transform="matrix(1.0043 0 0 1 729.9473 64.8428)" fill="#444444" font-family="'Arial'" font-size="6.5449">48</text>
					</g>
					<g id="_x31__199_">
						<g id="_x31__197_">
							<g id="_x31__196_">
								<path fill="#888888" d="M743.574,20.515v11.91h-19.341v-11.91h6.114h7.111H743.574 M744.574,19.515h-7.115h-7.111h-7.114
									v13.91h21.341V19.515L744.574,19.515z"/>
							</g>
							<g id="_x31__198_">
								<path fill="#888888" d="M745.227,18.878v15.184h-22.645V18.878H745.227 M746.227,17.878h-24.645v17.184h24.645V17.878
									L746.227,17.878z"/>
							</g>
						</g>
						<text transform="matrix(1.0043 0 0 1 729.9473 14.4199)" fill="#444444" font-family="'Arial'" font-size="6.5449">47</text>
					</g>
				</g>
			</g>
		</g>
	</g>
	<g id="_x31__54_">
		<g id="_x31__209_">
			<g id="_x31__206_">
				<g id="_x31__204_">
					<path fill="#888888" d="M354.093,42.601v11.91h-19.341v-11.91h6.113h7.113H354.093 M355.093,41.601h-7.114h-7.113h-7.113v13.91
						h21.341V41.601L355.093,41.601z"/>
				</g>
				<g id="_x31__205_">
					<path fill="#888888" d="M355.745,40.965v15.185H333.1V40.965H355.745 M356.745,39.965H332.1v17.185h24.646V39.965
						L356.745,39.965z"/>
				</g>
				<text transform="matrix(1.0043 0 0 1 340.4629 64.8418)" fill="#444444" font-family="'Arial'" font-size="6.5449">20</text>
			</g>
			<g id="_x31__208_">
				<g id="_x31__207_">
					<g>
						<path fill="#888888" d="M354.093,20.513v11.91h-19.341v-11.91h6.113h7.113H354.093 M355.093,19.513h-7.114h-7.113h-7.113
							v13.91h21.341V19.513L355.093,19.513z"/>
					</g>
					<g>
						<path fill="#888888" d="M355.745,18.876v15.185H333.1V18.876H355.745 M356.745,17.876H332.1v17.185h24.646V17.876
							L356.745,17.876z"/>
					</g>
				</g>
				<text transform="matrix(1.0043 0 0 1 340.4629 14.418)" fill="#444444" font-family="'Arial'" font-size="6.5449">19</text>
			</g>
		</g>
		<g id="_x31__217_">
			<g id="_x31__212_">
				<g id="_x31__210_">
					<path fill="#888888" d="M327.126,42.601v11.91h-19.34v-11.91h6.112h7.113H327.126 M328.126,41.601h-7.114h-7.113h-7.112v13.91
						h21.34V41.601L328.126,41.601z"/>
				</g>
				<g id="_x31__211_">
					<path fill="#888888" d="M328.778,40.965v15.185h-22.646V40.965H328.778 M329.778,39.965h-24.646v17.185h24.646V39.965
						L329.778,39.965z"/>
				</g>
				<text transform="matrix(1.0043 0 0 1 313.4961 64.8418)" fill="#444444" font-family="'Arial'" font-size="6.5449">18</text>
			</g>
			<g id="_x31__216_">
				<g id="_x31__215_">
					<g id="_x31__213_">
						<path fill="#888888" d="M327.126,20.513v11.91h-19.34v-11.91h6.112h7.113H327.126 M328.126,19.513h-7.114h-7.113h-7.112v13.91
							h21.34V19.513L328.126,19.513z"/>
					</g>
					<g id="_x31__214_">
						<path fill="#888888" d="M328.778,18.876v15.185h-22.646V18.876H328.778 M329.778,17.876h-24.646v17.185h24.646V17.876
							L329.778,17.876z"/>
					</g>
				</g>
				<text transform="matrix(1.0043 0 0 1 313.4961 14.418)" fill="#444444" font-family="'Arial'" font-size="6.5449">17</text>
			</g>
		</g>
		<g id="_x31__82_">
			<g id="_x31__87_">
				<g id="_x31__89_">
					<path fill="#888888" d="M300.087,42.602v11.911h-19.34V42.602h6.113h7.113H300.087 M301.087,41.602h-7.113h-7.113h-7.113
						v13.911h21.34V41.602L301.087,41.602z"/>
				</g>
				<g id="_x31__88_">
					<path fill="#888888" d="M301.74,40.965v15.185h-22.646V40.965H301.74 M302.74,39.965h-24.646v17.185h24.646V39.965
						L302.74,39.965z"/>
				</g>
				<text transform="matrix(1.0043 0 0 1 286.458 64.8418)" fill="#444444" font-family="'Arial'" font-size="6.5449">16</text>
			</g>
			<g id="_x31__84_">
				<g id="_x31__83_">
					<g id="_x31__86_">
						<path fill="#888888" d="M300.087,20.515v11.91h-19.34v-11.91h6.113h7.113H300.087 M301.087,19.515h-7.113h-7.113h-7.113v13.91
							h21.34V19.515L301.087,19.515z"/>
					</g>
					<g id="_x31__85_">
						<path fill="#888888" d="M301.74,18.876v15.185h-22.646V18.876H301.74 M302.74,17.876h-24.646v17.185h24.646V17.876
							L302.74,17.876z"/>
					</g>
				</g>
				<text transform="matrix(1.0043 0 0 1 286.458 14.4189)" fill="#444444" font-family="'Arial'" font-size="6.5449">15</text>
			</g>
		</g>
		<g id="_x31__74_">
			<g id="_x31__79_">
				<g id="_x31__81_">
					<path fill="#888888" d="M273.121,42.602v11.911H253.78V42.602h6.112h7.114H273.121 M274.121,41.602h-7.114h-7.114h-7.112
						v13.911h21.341V41.602L274.121,41.602z"/>
				</g>
				<g id="_x31__80_">
					<path fill="#888888" d="M274.772,40.965v15.185h-22.645V40.965H274.772 M275.772,39.965h-24.645v17.185h24.645V39.965
						L275.772,39.965z"/>
				</g>
				<text transform="matrix(1.0043 0 0 1 259.4912 64.8418)" fill="#444444" font-family="'Arial'" font-size="6.5449">14</text>
			</g>
			<g id="_x31__75_">
				<g id="_x31__76_">
					<g id="_x31__78_">
						<path fill="#888888" d="M273.121,20.515v11.91H253.78v-11.91h6.112h7.114H273.121 M274.121,19.515h-7.114h-7.114h-7.112v13.91
							h21.341V19.515L274.121,19.515z"/>
					</g>
					<g id="_x31__77_">
						<path fill="#888888" d="M274.772,18.876v15.185h-22.645V18.876H274.772 M275.772,17.876h-24.645v17.185h24.645V17.876
							L275.772,17.876z"/>
					</g>
				</g>
				<text transform="matrix(1.0043 0 0 1 259.4912 14.4189)" fill="#444444" font-family="'Arial'" font-size="6.5449">13</text>
			</g>
		</g>
		<g id="_x31__55_">
			<g id="_x31__65_">
				<g id="_x31__66_">
					<g id="_x31__71_">
						<g id="_x31__73_">
							<path fill="#888888" d="M381.06,42.601v11.91h-19.341v-11.91h6.114h7.112H381.06 M382.06,41.601h-7.114h-7.112h-7.114v13.91
								h21.341V41.601L382.06,41.601z"/>
						</g>
						<g id="_x31__72_">
							<path fill="#888888" d="M382.712,40.965v15.185h-22.645V40.965H382.712 M383.712,39.965h-24.645v17.185h24.645V39.965
								L383.712,39.965z"/>
						</g>
						<text transform="matrix(1.0043 0 0 1 367.4302 64.8418)" fill="#444444" font-family="'Arial'" font-size="6.5449">22</text>
					</g>
					<g id="_x31__67_">
						<g id="_x31__68_">
							<g id="_x31__70_">
								<path fill="#888888" d="M381.06,20.513v11.91h-19.341v-11.91h6.114h7.112H381.06 M382.06,19.513h-7.114h-7.112h-7.114v13.91
									h21.341V19.513L382.06,19.513z"/>
							</g>
							<g id="_x31__69_">
								<path fill="#888888" d="M382.712,18.876v15.185h-22.645V18.876H382.712 M383.712,17.876h-24.645v17.185h24.645V17.876
									L383.712,17.876z"/>
							</g>
						</g>
						<text transform="matrix(1.0043 0 0 1 367.4302 14.418)" fill="#444444" font-family="'Arial'" font-size="6.5449">21</text>
					</g>
				</g>
			</g>
			<g id="_x31__56_">
				<g id="_x31__57_">
					<g id="_x31__62_">
						<g id="_x31__64_">
							<path fill="#888888" d="M408.073,42.601v11.91h-19.34v-11.91h6.114h7.112H408.073 M409.073,41.601h-7.113h-7.112h-7.114
								v13.91h21.34V41.601L409.073,41.601z"/>
						</g>
						<g id="_x31__63_">
							<path fill="#888888" d="M409.727,40.965v15.185h-22.645V40.965H409.727 M410.727,39.965h-24.645v17.185h24.645V39.965
								L410.727,39.965z"/>
						</g>
						<text transform="matrix(1.0043 0 0 1 394.4473 64.8418)" fill="#444444" font-family="'Arial'" font-size="6.5449">24</text>
					</g>
					<g id="_x31__58_">
						<g id="_x31__59_">
							<g id="_x31__61_">
								<path fill="#888888" d="M408.073,20.513v11.91h-19.34v-11.91h6.114h7.112H408.073 M409.073,19.513h-7.113h-7.112h-7.114
									v13.91h21.34V19.513L409.073,19.513z"/>
							</g>
							<g id="_x31__60_">
								<path fill="#888888" d="M409.727,18.876v15.185h-22.645V18.876H409.727 M410.727,17.876h-24.645v17.185h24.645V17.876
									L410.727,17.876z"/>
							</g>
						</g>
						<text transform="matrix(1.0043 0 0 1 394.4473 14.418)" fill="#444444" font-family="'Arial'" font-size="6.5449">23</text>
					</g>
				</g>
			</g>
		</g>
	</g>
	<g id="_x31__2_">
		<g id="_x31__46_">
			<g id="_x31__51_">
				<g id="_x31__53_">
					<path fill="#888888" d="M186.343,42.603v11.912h-19.341V42.603h6.113h7.113H186.343 M187.343,41.603h-7.114h-7.113h-7.113
						v13.912h21.341V41.603L187.343,41.603z"/>
				</g>
				<g id="_x31__52_">
					<path fill="#888888" d="M187.995,40.967v15.185h-22.645V40.967H187.995 M188.995,39.967h-24.645v17.185h24.645V39.967
						L188.995,39.967z"/>
				</g>
				<text transform="matrix(1.0043 0 0 1 174.8696 64.8438)" fill="#444444" font-family="'Arial'" font-size="6.5449">8</text>
			</g>
			<g id="_x31__47_">
				<g id="_x31__48_">
					<g id="_x31__50_">
						<path fill="#888888" d="M186.343,20.517v11.909h-19.341V20.517h6.113h7.113H186.343 M187.343,19.517h-7.114h-7.113h-7.113
							v13.909h21.341V19.517L187.343,19.517z"/>
					</g>
					<g id="_x31__49_">
						<path fill="#888888" d="M187.995,18.878v15.184h-22.645V18.878H187.995 M188.995,17.878h-24.645v17.184h24.645V17.878
							L188.995,17.878z"/>
					</g>
				</g>
				<text transform="matrix(1.0043 0 0 1 174.8696 14.4209)" fill="#444444" font-family="'Arial'" font-size="6.5449">7</text>
			</g>
		</g>
		<g id="_x31__38_">
			<g id="_x31__43_">
				<g id="_x31__45_">
					<path fill="#888888" d="M159.376,42.603v11.912h-19.34V42.603h6.112h7.113H159.376 M160.376,41.603h-7.114h-7.113h-7.112
						v13.912h21.34V41.603L160.376,41.603z"/>
				</g>
				<g id="_x31__44_">
					<path fill="#888888" d="M161.028,40.967v15.185h-22.646V40.967H161.028 M162.028,39.967h-24.646v17.185h24.646V39.967
						L162.028,39.967z"/>
				</g>
				<text transform="matrix(1.0043 0 0 1 147.9028 64.8438)" fill="#444444" font-family="'Arial'" font-size="6.5449">6</text>
			</g>
			<g id="_x31__40_">
				<g id="_x31__39_">
					<g id="_x31__42_">
						<path fill="#888888" d="M159.376,20.517v11.909h-19.34V20.517h6.112h7.113H159.376 M160.376,19.517h-7.114h-7.113h-7.112
							v13.909h21.34V19.517L160.376,19.517z"/>
					</g>
					<g id="_x31__41_">
						<path fill="#888888" d="M161.028,18.878v15.184h-22.646V18.878H161.028 M162.028,17.878h-24.646v17.184h24.646V17.878
							L162.028,17.878z"/>
					</g>
				</g>
				<text transform="matrix(1.0043 0 0 1 147.9028 14.4209)" fill="#444444" font-family="'Arial'" font-size="6.5449">5</text>
			</g>
		</g>
		<g id="_x31__30_">
			<g id="_x31__35_">
				<g id="_x31__37_">
					<path fill="#888888" d="M132.337,42.604v11.91h-19.34v-11.91h6.113h7.113H132.337 M133.337,41.604h-7.113h-7.113h-7.113v13.91
						h21.34V41.604L133.337,41.604z"/>
				</g>
				<g id="_x31__36_">
					<path fill="#888888" d="M133.99,40.967v15.185h-22.646V40.967H133.99 M134.99,39.967h-24.646v17.185h24.646V39.967
						L134.99,39.967z"/>
				</g>
				<text transform="matrix(1.0043 0 0 1 120.8647 64.8438)" fill="#444444" font-family="'Arial'" font-size="6.5449">4</text>
			</g>
			<g id="_x31__31_">
				<g id="_x31__32_">
					<g id="_x31__34_">
						<path fill="#888888" d="M132.337,20.517v11.91h-19.34v-11.91h6.113h7.113H132.337 M133.337,19.517h-7.113h-7.113h-7.113v13.91
							h21.34V19.517L133.337,19.517z"/>
					</g>
					<g id="_x31__33_">
						<path fill="#888888" d="M133.99,18.88v15.182h-22.646V18.88H133.99 M134.99,17.88h-24.646v17.182h24.646V17.88L134.99,17.88z"
							/>
					</g>
				</g>
				<text transform="matrix(1.0043 0 0 1 120.8647 14.4214)" fill="#444444" font-family="'Arial'" font-size="6.5449">3</text>
			</g>
		</g>
		<g id="_x31__22_">
			<g id="_x31__27_">
				<g id="_x31__29_">
					<path fill="#888888" d="M105.371,42.604v11.91h-19.34v-11.91h6.112h7.113H105.371 M106.371,41.604h-7.114h-7.113h-7.112v13.91
						h21.34V41.604L106.371,41.604z"/>
				</g>
				<g id="_x31__28_">
					<path fill="#888888" d="M107.023,40.967v15.185H84.378V40.967H107.023 M108.023,39.967H83.378v17.185h24.646V39.967
						L108.023,39.967z"/>
				</g>
				<text transform="matrix(1.0043 0 0 1 93.8975 64.8438)" fill="#444444" font-family="'Arial'" font-size="6.5449">2</text>
			</g>
			<g id="_x31__23_">
				<g id="_x31__24_">
					<g id="_x31__26_">
						<path fill="#888888" d="M105.371,20.517v11.91h-19.34v-11.91h6.112h7.113H105.371 M106.371,19.517h-7.114h-7.113h-7.112v13.91
							h21.34V19.517L106.371,19.517z"/>
					</g>
					<g id="_x31__25_">
						<path fill="#888888" d="M107.023,18.88v15.182H84.378V18.88H107.023 M108.023,17.88H83.378v17.182h24.646V17.88L108.023,17.88
							z"/>
					</g>
				</g>
				<text transform="matrix(1.0043 0 0 1 93.8975 14.4214)" fill="#444444" font-family="'Arial'" font-size="6.5449">1</text>
			</g>
		</g>
		<g id="_x31__3_">
			<g id="_x31__13_">
				<g id="_x31__14_">
					<g id="_x31__19_">
						<g id="_x31__21_">
							<path fill="#888888" d="M213.309,42.603v11.912H193.97V42.603h6.113h7.112H213.309 M214.309,41.603h-7.113h-7.112h-7.113
								v13.912h21.339V41.603L214.309,41.603z"/>
						</g>
						<g id="_x31__20_">
							<path fill="#888888" d="M214.962,40.967v15.185h-22.645V40.967H214.962 M215.962,39.967h-24.645v17.185h24.645V39.967
								L215.962,39.967z"/>
						</g>
						<text transform="matrix(1.0043 0 0 1 199.6802 64.8438)" fill="#444444" font-family="'Arial'" font-size="6.5449">10</text>
					</g>
					<g id="_x31__15_">
						<g id="_x31__16_">
							<g id="_x31__18_">
								<path fill="#888888" d="M213.309,20.517v11.909H193.97V20.517h6.113h7.112H213.309 M214.309,19.517h-7.113h-7.112h-7.113
									v13.909h21.339V19.517L214.309,19.517z"/>
							</g>
							<g id="_x31__17_">
								<path fill="#888888" d="M214.962,18.878v15.184h-22.645V18.878H214.962 M215.962,17.878h-24.645v17.184h24.645V17.878
									L215.962,17.878z"/>
							</g>
						</g>
						<text transform="matrix(1.0043 0 0 1 201.8369 14.4209)" fill="#444444" font-family="'Arial'" font-size="6.5449">9</text>
					</g>
				</g>
			</g>
			<g id="_x31__4_">
				<g id="_x31__5_">
					<g id="_x31__10_">
						<g id="_x31__12_">
							<path fill="#888888" d="M240.323,42.603v11.912h-19.339V42.603h6.113h7.112H240.323 M241.323,41.603h-7.113h-7.112h-7.113
								v13.912h21.339V41.603L241.323,41.603z"/>
						</g>
						<g id="_x31__11_">
							<path fill="#888888" d="M241.977,40.967v15.185h-22.645V40.967H241.977 M242.977,39.967h-24.645v17.185h24.645V39.967
								L242.977,39.967z"/>
						</g>
						<text transform="matrix(1.0043 0 0 1 226.6968 64.8438)" fill="#444444" font-family="'Arial'" font-size="6.5449">12</text>
					</g>
					<g id="_x31__6_">
						<g id="_x31__7_">
							<g id="_x31__9_">
								<path fill="#888888" d="M240.323,20.517v11.909h-19.339V20.517h6.113h7.112H240.323 M241.323,19.517h-7.113h-7.112h-7.113
									v13.909h21.339V19.517L241.323,19.517z"/>
							</g>
							<g id="_x31__8_">
								<path fill="#888888" d="M241.977,18.878v15.184h-22.645V18.878H241.977 M242.977,17.878h-24.645v17.184h24.645V17.878
									L242.977,17.878z"/>
							</g>
						</g>
						<text transform="matrix(1.0043 0 0 1 226.6968 14.4209)" fill="#444444" font-family="'Arial'" font-size="6.5449">11</text>
					</g>
				</g>
			</g>
		</g>
	</g>
</g>
</svg>
