<svg version="1.1" id="1" xmlns="http://www.w3.org/2000/svg" xmlns:xlink="http://www.w3.org/1999/xlink" x="0px" y="0px"
	 width="760px" height="77px" viewBox="0 0 760 77" enable-background="new 0 0 760 77" xml:space="preserve">
<g>
	<g>
		<path fill="#888888" d="M638.281,15.503V61.5H534.304V15.503H638.281 M639.281,14.503H533.304V62.5h105.978V14.503L639.281,14.503
			z"/>
	</g>
	<g>
		<g>
			<g>
				<polygon fill-rule="evenodd" clip-rule="evenodd" fill="#FFFFFF" points="614.178,33.946 614.178,20.945 619.178,20.945 
					619.178,17.944 630.177,17.944 630.177,20.945 635.176,20.945 635.176,33.946 				"/>
				<path fill="#888888" d="M629.677,18.444v2v1h1h3.999v12.001h-19.998V21.445h4h1v-1v-2H629.677 M630.677,17.444h-11.999v3h-5
					v14.001h21.998V20.445h-4.999V17.444L630.677,17.444z"/>
			</g>
			<g>
				<polygon fill-rule="evenodd" clip-rule="evenodd" fill="#FFFFFF" points="619.23,58.885 619.23,55.887 614.23,55.887 
					614.23,42.887 635.229,42.887 635.229,55.887 630.229,55.887 630.229,58.885 				"/>
				<path fill="#888888" d="M634.729,43.387v12h-3.999h-1v1v1.998h-9.999v-1.998v-1h-1h-4v-12H634.729 M635.729,42.387H613.73v14h5
					v2.998h11.999v-2.998h4.999V42.387L635.729,42.387z"/>
			</g>
			<text transform="matrix(1 0 0 1 622.5137 10.3638)" fill="#444444" font-family="'Arial'" font-size="8.0007">7</text>
			<text transform="matrix(1 0 0 1 622.459 72.002)" fill="#444444" font-family="'Arial'" font-size="8.0007">8</text>
		</g>
		<g>
			<g>
				<polygon fill-rule="evenodd" clip-rule="evenodd" fill="#FFFFFF" points="588.577,33.946 588.577,20.945 593.576,20.945 
					593.576,17.944 604.575,17.944 604.575,20.945 609.575,20.945 609.575,33.946 				"/>
				<path fill="#888888" d="M604.075,18.444v2v1h1h4v12.001h-19.998V21.445h3.999h1v-1v-2H604.075 M605.075,17.444h-11.999v3h-4.999
					v14.001h21.998V20.445h-5V17.444L605.075,17.444z"/>
			</g>
			<g>
				<polygon fill-rule="evenodd" clip-rule="evenodd" fill="#FFFFFF" points="593.629,58.885 593.629,55.887 588.63,55.887 
					588.63,42.887 609.628,42.887 609.628,55.887 604.628,55.887 604.628,58.885 				"/>
				<path fill="#888888" d="M609.128,43.387v12h-4h-1v1v1.998h-9.999v-1.998v-1h-1h-3.999v-12H609.128 M610.128,42.387H588.13v14
					h4.999v2.998h11.999v-2.998h5V42.387L610.128,42.387z"/>
			</g>
			<text transform="matrix(1 0 0 1 596.9092 10.3638)" fill="#444444" font-family="'Arial'" font-size="8.0007">5</text>
			<text transform="matrix(1 0 0 1 596.8545 72.002)" fill="#444444" font-family="'Arial'" font-size="8.0007">6</text>
		</g>
		<g>
			<g>
				<polygon fill-rule="evenodd" clip-rule="evenodd" fill="#FFFFFF" points="562.968,33.946 562.968,20.945 567.967,20.945 
					567.967,17.944 578.966,17.944 578.966,20.945 583.966,20.945 583.966,33.946 				"/>
				<path fill="#888888" d="M578.466,18.444v2v1h1h4v12.001h-19.998V21.445h3.999h1v-1v-2H578.466 M579.466,17.444h-11.999v3h-4.999
					v14.001h21.998V20.445h-5V17.444L579.466,17.444z"/>
			</g>
			<g>
				<polygon fill-rule="evenodd" clip-rule="evenodd" fill="#FFFFFF" points="568.02,58.885 568.02,55.887 563.021,55.887 
					563.021,42.887 584.019,42.887 584.019,55.887 579.019,55.887 579.019,58.885 				"/>
				<path fill="#888888" d="M583.519,43.387v12h-4h-1v1v1.998h-9.999v-1.998v-1h-1h-3.999v-12H583.519 M584.519,42.387h-21.998v14
					h4.999v2.998h11.999v-2.998h5V42.387L584.519,42.387z"/>
			</g>
			<text transform="matrix(1 0 0 1 571.2998 10.3638)" fill="#444444" font-family="'Arial'" font-size="8.0007">3</text>
			<text transform="matrix(1 0 0 1 571.2451 72.002)" fill="#444444" font-family="'Arial'" font-size="8.0007">4</text>
		</g>
		<g>
			<g>
				<polygon fill-rule="evenodd" clip-rule="evenodd" fill="#FFFFFF" points="537.356,33.946 537.356,20.945 542.356,20.945 
					542.356,17.944 553.355,17.944 553.355,20.945 558.354,20.945 558.354,33.946 				"/>
				<path fill="#888888" d="M552.855,18.444v2v1h1h3.998v12.001h-19.997V21.445h4h1v-1v-2H552.855 M553.855,17.444h-11.999v3h-5
					v14.001h21.997V20.445h-4.998V17.444L553.855,17.444z"/>
			</g>
			<g>
				<polygon fill-rule="evenodd" clip-rule="evenodd" fill="#FFFFFF" points="542.409,58.885 542.409,55.887 537.409,55.887 
					537.409,42.887 558.407,42.887 558.407,55.887 553.409,55.887 553.409,58.885 				"/>
				<path fill="#888888" d="M557.907,43.387v12h-3.998h-1v1v1.998h-10v-1.998v-1h-1h-4v-12H557.907 M558.907,42.387h-21.998v14h5
					v2.998h12v-2.998h4.998V42.387L558.907,42.387z"/>
			</g>
			<text transform="matrix(1 0 0 1 545.6875 10.3638)" fill="#444444" font-family="'Arial'" font-size="8.0007">1</text>
			<text transform="matrix(1 0 0 1 545.6328 72.002)" fill="#444444" font-family="'Arial'" font-size="8.0007">2</text>
		</g>
	</g>
</g>
<g>
	<g>
		<path fill="#999999" d="M756.047,1C757.675,1,759,2.323,759,3.949v69.104c0,1.625-1.325,2.947-2.953,2.947H3.954
			C2.325,76,1,74.678,1,73.053V3.949C1,2.323,2.325,1,3.954,1H756.047 M756.047,0H3.954C1.77,0,0,1.77,0,3.949v69.104
			C0,75.232,1.77,77,3.954,77h752.093c2.184,0,3.953-1.768,3.953-3.947V3.949C760,1.77,758.23,0,756.047,0L756.047,0z"/>
	</g>
	<g>
		<path fill="#444444" d="M28.565,14.464h4.031c0.267,0,0.326,0.297,0.118,0.652l-0.8,1.332c-0.237,0.357-0.623,0.624-0.919,0.624
			h-4.029c-0.268,0-0.326-0.267-0.119-0.624l0.83-1.332C27.883,14.761,28.298,14.464,28.565,14.464"/>
		<path fill="#444444" d="M47.77,8.211C49.25,8.092,51,9.249,50.14,10.758c-0.829,1.395-3.824,1.75-4.742,1.661
			c-0.267-0.03-0.74-0.208-0.74-0.682c0.029-0.326,0.207-1.452,0.829-2.343C46.139,8.538,47.088,8.27,47.77,8.211"/>
		<path fill="#444444" d="M56.985,11.174c0.475-0.208,0.504,0.297,0.504,0.444v1.157c0,0.237,0.178,0.118,0.268,0.089
			c1.393-0.593,2.786-1.453,4.593-1.423c1.57,0.03,2.045,1.304,2.045,2.726v6.135c0,0.533,0.029,0.682,0.296,0.889
			c0.06,0.029,0.504,0.059,0.651,0.059c0.179,0,0.179,0.148,0.119,0.268l-0.355,0.948c-0.089,0.178-0.267,0.208-0.386,0.208h-3.586
			c-1.274-0.03-1.629-0.979-1.629-1.453v-5.838c0-1.186-1.956-1.273-1.956,0.326v4.92c0.03,0.236-0.03,0.563,0.593,0.592
			c0.415,0,0.711-0.029,0.504,0.445l-0.326,0.8c-0.06,0.119-0.237,0.208-0.385,0.208h-5.958c-0.118,0-0.236-0.148-0.207-0.237
			l0.414-1.097c0.03-0.029,0.061-0.119,0.119-0.119c0.207,0,0.326-0.119,0.385-0.682v-6.372c0-0.532-0.474-0.474-0.829-0.474
			c-0.178,0-0.267-0.029-0.208-0.236l0.326-0.712c0.03-0.178,0.119-0.238,0.237-0.267C54.17,12.182,55.326,12.034,56.985,11.174"/>
		<path fill="#444444" d="M81.109,9.721c0.089,0,0.178-0.029,0.237-0.029c0.059-0.029,0.089-0.059,0.118-0.119
			c0.06-0.029,0.06-0.088,0.06-0.146c0-0.09-0.03-0.148-0.089-0.207c-0.03-0.031-0.148-0.061-0.326-0.09V8.952
			c0.237,0,0.385,0.059,0.504,0.148c0.089,0.059,0.148,0.178,0.148,0.326c0,0.117-0.06,0.236-0.148,0.326
			c-0.089,0.059-0.208,0.117-0.355,0.146c0.059,0.031,0.118,0.061,0.147,0.061c0.03,0.029,0.06,0.088,0.119,0.178
			c0.06,0.059,0.118,0.148,0.147,0.207l0.178,0.297h-0.266l-0.179-0.297c-0.118-0.207-0.207-0.326-0.296-0.385V9.721z
			 M81.109,11.412c0.385-0.029,0.74-0.178,1.008-0.444c0.326-0.326,0.474-0.682,0.474-1.127c0-0.414-0.147-0.801-0.474-1.096
			c-0.268-0.297-0.623-0.445-1.008-0.445v0.178c0.355,0,0.652,0.148,0.889,0.385c0.267,0.268,0.415,0.623,0.415,0.979
			c0,0.385-0.148,0.711-0.415,0.979c-0.236,0.267-0.533,0.415-0.889,0.415V11.412z M80.665,9.129v0.592h0.207h0.237v0.238
			c-0.089-0.029-0.178-0.061-0.296-0.061h-0.148v0.742h-0.208V8.952h0.652v0.178H80.99H80.665z M81.109,8.299h-0.089
			c-0.415,0-0.8,0.148-1.097,0.445c-0.296,0.295-0.444,0.682-0.444,1.096c0,0.445,0.148,0.801,0.444,1.127
			c0.297,0.296,0.682,0.444,1.097,0.444h0.089v-0.178h-0.089c-0.386,0-0.712-0.119-0.978-0.415
			c-0.268-0.268-0.415-0.594-0.415-0.979c0-0.355,0.147-0.711,0.415-0.979c0.266-0.266,0.592-0.385,0.978-0.385h0.089V8.299z"/>
		<path fill="#444444" d="M71.507,8.477c0.357-0.059,0.534,0.148,0.534,0.533v6.106c0.06,0.355,0.297,0.117,0.356,0.029l2.133-2.697
			c0.208-0.267,0.771-0.326,1.097-0.326h4.475h0.148c0.089,0,0.118,0.089,0.029,0.208l-0.593,0.8
			c-0.029,0.059-0.089,0.147-0.355,0.147h-0.237c-0.207,0.03-0.236,0.09-0.326,0.148l-2.371,2.637
			c-0.504,0.594-0.385,0.86,0.06,1.275l3.26,3.348c0.711,0.504,1.362,0.533,2.133,0.563c0.178,0.031,0.148,0.178,0.06,0.268
			l-0.83,0.948c-0.089,0.148-0.444,0.208-0.651,0.208h-3.231c-0.414,0-1.155-0.119-1.748-0.504c-1.156-0.949-1.896-2.164-3.052-3.23
			c-0.179-0.207-0.356-0.118-0.356,0.06v1.392c0,0.623,0.268,0.801,1.186,0.83c0.355,0.029,0.267,0.207,0.178,0.416l-0.296,0.8
			c-0.089,0.178-0.208,0.237-0.386,0.237h-6.667c-0.208,0-0.356-0.06-0.296-0.178l0.356-0.979c0.089-0.178,0.147-0.236,0.415-0.236
			c0.474-0.031,0.651-0.178,0.651-0.891v-8.979c0-0.326-0.089-0.444-0.297-0.415l-0.859,0.118c-0.237,0.06-0.296-0.147-0.177-0.325
			l0.503-0.859c0.119-0.178,0.297-0.209,0.504-0.238c1.689-0.266,3.408-0.77,4.475-1.154C71.389,8.506,71.448,8.477,71.507,8.477"/>
		<path fill="#444444" d="M50.022,12.093c0.207-0.089,0.474,0.089,0.414,0.534v7.912c0.119,0.563,0.297,0.711,0.801,0.771
			c0,0,0.326,0,0.236,0.236l-0.325,0.83c-0.118,0.267-0.208,0.297-0.505,0.297H44.45c-0.178,0-0.237-0.119-0.178-0.297l0.296-0.771
			c0.06-0.117,0.089-0.236,0.297-0.266c0.622-0.148,0.651-0.238,0.651-1.066v-4.772c0-0.801-0.118-0.74-1.037-0.652
			c-0.147-0.059-0.147-0.207-0.118-0.266l0.444-0.859c0.148-0.268,0.296-0.268,0.296-0.268
			C46.88,13.338,48.629,12.894,50.022,12.093"/>
		<path fill="#444444" d="M19.111,22.673c1.275,0.029,2.756,0,4.12-1.098c1.097-0.711,2.371-3.585,2.846-4.77
			c0.236-0.623,0.296-1.453,0-2.045c-0.831-1.867-2.016-3.942-2.787-4.772c-1.126-1.037-2.163-1.127-3.942-1.127h-0.237v2.728
			l2.134,3.734c0.208,0.443,0.148,0.652,0,0.947l-2.134,3.616V22.673z M18.755,22.673h0.355v-2.787l-0.414,0.682
			c-0.297,0.445-0.445,0.355-0.83,0.387h-1.008v-9.958c0-0.268,0.029-0.385,0.268-0.416h0.74c0.267,0,0.652-0.059,0.859,0.356
			l0.385,0.652V8.862H11.88c-0.326,0-0.682,0.09-0.8,0.297l-0.533,1.008c-0.089,0.414,0.415,0.445,0.415,0.445h0.74
			c0.208,0,0.268,0.178,0.268,0.325v9.275c0,0.416-0.475,0.682-0.859,0.771c-0.148,0.029-0.416,0.088-0.534,0.266l-0.533,1.067
			c-0.089,0.208,0.06,0.356,0.237,0.356C13.243,22.673,15.792,22.703,18.755,22.673"/>
		<path fill="#444444" d="M40.093,8.952c0.326,0,0.445,0.207,0.385,0.326l-0.681,1.215c0,0-0.089,0.236-0.652,0.236h-0.06
			c-0.385,0-0.681,0-0.711,0.771v8.802c0,0.385,0.148,0.682,0.623,0.711h0.889c1.481-0.029,1.452-1.541,1.777-2.875
			c0.09-0.207,0.148-0.355,0.386-0.475l1.333-0.444c0.148,0,0.326,0,0.355,0.268v4.444c0.06,0.416-0.325,0.802-0.829,0.742H31.647
			c-0.416,0-0.504-0.119-0.416-0.386l0.416-0.919c0,0,0.119-0.236,0.504-0.236c0.83-0.029,1.363-0.061,1.334-1.334V11.56
			c0-0.534-0.119-0.86-0.652-0.86h-0.652c-0.414,0-0.651-0.148-0.533-0.385l0.563-1.066c0.147-0.268,0.267-0.297,0.474-0.297H40.093
			z"/>
	</g>
</g>
<g>
	<g>
		<g>
			<g>
				<rect x="666.97" y="43.982" fill-rule="evenodd" clip-rule="evenodd" fill="#FFFFFF" width="24.973" height="16.002"/>
				<path fill="#888888" d="M691.442,44.482v15.002H667.47V44.482h7.657h8.658H691.442 M692.442,43.482h-8.657h-8.658h-8.657v17.002
					h25.973V43.482L692.442,43.482z"/>
			</g>
			<g>
				<path fill="#888888" d="M693.454,42.482v19.002h-27.996V42.482H693.454 M694.454,41.482h-29.996v21.002h29.996V41.482
					L694.454,41.482z"/>
			</g>
		</g>
		<g>
			<text transform="matrix(1 0 0 1 676.8311 72.209)" fill="#444444" font-family="'Arial'" font-size="8.0007">9</text>
		</g>
	</g>
	<g>
		<g>
			<g>
				<rect x="701.757" y="43.982" fill-rule="evenodd" clip-rule="evenodd" fill="#FFFFFF" width="24.974" height="16.002"/>
				<path fill="#888888" d="M726.23,44.482v15.002h-23.974V44.482h7.658h8.658H726.23 M727.23,43.482h-8.657h-8.658h-8.658v17.002
					h25.974V43.482L727.23,43.482z"/>
			</g>
			<g>
				<path fill="#888888" d="M728.242,42.482v19.002h-27.996V42.482H728.242 M729.242,41.482h-29.996v21.002h29.996V41.482
					L729.242,41.482z"/>
			</g>
		</g>
		<g>
			<text transform="matrix(1 0 0 1 708.9932 72.209)" fill="#444444" font-family="'Arial'" font-size="8.0007">10</text>
		</g>
	</g>
</g>
</svg>
