<svg version="1.1" id="_x31_" xmlns="http://www.w3.org/2000/svg" xmlns:xlink="http://www.w3.org/1999/xlink" x="0px" y="0px"
	 width="760px" height="77px" viewBox="0 0 760 77" enable-background="new 0 0 760 77" xml:space="preserve">
<g id="_x31__1_">
	<g id="_x31__2_">
		<g id="_x31__3_">
			<path fill="#888888" d="M413.229,47.761v15.001h-23.977V47.761h7.658h8.658H413.229 M414.229,46.761h-8.66h-8.658h-8.658v17.001
				h25.977V46.761L414.229,46.761z"/>
		</g>
		<g id="_x31__4_">
			<path fill="#888888" d="M415.241,45.76v19.002h-28V45.76H415.241 M416.241,44.76h-30v21.002h30V44.76L416.241,44.76z"/>
		</g>
		<text transform="matrix(0.9999 0 0 1 398.9141 41.0615)" fill="#444444" font-family="'Arial'" font-size="8.0007">5</text>
	</g>
	<g id="_x31__7_">
		<g id="_x31__5_">
			<path fill="#888888" d="M498.203,47.762v15.002h-23.977V47.762h7.658h8.658H498.203 M499.203,46.762h-8.66h-8.658h-8.658v17.002
				h25.977V46.762L499.203,46.762z"/>
		</g>
		<g id="_x31__6_">
			<path fill="#888888" d="M500.215,45.762v19.002h-28V45.762H500.215 M501.215,44.762h-30v21.002h30V44.762L501.215,44.762z"/>
		</g>
		<text transform="matrix(0.9999 0 0 1 483.8867 41.0625)" fill="#444444" font-family="'Arial'" font-size="8.0007">6</text>
	</g>
	<g id="_x31__10_">
		<g id="_x31__8_">
			<path fill="#888888" d="M583.178,47.761v15.001h-23.977V47.761h7.658h8.658H583.178 M584.178,46.761h-8.66h-8.658h-8.658v17.001
				h25.977V46.761L584.178,46.761z"/>
		</g>
		<g id="_x31__9_">
			<path fill="#888888" d="M585.189,45.76v19.002h-28V45.76H585.189 M586.189,44.76h-30v21.002h30V44.76L586.189,44.76z"/>
		</g>
		<text transform="matrix(0.9999 0 0 1 568.8398 41.0615)" fill="#444444" font-family="'Arial'" font-size="8.0007">7</text>
	</g>
	<g id="_x31__13_">
		<g id="_x31__11_">
			<path fill="#888888" d="M668.152,47.762v15.002h-23.977V47.762h7.658h8.658H668.152 M669.152,46.762h-8.66h-8.658h-8.658v17.002
				h25.977V46.762L669.152,46.762z"/>
		</g>
		<g id="_x31__12_">
			<path fill="#888888" d="M670.164,45.762v19.002h-28V45.762H670.164 M671.164,44.762h-30v21.002h30V44.762L671.164,44.762z"/>
		</g>
		<text transform="matrix(0.9999 0 0 1 653.8125 41.0625)" fill="#444444" font-family="'Arial'" font-size="8.0007">8</text>
	</g>
	<g id="_x31__16_">
		<g id="_x31__14_">
			<path fill="#888888" d="M243.281,47.761v15.001h-23.977V47.761h7.658h8.658H243.281 M244.281,46.761h-8.66h-8.658h-8.658v17.001
				h25.977V46.761L244.281,46.761z"/>
		</g>
		<g id="_x31__15_">
			<path fill="#888888" d="M245.293,45.76v19.002h-28V45.76H245.293 M246.293,44.76h-30v21.002h30V44.76L246.293,44.76z"/>
		</g>
		<text transform="matrix(0.9999 0 0 1 228.9678 41.0615)" fill="#444444" font-family="'Arial'" font-size="8.0007">3</text>
	</g>
	<g id="_x31__19_">
		<g id="_x31__17_">
			<path fill="#888888" d="M328.256,47.762v15.002h-23.977V47.762h7.658h8.658H328.256 M329.256,46.762h-8.66h-8.658h-8.658v17.002
				h25.977V46.762L329.256,46.762z"/>
		</g>
		<g id="_x31__18_">
			<path fill="#888888" d="M330.268,45.762v19.002h-28V45.762H330.268 M331.268,44.762h-30v21.002h30V44.762L331.268,44.762z"/>
		</g>
		<text transform="matrix(0.9999 0 0 1 313.9375 41.0625)" fill="#444444" font-family="'Arial'" font-size="8.0007">4</text>
	</g>
	<g id="_x31__22_">
		<g id="_x31__20_">
			<path fill="#888888" d="M73.338,47.762v15.002H49.361V47.762h7.658h8.658H73.338 M74.338,46.762h-8.66H57.02h-8.658v17.002
				h25.977V46.762L74.338,46.762z"/>
		</g>
		<g id="_x31__21_">
			<path fill="#888888" d="M75.35,45.762v19.002h-28V45.762H75.35 M76.35,44.762h-30v21.002h30V44.762L76.35,44.762z"/>
		</g>
		<text transform="matrix(0.9999 0 0 1 59.0205 41.0625)" fill="#444444" font-family="'Arial'" font-size="8.0007">1</text>
	</g>
	<g id="_x31__25_">
		<g id="_x31__23_">
			<path fill="#888888" d="M158.307,47.763v15.001H134.33V47.763h7.658h8.658H158.307 M159.307,46.763h-8.66h-8.658h-8.658v17.001
				h25.977V46.763L159.307,46.763z"/>
		</g>
		<g id="_x31__24_">
			<path fill="#888888" d="M160.318,45.762v19.002h-28V45.762H160.318 M161.318,44.762h-30v21.002h30V44.762L161.318,44.762z"/>
		</g>
		<text transform="matrix(0.9999 0 0 1 143.9922 41.0645)" fill="#444444" font-family="'Arial'" font-size="8.0007">2</text>
	</g>
	<g id="_x31__26_">
		<path fill="#999999" d="M756.047,1C757.675,1,759,2.324,759,3.95v69.103c0,1.625-1.325,2.947-2.953,2.947H3.953
			C2.325,76,1,74.678,1,73.053V3.95C1,2.324,2.325,1,3.953,1H756.047 M756.047,0H3.953C1.77,0,0,1.769,0,3.95v69.103
			C0,75.234,1.77,77,3.953,77h752.094c2.184,0,3.953-1.766,3.953-3.947V3.95C760,1.769,758.23,0,756.047,0L756.047,0z"/>
	</g>
	<g id="_x31__27_">
		<path id="_x31__28_" fill="#444444" d="M28.563,14.465h4.031c0.266,0,0.326,0.296,0.117,0.651l-0.799,1.333
			c-0.238,0.356-0.623,0.623-0.92,0.623h-4.029c-0.268,0-0.326-0.267-0.119-0.623l0.83-1.333
			C27.881,14.761,28.297,14.465,28.563,14.465"/>
		<path id="_x31__29_" fill="#444444" d="M47.766,8.211c1.48-0.119,3.23,1.037,2.371,2.548c-0.83,1.394-3.824,1.749-4.742,1.66
			c-0.266-0.03-0.74-0.208-0.74-0.682c0.029-0.326,0.207-1.452,0.83-2.342C46.135,8.537,47.084,8.27,47.766,8.211"/>
		<path id="_x31__30_" fill="#444444" d="M56.98,11.174c0.475-0.208,0.504,0.297,0.504,0.444v1.156c0,0.237,0.178,0.118,0.268,0.089
			c1.393-0.593,2.785-1.452,4.594-1.423c1.57,0.03,2.045,1.304,2.045,2.728v6.134c0,0.533,0.029,0.682,0.295,0.89
			c0.061,0.029,0.504,0.059,0.652,0.059c0.178,0,0.178,0.148,0.119,0.267l-0.355,0.948c-0.09,0.178-0.268,0.208-0.387,0.208h-3.586
			c-1.273-0.03-1.629-0.979-1.629-1.452v-5.838c0-1.186-1.955-1.274-1.955,0.326v4.919c0.029,0.237-0.031,0.563,0.592,0.593
			c0.416,0,0.711-0.029,0.504,0.444l-0.326,0.8c-0.059,0.119-0.236,0.208-0.385,0.208h-5.957c-0.117,0-0.236-0.148-0.207-0.237
			l0.414-1.097c0.031-0.029,0.061-0.118,0.119-0.118c0.207,0,0.326-0.119,0.385-0.682v-6.371c0-0.534-0.473-0.476-0.828-0.476
			c-0.178,0-0.268-0.029-0.209-0.236l0.326-0.712c0.031-0.178,0.119-0.237,0.238-0.267C54.166,12.182,55.322,12.033,56.98,11.174"/>
		<path id="_x31__31_" fill="#444444" d="M81.104,9.722c0.088,0,0.178-0.029,0.236-0.029c0.059-0.029,0.09-0.06,0.119-0.119
			c0.059-0.029,0.059-0.089,0.059-0.147c0-0.089-0.029-0.148-0.088-0.207c-0.031-0.03-0.148-0.06-0.326-0.09V8.951
			c0.236,0,0.385,0.06,0.504,0.148c0.088,0.06,0.148,0.178,0.148,0.326c0,0.118-0.061,0.237-0.148,0.326
			c-0.09,0.059-0.209,0.118-0.355,0.147c0.059,0.03,0.117,0.06,0.146,0.06c0.031,0.03,0.061,0.089,0.119,0.178
			c0.061,0.06,0.119,0.148,0.148,0.207l0.178,0.297h-0.266l-0.18-0.297c-0.117-0.207-0.207-0.325-0.295-0.385V9.722z M81.104,11.411
			c0.385-0.029,0.74-0.178,1.008-0.444c0.326-0.326,0.473-0.682,0.473-1.126c0-0.415-0.146-0.801-0.473-1.097
			C81.844,8.448,81.488,8.3,81.104,8.3v0.178c0.355,0,0.652,0.148,0.889,0.385c0.266,0.267,0.414,0.622,0.414,0.979
			c0,0.385-0.148,0.711-0.414,0.978c-0.236,0.267-0.533,0.415-0.889,0.415V11.411z M80.658,9.129v0.593h0.207h0.238v0.237
			c-0.09-0.029-0.178-0.06-0.297-0.06h-0.148v0.741h-0.207V8.951h0.652v0.178h-0.119H80.658z M81.104,8.3h-0.09
			c-0.414,0-0.799,0.148-1.096,0.444s-0.445,0.682-0.445,1.097c0,0.444,0.148,0.8,0.445,1.126c0.297,0.296,0.682,0.444,1.096,0.444
			h0.09v-0.178h-0.09c-0.385,0-0.711-0.119-0.977-0.415c-0.268-0.267-0.416-0.593-0.416-0.978c0-0.356,0.148-0.712,0.416-0.979
			c0.266-0.267,0.592-0.385,0.977-0.385h0.09V8.3z"/>
		<path id="_x31__32_" fill="#444444" d="M71.502,8.478c0.355-0.06,0.533,0.148,0.533,0.533v6.105
			c0.059,0.355,0.297,0.118,0.355,0.029l2.133-2.697c0.209-0.267,0.771-0.326,1.098-0.326h4.475h0.148
			c0.088,0,0.117,0.089,0.029,0.208l-0.594,0.8c-0.029,0.059-0.088,0.147-0.355,0.147h-0.236c-0.207,0.03-0.236,0.09-0.326,0.148
			l-2.371,2.639c-0.504,0.593-0.385,0.859,0.061,1.274l3.26,3.349c0.711,0.504,1.361,0.533,2.133,0.563
			c0.178,0.03,0.148,0.178,0.059,0.267l-0.83,0.948c-0.088,0.148-0.443,0.208-0.65,0.208h-3.23c-0.414,0-1.156-0.119-1.748-0.504
			c-1.156-0.948-1.896-2.163-3.053-3.23c-0.178-0.207-0.355-0.118-0.355,0.06v1.393c0,0.622,0.268,0.801,1.186,0.83
			c0.355,0.029,0.266,0.207,0.178,0.415l-0.297,0.8c-0.088,0.178-0.207,0.237-0.385,0.237h-6.668c-0.207,0-0.355-0.06-0.295-0.178
			l0.355-0.979c0.088-0.178,0.146-0.236,0.414-0.236c0.475-0.03,0.652-0.178,0.652-0.89v-8.979c0-0.326-0.09-0.444-0.297-0.415
			l-0.859,0.118c-0.236,0.06-0.297-0.147-0.178-0.325l0.504-0.859c0.119-0.178,0.297-0.208,0.504-0.237
			c1.689-0.267,3.408-0.771,4.475-1.155C71.383,8.507,71.443,8.478,71.502,8.478"/>
		<path id="_x31__33_" fill="#444444" d="M50.018,12.093c0.207-0.089,0.475,0.089,0.414,0.533v7.913
			c0.119,0.563,0.297,0.711,0.801,0.771c0,0,0.326,0,0.236,0.236l-0.324,0.83c-0.119,0.267-0.209,0.297-0.506,0.297h-6.191
			c-0.178,0-0.238-0.119-0.178-0.297l0.295-0.771c0.061-0.118,0.09-0.236,0.297-0.267c0.623-0.147,0.652-0.237,0.652-1.066v-4.771
			c0-0.8-0.119-0.74-1.037-0.651c-0.148-0.06-0.148-0.207-0.119-0.267l0.445-0.86c0.148-0.268,0.295-0.268,0.295-0.268
			C46.877,13.337,48.625,12.893,50.018,12.093"/>
		<path id="_x31__34_" fill="#444444" d="M19.109,22.673c1.275,0.029,2.756,0,4.119-1.097c1.098-0.711,2.371-3.586,2.846-4.771
			c0.236-0.623,0.297-1.452,0-2.045c-0.83-1.868-2.016-3.942-2.785-4.772c-1.127-1.037-2.164-1.126-3.941-1.126h-0.238v2.727
			l2.135,3.734c0.207,0.444,0.148,0.652,0,0.948l-2.135,3.615V22.673z M18.754,22.673h0.355v-2.786l-0.414,0.682
			c-0.297,0.444-0.445,0.355-0.83,0.386h-1.008v-9.958c0-0.267,0.029-0.385,0.268-0.415h0.74c0.268,0,0.652-0.059,0.859,0.355
			l0.385,0.652V8.862h-7.23c-0.326,0-0.682,0.089-0.799,0.297l-0.533,1.007c-0.09,0.415,0.414,0.445,0.414,0.445h0.74
			c0.209,0,0.268,0.178,0.268,0.325v9.276c0,0.415-0.475,0.682-0.859,0.771c-0.148,0.029-0.416,0.089-0.533,0.267l-0.533,1.066
			c-0.09,0.208,0.059,0.356,0.236,0.356C13.242,22.673,15.791,22.702,18.754,22.673"/>
		<path id="_x31__35_" fill="#444444" d="M40.09,8.951c0.326,0,0.445,0.208,0.385,0.326l-0.68,1.215c0,0-0.09,0.237-0.652,0.237
			h-0.061c-0.385,0-0.68,0-0.711,0.771v8.802c0,0.386,0.148,0.682,0.623,0.711h0.889c1.482-0.029,1.453-1.54,1.777-2.874
			c0.09-0.207,0.148-0.355,0.387-0.475l1.332-0.444c0.148,0,0.326,0,0.355,0.268v4.444c0.061,0.415-0.324,0.801-0.828,0.741H31.645
			c-0.414,0-0.504-0.119-0.414-0.386l0.414-0.918c0,0,0.119-0.237,0.504-0.237c0.83-0.029,1.363-0.06,1.334-1.334V11.56
			c0-0.534-0.119-0.859-0.652-0.859h-0.652c-0.414,0-0.65-0.148-0.533-0.386l0.564-1.066c0.146-0.267,0.266-0.297,0.473-0.297H40.09
			z"/>
	</g>
</g>
</svg>
