<svg version="1.1" id="1" xmlns="http://www.w3.org/2000/svg" xmlns:xlink="http://www.w3.org/1999/xlink" x="0px" y="0px"
	 width="760px" height="77px" viewBox="0 0 760 77" enable-background="new 0 0 760 77" xml:space="preserve">
<g>
	<g>
		<path fill="#888888" d="M538.604,15.502v45.999H434.627V15.502H538.604 M539.604,14.502H433.627v47.999h105.977V14.502
			L539.604,14.502z"/>
	</g>
	<g>
		<g>
			<g>
				<polygon fill-rule="evenodd" clip-rule="evenodd" fill="#FFFFFF" points="514.501,33.946 514.501,20.945 519.499,20.945 
					519.499,17.944 530.498,17.944 530.498,20.945 535.499,20.945 535.499,33.946 				"/>
				<path fill="#888888" d="M529.998,18.444v2.001v1h1h4.001v12.001h-19.998V21.445h3.998h1v-1v-2.001H529.998 M530.998,17.444
					h-11.999v3.001h-4.998v14.001h21.998V20.445h-5.001V17.444L530.998,17.444z"/>
			</g>
			<g>
				<polygon fill-rule="evenodd" clip-rule="evenodd" fill="#FFFFFF" points="519.552,58.887 519.552,55.887 514.554,55.887 
					514.554,42.888 535.552,42.888 535.552,55.887 530.551,55.887 530.551,58.887 				"/>
				<path fill="#888888" d="M535.052,43.388v11.999h-4.001h-1v1v2h-9.999v-2v-1h-1h-3.998V43.388H535.052 M536.052,42.388h-21.998
					v13.999h4.998v3h11.999v-3h5.001V42.388L536.052,42.388z"/>
			</g>
			<text transform="matrix(1.0001 0 0 1 522.334 10.3647)" fill="#444444" font-family="'Arial'" font-size="8">7</text>
			<text transform="matrix(1.0001 0 0 1 522.2939 71.9941)" fill="#444444" font-family="'Arial'" font-size="8">8</text>
		</g>
		<g>
			<g>
				<polygon fill-rule="evenodd" clip-rule="evenodd" fill="#FFFFFF" points="488.898,33.946 488.898,20.945 493.898,20.945 
					493.898,17.944 504.897,17.944 504.897,20.945 509.896,20.945 509.896,33.946 				"/>
				<path fill="#888888" d="M504.397,18.444v2.001v1h1h3.999v12.001h-19.998V21.445h4h1v-1v-2.001H504.397 M505.397,17.444h-11.999
					v3.001h-5v14.001h21.998V20.445h-4.999V17.444L505.397,17.444z"/>
			</g>
			<g>
				<polygon fill-rule="evenodd" clip-rule="evenodd" fill="#FFFFFF" points="493.951,58.887 493.951,55.887 488.951,55.887 
					488.951,42.888 509.949,42.888 509.949,55.887 504.95,55.887 504.95,58.887 				"/>
				<path fill="#888888" d="M509.449,43.388v11.999h-3.999h-1v1v2h-9.999v-2v-1h-1h-4V43.388H509.449 M510.449,42.388h-21.998
					v13.999h5v3h11.999v-3h4.999V42.388L510.449,42.388z"/>
			</g>
			<text transform="matrix(1.0001 0 0 1 496.5996 10.3647)" fill="#444444" font-family="'Arial'" font-size="8">5</text>
			<text transform="matrix(1.0001 0 0 1 496.5527 71.9941)" fill="#444444" font-family="'Arial'" font-size="8">6</text>
		</g>
		<g>
			<g>
				<polygon fill-rule="evenodd" clip-rule="evenodd" fill="#FFFFFF" points="463.289,33.946 463.289,20.945 468.29,20.945 
					468.29,17.944 479.289,17.944 479.289,20.945 484.287,20.945 484.287,33.946 				"/>
				<path fill="#888888" d="M478.789,18.444v2.001v1h1h3.998v12.001h-19.998V21.445h4.001h1v-1v-2.001H478.789 M479.789,17.444
					H467.79v3.001h-5.001v14.001h21.998V20.445h-4.998V17.444L479.789,17.444z"/>
			</g>
			<g>
				<polygon fill-rule="evenodd" clip-rule="evenodd" fill="#FFFFFF" points="468.343,58.887 468.343,55.887 463.342,55.887 
					463.342,42.888 484.34,42.888 484.34,55.887 479.342,55.887 479.342,58.887 				"/>
				<path fill="#888888" d="M483.84,43.388v11.999h-3.998h-1v1v2h-9.999v-2v-1h-1h-4.001V43.388H483.84 M484.84,42.388h-21.998
					v13.999h5.001v3h11.999v-3h4.998V42.388L484.84,42.388z"/>
			</g>
			<text transform="matrix(1.0001 0 0 1 471.6201 10.3647)" fill="#444444" font-family="'Arial'" font-size="8">3</text>
			<text transform="matrix(1.0001 0 0 1 471.5654 71.9941)" fill="#444444" font-family="'Arial'" font-size="8">4</text>
		</g>
		<g>
			<g>
				<polygon fill-rule="evenodd" clip-rule="evenodd" fill="#FFFFFF" points="437.679,33.946 437.679,20.945 442.678,20.945 
					442.678,17.944 453.677,17.944 453.677,20.945 458.677,20.945 458.677,33.946 				"/>
				<path fill="#888888" d="M453.177,18.444v2.001v1h1h4v12.001h-19.998V21.445h3.999h1v-1v-2.001H453.177 M454.177,17.444h-11.999
					v3.001h-4.999v14.001h21.998V20.445h-5V17.444L454.177,17.444z"/>
			</g>
			<g>
				<polygon fill-rule="evenodd" clip-rule="evenodd" fill="#FFFFFF" points="442.73,58.887 442.73,55.887 437.731,55.887 
					437.731,42.888 458.729,42.888 458.729,55.887 453.729,55.887 453.729,58.887 				"/>
				<path fill="#888888" d="M458.229,43.388v11.999h-4h-1v1v2h-9.999v-2v-1h-1h-3.999V43.388H458.229 M459.229,42.388h-21.998
					v13.999h4.999v3h11.999v-3h5V42.388L459.229,42.388z"/>
			</g>
			<text transform="matrix(1.0001 0 0 1 446.0088 10.3647)" fill="#444444" font-family="'Arial'" font-size="8">1</text>
			<text transform="matrix(1.0001 0 0 1 445.9541 71.9941)" fill="#444444" font-family="'Arial'" font-size="8">2</text>
		</g>
	</g>
</g>
<g>
	<g>
		<path fill="#888888" d="M654.4,15.493v46H550.424v-46H654.4 M655.4,14.493H549.424v48H655.4V14.493L655.4,14.493z"/>
	</g>
	<g>
		<g>
			<g>
				<polygon fill-rule="evenodd" clip-rule="evenodd" fill="#FFFFFF" points="630.298,33.938 630.298,20.937 635.296,20.937 
					635.296,17.936 646.295,17.936 646.295,20.937 651.296,20.937 651.296,33.938 				"/>
				<path fill="#888888" d="M645.795,18.436v2.001v1h1h4.001v12.001h-19.998V21.437h3.998h1v-1v-2.001H645.795 M646.795,17.436
					h-11.999v3.001h-4.998v14.001h21.998V20.437h-5.001V17.436L646.795,17.436z"/>
			</g>
			<g>
				<polygon fill-rule="evenodd" clip-rule="evenodd" fill="#FFFFFF" points="635.349,58.879 635.349,55.879 630.351,55.879 
					630.351,42.88 651.349,42.88 651.349,55.879 646.348,55.879 646.348,58.879 				"/>
				<path fill="#888888" d="M650.849,43.38v11.999h-4.001h-1v1v2h-9.999v-2v-1h-1h-3.998V43.38H650.849 M651.849,42.38h-21.998
					v13.999h4.998v3h11.999v-3h5.001V42.38L651.849,42.38z"/>
			</g>
			<text transform="matrix(1.0001 0 0 1 635.5059 10.356)" fill="#444444" font-family="'Arial'" font-size="8">15</text>
			<text transform="matrix(1.0001 0 0 1 635.4648 71.9854)" fill="#444444" font-family="'Arial'" font-size="8">16</text>
		</g>
		<g>
			<g>
				<polygon fill-rule="evenodd" clip-rule="evenodd" fill="#FFFFFF" points="604.696,33.938 604.696,20.937 609.695,20.937 
					609.695,17.936 620.694,17.936 620.694,20.937 625.693,20.937 625.693,33.938 				"/>
				<path fill="#888888" d="M620.194,18.436v2.001v1h1h3.999v12.001h-19.997V21.437h3.999h1v-1v-2.001H620.194 M621.194,17.436
					h-11.999v3.001h-4.999v14.001h21.997V20.437h-4.999V17.436L621.194,17.436z"/>
			</g>
			<g>
				<polygon fill-rule="evenodd" clip-rule="evenodd" fill="#FFFFFF" points="609.748,58.879 609.748,55.879 604.749,55.879 
					604.749,42.88 625.746,42.88 625.746,55.879 620.747,55.879 620.747,58.879 				"/>
				<path fill="#888888" d="M625.246,43.38v11.999h-3.999h-1v1v2h-9.999v-2v-1h-1h-3.999V43.38H625.246 M626.246,42.38h-21.997
					v13.999h4.999v3h11.999v-3h4.999V42.38L626.246,42.38z"/>
			</g>
			<text transform="matrix(1.0001 0 0 1 609.7715 10.356)" fill="#444444" font-family="'Arial'" font-size="8">13</text>
			<text transform="matrix(1.0001 0 0 1 609.7236 71.9854)" fill="#444444" font-family="'Arial'" font-size="8">14</text>
		</g>
		<g>
			<g>
				<polygon fill-rule="evenodd" clip-rule="evenodd" fill="#FFFFFF" points="579.086,33.938 579.086,20.937 584.087,20.937 
					584.087,17.936 595.086,17.936 595.086,20.937 600.084,20.937 600.084,33.938 				"/>
				<path fill="#888888" d="M594.586,18.436v2.001v1h1h3.998v12.001h-19.998V21.437h4.001h1v-1v-2.001H594.586 M595.586,17.436
					h-11.999v3.001h-5.001v14.001h21.998V20.437h-4.998V17.436L595.586,17.436z"/>
			</g>
			<g>
				<polygon fill-rule="evenodd" clip-rule="evenodd" fill="#FFFFFF" points="584.14,58.879 584.14,55.879 579.139,55.879 
					579.139,42.88 600.137,42.88 600.137,55.879 595.139,55.879 595.139,58.879 				"/>
				<path fill="#888888" d="M599.637,43.38v11.999h-3.998h-1v1v2h-9.999v-2v-1h-1h-4.001V43.38H599.637 M600.637,42.38h-21.998
					v13.999h5.001v3h11.999v-3h4.998V42.38L600.637,42.38z"/>
			</g>
			<text transform="matrix(1.0001 0 0 1 584.792 10.356)" fill="#444444" font-family="'Arial'" font-size="8">11</text>
			<text transform="matrix(1.0001 0 0 1 584.7373 71.9854)" fill="#444444" font-family="'Arial'" font-size="8">12</text>
		</g>
		<g>
			<g>
				<polygon fill-rule="evenodd" clip-rule="evenodd" fill="#FFFFFF" points="553.476,33.938 553.476,20.937 558.475,20.937 
					558.475,17.936 569.474,17.936 569.474,20.937 574.474,20.937 574.474,33.938 				"/>
				<path fill="#888888" d="M568.974,18.436v2.001v1h1h4v12.001h-19.998V21.437h3.999h1v-1v-2.001H568.974 M569.974,17.436h-11.999
					v3.001h-4.999v14.001h21.998V20.437h-5V17.436L569.974,17.436z"/>
			</g>
			<g>
				<polygon fill-rule="evenodd" clip-rule="evenodd" fill="#FFFFFF" points="558.527,58.879 558.527,55.879 553.528,55.879 
					553.528,42.88 574.526,42.88 574.526,55.879 569.526,55.879 569.526,58.879 				"/>
				<path fill="#888888" d="M574.026,43.38v11.999h-4h-1v1v2h-9.999v-2v-1h-1h-3.999V43.38H574.026 M575.026,42.38h-21.998v13.999
					h4.999v3h11.999v-3h5V42.38L575.026,42.38z"/>
			</g>
			<text transform="matrix(1.0001 0 0 1 561.8047 10.356)" fill="#444444" font-family="'Arial'" font-size="8">9</text>
			<text transform="matrix(1.0001 0 0 1 559.125 71.9854)" fill="#444444" font-family="'Arial'" font-size="8">10</text>
		</g>
	</g>
</g>
<g>
	<g>
		<path fill="#999999" d="M756.047,1C757.675,1,759,2.323,759,3.949v69.104c0,1.625-1.325,2.946-2.953,2.946H3.954
			C2.325,76,1,74.679,1,73.054V3.949C1,2.323,2.325,1,3.954,1H756.047 M756.047,0H3.954C1.771,0,0,1.769,0,3.949v69.104
			C0,75.232,1.771,77,3.954,77h752.093c2.184,0,3.953-1.768,3.953-3.946V3.949C760,1.769,758.23,0,756.047,0L756.047,0z"/>
	</g>
	<g>
		<path fill="#444444" d="M28.566,14.464h4.031c0.267,0,0.326,0.296,0.118,0.651l-0.8,1.333c-0.238,0.357-0.623,0.624-0.919,0.624
			h-4.03c-0.267,0-0.326-0.267-0.119-0.624l0.83-1.333C27.883,14.76,28.299,14.464,28.566,14.464"/>
		<path fill="#444444" d="M47.77,8.21c1.482-0.119,3.231,1.037,2.372,2.548c-0.83,1.395-3.824,1.75-4.743,1.661
			c-0.266-0.03-0.74-0.208-0.74-0.682c0.029-0.326,0.207-1.453,0.83-2.343C46.14,8.537,47.088,8.269,47.77,8.21"/>
		<path fill="#444444" d="M56.986,11.174c0.474-0.208,0.503,0.297,0.503,0.444v1.156c0,0.237,0.179,0.118,0.268,0.089
			c1.393-0.593,2.786-1.452,4.594-1.423c1.57,0.03,2.045,1.304,2.045,2.726v6.135c0,0.533,0.029,0.682,0.295,0.889
			c0.061,0.029,0.504,0.059,0.652,0.059c0.178,0,0.178,0.148,0.119,0.267l-0.355,0.949c-0.09,0.178-0.268,0.208-0.387,0.208h-3.585
			c-1.275-0.03-1.63-0.979-1.63-1.453v-5.838c0-1.186-1.955-1.274-1.955,0.326v4.92c0.029,0.237-0.03,0.563,0.592,0.592
			c0.416,0,0.711-0.029,0.504,0.444l-0.326,0.801c-0.059,0.119-0.236,0.208-0.385,0.208h-5.958c-0.117,0-0.236-0.148-0.207-0.237
			l0.415-1.098c0.03-0.029,0.06-0.118,0.118-0.118c0.208,0,0.326-0.119,0.386-0.681v-6.372c0-0.533-0.474-0.474-0.829-0.474
			c-0.178,0-0.268-0.029-0.208-0.236l0.325-0.712c0.031-0.178,0.119-0.237,0.238-0.267C54.17,12.182,55.327,12.034,56.986,11.174"/>
		<path fill="#444444" d="M81.11,9.721c0.088,0,0.178-0.029,0.236-0.029c0.059-0.029,0.09-0.06,0.119-0.119
			c0.059-0.029,0.059-0.089,0.059-0.147c0-0.089-0.029-0.148-0.088-0.207c-0.031-0.03-0.148-0.06-0.326-0.09V8.951
			c0.236,0,0.385,0.06,0.504,0.148c0.088,0.06,0.148,0.178,0.148,0.326c0,0.118-0.061,0.237-0.148,0.326
			c-0.09,0.059-0.209,0.118-0.355,0.147c0.059,0.03,0.117,0.06,0.146,0.06c0.031,0.03,0.061,0.089,0.119,0.178
			c0.061,0.06,0.119,0.148,0.148,0.207l0.178,0.297h-0.266l-0.18-0.297c-0.117-0.207-0.207-0.325-0.295-0.385V9.721z M81.11,11.412
			c0.385-0.029,0.74-0.178,1.008-0.444c0.326-0.327,0.473-0.683,0.473-1.127c0-0.415-0.146-0.801-0.473-1.097
			c-0.268-0.296-0.623-0.444-1.008-0.444v0.178c0.355,0,0.652,0.148,0.889,0.385c0.266,0.267,0.414,0.622,0.414,0.979
			c0,0.385-0.148,0.711-0.414,0.978c-0.236,0.268-0.533,0.416-0.889,0.416V11.412z M80.665,9.128v0.593h0.207h0.238v0.237
			c-0.09-0.029-0.178-0.06-0.297-0.06h-0.148v0.741h-0.207V8.951h0.652v0.178h-0.119H80.665z M81.11,8.299h-0.09
			c-0.414,0-0.799,0.148-1.096,0.444s-0.445,0.682-0.445,1.097c0,0.444,0.148,0.8,0.445,1.127c0.297,0.296,0.682,0.444,1.096,0.444
			h0.09v-0.178h-0.09c-0.385,0-0.711-0.119-0.977-0.416c-0.268-0.267-0.416-0.593-0.416-0.978c0-0.356,0.148-0.712,0.416-0.979
			c0.266-0.267,0.592-0.385,0.977-0.385h0.09V8.299z"/>
		<path fill="#444444" d="M71.508,8.477c0.356-0.06,0.534,0.148,0.534,0.533v6.105c0.059,0.355,0.297,0.118,0.355,0.029l2.133-2.696
			c0.209-0.267,0.771-0.326,1.098-0.326h4.475h0.148c0.088,0,0.117,0.089,0.029,0.208l-0.594,0.8
			c-0.029,0.059-0.088,0.147-0.355,0.147h-0.236c-0.207,0.03-0.236,0.09-0.326,0.148l-2.372,2.637
			c-0.504,0.594-0.385,0.86,0.061,1.275l3.26,3.349c0.711,0.503,1.361,0.533,2.133,0.562c0.178,0.03,0.148,0.178,0.059,0.267
			l-0.83,0.949c-0.088,0.148-0.443,0.208-0.65,0.208h-3.231c-0.414,0-1.156-0.119-1.748-0.505c-1.156-0.948-1.896-2.163-3.053-3.23
			c-0.178-0.207-0.355-0.118-0.355,0.06v1.393c0,0.622,0.268,0.8,1.186,0.83c0.355,0.029,0.266,0.207,0.178,0.415l-0.297,0.801
			c-0.088,0.178-0.207,0.237-0.385,0.237h-6.668c-0.207,0-0.356-0.06-0.295-0.178l0.356-0.979c0.088-0.178,0.146-0.236,0.414-0.236
			c0.475-0.03,0.652-0.178,0.652-0.889v-8.979c0-0.326-0.09-0.444-0.297-0.415l-0.859,0.118c-0.237,0.06-0.297-0.147-0.178-0.326
			l0.504-0.859c0.119-0.178,0.297-0.208,0.504-0.237c1.689-0.267,3.408-0.771,4.475-1.155C71.389,8.506,71.449,8.477,71.508,8.477"
			/>
		<path fill="#444444" d="M50.022,12.093c0.207-0.089,0.475,0.089,0.415,0.533v7.913c0.118,0.562,0.296,0.71,0.8,0.77
			c0,0,0.326,0,0.237,0.236l-0.325,0.831c-0.119,0.267-0.208,0.297-0.505,0.297h-6.193c-0.178,0-0.238-0.119-0.178-0.297
			l0.295-0.771c0.061-0.118,0.09-0.236,0.297-0.267c0.623-0.147,0.652-0.237,0.652-1.066V15.5c0-0.8-0.119-0.74-1.037-0.651
			c-0.148-0.06-0.148-0.207-0.119-0.267l0.445-0.859c0.148-0.268,0.296-0.268,0.296-0.268
			C46.881,13.337,48.629,12.893,50.022,12.093"/>
		<path fill="#444444" d="M19.112,22.673c1.275,0.029,2.756,0,4.12-1.098c1.097-0.71,2.371-3.585,2.845-4.77
			c0.236-0.624,0.297-1.453,0-2.046c-0.831-1.867-2.016-3.942-2.786-4.772c-1.127-1.037-2.164-1.126-3.942-1.126h-0.237v2.728
			l2.134,3.733c0.207,0.444,0.148,0.652,0,0.948l-2.134,3.616V22.673z M18.756,22.673h0.355v-2.787l-0.415,0.682
			c-0.297,0.444-0.444,0.355-0.83,0.386H16.86v-9.958c0-0.268,0.029-0.386,0.267-0.416h0.74c0.268,0,0.652-0.059,0.859,0.356
			l0.386,0.652V8.862h-7.231c-0.326,0-0.682,0.089-0.8,0.297l-0.533,1.007c-0.09,0.415,0.414,0.445,0.414,0.445h0.74
			c0.209,0,0.268,0.178,0.268,0.326v9.276c0,0.415-0.475,0.682-0.859,0.771c-0.148,0.029-0.415,0.088-0.533,0.266l-0.533,1.067
			c-0.09,0.208,0.059,0.356,0.236,0.356C13.243,22.673,15.792,22.703,18.756,22.673"/>
		<path fill="#444444" d="M40.093,8.951c0.326,0,0.445,0.208,0.386,0.326l-0.681,1.215c0,0-0.09,0.237-0.652,0.237h-0.06
			c-0.386,0-0.681,0-0.711,0.771v8.801c0,0.386,0.147,0.682,0.622,0.71h0.889c1.482-0.029,1.453-1.54,1.778-2.874
			c0.089-0.207,0.147-0.355,0.386-0.475l1.333-0.444c0.147,0,0.325,0,0.355,0.268v4.444c0.06,0.416-0.325,0.802-0.829,0.742H31.647
			c-0.415,0-0.504-0.119-0.415-0.386l0.415-0.919c0,0,0.119-0.237,0.504-0.237c0.83-0.029,1.363-0.06,1.334-1.333V11.56
			c0-0.534-0.119-0.86-0.652-0.86h-0.651c-0.415,0-0.651-0.148-0.534-0.386l0.564-1.066c0.147-0.267,0.266-0.297,0.473-0.297H40.093
			z"/>
	</g>
</g>
<g>
	<g>
		<g>
			<rect x="667.828" y="44.101" fill-rule="evenodd" clip-rule="evenodd" fill="#FFFFFF" width="24.974" height="16.002"/>
			<path fill="#888888" d="M692.302,44.601v15.002h-23.974V44.601h7.657h8.658H692.302 M693.302,43.601h-8.658h-8.658h-8.657v17.002
				h25.974V43.601L693.302,43.601z"/>
		</g>
		<g>
			<path fill="#888888" d="M694.313,42.601v19.002h-27.996V42.601H694.313 M695.313,41.601h-29.996v21.002h29.996V41.601
				L695.313,41.601z"/>
		</g>
		<text transform="matrix(1.0001 0 0 1 675.4736 72.0068)" fill="#444444" font-family="'Arial'" font-size="8">18</text>
	</g>
	<g>
		<g>
			<g>
				<rect x="667.828" y="17.104" fill-rule="evenodd" clip-rule="evenodd" fill="#FFFFFF" width="24.974" height="16.002"/>
				<path fill="#888888" d="M692.302,17.604v15.002h-23.974V17.604h7.657h8.658H692.302 M693.302,16.604h-8.658h-8.658h-8.657
					v17.002h25.974V16.604L693.302,16.604z"/>
			</g>
			<g>
				<path fill="#888888" d="M694.313,15.603v19.002h-27.996V15.603H694.313 M695.313,14.603h-29.996v21.002h29.996V14.603
					L695.313,14.603z"/>
			</g>
		</g>
		<text transform="matrix(1.0001 0 0 1 675.4736 10.3774)" fill="#444444" font-family="'Arial'" font-size="8">17</text>
	</g>
</g>
<g>
	<g>
		<g>
			<rect x="702.815" y="44.087" fill-rule="evenodd" clip-rule="evenodd" fill="#FFFFFF" width="24.975" height="16.002"/>
			<path fill="#888888" d="M727.29,44.587v15.002h-23.975V44.587h7.657h8.659H727.29 M728.29,43.587h-8.658h-8.659h-8.657v17.002
				h25.975V43.587L728.29,43.587z"/>
		</g>
		<g>
			<path fill="#888888" d="M729.301,42.587v19.002h-27.997V42.587H729.301 M730.301,41.587h-29.997v21.002h29.997V41.587
				L730.301,41.587z"/>
		</g>
		<text transform="matrix(1.0001 0 0 1 710.4658 71.9941)" fill="#444444" font-family="'Arial'" font-size="8">20</text>
	</g>
	<g>
		<g>
			<g>
				<rect x="702.815" y="17.091" fill-rule="evenodd" clip-rule="evenodd" fill="#FFFFFF" width="24.975" height="16.002"/>
				<path fill="#888888" d="M727.29,17.591v15.002h-23.975V17.591h7.657h8.659H727.29 M728.29,16.591h-8.658h-8.659h-8.657v17.002
					h25.975V16.591L728.29,16.591z"/>
			</g>
			<g>
				<path fill="#888888" d="M729.301,15.59v19.002h-27.997V15.59H729.301 M730.301,14.59h-29.997v21.002h29.997V14.59L730.301,14.59
					z"/>
			</g>
		</g>
		<text transform="matrix(1.0001 0 0 1 710.4658 10.3647)" fill="#444444" font-family="'Arial'" font-size="8">19</text>
	</g>
</g>
</svg>
