<svg version="1.1" id="1" xmlns="http://www.w3.org/2000/svg" xmlns:xlink="http://www.w3.org/1999/xlink" x="0px" y="0px"
	 width="760px" height="77px" viewBox="0 0 760 77" enable-background="new 0 0 760 77" xml:space="preserve">
<g>
	<g>
		<g>
			<path fill="#888888" d="M474.315,15.502v45.999H370.338V15.502H474.315 M475.315,14.502H369.338v47.999h105.978V14.502
				L475.315,14.502z"/>
		</g>
		<g>
			<g>
				<polygon fill-rule="evenodd" clip-rule="evenodd" fill="#FFFFFF" points="450.212,33.946 450.212,20.945 455.21,20.945 
					455.21,17.944 466.21,17.944 466.21,20.945 471.21,20.945 471.21,33.946 				"/>
				<path fill="#888888" d="M465.71,18.444v2.001v1h1h4v12.001h-19.998V21.445h3.998h1v-1v-2.001H465.71 M466.71,17.444h-12v3.001
					h-4.998v14.001h21.998V20.445h-5V17.444L466.71,17.444z"/>
			</g>
			<g>
				<polygon fill-rule="evenodd" clip-rule="evenodd" fill="#FFFFFF" points="455.263,58.886 455.263,55.886 450.265,55.886 
					450.265,42.888 471.263,42.888 471.263,55.886 466.263,55.886 466.263,58.886 				"/>
				<path fill="#888888" d="M470.763,43.388v11.998h-4h-1v1v2h-10v-2v-1h-1h-3.998V43.388H470.763 M471.763,42.388h-21.998v13.998
					h4.998v3h12v-3h5V42.388L471.763,42.388z"/>
			</g>
			<text transform="matrix(1.0001 0 0 1 458.0508 10.3638)" fill="#444444" font-family="'Arial'" font-size="7.9994">7</text>
			<text transform="matrix(1.0001 0 0 1 458.0098 71.9922)" fill="#444444" font-family="'Arial'" font-size="7.9994">8</text>
		</g>
		<g>
			<g>
				<polygon fill-rule="evenodd" clip-rule="evenodd" fill="#FFFFFF" points="424.61,33.946 424.61,20.945 429.61,20.945 
					429.61,17.944 440.608,17.944 440.608,20.945 445.608,20.945 445.608,33.946 				"/>
				<path fill="#888888" d="M440.108,18.444v2.001v1h1h4v12.001H425.11V21.445h4h1v-1v-2.001H440.108 M441.108,17.444H429.11v3.001
					h-5v14.001h21.998V20.445h-5V17.444L441.108,17.444z"/>
			</g>
			<g>
				<polygon fill-rule="evenodd" clip-rule="evenodd" fill="#FFFFFF" points="429.663,58.886 429.663,55.886 424.663,55.886 
					424.663,42.888 445.661,42.888 445.661,55.886 440.661,55.886 440.661,58.886 				"/>
				<path fill="#888888" d="M445.161,43.388v11.998h-4h-1v1v2h-9.998v-2v-1h-1h-4V43.388H445.161 M446.161,42.388h-21.998v13.998h5
					v3h11.998v-3h5V42.388L446.161,42.388z"/>
			</g>
			<text transform="matrix(1.0001 0 0 1 432.3164 10.3638)" fill="#444444" font-family="'Arial'" font-size="7.9994">5</text>
			<text transform="matrix(1.0001 0 0 1 432.2676 71.9922)" fill="#444444" font-family="'Arial'" font-size="7.9994">6</text>
		</g>
		<g>
			<g>
				<polygon fill-rule="evenodd" clip-rule="evenodd" fill="#FFFFFF" points="399.001,33.946 399.001,20.945 404.001,20.945 
					404.001,17.944 415,17.944 415,20.945 419.999,20.945 419.999,33.946 				"/>
				<path fill="#888888" d="M414.5,18.444v2.001v1h1h3.999v12.001h-19.998V21.445h4h1v-1v-2.001H414.5 M415.5,17.444h-11.999v3.001
					h-5v14.001h21.998V20.445H415.5V17.444L415.5,17.444z"/>
			</g>
			<g>
				<polygon fill-rule="evenodd" clip-rule="evenodd" fill="#FFFFFF" points="404.054,58.886 404.054,55.886 399.054,55.886 
					399.054,42.888 420.052,42.888 420.052,55.886 415.053,55.886 415.053,58.886 				"/>
				<path fill="#888888" d="M419.552,43.388v11.998h-3.999h-1v1v2h-9.999v-2v-1h-1h-4V43.388H419.552 M420.552,42.388h-21.998
					v13.998h5v3h11.999v-3h4.999V42.388L420.552,42.388z"/>
			</g>
			<text transform="matrix(1.0001 0 0 1 407.3359 10.3638)" fill="#444444" font-family="'Arial'" font-size="7.9994">3</text>
			<text transform="matrix(1.0001 0 0 1 407.2813 71.9922)" fill="#444444" font-family="'Arial'" font-size="7.9994">4</text>
		</g>
		<g>
			<g>
				<polygon fill-rule="evenodd" clip-rule="evenodd" fill="#FFFFFF" points="373.39,33.946 373.39,20.945 378.39,20.945 
					378.39,17.944 389.389,17.944 389.389,20.945 394.388,20.945 394.388,33.946 				"/>
				<path fill="#888888" d="M388.889,18.444v2.001v1h1h3.999v12.001H373.89V21.445h4h1v-1v-2.001H388.889 M389.889,17.444H377.89
					v3.001h-5v14.001h21.998V20.445h-4.999V17.444L389.889,17.444z"/>
			</g>
			<g>
				<polygon fill-rule="evenodd" clip-rule="evenodd" fill="#FFFFFF" points="378.442,58.886 378.442,55.886 373.442,55.886 
					373.442,42.888 394.44,42.888 394.44,55.886 389.441,55.886 389.441,58.886 				"/>
				<path fill="#888888" d="M393.94,43.388v11.998h-3.999h-1v1v2h-9.999v-2v-1h-1h-4V43.388H393.94 M394.94,42.388h-21.998v13.998h5
					v3h11.999v-3h4.999V42.388L394.94,42.388z"/>
			</g>
			<text transform="matrix(1.0001 0 0 1 381.7236 10.3638)" fill="#444444" font-family="'Arial'" font-size="7.9994">1</text>
			<text transform="matrix(1.0001 0 0 1 381.6689 71.9922)" fill="#444444" font-family="'Arial'" font-size="7.9994">2</text>
		</g>
	</g>
	<g>
		<g>
			<path fill="#888888" d="M590.214,15.502v45.999H486.236V15.502H590.214 M591.214,14.502H485.236v47.999h105.978V14.502
				L591.214,14.502z"/>
		</g>
		<g>
			<g>
				<polygon fill-rule="evenodd" clip-rule="evenodd" fill="#FFFFFF" points="566.11,33.946 566.11,20.945 571.111,20.945 
					571.111,17.944 582.11,17.944 582.11,20.945 587.108,20.945 587.108,33.946 				"/>
				<path fill="#888888" d="M581.61,18.444v2.001v1h1h3.998v12.001H566.61V21.445h4.001h1v-1v-2.001H581.61 M582.61,17.444h-11.999
					v3.001h-5.001v14.001h21.998V20.445h-4.998V17.444L582.61,17.444z"/>
			</g>
			<g>
				<polygon fill-rule="evenodd" clip-rule="evenodd" fill="#FFFFFF" points="571.164,58.886 571.164,55.886 566.163,55.886 
					566.163,42.888 587.161,42.888 587.161,55.886 582.163,55.886 582.163,58.886 				"/>
				<path fill="#888888" d="M586.661,43.388v11.998h-3.998h-1v1v2h-9.999v-2v-1h-1h-4.001V43.388H586.661 M587.661,42.388h-21.998
					v13.998h5.001v3h11.999v-3h4.998V42.388L587.661,42.388z"/>
			</g>
			<text transform="matrix(1.0001 0 0 1 571.3252 10.3638)" fill="#444444" font-family="'Arial'" font-size="7.9994">15</text>
			<text transform="matrix(1.0001 0 0 1 571.2842 71.9922)" fill="#444444" font-family="'Arial'" font-size="7.9994">16</text>
		</g>
		<g>
			<g>
				<polygon fill-rule="evenodd" clip-rule="evenodd" fill="#FFFFFF" points="540.51,33.946 540.51,20.945 545.509,20.945 
					545.509,17.944 556.509,17.944 556.509,20.945 561.508,20.945 561.508,33.946 				"/>
				<path fill="#888888" d="M556.009,18.444v2.001v1h1h3.999v12.001H541.01V21.445h3.999h1v-1v-2.001H556.009 M557.009,17.444h-12
					v3.001h-4.999v14.001h21.998V20.445h-4.999V17.444L557.009,17.444z"/>
			</g>
			<g>
				<polygon fill-rule="evenodd" clip-rule="evenodd" fill="#FFFFFF" points="545.562,58.886 545.562,55.886 540.563,55.886 
					540.563,42.888 561.561,42.888 561.561,55.886 556.562,55.886 556.562,58.886 				"/>
				<path fill="#888888" d="M561.061,43.388v11.998h-3.999h-1v1v2h-10v-2v-1h-1h-3.999V43.388H561.061 M562.061,42.388h-21.998
					v13.998h4.999v3h12v-3h4.999V42.388L562.061,42.388z"/>
			</g>
			<text transform="matrix(1.0001 0 0 1 545.5908 10.3638)" fill="#444444" font-family="'Arial'" font-size="7.9994">13</text>
			<text transform="matrix(1.0001 0 0 1 545.543 71.9922)" fill="#444444" font-family="'Arial'" font-size="7.9994">14</text>
		</g>
		<g>
			<g>
				<polygon fill-rule="evenodd" clip-rule="evenodd" fill="#FFFFFF" points="514.901,33.946 514.901,20.945 519.899,20.945 
					519.899,17.944 530.898,17.944 530.898,20.945 535.899,20.945 535.899,33.946 				"/>
				<path fill="#888888" d="M530.398,18.444v2.001v1h1h4.001v12.001h-19.998V21.445h3.998h1v-1v-2.001H530.398 M531.398,17.444
					h-11.999v3.001h-4.998v14.001h21.998V20.445h-5.001V17.444L531.398,17.444z"/>
			</g>
			<g>
				<polygon fill-rule="evenodd" clip-rule="evenodd" fill="#FFFFFF" points="519.952,58.886 519.952,55.886 514.954,55.886 
					514.954,42.888 535.952,42.888 535.952,55.886 530.951,55.886 530.951,58.886 				"/>
				<path fill="#888888" d="M535.452,43.388v11.998h-4.001h-1v1v2h-9.999v-2v-1h-1h-3.998V43.388H535.452 M536.452,42.388h-21.998
					v13.998h4.998v3h11.999v-3h5.001V42.388L536.452,42.388z"/>
			</g>
			<text transform="matrix(1.0001 0 0 1 520.6113 10.3638)" fill="#444444" font-family="'Arial'" font-size="7.9994">11</text>
			<text transform="matrix(1.0001 0 0 1 520.5566 71.9922)" fill="#444444" font-family="'Arial'" font-size="7.9994">12</text>
		</g>
		<g>
			<g>
				<polygon fill-rule="evenodd" clip-rule="evenodd" fill="#FFFFFF" points="489.29,33.946 489.29,20.945 494.289,20.945 
					494.289,17.944 505.288,17.944 505.288,20.945 510.288,20.945 510.288,33.946 				"/>
				<path fill="#888888" d="M504.788,18.444v2.001v1h1h4v12.001H489.79V21.445h3.999h1v-1v-2.001H504.788 M505.788,17.444h-11.999
					v3.001h-4.999v14.001h21.998V20.445h-5V17.444L505.788,17.444z"/>
			</g>
			<g>
				<polygon fill-rule="evenodd" clip-rule="evenodd" fill="#FFFFFF" points="494.342,58.886 494.342,55.886 489.343,55.886 
					489.343,42.888 510.341,42.888 510.341,55.886 505.341,55.886 505.341,58.886 				"/>
				<path fill="#888888" d="M509.841,43.388v11.998h-4h-1v1v2h-9.999v-2v-1h-1h-3.999V43.388H509.841 M510.841,42.388h-21.998
					v13.998h4.999v3h11.999v-3h5V42.388L510.841,42.388z"/>
			</g>
			<text transform="matrix(1.0001 0 0 1 497.624 10.3638)" fill="#444444" font-family="'Arial'" font-size="7.9994">9</text>
			<text transform="matrix(1.0001 0 0 1 494.9443 71.9922)" fill="#444444" font-family="'Arial'" font-size="7.9994">10</text>
		</g>
	</g>
	<g>
		<g>
			<path fill="#999999" d="M756.047,1C757.675,1,759,2.323,759,3.949v69.103c0,1.626-1.325,2.948-2.953,2.948H3.954
				C2.325,76,1,74.678,1,73.052V3.949C1,2.323,2.325,1,3.954,1H756.047 M756.047,0H3.954C1.77,0,0,1.769,0,3.949v69.103
				C0,75.232,1.77,77,3.954,77h752.093c2.184,0,3.953-1.768,3.953-3.948V3.949C760,1.769,758.23,0,756.047,0L756.047,0z"/>
		</g>
		<g>
			<path fill="#444444" d="M28.565,14.464h4.03c0.267,0,0.326,0.296,0.118,0.651l-0.8,1.333c-0.237,0.357-0.622,0.624-0.919,0.624
				h-4.029c-0.268,0-0.326-0.267-0.119-0.624l0.83-1.333C27.884,14.76,28.298,14.464,28.565,14.464"/>
			<path fill="#444444" d="M47.77,8.21c1.481-0.119,3.229,1.037,2.37,2.547c-0.828,1.395-3.823,1.75-4.741,1.661
				c-0.267-0.03-0.74-0.208-0.74-0.682c0.029-0.326,0.207-1.453,0.829-2.343C46.139,8.537,47.088,8.269,47.77,8.21"/>
			<path fill="#444444" d="M56.985,11.174c0.475-0.208,0.504,0.297,0.504,0.444v1.156c0,0.237,0.178,0.118,0.268,0.089
				c1.393-0.593,2.785-1.452,4.594-1.423c1.57,0.03,2.045,1.304,2.045,2.727v6.134c0,0.533,0.029,0.682,0.296,0.89
				c0.06,0.029,0.504,0.059,0.651,0.059c0.179,0,0.179,0.148,0.119,0.267l-0.355,0.949c-0.089,0.178-0.267,0.208-0.386,0.208h-3.587
				c-1.273-0.03-1.629-0.979-1.629-1.453v-5.838c0-1.186-1.956-1.274-1.956,0.326v4.919c0.03,0.237-0.03,0.563,0.593,0.593
				c0.415,0,0.711-0.029,0.504,0.444l-0.326,0.8c-0.06,0.119-0.237,0.208-0.385,0.208h-5.957c-0.118,0-0.236-0.148-0.207-0.237
				l0.414-1.097c0.03-0.029,0.061-0.118,0.119-0.118c0.207,0,0.326-0.119,0.385-0.682v-6.372c0-0.533-0.474-0.475-0.829-0.475
				c-0.179,0-0.267-0.029-0.208-0.236l0.326-0.712c0.03-0.178,0.119-0.237,0.237-0.267C54.171,12.182,55.326,12.033,56.985,11.174"
				/>
			<path fill="#444444" d="M81.109,9.721c0.089,0,0.178-0.029,0.237-0.029c0.059-0.029,0.089-0.06,0.118-0.119
				c0.06-0.029,0.06-0.089,0.06-0.147c0-0.089-0.03-0.148-0.089-0.207c-0.03-0.03-0.148-0.06-0.326-0.09V8.951
				c0.237,0,0.385,0.06,0.504,0.148c0.089,0.06,0.148,0.177,0.148,0.326c0,0.118-0.06,0.237-0.148,0.326
				c-0.089,0.059-0.208,0.118-0.355,0.147c0.059,0.03,0.118,0.06,0.147,0.06c0.03,0.03,0.06,0.089,0.119,0.178
				c0.06,0.06,0.118,0.148,0.147,0.207l0.178,0.297h-0.266l-0.179-0.297c-0.118-0.207-0.207-0.325-0.296-0.385V9.721z
				 M81.109,11.411c0.385-0.029,0.74-0.178,1.008-0.444c0.326-0.327,0.474-0.683,0.474-1.127c0-0.415-0.147-0.8-0.474-1.096
				c-0.268-0.296-0.623-0.444-1.008-0.444v0.178c0.355,0,0.652,0.148,0.889,0.385c0.267,0.267,0.415,0.622,0.415,0.978
				c0,0.385-0.148,0.711-0.415,0.978c-0.236,0.268-0.533,0.416-0.889,0.416V11.411z M80.665,9.128v0.592h0.207h0.237v0.237
				c-0.089-0.029-0.178-0.06-0.296-0.06h-0.148v0.741h-0.208V8.951h0.652v0.178H80.99H80.665z M81.109,8.299h-0.089
				c-0.415,0-0.8,0.148-1.097,0.444c-0.296,0.296-0.444,0.681-0.444,1.096c0,0.444,0.148,0.8,0.444,1.127
				c0.297,0.296,0.682,0.444,1.097,0.444h0.089v-0.178h-0.089c-0.386,0-0.712-0.119-0.978-0.416
				c-0.268-0.267-0.415-0.593-0.415-0.978c0-0.356,0.147-0.711,0.415-0.978c0.266-0.267,0.592-0.385,0.978-0.385h0.089V8.299z"/>
			<path fill="#444444" d="M71.507,8.477c0.356-0.06,0.533,0.148,0.533,0.533v6.105c0.061,0.355,0.297,0.118,0.357,0.029
				l2.133-2.696c0.207-0.267,0.771-0.326,1.097-0.326h4.475h0.148c0.089,0,0.118,0.089,0.029,0.208l-0.593,0.8
				c-0.029,0.059-0.089,0.147-0.355,0.147h-0.237c-0.207,0.03-0.236,0.09-0.326,0.148l-2.37,2.638
				c-0.504,0.593-0.385,0.86,0.06,1.275l3.26,3.349c0.711,0.504,1.362,0.533,2.133,0.563c0.178,0.03,0.148,0.178,0.06,0.267
				l-0.83,0.949c-0.089,0.148-0.444,0.208-0.651,0.208h-3.23c-0.414,0-1.155-0.119-1.748-0.505c-1.157-0.948-1.897-2.163-3.052-3.23
				c-0.18-0.207-0.357-0.118-0.357,0.06v1.393c0,0.622,0.268,0.801,1.186,0.83c0.355,0.029,0.268,0.207,0.178,0.415l-0.295,0.8
				c-0.09,0.178-0.209,0.237-0.387,0.237h-6.667c-0.207,0-0.355-0.06-0.296-0.178l0.355-0.979c0.089-0.178,0.147-0.236,0.415-0.236
				c0.474-0.03,0.651-0.178,0.651-0.89v-8.979c0-0.326-0.089-0.444-0.297-0.415l-0.859,0.118c-0.236,0.06-0.296-0.147-0.177-0.326
				l0.503-0.859c0.119-0.178,0.297-0.208,0.504-0.237c1.689-0.267,3.408-0.77,4.475-1.155C71.389,8.506,71.448,8.477,71.507,8.477"
				/>
			<path fill="#444444" d="M50.022,12.093c0.207-0.089,0.473,0.089,0.414,0.533v7.913c0.119,0.563,0.297,0.711,0.801,0.771
				c0,0,0.326,0,0.236,0.236l-0.326,0.831c-0.117,0.267-0.207,0.297-0.504,0.297H44.45c-0.178,0-0.237-0.119-0.178-0.297
				l0.296-0.771c0.06-0.118,0.089-0.236,0.297-0.267c0.622-0.147,0.651-0.237,0.651-1.066V15.5c0-0.8-0.118-0.74-1.037-0.651
				c-0.147-0.06-0.147-0.207-0.118-0.267l0.444-0.859c0.148-0.268,0.296-0.268,0.296-0.268
				C46.88,13.337,48.629,12.893,50.022,12.093"/>
			<path fill="#444444" d="M19.111,22.673c1.274,0.029,2.756,0,4.119-1.097c1.097-0.711,2.371-3.586,2.847-4.771
				c0.236-0.624,0.295-1.453,0-2.045c-0.831-1.867-2.017-3.942-2.787-4.772c-1.126-1.037-2.163-1.125-3.941-1.125h-0.237v2.727
				l2.134,3.733c0.208,0.444,0.148,0.652,0,0.948l-2.134,3.616V22.673z M18.756,22.673h0.355v-2.787l-0.414,0.682
				c-0.297,0.444-0.445,0.355-0.83,0.386h-1.009v-9.958c0-0.268,0.029-0.386,0.268-0.416h0.741c0.267,0,0.652-0.059,0.859,0.356
				l0.385,0.652V8.862H11.88c-0.326,0-0.682,0.089-0.8,0.297l-0.533,1.006c-0.089,0.415,0.415,0.445,0.415,0.445h0.74
				c0.208,0,0.268,0.178,0.268,0.326v9.276c0,0.415-0.475,0.682-0.859,0.771c-0.148,0.029-0.416,0.089-0.534,0.267l-0.533,1.067
				c-0.089,0.208,0.06,0.356,0.237,0.356C13.243,22.673,15.792,22.702,18.756,22.673"/>
			<path fill="#444444" d="M40.093,8.951c0.327,0,0.446,0.208,0.386,0.326l-0.681,1.215c0,0-0.09,0.237-0.652,0.237h-0.061
				c-0.385,0-0.68,0-0.711,0.771v8.801c0,0.386,0.148,0.682,0.623,0.711h0.889c1.482-0.029,1.453-1.54,1.778-2.874
				c0.09-0.207,0.148-0.355,0.386-0.475l1.333-0.444c0.148,0,0.326,0,0.355,0.268v4.444c0.06,0.416-0.325,0.801-0.829,0.742H31.647
				c-0.415,0-0.504-0.119-0.415-0.386l0.415-0.918c0,0,0.119-0.237,0.504-0.237c0.83-0.029,1.363-0.06,1.334-1.334V11.56
				c0-0.534-0.119-0.86-0.652-0.86h-0.652c-0.414,0-0.651-0.148-0.533-0.386l0.563-1.066c0.147-0.267,0.267-0.297,0.474-0.297
				H40.093z"/>
		</g>
	</g>
	<g>
		<g>
			<g>
				<g>
					<rect x="669.384" y="43.981" fill-rule="evenodd" clip-rule="evenodd" fill="#FFFFFF" width="24.973" height="16"/>
					<path fill="#888888" d="M693.856,44.481v15h-23.973v-15h7.657h8.657H693.856 M694.856,43.481h-8.658h-8.657h-8.657v17h25.973
						V43.481L694.856,43.481z"/>
				</g>
				<g>
					<path fill="#888888" d="M695.87,42.48v19.002h-27.998V42.48H695.87 M696.87,41.48h-29.998v21.002h29.998V41.48L696.87,41.48z"
						/>
				</g>
				<text transform="matrix(1.0001 0 0 1 677.0303 71.8867)" fill="#444444" font-family="'Arial'" font-size="7.9994">19</text>
			</g>
		</g>
		<g>
			<g>
				<g>
					<rect x="636.561" y="43.98" fill-rule="evenodd" clip-rule="evenodd" fill="#FFFFFF" width="24.972" height="16.002"/>
					<path fill="#888888" d="M661.032,44.48v15.002h-23.972V44.48h7.656h8.659H661.032 M662.032,43.48h-8.656h-8.659h-8.656v17.002
						h25.972V43.48L662.032,43.48z"/>
				</g>
				<g>
					<path fill="#888888" d="M663.046,42.48v19.002h-27.998V42.48H663.046 M664.046,41.48h-29.998v21.002h29.998V41.48
						L664.046,41.48z"/>
				</g>
				<text transform="matrix(1.0001 0 0 1 644.2061 71.8867)" fill="#444444" font-family="'Arial'" font-size="7.9994">18</text>
			</g>
		</g>
		<g>
			<g>
				<g>
					<rect x="603.737" y="43.98" fill-rule="evenodd" clip-rule="evenodd" fill="#FFFFFF" width="24.973" height="16.002"/>
					<path fill="#888888" d="M628.21,44.48v15.002h-23.973V44.48h7.656h8.659H628.21 M629.21,43.48h-8.657h-8.659h-8.656v17.002
						h25.973V43.48L629.21,43.48z"/>
				</g>
				<g>
					<path fill="#888888" d="M630.222,42.48v19.002h-27.996V42.48H630.222 M631.222,41.48h-29.996v21.002h29.996V41.48
						L631.222,41.48z"/>
				</g>
				<text transform="matrix(1.0001 0 0 1 611.3818 71.8867)" fill="#444444" font-family="'Arial'" font-size="7.9994">17</text>
			</g>
		</g>
		<g>
			<g>
				<g>
					<rect x="702.267" y="43.98" fill-rule="evenodd" clip-rule="evenodd" fill="#FFFFFF" width="24.972" height="16.002"/>
					<path fill="#888888" d="M726.738,44.48v15.002h-23.972V44.48h7.656h8.657H726.738 M727.738,43.48h-8.658h-8.657h-8.656v17.002
						h25.972V43.48L727.738,43.48z"/>
				</g>
				<g>
					<path fill="#888888" d="M728.751,42.48v19.002h-27.997V42.48H728.751 M729.751,41.48h-29.997v21.002h29.997V41.48
						L729.751,41.48z"/>
				</g>
				<text transform="matrix(1.0001 0 0 1 709.915 71.8867)" fill="#444444" font-family="'Arial'" font-size="7.9994">20</text>
			</g>
		</g>
	</g>
</g>
</svg>
