<svg version="1.1" id="_x31_" xmlns="http://www.w3.org/2000/svg" xmlns:xlink="http://www.w3.org/1999/xlink" x="0px" y="0px"
	 width="760px" height="77px" viewBox="0 0 760 77" enable-background="new 0 0 760 77" xml:space="preserve">
<g id="_x31__1_">
	<g id="_x31__171_">
		<g id="_x31__182_">
			<path fill="#888888" d="M142.259,16.507v42.882H93.594V16.507H142.259 M143.259,15.507H92.594v44.882h50.665V15.507
				L143.259,15.507z"/>
		</g>
		
			<rect id="_x31__183_" x="95.639" y="4.704" fill-rule="evenodd" clip-rule="evenodd" fill="#FFF000" width="20.577" height="8.527"/>
		
			<rect id="_x31__181_" x="119.596" y="4.704" fill-rule="evenodd" clip-rule="evenodd" fill="#FFF000" width="20.577" height="8.527"/>
		
			<rect id="_x31__180_" x="95.667" y="62.381" fill-rule="evenodd" clip-rule="evenodd" fill="#FFF000" width="20.577" height="8.527"/>
		
			<rect id="_x31__179_" x="119.623" y="62.381" fill-rule="evenodd" clip-rule="evenodd" fill="#FFF000" width="20.577" height="8.527"/>
		<g id="_x31__172_">
			<g id="_x31__176_">
				<g id="_x31__178_">
					<path fill="#888888" d="M134.489,19.257v1.806v1h1h3.677v11.092h-18.577V22.063h3.678h1v-1v-1.806H134.489 M135.489,18.257
						h-11.223v2.806h-4.678v13.092h20.577V21.063h-4.677V18.257L135.489,18.257z"/>
				</g>
				<g id="_x31__177_">
					<path fill="#888888" d="M139.216,42.581v11.09h-3.677h-1v1v1.804h-9.224v-1.804v-1h-1h-3.677v-11.09H139.216 M140.216,41.581
						h-20.577v13.09h4.677v2.804h11.224v-2.804h4.677V41.581L140.216,41.581z"/>
				</g>
				<text transform="matrix(1.0005 0 0 1 125.2104 11.6372)" fill="#444444" font-family="'Arial'" font-size="7.4798">3T</text>
				<text transform="matrix(1.0005 0 0 1 125.1597 69.2637)" fill="#444444" font-family="'Arial'" font-size="7.4798">4T</text>
			</g>
			<g id="_x31__174_">
				<g id="_x31__175_">
					<path fill="#888888" d="M110.534,19.257v1.806v1h1h3.676v11.092H96.633V22.063h3.677h1v-1v-1.806H110.534 M111.534,18.257
						H100.31v2.806h-4.677v13.092h20.577V21.063h-4.676V18.257L111.534,18.257z"/>
				</g>
				<g id="_x31__173_">
					<path fill="#888888" d="M115.259,42.581v11.09h-3.676h-1v1v1.804h-9.224v-1.804v-1h-1h-3.677v-11.09H115.259 M116.259,41.581
						H95.682v13.09h4.677v2.804h11.224v-2.804h4.676V41.581L116.259,41.581z"/>
				</g>
				<text transform="matrix(1.0005 0 0 1 101.2539 11.6372)" fill="#444444" font-family="'Arial'" font-size="7.4798">1T</text>
				<text transform="matrix(1.0005 0 0 1 101.2026 69.2637)" fill="#444444" font-family="'Arial'" font-size="7.4798">2T</text>
			</g>
		</g>
	</g>
	<g id="_x31__159_">
		<g id="_x31__170_">
			<path fill="#999999" d="M756.302,3C757.79,3,759,4.208,759,5.693v64.614c0,1.484-1.21,2.692-2.698,2.692H3.698
				C2.21,73,1,71.792,1,70.308V5.693C1,4.208,2.21,3,3.698,3H756.302 M756.302,2H3.698C1.655,2,0,3.654,0,5.693v64.614
				C0,72.347,1.655,74,3.698,74h752.604c2.043,0,3.698-1.653,3.698-3.692V5.693C760,3.654,758.345,2,756.302,2L756.302,2z"/>
		</g>
		<g id="_x31__160_">
			<path id="_x31__169_" fill="#444444" d="M26.719,15.525h3.77c0.25,0,0.305,0.276,0.111,0.609l-0.749,1.246
				c-0.222,0.334-0.582,0.583-0.859,0.583h-3.77c-0.25,0-0.305-0.249-0.111-0.583l0.776-1.246
				C26.082,15.801,26.47,15.525,26.719,15.525"/>
			<path id="_x31__168_" fill="#444444" d="M44.683,9.678c1.385-0.111,3.021,0.969,2.217,2.381
				c-0.776,1.304-3.577,1.637-4.436,1.554c-0.25-0.028-0.692-0.195-0.692-0.638c0.027-0.305,0.194-1.358,0.775-2.19
				C43.157,9.982,44.045,9.732,44.683,9.678"/>
			<path id="_x31__167_" fill="#444444" d="M53.303,12.449c0.444-0.194,0.471,0.277,0.471,0.416v1.08c0,0.223,0.167,0.11,0.25,0.083
				c1.303-0.553,2.605-1.357,4.296-1.33c1.469,0.028,1.913,1.219,1.913,2.549v5.736c0,0.499,0.027,0.637,0.276,0.832
				c0.056,0.027,0.472,0.055,0.609,0.055c0.167,0,0.167,0.139,0.112,0.249l-0.333,0.888c-0.083,0.166-0.25,0.194-0.361,0.194h-3.354
				c-1.191-0.028-1.524-0.916-1.524-1.359v-5.459c0-1.109-1.83-1.192-1.83,0.304v4.601c0.028,0.222-0.028,0.527,0.555,0.554
				c0.388,0,0.665-0.027,0.471,0.416l-0.305,0.749c-0.056,0.111-0.222,0.194-0.36,0.194h-5.572c-0.111,0-0.221-0.139-0.194-0.222
				l0.387-1.027c0.028-0.027,0.057-0.11,0.112-0.11c0.193,0,0.305-0.111,0.36-0.637v-5.958c0-0.499-0.443-0.443-0.776-0.443
				c-0.166,0-0.249-0.027-0.194-0.221l0.305-0.666c0.028-0.166,0.111-0.221,0.222-0.249C50.67,13.391,51.751,13.252,53.303,12.449"
				/>
			<path id="_x31__166_" fill="#444444" d="M75.869,11.09c0.083,0,0.166-0.027,0.222-0.027c0.055-0.027,0.083-0.056,0.111-0.111
				c0.056-0.027,0.056-0.083,0.056-0.138c0-0.084-0.028-0.14-0.083-0.194c-0.028-0.028-0.139-0.056-0.305-0.084V10.37
				c0.222,0,0.36,0.056,0.471,0.139c0.083,0.056,0.139,0.166,0.139,0.306c0,0.11-0.056,0.221-0.139,0.304
				c-0.083,0.055-0.194,0.11-0.333,0.138c0.055,0.028,0.11,0.056,0.138,0.056c0.028,0.028,0.056,0.084,0.111,0.167
				c0.056,0.056,0.11,0.139,0.138,0.193l0.167,0.277h-0.249l-0.167-0.277c-0.111-0.193-0.194-0.305-0.277-0.36V11.09z M75.869,12.67
				c0.36-0.027,0.692-0.166,0.942-0.415c0.305-0.307,0.443-0.638,0.443-1.054c0-0.387-0.138-0.749-0.443-1.025
				c-0.25-0.277-0.583-0.416-0.942-0.416v0.166c0.333,0,0.61,0.138,0.831,0.36c0.25,0.249,0.388,0.582,0.388,0.915
				c0,0.36-0.139,0.665-0.388,0.915c-0.221,0.25-0.499,0.389-0.831,0.389V12.67z M75.453,10.536v0.554h0.194h0.222v0.222
				c-0.083-0.027-0.167-0.056-0.277-0.056h-0.139v0.693h-0.194V10.37h0.61v0.166h-0.112H75.453z M75.869,9.761h-0.083
				c-0.388,0-0.748,0.139-1.026,0.416c-0.277,0.276-0.416,0.638-0.416,1.025c0,0.416,0.139,0.748,0.416,1.054
				c0.278,0.276,0.638,0.415,1.026,0.415h0.083v-0.166h-0.083c-0.361,0-0.666-0.111-0.914-0.389c-0.25-0.25-0.389-0.554-0.389-0.915
				c0-0.333,0.138-0.666,0.389-0.915c0.248-0.25,0.553-0.36,0.914-0.36h0.083V9.761z"/>
			<path id="_x31__165_" fill="#444444" d="M66.887,9.927c0.333-0.056,0.499,0.138,0.499,0.499v5.709
				c0.056,0.332,0.278,0.11,0.333,0.027l1.995-2.521c0.195-0.25,0.721-0.306,1.026-0.306h4.186h0.139
				c0.083,0,0.111,0.083,0.027,0.195l-0.554,0.748c-0.027,0.055-0.083,0.138-0.333,0.138h-0.222
				c-0.194,0.028-0.221,0.084-0.305,0.139l-2.217,2.466c-0.471,0.556-0.36,0.804,0.056,1.193l3.049,3.13
				c0.665,0.471,1.274,0.499,1.995,0.526c0.166,0.028,0.139,0.166,0.056,0.249l-0.776,0.888c-0.083,0.139-0.416,0.194-0.609,0.194
				h-3.022c-0.388,0-1.081-0.111-1.635-0.473c-1.082-0.886-1.774-2.022-2.855-3.02c-0.167-0.193-0.333-0.11-0.333,0.056v1.302
				c0,0.582,0.25,0.749,1.109,0.776c0.333,0.027,0.25,0.193,0.167,0.389l-0.277,0.749c-0.083,0.166-0.194,0.222-0.361,0.222h-6.237
				c-0.193,0-0.333-0.056-0.277-0.166l0.333-0.917c0.083-0.166,0.138-0.221,0.389-0.221c0.443-0.028,0.609-0.166,0.609-0.832V12.67
				c0-0.305-0.083-0.415-0.277-0.388l-0.804,0.11c-0.221,0.056-0.277-0.138-0.165-0.305l0.47-0.804
				c0.111-0.166,0.278-0.194,0.472-0.222c1.58-0.249,3.188-0.72,4.186-1.08C66.776,9.954,66.832,9.927,66.887,9.927"/>
			<path id="_x31__164_" fill="#444444" d="M46.79,13.308c0.194-0.083,0.443,0.083,0.387,0.499v7.398
				c0.112,0.526,0.278,0.665,0.75,0.72c0,0,0.305,0,0.221,0.222l-0.304,0.777c-0.11,0.249-0.194,0.277-0.472,0.277h-5.792
				c-0.167,0-0.222-0.111-0.167-0.277l0.277-0.721c0.056-0.111,0.083-0.222,0.278-0.25c0.582-0.138,0.609-0.222,0.609-0.997v-4.462
				c0-0.748-0.111-0.692-0.97-0.609c-0.138-0.056-0.138-0.193-0.111-0.249l0.416-0.804c0.139-0.25,0.277-0.25,0.277-0.25
				C43.851,14.471,45.487,14.055,46.79,13.308"/>
			<path id="_x31__163_" fill="#444444" d="M17.876,23.201c1.192,0.027,2.578,0,3.854-1.026c1.026-0.665,2.218-3.353,2.662-4.461
				c0.221-0.583,0.277-1.358,0-1.913c-0.777-1.746-1.886-3.686-2.606-4.462c-1.053-0.969-2.023-1.052-3.687-1.052h-0.222v2.551
				l1.996,3.49c0.195,0.415,0.139,0.61,0,0.886l-1.996,3.381V23.201z M17.543,23.201h0.333v-2.606l-0.387,0.638
				c-0.278,0.416-0.417,0.333-0.776,0.361H15.77v-9.311c0-0.251,0.027-0.361,0.25-0.389h0.692c0.25,0,0.61-0.055,0.804,0.333
				l0.36,0.61v-2.551h-6.764c-0.305,0-0.638,0.083-0.748,0.277l-0.499,0.942c-0.083,0.388,0.388,0.416,0.388,0.416h0.692
				c0.195,0,0.25,0.167,0.25,0.305V20.9c0,0.388-0.444,0.637-0.804,0.72c-0.139,0.027-0.389,0.083-0.5,0.249l-0.499,0.999
				c-0.083,0.194,0.056,0.333,0.222,0.333C12.388,23.201,14.772,23.229,17.543,23.201"/>
			<path id="_x31__162_" fill="#444444" d="M37.502,10.37c0.305,0,0.417,0.194,0.36,0.305l-0.637,1.136c0,0-0.083,0.221-0.61,0.221
				H36.56c-0.36,0-0.637,0-0.665,0.722v8.23c0,0.36,0.139,0.637,0.583,0.665h0.832c1.386-0.027,1.358-1.439,1.663-2.687
				c0.084-0.194,0.139-0.333,0.361-0.444l1.247-0.416c0.139,0,0.305,0,0.333,0.251v4.155c0.056,0.39-0.304,0.75-0.776,0.694H29.603
				c-0.389,0-0.472-0.111-0.389-0.36l0.389-0.86c0,0,0.111-0.222,0.471-0.222c0.776-0.027,1.275-0.056,1.248-1.248V12.81
				c0-0.5-0.112-0.806-0.61-0.806h-0.61c-0.387,0-0.609-0.138-0.499-0.36l0.527-0.998c0.138-0.249,0.25-0.277,0.443-0.277H37.502z"
				/>
		</g>
	</g>
	<g id="_x31__108_">
		<g id="_x31__152_">
			<g id="_x31__157_">
				<g id="_x31__161_">
					<path fill="#888888" d="M594.273,43.688v13.897h-22.296V43.688h7.098h8.099H594.273 M595.273,42.688h-8.1h-8.099h-8.098v15.897
						h24.296V42.688L595.273,42.688z"/>
				</g>
				<g id="_x31__158_">
					<path fill="#888888" d="M596.155,41.816v17.639h-26.059V41.816H596.155 M597.155,40.816h-28.059v19.639h28.059V40.816
						L597.155,40.816z"/>
				</g>
				<text transform="matrix(1.0005 0 0 1 578.6182 69.248)" fill="#444444" font-family="'Arial'" font-size="7.4798">20</text>
			</g>
			<g id="_x31__153_">
				<g id="_x31__154_">
					<g id="_x31__156_">
						<path fill="#888888" d="M594.273,18.444v13.897h-22.296V18.444h7.098h8.099H594.273 M595.273,17.444h-8.1h-8.099h-8.098
							v15.897h24.296V17.444L595.273,17.444z"/>
					</g>
					<g id="_x31__155_">
						<path fill="#888888" d="M596.155,16.573v17.638h-26.059V16.573H596.155 M597.155,15.573h-28.059v19.638h28.059V15.573
							L597.155,15.573z"/>
					</g>
				</g>
				<text transform="matrix(1.0005 0 0 1 578.6182 11.6216)" fill="#444444" font-family="'Arial'" font-size="7.4798">19</text>
			</g>
		</g>
		<g id="_x31__144_">
			<g id="_x31__149_">
				<g id="_x31__151_">
					<path fill="#888888" d="M563.571,43.688v13.897h-22.297V43.688h7.098h8.1H563.571 M564.571,42.688h-8.1h-8.1h-8.098v15.897
						h24.297V42.688L564.571,42.688z"/>
				</g>
				<g id="_x31__150_">
					<path fill="#888888" d="M565.452,41.816v17.639h-26.059V41.816H565.452 M566.452,40.816h-28.059v19.639h28.059V40.816
						L566.452,40.816z"/>
				</g>
				<text transform="matrix(1.0005 0 0 1 547.916 69.248)" fill="#444444" font-family="'Arial'" font-size="7.4798">18</text>
			</g>
			<g id="_x31__145_">
				<g id="_x31__146_">
					<g id="_x31__148_">
						<path fill="#888888" d="M563.571,18.444v13.897h-22.297V18.444h7.098h8.1H563.571 M564.571,17.444h-8.1h-8.1h-8.098v15.897
							h24.297V17.444L564.571,17.444z"/>
					</g>
					<g id="_x31__147_">
						<path fill="#888888" d="M565.452,16.573v17.638h-26.059V16.573H565.452 M566.452,15.573h-28.059v19.638h28.059V15.573
							L566.452,15.573z"/>
					</g>
				</g>
				<text transform="matrix(1.0005 0 0 1 547.916 11.6216)" fill="#444444" font-family="'Arial'" font-size="7.4798">17</text>
			</g>
		</g>
		<g id="_x31__135_">
			<g id="_x31__142_">
				<g id="_x31__143_">
					<path fill="#888888" d="M532.787,43.688v13.898H510.49V43.688h7.099h8.099H532.787 M533.787,42.688h-8.1h-8.099h-8.099v15.898
						h24.297V42.688L533.787,42.688z"/>
				</g>
				<g id="_x31__141_">
					<path fill="#888888" d="M534.669,41.818v17.638h-26.06V41.818H534.669 M535.669,40.818h-28.06v19.638h28.06V40.818
						L535.669,40.818z"/>
				</g>
				<text transform="matrix(1.0005 0 0 1 517.1309 69.248)" fill="#444444" font-family="'Arial'" font-size="7.4798">16</text>
			</g>
			<g id="_x31__137_">
				<g id="_x31__138_">
					<g id="_x31__140_">
						<path fill="#888888" d="M532.787,18.445v13.897H510.49V18.445h7.099h8.099H532.787 M533.787,17.445h-8.1h-8.099h-8.099v15.897
							h24.297V17.445L533.787,17.445z"/>
					</g>
					<g id="_x31__139_">
						<path fill="#888888" d="M534.669,16.574v17.638h-26.06V16.574H534.669 M535.669,15.574h-28.06v19.638h28.06V15.574
							L535.669,15.574z"/>
					</g>
				</g>
				<text transform="matrix(1.0005 0 0 1 517.1309 11.6226)" fill="#444444" font-family="'Arial'" font-size="7.4798">15</text>
			</g>
		</g>
		<g id="_x31__128_">
			<g id="_x31__133_">
				<g id="_x31__136_">
					<path fill="#888888" d="M502.085,43.688v13.898h-22.297V43.688h7.098h8.1H502.085 M503.085,42.688h-8.1h-8.1h-8.098v15.898
						h24.297V42.688L503.085,42.688z"/>
				</g>
				<g id="_x31__134_">
					<path fill="#888888" d="M503.966,41.818v17.638h-26.06V41.818H503.966 M504.966,40.818h-28.06v19.638h28.06V40.818
						L504.966,40.818z"/>
				</g>
				<text transform="matrix(1.0005 0 0 1 486.4287 69.248)" fill="#444444" font-family="'Arial'" font-size="7.4798">14</text>
			</g>
			<g id="_x31__129_">
				<g id="_x31__130_">
					<g id="_x31__132_">
						<path fill="#888888" d="M502.085,18.445v13.897h-22.297V18.445h7.098h8.1H502.085 M503.085,17.445h-8.1h-8.1h-8.098v15.897
							h24.297V17.445L503.085,17.445z"/>
					</g>
					<g id="_x31__131_">
						<path fill="#888888" d="M503.966,16.574v17.638h-26.06V16.574H503.966 M504.966,15.574h-28.06v19.638h28.06V15.574
							L504.966,15.574z"/>
					</g>
				</g>
				<text transform="matrix(1.0005 0 0 1 486.4287 11.6226)" fill="#444444" font-family="'Arial'" font-size="7.4798">13</text>
			</g>
		</g>
		<g id="_x31__109_">
			<g id="_x31__119_">
				<g id="_x31__120_">
					<g id="_x31__124_">
						<g id="_x31__127_">
							<path fill="#888888" d="M624.976,43.688v13.897h-22.295V43.688h7.098h8.099H624.976 M625.976,42.688h-8.099h-8.099h-8.098
								v15.897h24.295V42.688L625.976,42.688z"/>
						</g>
						<g id="_x31__125_">
							<path fill="#888888" d="M626.857,41.816v17.639H600.8V41.816H626.857 M627.857,40.816H599.8v19.639h28.058V40.816
								L627.857,40.816z"/>
						</g>
						<text transform="matrix(1.0005 0 0 1 609.3213 69.248)" fill="#444444" font-family="'Arial'" font-size="7.4798">22</text>
					</g>
					<g id="_x31__122_">
						<g id="_x31__121_">
							<g id="_x31__126_">
								<path fill="#888888" d="M624.976,18.444v13.897h-22.295V18.444h7.098h8.099H624.976 M625.976,17.444h-8.099h-8.099h-8.098
									v15.897h24.295V17.444L625.976,17.444z"/>
							</g>
							<g id="_x31__123_">
								<path fill="#888888" d="M626.857,16.573v17.638H600.8V16.573H626.857 M627.857,15.573H599.8v19.638h28.058V15.573
									L627.857,15.573z"/>
							</g>
						</g>
						<text transform="matrix(1.0005 0 0 1 609.3213 11.6216)" fill="#444444" font-family="'Arial'" font-size="7.4798">21</text>
					</g>
				</g>
			</g>
			<g id="_x31__110_">
				<g id="_x31__111_">
					<g id="_x31__116_">
						<g id="_x31__118_">
							<path fill="#888888" d="M655.733,43.688v13.897h-22.297V43.688h7.1h8.098H655.733 M656.733,42.688h-8.1h-8.098h-8.1v15.897
								h24.297V42.688L656.733,42.688z"/>
						</g>
						<g id="_x31__117_">
							<path fill="#888888" d="M657.614,41.816v17.639h-26.059V41.816H657.614 M658.614,40.816h-28.059v19.639h28.059V40.816
								L658.614,40.816z"/>
						</g>
						<text transform="matrix(1.0005 0 0 1 640.0801 69.248)" fill="#444444" font-family="'Arial'" font-size="7.4798">24</text>
					</g>
					<g id="_x31__112_">
						<g id="_x31__113_">
							<g id="_x31__115_">
								<path fill="#888888" d="M655.733,18.444v13.897h-22.297V18.444h7.1h8.098H655.733 M656.733,17.444h-8.1h-8.098h-8.1v15.897
									h24.297V17.444L656.733,17.444z"/>
							</g>
							<g id="_x31__114_">
								<path fill="#888888" d="M657.614,16.573v17.638h-26.059V16.573H657.614 M658.614,15.573h-28.059v19.638h28.059V15.573
									L658.614,15.573z"/>
							</g>
						</g>
						<text transform="matrix(1.0005 0 0 1 640.0801 11.6216)" fill="#444444" font-family="'Arial'" font-size="7.4798">23</text>
					</g>
				</g>
			</g>
		</g>
	</g>
	<g id="_x31__95_">
		<g id="_x31__107_">
			<path fill="#888888" d="M270.473,16.526v42.882h-48.666V16.526H270.473 M271.473,15.526h-50.666v44.882h50.666V15.526
				L271.473,15.526z"/>
		</g>
		
			<rect id="_x31__106_" x="223.853" y="4.723" fill-rule="evenodd" clip-rule="evenodd" fill="#FFF000" width="20.576" height="8.527"/>
		
			<rect id="_x31__105_" x="247.81" y="4.723" fill-rule="evenodd" clip-rule="evenodd" fill="#FFF000" width="20.576" height="8.527"/>
		
			<rect id="_x31__104_" x="223.88" y="62.4" fill-rule="evenodd" clip-rule="evenodd" fill="#FFF000" width="20.576" height="8.527"/>
		
			<rect id="_x31__103_" x="247.837" y="62.4" fill-rule="evenodd" clip-rule="evenodd" fill="#FFF000" width="20.576" height="8.527"/>
		<g id="_x31__97_">
			<g id="_x31__100_">
				<g id="_x31__102_">
					<path fill="#888888" d="M262.703,19.278v1.806v1h1h3.677v11.091h-18.577V22.084h3.677h1v-1v-1.806H262.703 M263.703,18.278
						h-11.224v2.806h-4.677v13.091h20.577V21.084h-4.677V18.278L263.703,18.278z"/>
				</g>
				<g id="_x31__101_">
					<path fill="#888888" d="M267.429,42.601v11.09h-3.676h-1v1v1.806h-9.225V54.69v-1h-1h-3.676v-11.09H267.429 M268.429,41.601
						h-20.576v13.09h4.676v2.806h11.225V54.69h4.676V41.601L268.429,41.601z"/>
				</g>
				<text transform="matrix(1.0005 0 0 1 253.4229 11.6567)" fill="#444444" font-family="'Arial'" font-size="7.4798">7T</text>
				<text transform="matrix(1.0005 0 0 1 253.3721 69.2832)" fill="#444444" font-family="'Arial'" font-size="7.4798">8T</text>
			</g>
			<g id="_x31__96_">
				<g id="_x31__99_">
					<path fill="#888888" d="M238.747,19.278v1.806v1h1h3.676v11.091h-18.576V22.084h3.677h1v-1v-1.806H238.747 M239.747,18.278
						h-11.224v2.806h-4.677v13.091h20.576V21.084h-4.676V18.278L239.747,18.278z"/>
				</g>
				<g id="_x31__98_">
					<path fill="#888888" d="M243.472,42.601v11.09h-3.676h-1v1v1.806h-9.223V54.69v-1h-1h-3.678v-11.09H243.472 M244.472,41.601
						h-20.576v13.09h4.678v2.806h11.223V54.69h4.676V41.601L244.472,41.601z"/>
				</g>
				<text transform="matrix(1.0005 0 0 1 229.4668 11.6567)" fill="#444444" font-family="'Arial'" font-size="7.4798">5T</text>
				<text transform="matrix(1.0005 0 0 1 229.415 69.2832)" fill="#444444" font-family="'Arial'" font-size="7.4798">6T</text>
			</g>
		</g>
	</g>
	<g id="_x31__71_">
		<g id="_x31__84_">
			
				<rect id="_x31__94_" x="156.282" y="4.723" fill-rule="evenodd" clip-rule="evenodd" fill="#FFF000" width="20.627" height="8.527"/>
			
				<rect id="_x31__93_" x="156.318" y="62.4" fill-rule="evenodd" clip-rule="evenodd" fill="#FFF000" width="20.625" height="8.527"/>
			<g id="_x31__85_">
				<g id="_x31__90_">
					<g id="_x31__92_">
						<path fill="#888888" d="M177.731,43.633V57.53h-22.296V43.633h7.099h8.098H177.731 M178.731,42.633h-8.1h-8.098h-8.099V58.53
							h24.296V42.633L178.731,42.633z"/>
					</g>
					<g id="_x31__91_">
						<path fill="#888888" d="M179.612,41.762V59.4h-26.058V41.762H179.612 M180.612,40.762h-28.058V60.4h28.058V40.762
							L180.612,40.762z"/>
					</g>
					<text transform="matrix(1.0005 0 0 1 161.8716 69.1934)" fill="#444444" font-family="'Arial'" font-size="7.4798">2F</text>
				</g>
				<g id="_x31__86_">
					<g id="_x31__87_">
						<g id="_x31__89_">
							<path fill="#888888" d="M177.731,18.39v13.897h-22.296V18.39h7.099h8.098H177.731 M178.731,17.39h-8.1h-8.098h-8.099v15.897
								h24.296V17.39L178.731,17.39z"/>
						</g>
						<g id="_x31__88_">
							<path fill="#888888" d="M179.612,16.519v17.638h-26.058V16.519H179.612 M180.612,15.519h-28.058v19.638h28.058V15.519
								L180.612,15.519z"/>
						</g>
					</g>
					<text transform="matrix(1.0005 0 0 1 161.8716 11.5669)" fill="#444444" font-family="'Arial'" font-size="7.4798">1F</text>
				</g>
			</g>
		</g>
		<g id="_x31__73_">
			
				<rect id="_x31__83_" x="186.988" y="4.714" fill-rule="evenodd" clip-rule="evenodd" fill="#FFF000" width="20.626" height="8.527"/>
			
				<rect id="_x31__82_" x="187.024" y="62.392" fill-rule="evenodd" clip-rule="evenodd" fill="#FFF000" width="20.625" height="8.526"/>
			<g id="_x31__74_">
				<g id="_x31__79_">
					<g id="_x31__81_">
						<path fill="#888888" d="M208.488,43.633V57.53h-22.296V43.633h7.099h8.099H208.488 M209.488,42.633h-8.099h-8.099h-8.099
							V58.53h24.296V42.633L209.488,42.633z"/>
					</g>
					<g id="_x31__80_">
						<path fill="#888888" d="M210.37,41.762V59.4h-26.059V41.762H210.37 M211.37,40.762h-28.059V60.4h28.059V40.762L211.37,40.762z
							"/>
					</g>
					<text transform="matrix(1.0005 0 0 1 192.6309 69.1934)" fill="#444444" font-family="'Arial'" font-size="7.4798">4F</text>
				</g>
				<g id="_x31__75_">
					<g id="_x31__76_">
						<g id="_x31__78_">
							<path fill="#888888" d="M208.488,18.39v13.897h-22.296V18.39h7.099h8.099H208.488 M209.488,17.39h-8.099h-8.099h-8.099
								v15.897h24.296V17.39L209.488,17.39z"/>
						</g>
						<g id="_x31__77_">
							<path fill="#888888" d="M210.37,16.519v17.638h-26.059V16.519H210.37 M211.37,15.519h-28.059v19.638h28.059V15.519
								L211.37,15.519z"/>
						</g>
					</g>
					<text transform="matrix(1.0005 0 0 1 192.6309 11.5669)" fill="#444444" font-family="'Arial'" font-size="7.4798">3F</text>
				</g>
			</g>
		</g>
	</g>
	<g id="_x31__49_">
		<g id="_x31__61_">
			
				<rect id="_x31__72_" x="284.489" y="4.75" fill-rule="evenodd" clip-rule="evenodd" fill="#FFF000" width="20.625" height="8.528"/>
			
				<rect id="_x31__70_" x="284.524" y="62.428" fill-rule="evenodd" clip-rule="evenodd" fill="#FFF000" width="20.625" height="8.527"/>
			<g id="_x31__62_">
				<g id="_x31__66_">
					<g id="_x31__69_">
						<path fill="#888888" d="M305.937,43.658v13.898h-22.295V43.658h7.099h8.099H305.937 M306.937,42.658h-8.098h-8.099h-8.099
							v15.898h24.295V42.658L306.937,42.658z"/>
					</g>
					<g id="_x31__68_">
						<path fill="#888888" d="M307.819,41.789v17.638h-26.059V41.789H307.819 M308.819,40.789h-28.059v19.638h28.059V40.789
							L308.819,40.789z"/>
					</g>
					<text transform="matrix(1.0005 0 0 1 290.0771 69.2188)" fill="#444444" font-family="'Arial'" font-size="7.4798">6F</text>
				</g>
				<g id="_x31__63_">
					<g id="_x31__64_">
						<g id="_x31__67_">
							<path fill="#888888" d="M305.937,18.416v13.897h-22.295V18.416h7.099h8.099H305.937 M306.937,17.416h-8.098h-8.099h-8.099
								v15.897h24.295V17.416L306.937,17.416z"/>
						</g>
						<g id="_x31__65_">
							<path fill="#888888" d="M307.819,16.545v17.638h-26.059V16.545H307.819 M308.819,15.545h-28.059v19.638h28.059V15.545
								L308.819,15.545z"/>
						</g>
					</g>
					<text transform="matrix(1.0005 0 0 1 290.0771 11.5933)" fill="#444444" font-family="'Arial'" font-size="7.4798">5F</text>
				</g>
			</g>
		</g>
		<g id="_x31__50_">
			
				<rect id="_x31__60_" x="315.194" y="4.741" fill-rule="evenodd" clip-rule="evenodd" fill="#FFF000" width="20.626" height="8.527"/>
			
				<rect id="_x31__59_" x="315.229" y="62.418" fill-rule="evenodd" clip-rule="evenodd" fill="#FFF000" width="20.625" height="8.527"/>
			<g id="_x31__51_">
				<g id="_x31__56_">
					<g id="_x31__58_">
						<path fill="#888888" d="M336.694,43.658v13.898h-22.296V43.658h7.099h8.099H336.694 M337.694,42.658h-8.099h-8.099h-8.099
							v15.898h24.296V42.658L337.694,42.658z"/>
					</g>
					<g id="_x31__57_">
						<path fill="#888888" d="M338.576,41.789v17.638h-26.059V41.789H338.576 M339.576,40.789h-28.059v19.638h28.059V40.789
							L339.576,40.789z"/>
					</g>
					<text transform="matrix(1.0005 0 0 1 320.8359 69.2188)" fill="#444444" font-family="'Arial'" font-size="7.4798">8F</text>
				</g>
				<g id="_x31__52_">
					<g id="_x31__53_">
						<g id="_x31__55_">
							<path fill="#888888" d="M336.694,18.416v13.897h-22.296V18.416h7.099h8.099H336.694 M337.694,17.416h-8.099h-8.099h-8.099
								v15.897h24.296V17.416L337.694,17.416z"/>
						</g>
						<g id="_x31__54_">
							<path fill="#888888" d="M338.576,16.545v17.638h-26.059V16.545H338.576 M339.576,15.545h-28.059v19.638h28.059V15.545
								L339.576,15.545z"/>
						</g>
					</g>
					<text transform="matrix(1.0005 0 0 1 320.8359 11.5933)" fill="#444444" font-family="'Arial'" font-size="7.4798">7F</text>
				</g>
			</g>
		</g>
	</g>
	<g id="_x31__35_">
		<g id="_x31__47_">
			<path fill="#888888" d="M398.522,16.556v42.881h-48.666V16.556H398.522 M399.522,15.556h-50.666v44.881h50.666V15.556
				L399.522,15.556z"/>
		</g>
		
			<rect id="_x31__48_" x="351.902" y="4.751" fill-rule="evenodd" clip-rule="evenodd" fill="#FFF000" width="20.577" height="8.527"/>
		
			<rect id="_x31__46_" x="375.858" y="4.751" fill-rule="evenodd" clip-rule="evenodd" fill="#FFF000" width="20.577" height="8.527"/>
		
			<rect id="_x31__45_" x="351.93" y="62.429" fill-rule="evenodd" clip-rule="evenodd" fill="#FFF000" width="20.577" height="8.528"/>
		
			<rect id="_x31__44_" x="375.886" y="62.429" fill-rule="evenodd" clip-rule="evenodd" fill="#FFF000" width="20.577" height="8.528"/>
		<g id="_x31__37_">
			<g id="_x31__41_">
				<g id="_x31__43_">
					<path fill="#888888" d="M390.753,19.306v1.806v1h1h3.676v11.091h-18.576V22.112h3.676h1v-1v-1.806H390.753 M391.753,18.306
						h-11.225v2.806h-4.676v13.091h20.576V21.112h-4.676V18.306L391.753,18.306z"/>
				</g>
				<g id="_x31__42_">
					<path fill="#888888" d="M395.479,42.63v11.089h-3.677h-1v1v1.805h-9.224v-1.805v-1h-1h-3.677V42.63H395.479 M396.479,41.63
						h-20.577v13.089h4.677v2.805h11.224v-2.805h4.677V41.63L396.479,41.63z"/>
				</g>
				<text transform="matrix(1.0005 0 0 1 379.0176 11.6851)" fill="#444444" font-family="'Arial'" font-size="7.4798">11T</text>
				<text transform="matrix(1.0005 0 0 1 378.9668 69.3125)" fill="#444444" font-family="'Arial'" font-size="7.4798">12T</text>
			</g>
			<g id="_x31__38_">
				<g id="_x31__40_">
					<path fill="#888888" d="M366.797,19.306v1.806v1h1h3.676v11.091h-18.577V22.112h3.678h1v-1v-1.806H366.797 M367.797,18.306
						h-11.224v2.806h-4.678v13.091h20.577V21.112h-4.676V18.306L367.797,18.306z"/>
				</g>
				<g id="_x31__39_">
					<path fill="#888888" d="M371.522,42.63v11.089h-3.676h-1v1v1.805h-9.225v-1.805v-1h-1h-3.677V42.63H371.522 M372.522,41.63
						h-20.577v13.089h4.677v2.805h11.225v-2.805h4.676V41.63L372.522,41.63z"/>
				</g>
				<text transform="matrix(1.0005 0 0 1 357.5166 11.6851)" fill="#444444" font-family="'Arial'" font-size="7.4798">9T</text>
				<text transform="matrix(1.0005 0 0 1 355.0098 69.3125)" fill="#444444" font-family="'Arial'" font-size="7.4798">10T</text>
			</g>
		</g>
	</g>
	<g id="_x31__13_">
		<g id="_x31__25_">
			
				<rect id="_x31__36_" x="412.538" y="4.778" fill-rule="evenodd" clip-rule="evenodd" fill="#FFF000" width="20.626" height="8.527"/>
			
				<rect id="_x31__34_" x="412.574" y="62.455" fill-rule="evenodd" clip-rule="evenodd" fill="#FFF000" width="20.625" height="8.527"/>
			<g id="_x31__26_">
				<g id="_x31__31_">
					<g id="_x31__33_">
						<path fill="#888888" d="M433.987,43.688v13.897h-22.296V43.688h7.099h8.098H433.987 M434.987,42.688h-8.1h-8.098h-8.099
							v15.897h24.296V42.688L434.987,42.688z"/>
					</g>
					<g id="_x31__32_">
						<path fill="#888888" d="M435.868,41.816v17.639H409.81V41.816H435.868 M436.868,40.816H408.81v19.639h28.059V40.816
							L436.868,40.816z"/>
					</g>
					<text transform="matrix(1.0005 0 0 1 415.6719 69.248)" fill="#444444" font-family="'Arial'" font-size="7.4798">10F</text>
				</g>
				<g id="_x31__27_">
					<g id="_x31__28_">
						<g id="_x31__29_">
							<path fill="#888888" d="M433.987,18.444v13.897h-22.296V18.444h7.099h8.098H433.987 M434.987,17.444h-8.1h-8.098h-8.099
								v15.897h24.296V17.444L434.987,17.444z"/>
						</g>
						<g id="_x31__30_">
							<path fill="#888888" d="M435.868,16.573v17.638H409.81V16.573H435.868 M436.868,15.573H408.81v19.638h28.059V15.573
								L436.868,15.573z"/>
						</g>
					</g>
					<text transform="matrix(1.0005 0 0 1 418.127 11.6216)" fill="#444444" font-family="'Arial'" font-size="7.4798">9F</text>
				</g>
			</g>
		</g>
		<g id="_x31__14_">
			
				<rect id="_x31__24_" x="443.244" y="4.769" fill-rule="evenodd" clip-rule="evenodd" fill="#FFF000" width="20.626" height="8.527"/>
			
				<rect id="_x31__23_" x="443.28" y="62.446" fill-rule="evenodd" clip-rule="evenodd" fill="#FFF000" width="20.625" height="8.526"/>
			<g id="_x31__15_">
				<g id="_x31__20_">
					<g id="_x31__22_">
						<path fill="#888888" d="M464.743,43.688v13.897h-22.295V43.688h7.099h8.099H464.743 M465.743,42.688h-8.098h-8.099h-8.099
							v15.897h24.295V42.688L465.743,42.688z"/>
					</g>
					<g id="_x31__21_">
						<path fill="#888888" d="M466.626,41.816v17.639h-26.059V41.816H466.626 M467.626,40.816h-28.059v19.639h28.059V40.816
							L467.626,40.816z"/>
					</g>
					<text transform="matrix(1.0005 0 0 1 446.4316 69.248)" fill="#444444" font-family="'Arial'" font-size="7.4798">12F</text>
				</g>
				<g id="_x31__16_">
					<g id="_x31__17_">
						<g id="_x31__19_">
							<path fill="#888888" d="M464.743,18.444v13.897h-22.295V18.444h7.099h8.099H464.743 M465.743,17.444h-8.098h-8.099h-8.099
								v15.897h24.295V17.444L465.743,17.444z"/>
						</g>
						<g id="_x31__18_">
							<path fill="#888888" d="M466.626,16.573v17.638h-26.059V16.573H466.626 M467.626,15.573h-28.059v19.638h28.059V15.573
								L467.626,15.573z"/>
						</g>
					</g>
					<text transform="matrix(1.0005 0 0 1 446.4316 11.6216)" fill="#444444" font-family="'Arial'" font-size="7.4798">11F</text>
				</g>
			</g>
		</g>
	</g>
	<g id="_x31__2_">
		<g id="_x31__8_">
			<g id="_x31__9_">
				<g id="_x31__10_">
					<g id="_x31__11_">
						<path fill="#888888" d="M699.704,43.699v13.897h-22.295V43.699h7.098h8.099H699.704 M700.704,42.699h-8.099h-8.099h-8.098
							v15.897h24.295V42.699L700.704,42.699z"/>
					</g>
					<g id="_x31__12_">
						<path fill="#888888" d="M701.586,41.828v17.639h-26.059V41.828H701.586 M702.586,40.828h-28.059v19.639h28.059V40.828
							L702.586,40.828z"/>
					</g>
					<text transform="matrix(1.0005 0 0 1 684.0479 69.2598)" fill="#444444" font-family="'Arial'" font-size="7.4798">25</text>
				</g>
			</g>
		</g>
		<g id="_x31__3_">
			<g id="_x31__4_">
				<g id="_x31__5_">
					<g id="_x31__7_">
						<path fill="#888888" d="M741.864,43.699v13.897h-22.296V43.699h7.099h8.098H741.864 M742.864,42.699h-8.1h-8.098h-8.099
							v15.897h24.296V42.699L742.864,42.699z"/>
					</g>
					<g id="_x31__6_">
						<path fill="#888888" d="M743.745,41.828v17.639h-26.058V41.828H743.745 M744.745,40.828h-28.058v19.639h28.058V40.828
							L744.745,40.828z"/>
					</g>
					<text transform="matrix(1.0005 0 0 1 726.209 69.2598)" fill="#444444" font-family="'Arial'" font-size="7.4798">26</text>
				</g>
			</g>
		</g>
	</g>
</g>
</svg>
