<svg version="1.1" id="_x31_" xmlns="http://www.w3.org/2000/svg" xmlns:xlink="http://www.w3.org/1999/xlink" x="0px" y="0px"
	 width="760px" height="77px" viewBox="0 0 760 77" enable-background="new 0 0 760 77" xml:space="preserve">
<g id="_x31__1_">
	<g id="_x31__7_">
		<g id="_x31__134_">
			<g id="_x31__138_">
				<g id="_x31__140_">
					<path fill="#888888" d="M402.423,45.088v12.711h-20.52V45.088h6.506h7.508H402.423 M403.423,44.088h-7.506h-7.508h-7.506
						v14.711h22.52V44.088L403.423,44.088z"/>
				</g>
				<g id="_x31__139_">
					<path fill="#888888" d="M404.167,43.355v16.174h-24.008V43.355H404.167 M405.167,42.355h-26.008v18.174h26.008V42.355
						L405.167,42.355z"/>
				</g>
				<text transform="matrix(1.0017 0 0 1 387.8438 68.6875)" fill="#444444" font-family="'Arial'" font-size="6.9232">26</text>
			</g>
			<g id="_x31__135_">
				<g id="_x31__137_">
					<path fill="#888888" d="M402.423,21.728v12.712h-20.52V21.728h6.506h7.508H402.423 M403.423,20.728h-7.506h-7.508h-7.506
						v14.712h22.52V20.728L403.423,20.728z"/>
				</g>
				<g id="_x31__136_">
					<path fill="#888888" d="M404.167,19.996v16.175h-24.008V19.996H404.167 M405.167,18.996h-26.008v18.175h26.008V18.996
						L405.167,18.996z"/>
				</g>
				<text transform="matrix(1.0017 0 0 1 387.8906 15.3506)" fill="#444444" font-family="'Arial'" font-size="6.9232">25</text>
			</g>
		</g>
		<g id="_x31__126_">
			<g id="_x31__131_">
				<g id="_x31__133_">
					<path fill="#888888" d="M462.803,45.092v12.713h-20.52V45.092h6.506h7.508H462.803 M463.803,44.092h-7.506h-7.508h-7.506
						v14.713h22.52V44.092L463.803,44.092z"/>
				</g>
				<g id="_x31__132_">
					<path fill="#888888" d="M464.547,43.359v16.176h-24.008V43.359H464.547 M465.547,42.359h-26.008v18.176h26.008V42.359
						L465.547,42.359z"/>
				</g>
				<text transform="matrix(1.0017 0 0 1 448.2227 68.6924)" fill="#444444" font-family="'Arial'" font-size="6.9232">30</text>
			</g>
			<g id="_x31__128_">
				<g id="_x31__130_">
					<path fill="#888888" d="M462.803,21.731v12.712h-20.52V21.731h6.506h7.508H462.803 M463.803,20.731h-7.506h-7.508h-7.506
						v14.712h22.52V20.731L463.803,20.731z"/>
				</g>
				<g id="_x31__129_">
					<path fill="#888888" d="M464.547,20v16.175h-24.008V20H464.547 M465.547,19h-26.008v18.175h26.008V19L465.547,19z"/>
				</g>
				<text transform="matrix(1.0017 0 0 1 448.2695 15.3545)" fill="#444444" font-family="'Arial'" font-size="6.9232">29</text>
			</g>
		</g>
		<g id="_x31__119_">
			<g id="_x31__124_">
				<g id="_x31__127_">
					<path fill="#888888" d="M492.986,45.092v12.713h-20.52V45.092h6.506h7.508H492.986 M493.986,44.092h-7.506h-7.508h-7.506
						v14.713h22.52V44.092L493.986,44.092z"/>
				</g>
				<g id="_x31__125_">
					<path fill="#888888" d="M494.73,43.359v16.176h-24.008V43.359H494.73 M495.73,42.359h-26.008v18.176h26.008V42.359
						L495.73,42.359z"/>
				</g>
				<text transform="matrix(1.0017 0 0 1 478.4043 68.6924)" fill="#444444" font-family="'Arial'" font-size="6.9232">32</text>
			</g>
			<g id="_x31__121_">
				<g id="_x31__123_">
					<path fill="#888888" d="M492.986,21.731v12.712h-20.52V21.731h6.506h7.508H492.986 M493.986,20.731h-7.506h-7.508h-7.506
						v14.712h22.52V20.731L493.986,20.731z"/>
				</g>
				<g id="_x31__122_">
					<path fill="#888888" d="M494.73,20v16.175h-24.008V20H494.73 M495.73,19h-26.008v18.175h26.008V19L495.73,19z"/>
				</g>
				<text transform="matrix(1.0017 0 0 1 478.4512 15.3545)" fill="#444444" font-family="'Arial'" font-size="6.9232">31</text>
			</g>
		</g>
		<g id="_x31__113_">
			<g id="_x31__117_">
				<g id="_x31__120_">
					<path fill="#888888" d="M432.619,45.09v12.711H412.1V45.09h6.506h7.508H432.619 M433.619,44.09h-7.506h-7.508H411.1v14.711
						h22.52V44.09L433.619,44.09z"/>
				</g>
				<g id="_x31__118_">
					<path fill="#888888" d="M434.363,43.357v16.174h-24.008V43.357H434.363 M435.363,42.357h-26.008v18.174h26.008V42.357
						L435.363,42.357z"/>
				</g>
				<text transform="matrix(1.0017 0 0 1 418.0371 68.6895)" fill="#444444" font-family="'Arial'" font-size="6.9232">28</text>
			</g>
			<g id="_x31__114_">
				<g id="_x31__116_">
					<path fill="#888888" d="M432.619,21.729v12.712H412.1V21.729h6.506h7.508H432.619 M433.619,20.729h-7.506h-7.508H411.1v14.712
						h22.52V20.729L433.619,20.729z"/>
				</g>
				<g id="_x31__115_">
					<path fill="#888888" d="M434.363,19.998v16.174h-24.008V19.998H434.363 M435.363,18.998h-26.008v18.174h26.008V18.998
						L435.363,18.998z"/>
				</g>
				<text transform="matrix(1.0017 0 0 1 418.0859 15.3525)" fill="#444444" font-family="'Arial'" font-size="6.9232">27</text>
			</g>
		</g>
	</g>
	<g id="_x31__6_">
		<g id="_x31__106_">
			<g id="_x31__110_">
				<g id="_x31__112_">
					<path fill="#888888" d="M527.605,45.092v12.713h-20.52V45.092h6.506h7.508H527.605 M528.605,44.092H521.1h-7.508h-7.506v14.713
						h22.52V44.092L528.605,44.092z"/>
				</g>
				<g id="_x31__111_">
					<path fill="#888888" d="M529.349,43.359v16.176h-24.007V43.359H529.349 M530.349,42.359h-26.007v18.176h26.007V42.359
						L530.349,42.359z"/>
				</g>
				<text transform="matrix(1.0017 0 0 1 513.0254 68.6924)" fill="#444444" font-family="'Arial'" font-size="6.9232">34</text>
			</g>
			<g id="_x31__107_">
				<g id="_x31__109_">
					<path fill="#888888" d="M527.605,21.731v12.712h-20.52V21.731h6.506h7.508H527.605 M528.605,20.731H521.1h-7.508h-7.506v14.712
						h22.52V20.731L528.605,20.731z"/>
				</g>
				<g id="_x31__108_">
					<path fill="#888888" d="M529.349,20v16.175h-24.007V20H529.349 M530.349,19h-26.007v18.175h26.007V19L530.349,19z"/>
				</g>
				<text transform="matrix(1.0017 0 0 1 513.0723 15.3545)" fill="#444444" font-family="'Arial'" font-size="6.9232">33</text>
			</g>
		</g>
		<g id="_x31__99_">
			<g id="_x31__103_">
				<g id="_x31__105_">
					<path fill="#888888" d="M587.984,45.096v12.713h-20.519V45.096h6.506h7.507H587.984 M588.984,44.096h-7.506h-7.507h-7.506
						v14.713h22.519V44.096L588.984,44.096z"/>
				</g>
				<g id="_x31__104_">
					<path fill="#888888" d="M589.729,43.365v16.174h-24.007V43.365H589.729 M590.729,42.365h-26.007v18.174h26.007V42.365
						L590.729,42.365z"/>
				</g>
				<text transform="matrix(1.0017 0 0 1 573.4043 68.6963)" fill="#444444" font-family="'Arial'" font-size="6.9232">38</text>
			</g>
			<g id="_x31__100_">
				<g id="_x31__102_">
					<path fill="#888888" d="M587.984,21.735v12.712h-20.519V21.735h6.506h7.507H587.984 M588.984,20.735h-7.506h-7.507h-7.506
						v14.712h22.519V20.735L588.984,20.735z"/>
				</g>
				<g id="_x31__101_">
					<path fill="#888888" d="M589.729,20.005v16.174h-24.007V20.005H589.729 M590.729,19.005h-26.007v18.174h26.007V19.005
						L590.729,19.005z"/>
				</g>
				<text transform="matrix(1.0017 0 0 1 573.4512 15.3594)" fill="#444444" font-family="'Arial'" font-size="6.9232">37</text>
			</g>
		</g>
		<g id="_x31__92_">
			<g id="_x31__96_">
				<g id="_x31__98_">
					<path fill="#888888" d="M618.168,45.096v12.713h-20.519V45.096h6.506h7.507H618.168 M619.168,44.096h-7.506h-7.507h-7.506
						v14.713h22.519V44.096L619.168,44.096z"/>
				</g>
				<g id="_x31__97_">
					<path fill="#888888" d="M619.912,43.365v16.174h-24.007V43.365H619.912 M620.912,42.365h-26.007v18.174h26.007V42.365
						L620.912,42.365z"/>
				</g>
				<text transform="matrix(1.0017 0 0 1 603.5859 68.6963)" fill="#444444" font-family="'Arial'" font-size="6.9232">40</text>
			</g>
			<g id="_x31__93_">
				<g id="_x31__95_">
					<path fill="#888888" d="M618.168,21.735v12.712h-20.519V21.735h6.506h7.507H618.168 M619.168,20.735h-7.506h-7.507h-7.506
						v14.712h22.519V20.735L619.168,20.735z"/>
				</g>
				<g id="_x31__94_">
					<path fill="#888888" d="M619.912,20.005v16.174h-24.007V20.005H619.912 M620.912,19.005h-26.007v18.174h26.007V19.005
						L620.912,19.005z"/>
				</g>
				<text transform="matrix(1.0017 0 0 1 603.6348 15.3594)" fill="#444444" font-family="'Arial'" font-size="6.9232">39</text>
			</g>
		</g>
		<g id="_x31__85_">
			<g id="_x31__89_">
				<g id="_x31__91_">
					<path fill="#888888" d="M557.801,45.094v12.711h-20.519V45.094h6.506h7.507H557.801 M558.801,44.094h-7.506h-7.507h-7.506
						v14.711h22.519V44.094L558.801,44.094z"/>
				</g>
				<g id="_x31__90_">
					<path fill="#888888" d="M559.545,43.361v16.174h-24.007V43.361H559.545 M560.545,42.361h-26.007v18.174h26.007V42.361
						L560.545,42.361z"/>
				</g>
				<text transform="matrix(1.0017 0 0 1 543.2207 68.6934)" fill="#444444" font-family="'Arial'" font-size="6.9232">36</text>
			</g>
			<g id="_x31__86_">
				<g id="_x31__88_">
					<path fill="#888888" d="M557.801,21.733v12.712h-20.519V21.733h6.506h7.507H557.801 M558.801,20.733h-7.506h-7.507h-7.506
						v14.712h22.519V20.733L558.801,20.733z"/>
				</g>
				<g id="_x31__87_">
					<path fill="#888888" d="M559.545,20.002v16.175h-24.007V20.002H559.545 M560.545,19.002h-26.007v18.175h26.007V19.002
						L560.545,19.002z"/>
				</g>
				<text transform="matrix(1.0017 0 0 1 543.2676 15.3564)" fill="#444444" font-family="'Arial'" font-size="6.9232">35</text>
			</g>
		</g>
	</g>
	<g id="_x31__5_">
		<g id="_x31__78_">
			<g id="_x31__82_">
				<g id="_x31__84_">
					<path fill="#888888" d="M652.786,45.092v12.713h-20.519V45.092h6.506h7.507H652.786 M653.786,44.092h-7.506h-7.507h-7.506
						v14.713h22.519V44.092L653.786,44.092z"/>
				</g>
				<g id="_x31__83_">
					<path fill="#888888" d="M654.53,43.359v16.176h-24.007V43.359H654.53 M655.53,42.359h-26.007v18.176h26.007V42.359
						L655.53,42.359z"/>
				</g>
				<text transform="matrix(1.0017 0 0 1 638.207 68.6924)" fill="#444444" font-family="'Arial'" font-size="6.9232">42</text>
			</g>
			<g id="_x31__79_">
				<g id="_x31__81_">
					<path fill="#888888" d="M652.786,21.731v12.712h-20.519V21.731h6.506h7.507H652.786 M653.786,20.731h-7.506h-7.507h-7.506
						v14.712h22.519V20.731L653.786,20.731z"/>
				</g>
				<g id="_x31__80_">
					<path fill="#888888" d="M654.53,20v16.175h-24.007V20H654.53 M655.53,19h-26.007v18.175h26.007V19L655.53,19z"/>
				</g>
				<text transform="matrix(1.0017 0 0 1 638.2559 15.3545)" fill="#444444" font-family="'Arial'" font-size="6.9232">41</text>
			</g>
		</g>
		<g id="_x31__71_">
			<g id="_x31__75_">
				<g id="_x31__77_">
					<path fill="#888888" d="M713.166,45.096v12.713h-20.52V45.096h6.506h7.508H713.166 M714.166,44.096h-7.506h-7.508h-7.506
						v14.713h22.52V44.096L714.166,44.096z"/>
				</g>
				<g id="_x31__76_">
					<path fill="#888888" d="M714.91,43.365v16.174h-24.007V43.365H714.91 M715.91,42.365h-26.007v18.174h26.007V42.365
						L715.91,42.365z"/>
				</g>
				<text transform="matrix(1.0017 0 0 1 698.5859 68.6963)" fill="#444444" font-family="'Arial'" font-size="6.9232">46</text>
			</g>
			<g id="_x31__72_">
				<g id="_x31__74_">
					<path fill="#888888" d="M713.166,21.735v12.712h-20.52V21.735h6.506h7.508H713.166 M714.166,20.735h-7.506h-7.508h-7.506
						v14.712h22.52V20.735L714.166,20.735z"/>
				</g>
				<g id="_x31__73_">
					<path fill="#888888" d="M714.91,20.005v16.174h-24.007V20.005H714.91 M715.91,19.005h-26.007v18.174h26.007V19.005
						L715.91,19.005z"/>
				</g>
				<text transform="matrix(1.0017 0 0 1 698.6348 15.3594)" fill="#444444" font-family="'Arial'" font-size="6.9232">45</text>
			</g>
		</g>
		<g id="_x31__64_">
			<g id="_x31__68_">
				<g id="_x31__70_">
					<path fill="#888888" d="M743.35,45.096v12.713h-20.52V45.096h6.506h7.508H743.35 M744.35,44.096h-7.506h-7.508h-7.506v14.713
						h22.52V44.096L744.35,44.096z"/>
				</g>
				<g id="_x31__69_">
					<path fill="#888888" d="M745.094,43.365v16.174h-24.007V43.365H745.094 M746.094,42.365h-26.007v18.174h26.007V42.365
						L746.094,42.365z"/>
				</g>
				<text transform="matrix(1.0017 0 0 1 728.7695 68.6963)" fill="#444444" font-family="'Arial'" font-size="6.9232">48</text>
			</g>
			<g id="_x31__65_">
				<g id="_x31__67_">
					<path fill="#888888" d="M743.35,21.735v12.712h-20.52V21.735h6.506h7.508H743.35 M744.35,20.735h-7.506h-7.508h-7.506v14.712
						h22.52V20.735L744.35,20.735z"/>
				</g>
				<g id="_x31__66_">
					<path fill="#888888" d="M745.094,20.005v16.174h-24.007V20.005H745.094 M746.094,19.005h-26.007v18.174h26.007V19.005
						L746.094,19.005z"/>
				</g>
				<text transform="matrix(1.0017 0 0 1 728.8164 15.3594)" fill="#444444" font-family="'Arial'" font-size="6.9232">47</text>
			</g>
		</g>
		<g id="_x31__57_">
			<g id="_x31__60_">
				<g id="_x31__63_">
					<path fill="#888888" d="M682.982,45.094v12.711h-20.52V45.094h6.506h7.508H682.982 M683.982,44.094h-7.506h-7.508h-7.506
						v14.711h22.52V44.094L683.982,44.094z"/>
				</g>
				<g id="_x31__62_">
					<path fill="#888888" d="M684.727,43.361v16.174H660.72V43.361H684.727 M685.727,42.361H659.72v18.174h26.007V42.361
						L685.727,42.361z"/>
				</g>
				<text transform="matrix(1.0017 0 0 1 668.4023 68.6934)" fill="#444444" font-family="'Arial'" font-size="6.9232">44</text>
			</g>
			<g id="_x31__58_">
				<g id="_x31__61_">
					<path fill="#888888" d="M682.982,21.733v12.712h-20.52V21.733h6.506h7.508H682.982 M683.982,20.733h-7.506h-7.508h-7.506
						v14.712h22.52V20.733L683.982,20.733z"/>
				</g>
				<g id="_x31__59_">
					<path fill="#888888" d="M684.727,20.002v16.175H660.72V20.002H684.727 M685.727,19.002H659.72v18.175h26.007V19.002
						L685.727,19.002z"/>
				</g>
				<text transform="matrix(1.0017 0 0 1 668.4492 15.3564)" fill="#444444" font-family="'Arial'" font-size="6.9232">43</text>
			</g>
		</g>
	</g>
	<g id="_x31__4_">
		<g id="_x31__56_">
			<path fill="#888888" d="M369.555,20.023v39.533H232.696V20.023H369.555 M370.555,19.023H231.696v41.533h138.858V19.023
				L370.555,19.023z"/>
		</g>
		<g id="_x31__53_">
			<g id="_x31__55_">
				<path fill="#888888" d="M362.426,22.6v1.597v1h1h3.335v10.116h-17.072V25.196h3.335h1v-1V22.6H362.426 M363.426,21.6h-10.402
					v2.597h-4.335v12.116h19.072V24.196h-4.335V21.6L363.426,21.6z"/>
			</g>
			<g id="_x31__54_">
				<path fill="#888888" d="M366.759,44.184v10.113h-3.334h-1v1v1.598h-8.403v-1.598v-1h-1h-3.334V44.184H366.759 M367.759,43.184
					h-19.071v12.113h4.334v2.598h10.403v-2.598h4.334V43.184L367.759,43.184z"/>
			</g>
			<text transform="matrix(1.0017 0 0 1 353.6938 15.4844)" fill="#444444" font-family="'Arial'" font-size="6.9232">23</text>
			<text transform="matrix(1.0017 0 0 1 353.6919 68.8213)" fill="#444444" font-family="'Arial'" font-size="6.9232">24</text>
		</g>
		<g id="_x31__50_">
			<g id="_x31__52_">
				<path fill="#888888" d="M339.584,22.6v1.597v1h1h3.334v10.116h-17.072V25.196h3.335h1v-1V22.6H339.584 M340.584,21.6h-10.403
					v2.597h-4.335v12.116h19.072V24.196h-4.334V21.6L340.584,21.6z"/>
			</g>
			<g id="_x31__51_">
				<path fill="#888888" d="M343.964,44.184v10.113h-3.335h-1v1v1.598h-8.402v-1.598v-1h-1h-3.335V44.184H343.964 M344.964,43.184
					h-19.072v12.113h4.335v2.598h10.402v-2.598h4.335V43.184L344.964,43.184z"/>
			</g>
			<text transform="matrix(1.0017 0 0 1 331.2456 15.4844)" fill="#444444" font-family="'Arial'" font-size="6.9232">21</text>
			<text transform="matrix(1.0017 0 0 1 331.1987 68.8213)" fill="#444444" font-family="'Arial'" font-size="6.9232">22</text>
		</g>
		<g id="_x31__47_">
			<g id="_x31__49_">
				<path fill="#888888" d="M316.763,22.6v1.597v1h1h3.335v10.116h-17.072V25.196h3.334h1v-1V22.6H316.763 M317.763,21.6h-10.403
					v2.597h-4.334v12.116h19.072V24.196h-4.335V21.6L317.763,21.6z"/>
			</g>
			<g id="_x31__48_">
				<path fill="#888888" d="M321.143,44.184v10.113h-3.334h-1v1v1.598h-8.403v-1.598v-1h-1h-3.334V44.184H321.143 M322.143,43.184
					h-19.071v12.113h4.334v2.598h10.403v-2.598h4.334V43.184L322.143,43.184z"/>
			</g>
			<text transform="matrix(1.0017 0 0 1 308.4253 15.4844)" fill="#444444" font-family="'Arial'" font-size="6.9232">19</text>
			<text transform="matrix(1.0017 0 0 1 308.3784 68.8213)" fill="#444444" font-family="'Arial'" font-size="6.9232">20</text>
		</g>
		<g id="_x31__44_">
			<g id="_x31__46_">
				<path fill="#888888" d="M293.942,22.6v1.597v1h1h3.334v10.116h-17.072V25.196h3.335h1v-1V22.6H293.942 M294.942,21.6h-10.403
					v2.597h-4.335v12.116h19.072V24.196h-4.334V21.6L294.942,21.6z"/>
			</g>
			<g id="_x31__45_">
				<path fill="#888888" d="M298.322,44.184v10.113h-3.335h-1v1v1.598h-8.402v-1.598v-1h-1h-3.335V44.184H298.322 M299.322,43.184
					H280.25v12.113h4.335v2.598h10.402v-2.598h4.335V43.184L299.322,43.184z"/>
			</g>
			<text transform="matrix(1.0017 0 0 1 285.606 15.4844)" fill="#444444" font-family="'Arial'" font-size="6.9232">17</text>
			<text transform="matrix(1.0017 0 0 1 285.5581 68.8213)" fill="#444444" font-family="'Arial'" font-size="6.9232">18</text>
		</g>
		<g id="_x31__41_">
			<g id="_x31__43_">
				<path fill="#888888" d="M271.123,22.6v1.597v1h1h3.334v10.116h-17.071V25.196h3.334h1v-1V22.6H271.123 M272.123,21.6H261.72
					v2.597h-4.334v12.116h19.071V24.196h-4.334V21.6L272.123,21.6z"/>
			</g>
			<g id="_x31__42_">
				<path fill="#888888" d="M275.503,44.184v10.113h-3.334h-1v1v1.598h-8.403v-1.598v-1h-1h-3.334V44.184H275.503 M276.503,43.184
					h-19.071v12.113h4.334v2.598h10.403v-2.598h4.334V43.184L276.503,43.184z"/>
			</g>
			<text transform="matrix(1.0017 0 0 1 262.7856 15.4844)" fill="#444444" font-family="'Arial'" font-size="6.9232">15</text>
			<text transform="matrix(1.0017 0 0 1 262.7378 68.8213)" fill="#444444" font-family="'Arial'" font-size="6.9232">16</text>
		</g>
		<g id="_x31__38_">
			<g id="_x31__40_">
				<path fill="#888888" d="M248.302,22.6v1.597v1h1h3.335v10.116h-17.072V25.196h3.335h1v-1V22.6H248.302 M249.302,21.6h-10.402
					v2.597h-4.335v12.116h19.072V24.196h-4.335V21.6L249.302,21.6z"/>
			</g>
			<g id="_x31__39_">
				<path fill="#888888" d="M252.683,44.184v10.113h-3.335h-1v1v1.598h-8.402v-1.598v-1h-1h-3.335V44.184H252.683 M253.683,43.184
					H234.61v12.113h4.335v2.598h10.402v-2.598h4.335V43.184L253.683,43.184z"/>
			</g>
			<text transform="matrix(1.0017 0 0 1 239.9653 15.4844)" fill="#444444" font-family="'Arial'" font-size="6.9232">13</text>
			<text transform="matrix(1.0017 0 0 1 239.9175 68.8213)" fill="#444444" font-family="'Arial'" font-size="6.9232">14</text>
		</g>
	</g>
	<g id="_x31__8_">
		<g id="_x31__37_">
			<path fill="#888888" d="M222.149,20.023v39.533H85.291V20.023H222.149 M223.149,19.023H84.291v41.533h138.858V19.023
				L223.149,19.023z"/>
		</g>
		<g id="_x31__34_">
			<g id="_x31__36_">
				<path fill="#888888" d="M215.022,22.6v1.597v1h1h3.335v10.116h-17.072V25.196h3.334h1v-1V22.6H215.022 M216.022,21.6h-10.403
					v2.597h-4.334v12.116h19.072V24.196h-4.335V21.6L216.022,21.6z"/>
			</g>
			<g id="_x31__35_">
				<path fill="#888888" d="M219.355,44.184v10.113h-3.335h-1v1v1.598h-8.402v-1.598v-1h-1h-3.335V44.184H219.355 M220.355,43.184
					h-19.072v12.113h4.335v2.598h10.402v-2.598h4.335V43.184L220.355,43.184z"/>
			</g>
			<text transform="matrix(1.0017 0 0 1 206.2896 15.4844)" fill="#444444" font-family="'Arial'" font-size="6.9232">11</text>
			<text transform="matrix(1.0017 0 0 1 206.2876 68.8213)" fill="#444444" font-family="'Arial'" font-size="6.9232">12</text>
		</g>
		<g id="_x31__31_">
			<g id="_x31__33_">
				<path fill="#888888" d="M192.178,22.6v1.597v1h1h3.335v10.116H179.44V25.196h3.335h1v-1V22.6H192.178 M193.178,21.6h-10.402
					v2.597h-4.335v12.116h19.072V24.196h-4.335V21.6L193.178,21.6z"/>
			</g>
			<g id="_x31__32_">
				<path fill="#888888" d="M196.559,44.184v10.113h-3.335h-1v1v1.598h-8.402v-1.598v-1h-1h-3.335V44.184H196.559 M197.559,43.184
					h-19.072v12.113h4.335v2.598h10.402v-2.598h4.335V43.184L197.559,43.184z"/>
			</g>
			<text transform="matrix(1.0017 0 0 1 186.1162 15.4844)" fill="#444444" font-family="'Arial'" font-size="6.9232">9</text>
			<text transform="matrix(1.0017 0 0 1 183.7935 68.8213)" fill="#444444" font-family="'Arial'" font-size="6.9232">10</text>
		</g>
		<g id="_x31__28_">
			<g id="_x31__30_">
				<path fill="#888888" d="M169.357,22.6v1.597v1h1h3.334v10.116H156.62V25.196h3.334h1v-1V22.6H169.357 M170.357,21.6h-10.403
					v2.597h-4.334v12.116h19.071V24.196h-4.334V21.6L170.357,21.6z"/>
			</g>
			<g id="_x31__29_">
				<path fill="#888888" d="M173.737,44.184v10.113h-3.334h-1v1v1.598H161v-1.598v-1h-1h-3.334V44.184H173.737 M174.737,43.184
					h-19.071v12.113H160v2.598h10.403v-2.598h4.334V43.184L174.737,43.184z"/>
			</g>
			<text transform="matrix(1.0017 0 0 1 163.2959 15.4844)" fill="#444444" font-family="'Arial'" font-size="6.9232">7</text>
			<text transform="matrix(1.0017 0 0 1 163.248 68.8213)" fill="#444444" font-family="'Arial'" font-size="6.9232">8</text>
		</g>
		<g id="_x31__25_">
			<g id="_x31__27_">
				<path fill="#888888" d="M146.538,22.6v1.597v1h1h3.335v10.116h-17.072V25.196h3.335h1v-1V22.6H146.538 M147.538,21.6h-10.402
					v2.597h-4.335v12.116h19.072V24.196h-4.335V21.6L147.538,21.6z"/>
			</g>
			<g id="_x31__26_">
				<path fill="#888888" d="M150.919,44.184v10.113h-3.335h-1v1v1.598h-8.402v-1.598v-1h-1h-3.335V44.184H150.919 M151.919,43.184
					h-19.072v12.113h4.335v2.598h10.402v-2.598h4.335V43.184L151.919,43.184z"/>
			</g>
			<text transform="matrix(1.0017 0 0 1 140.4756 15.4844)" fill="#444444" font-family="'Arial'" font-size="6.9232">5</text>
			<text transform="matrix(1.0017 0 0 1 140.4287 68.8213)" fill="#444444" font-family="'Arial'" font-size="6.9232">6</text>
		</g>
		<g id="_x31__22_">
			<g id="_x31__24_">
				<path fill="#888888" d="M123.718,22.6v1.597v1h1h3.334v10.116H110.98V25.196h3.334h1v-1V22.6H123.718 M124.718,21.6h-10.403
					v2.597h-4.334v12.116h19.071V24.196h-4.334V21.6L124.718,21.6z"/>
			</g>
			<g id="_x31__23_">
				<path fill="#888888" d="M128.098,44.184v10.113h-3.334h-1v1v1.598h-8.403v-1.598v-1h-1h-3.335V44.184H128.098 M129.098,43.184
					h-19.072v12.113h4.335v2.598h10.403v-2.598h4.334V43.184L129.098,43.184z"/>
			</g>
			<text transform="matrix(1.0017 0 0 1 117.6553 15.4844)" fill="#444444" font-family="'Arial'" font-size="6.9232">3</text>
			<text transform="matrix(1.0017 0 0 1 117.6084 68.8213)" fill="#444444" font-family="'Arial'" font-size="6.9232">4</text>
		</g>
		<g id="_x31__19_">
			<g id="_x31__21_">
				<path fill="#888888" d="M100.898,22.6v1.597v1h1h3.335v10.116H88.161V25.196h3.335h1v-1V22.6H100.898 M101.898,21.6H91.496
					v2.597h-4.335v12.116h19.072V24.196h-4.335V21.6L101.898,21.6z"/>
			</g>
			<g id="_x31__20_">
				<path fill="#888888" d="M105.279,44.184v10.113h-3.335h-1v1v1.598h-8.403v-1.598v-1h-1h-3.334V44.184H105.279 M106.279,43.184
					H87.207v12.113h4.334v2.598h10.403v-2.598h4.335V43.184L106.279,43.184z"/>
			</g>
			<text transform="matrix(1.0017 0 0 1 94.835 15.4844)" fill="#444444" font-family="'Arial'" font-size="6.9232">1</text>
			<text transform="matrix(1.0017 0 0 1 94.7881 68.8213)" fill="#444444" font-family="'Arial'" font-size="6.9232">2</text>
		</g>
	</g>
	<g id="_x31__3_">
		<g id="_x31__18_">
			<path fill="#999999" d="M756.573,7.372c1.338,0,2.427,1.084,2.427,2.417v59.795c0,1.332-1.089,2.416-2.427,2.416H3.427
				C2.089,72,1,70.916,1,69.584V9.789c0-1.333,1.089-2.417,2.427-2.417H756.573 M756.573,6.372H3.427C1.534,6.372,0,7.902,0,9.789
				v59.795C0,71.471,1.534,73,3.427,73h753.146c1.893,0,3.427-1.529,3.427-3.416V9.789C760,7.902,758.466,6.372,756.573,6.372
				L756.573,6.372z"/>
		</g>
		<g id="_x31__9_">
			<path id="_x31__17_" fill="#444444" d="M24.762,18.887h3.493c0.231,0,0.283,0.257,0.103,0.563l-0.693,1.154
				c-0.205,0.309-0.539,0.539-0.797,0.539h-3.492c-0.232,0-0.283-0.23-0.104-0.539l0.72-1.154
				C24.17,19.144,24.53,18.887,24.762,18.887"/>
			<path id="_x31__16_" fill="#444444" d="M41.408,13.477c1.284-0.104,2.8,0.896,2.055,2.205c-0.719,1.205-3.314,1.513-4.109,1.436
				c-0.231-0.025-0.643-0.18-0.643-0.59c0.025-0.282,0.18-1.256,0.719-2.026C39.995,13.758,40.817,13.527,41.408,13.477"/>
			<path id="_x31__15_" fill="#444444" d="M49.397,16.04c0.411-0.18,0.437,0.258,0.437,0.385v1c0,0.207,0.154,0.104,0.231,0.078
				c1.208-0.513,2.415-1.258,3.981-1.232c1.361,0.027,1.773,1.129,1.773,2.36v5.308c0,0.461,0.025,0.59,0.256,0.771
				c0.052,0.025,0.438,0.051,0.565,0.051c0.154,0,0.154,0.129,0.103,0.229l-0.308,0.821c-0.077,0.154-0.231,0.181-0.335,0.181
				h-3.108c-1.104-0.026-1.412-0.848-1.412-1.257v-5.052c0-1.026-1.695-1.104-1.695,0.281v4.258
				c0.026,0.204-0.026,0.487,0.514,0.513c0.359,0,0.616-0.025,0.437,0.384l-0.282,0.692c-0.052,0.104-0.206,0.181-0.334,0.181
				h-5.164c-0.103,0-0.205-0.129-0.18-0.206l0.359-0.949c0.026-0.025,0.053-0.102,0.104-0.102c0.179,0,0.282-0.104,0.333-0.591
				v-5.513c0-0.461-0.41-0.41-0.719-0.41c-0.154,0-0.23-0.025-0.18-0.205l0.282-0.616c0.026-0.154,0.104-0.206,0.206-0.231
				C46.957,16.912,47.959,16.783,49.397,16.04"/>
			<path id="_x31__13_" fill="#444444" d="M70.309,14.783c0.077,0,0.154-0.025,0.206-0.025c0.051-0.025,0.077-0.051,0.103-0.103
				c0.052-0.025,0.052-0.077,0.052-0.128c0-0.077-0.026-0.129-0.077-0.18c-0.026-0.025-0.129-0.051-0.283-0.077v-0.154
				c0.206,0,0.334,0.053,0.438,0.129c0.076,0.052,0.128,0.153,0.128,0.282c0,0.103-0.052,0.205-0.128,0.283
				c-0.077,0.051-0.181,0.101-0.309,0.126c0.051,0.027,0.103,0.053,0.128,0.053c0.026,0.025,0.052,0.076,0.104,0.153
				c0.052,0.052,0.103,0.129,0.128,0.18l0.153,0.256h-0.229l-0.155-0.256c-0.103-0.18-0.18-0.282-0.257-0.333V14.783z
				 M70.309,16.245c0.334-0.025,0.642-0.154,0.874-0.384c0.282-0.283,0.41-0.59,0.41-0.976c0-0.358-0.128-0.691-0.41-0.948
				c-0.232-0.256-0.54-0.385-0.874-0.385v0.154c0.309,0,0.565,0.128,0.771,0.333c0.231,0.23,0.36,0.538,0.36,0.846
				c0,0.334-0.129,0.616-0.36,0.847c-0.205,0.23-0.462,0.358-0.771,0.358V16.245z M69.924,14.271v0.513h0.18h0.205v0.206
				c-0.077-0.025-0.154-0.053-0.256-0.053h-0.129v0.642h-0.181v-1.462h0.565v0.154h-0.104H69.924z M70.309,13.553h-0.077
				c-0.359,0-0.693,0.129-0.95,0.385c-0.257,0.257-0.386,0.59-0.386,0.948c0,0.386,0.129,0.692,0.386,0.976
				c0.257,0.255,0.591,0.384,0.95,0.384h0.077v-0.154h-0.077c-0.334,0-0.617-0.103-0.847-0.358c-0.232-0.23-0.36-0.513-0.36-0.847
				c0-0.308,0.128-0.615,0.36-0.846c0.229-0.231,0.513-0.333,0.847-0.333h0.077V13.553z"/>
			<path id="_x31__14_" fill="#444444" d="M61.985,13.707c0.309-0.051,0.462,0.128,0.462,0.462v5.281
				c0.052,0.309,0.258,0.104,0.309,0.025l1.85-2.333c0.18-0.23,0.668-0.281,0.95-0.281h3.88h0.128c0.077,0,0.103,0.076,0.025,0.18
				l-0.514,0.691c-0.025,0.051-0.077,0.128-0.308,0.128h-0.206c-0.18,0.026-0.205,0.078-0.283,0.129l-2.055,2.282
				c-0.437,0.513-0.333,0.744,0.052,1.104l2.826,2.897c0.616,0.437,1.181,0.462,1.849,0.487c0.154,0.025,0.129,0.154,0.052,0.229
				l-0.72,0.821c-0.077,0.129-0.385,0.181-0.564,0.181h-2.801c-0.358,0-1.001-0.104-1.515-0.437
				c-1.003-0.82-1.645-1.872-2.646-2.796c-0.154-0.179-0.309-0.102-0.309,0.051v1.206c0,0.538,0.232,0.693,1.027,0.719
				c0.309,0.025,0.231,0.18,0.154,0.358l-0.256,0.692c-0.077,0.154-0.181,0.206-0.335,0.206h-5.779c-0.18,0-0.309-0.052-0.257-0.154
				l0.309-0.848c0.076-0.153,0.127-0.204,0.359-0.204c0.41-0.025,0.564-0.153,0.564-0.77v-7.771c0-0.282-0.077-0.384-0.257-0.358
				l-0.745,0.102c-0.205,0.052-0.257-0.127-0.153-0.281l0.436-0.743c0.104-0.153,0.258-0.181,0.438-0.206
				c1.464-0.23,2.954-0.667,3.879-1C61.883,13.732,61.935,13.707,61.985,13.707"/>
			<path id="_x31__12_" fill="#444444" d="M43.361,16.836c0.179-0.078,0.41,0.076,0.358,0.461v6.847
				c0.104,0.487,0.258,0.616,0.694,0.667c0,0,0.283,0,0.205,0.204l-0.282,0.719c-0.103,0.231-0.181,0.258-0.438,0.258h-5.368
				c-0.154,0-0.206-0.104-0.154-0.258l0.257-0.667c0.052-0.103,0.077-0.203,0.257-0.23c0.539-0.127,0.564-0.205,0.564-0.923v-4.129
				c0-0.692-0.102-0.641-0.898-0.563c-0.128-0.052-0.128-0.18-0.103-0.23l0.385-0.745c0.129-0.23,0.257-0.23,0.257-0.23
				C40.638,17.912,42.153,17.528,43.361,16.836"/>
			<path id="_x31__11_" fill="#444444" d="M16.566,25.991c1.104,0.025,2.389,0,3.57-0.95c0.951-0.615,2.056-3.103,2.468-4.128
				c0.204-0.538,0.256-1.256,0-1.77c-0.72-1.615-1.748-3.411-2.416-4.129c-0.976-0.898-1.875-0.975-3.417-0.975h-0.205v2.359
				l1.85,3.23c0.181,0.385,0.129,0.565,0,0.821l-1.85,3.129V25.991z M16.258,25.991h0.309V23.58l-0.359,0.589
				c-0.257,0.385-0.386,0.308-0.72,0.334h-0.873v-8.616c0-0.23,0.025-0.334,0.231-0.359h0.642c0.231,0,0.565-0.051,0.745,0.308
				l0.334,0.564V14.04h-6.269c-0.282,0-0.591,0.076-0.693,0.257l-0.462,0.871c-0.077,0.359,0.359,0.385,0.359,0.385h0.642
				c0.181,0,0.232,0.154,0.232,0.282v8.026c0,0.36-0.411,0.59-0.745,0.667c-0.129,0.025-0.36,0.077-0.463,0.231l-0.463,0.922
				c-0.076,0.181,0.052,0.31,0.206,0.31C11.479,25.991,13.689,26.017,16.258,25.991"/>
			<path id="_x31__10_" fill="#444444" d="M34.754,14.116c0.283,0,0.387,0.181,0.334,0.282l-0.59,1.051c0,0-0.077,0.207-0.565,0.207
				h-0.052c-0.334,0-0.59,0-0.616,0.667v7.615c0,0.334,0.128,0.59,0.54,0.615h0.771c1.284-0.025,1.259-1.332,1.54-2.486
				c0.078-0.18,0.129-0.309,0.335-0.412l1.155-0.384c0.129,0,0.283,0,0.309,0.232v3.846c0.052,0.358-0.282,0.693-0.719,0.642h-9.763
				c-0.359,0-0.437-0.104-0.359-0.335l0.359-0.793c0,0,0.104-0.206,0.438-0.206c0.72-0.025,1.182-0.052,1.156-1.155v-7.128
				c0-0.462-0.104-0.743-0.565-0.743h-0.565c-0.359,0-0.565-0.129-0.463-0.334l0.489-0.924c0.127-0.229,0.23-0.257,0.41-0.257
				H34.754z"/>
		</g>
	</g>
</g>
</svg>
