<svg version="1.1" id="_x31_" xmlns="http://www.w3.org/2000/svg" xmlns:xlink="http://www.w3.org/1999/xlink" x="0px" y="0px"
	 width="760px" height="67.1px" viewBox="0 0 760 67.1" enable-background="new 0 0 760 67.1" xml:space="preserve">
	<g>
		<g>
			<g>
				<g>
					<rect x="720.719" y="38.48" fill="#FFFFFF" width="20.639" height="13.815"/>
					<path id="PortIndex52" fill="#888888" d="M740.854,38.98v12.815h-19.637V38.98h6.545h6.546H740.854 M741.854,37.98h-7.546h-6.546h-7.545v14.815
					h21.637V37.98L741.854,37.98z"/>
				</g>
			</g>
			<g>
				<path fill="#888888" d="M742.608,37.238V53.54h-23.145V37.238H742.608 M743.608,36.238h-25.145V54.54h25.145V36.238
				L743.608,36.238z"/>
			</g>
		</g>

		<text transform="matrix(1,0,0,1,725.0313,62.7542)" fill="#444444" font-family="'Arial'" font-size="6.9716" xmlns="http://www.w3.org/2000/svg">
52</text>
		<g>
			<g>
				<g>
					<rect x="720.719" y="14.956" fill="#FFFFFF" width="20.639" height="13.813" ry="0" rx="0" xmlns="http://www.w3.org/2000/svg" />
					<path id="PortIndex51" fill="#888888" d="M740.854,15.456V28.27h-19.637V15.456h6.545h6.546H740.854 M741.854,14.456h-7.546h-6.546h-7.545V29.27
					h21.637V14.456L741.854,14.456z"/>
				</g>
			</g>
			<g>
				<path fill="#888888" d="M742.608,13.714v16.299h-23.145V13.714H742.608 M743.608,12.714h-25.145v18.299h25.145V12.714
				L743.608,12.714z"/>
			</g>
		</g>

		<text transform="matrix(1,0,0,1,724.7813,9.0432)" fill="#444444" font-family="'Arial'" font-size="6.9716" xmlns="http://www.w3.org/2000/svg">
51</text>
	</g>
	<g transform="matrix(1,0,0,1,6.5,0)" xmlns="http://www.w3.org/2000/svg">
		<g>
			<g>
				<g>
					<rect x="682.719" y="38.48" fill="#FFFFFF" width="20.639" height="13.815" />
					<path id="PortIndex50" fill="#888888" d="M702.854,38.98v12.815h-19.637V38.98h6.545h6.546H702.854 M703.854,37.98h-7.546h-6.546h-7.545v14.815&#xD;
					h21.637V37.98L703.854,37.98z" />
				</g>
			</g>
			<g>
				<path fill="#888888" d="M704.608,37.238V53.54h-23.145V37.238H704.608 M705.608,36.238h-25.145V54.54h25.145V36.238&#xD;
				L705.608,36.238z" />
			</g>
		</g>

		<text transform="matrix(1,0,0,1,687.2813,62.7542)" fill="#444444" font-family="'Arial'" font-size="6.9716">
50</text>
		<g>
			<g>
				<g>
					<rect x="682.719" y="14.956" fill="#FFFFFF" width="20.639" height="13.813" />
					<path id="PortIndex49" fill="#888888" d="M702.854 15.456L702.854 28.27L683.217 28.27L683.217 15.456L689.762 15.456L696.308 15.456L702.854 15.456M703.75 14.5L696.308 14.456L689.762 14.456L682.217 14.456L682.217 29.27L703.854 29.27L703.854 14.456L703.75 14.5Z" />
				</g>
			</g>
			<g>
				<path fill="#888888" d="M704.608,13.714v16.299h-23.145V13.714H704.608 M705.608,12.714h-25.145v18.299h25.145V12.714&#xD;
				L705.608,12.714z" />
			</g>
		</g>

		<text transform="matrix(1,0,0,1,687.0313,9.0432)" fill="#444444" font-family="'Arial'" font-size="6.9716">
49</text>
	</g>
>
	<g>
		<g>
			<path fill="#888888" d="M269.914,13.74v39.821H107.37V13.74H269.914 M270.914,12.74H106.37v41.821h164.544V12.74L270.914,12.74z"
			/>
		</g>
		<g>
			<g>
				<g>
					<g>
						<polygon fill="#FFFFFF" points="110.056,29.682 110.056,18.483 114.412,18.483 114.412,15.868 122.869,15.868 122.87,18.483 
						127.228,18.483 127.228,29.682 					"/>
						<path id="PortIndex1" fill="#888888" d="M122.37,16.368v1.611v1h1h3.357v10.2h-16.171V18.983h3.356h1v-1V16.37L122.37,16.368 M123.37,15.368
						L123.37,15.368h-9.458v2.611h-4.356v12.2h18.172V17.983h-4.357L123.37,15.368L123.37,15.368z"/>
					</g>
				</g>
				<g>
					<g>
						<polygon fill="#FFFFFF" points="114.413,51.415 114.413,48.802 110.057,48.802 110.057,37.602 127.228,37.602 127.228,48.802 
						122.871,48.802 122.871,51.415 					"/>
						<path id="PortIndex2" fill="#888888" d="M126.728,38.102v10.2h-3.356h-1v1v1.613h-7.458v-1.613v-1h-1h-3.356v-10.2H126.728 M127.728,37.102
						h-18.171v12.2h4.356v2.613h9.458v-2.613h4.356L127.728,37.102L127.728,37.102z"/>
					</g>
				</g>
				<text transform="matrix(1 0 0 1 116.7031 9.179)" fill="#444444" font-family="'Arial'" font-size="6.9716">1</text>
				<text transform="matrix(1 0 0 1 116.7031 62.8889)" fill="#444444" font-family="'Arial'" font-size="6.9716">2</text>
			</g>
			<g>
				<g>
					<g>
						<polygon fill="#FFFFFF" points="130.056,29.682 130.056,18.483 134.412,18.483 134.412,15.868 142.869,15.868 142.87,18.483 
						147.228,18.483 147.228,29.682 					"/>
						<path id="PortIndex3" fill="#888888" d="M142.37,16.368v1.611v1h1h3.357v10.2h-16.172V18.983h3.356h1v-1V16.37L142.37,16.368 M143.37,15.368
						L143.37,15.368h-9.458v2.611h-4.356v12.2h18.172V17.983h-4.357L143.37,15.368L143.37,15.368z"/>
					</g>
				</g>
				<g>
					<g>
						<polygon fill="#FFFFFF" points="134.413,51.415 134.413,48.802 130.057,48.802 130.057,37.602 147.228,37.602 147.228,48.802 
						142.871,48.802 142.871,51.415 					"/>
						<path id="PortIndex4" fill="#888888" d="M146.728,38.102v10.2h-3.356h-1v1v1.613h-7.458v-1.613v-1h-1h-3.356v-10.2H146.728 M147.728,37.102
						h-18.171v12.2h4.356v2.613h9.458v-2.613h4.356L147.728,37.102L147.728,37.102z"/>
					</g>
				</g>
				<text transform="matrix(1 0 0 1 136.7031 9.179)" fill="#444444" font-family="'Arial'" font-size="6.9716">3</text>
				<text transform="matrix(1 0 0 1 136.7031 62.8889)" fill="#444444" font-family="'Arial'" font-size="6.9716">4</text>
			</g>
			<g>
				<g>
					<g>
						<polygon fill="#FFFFFF" points="150.056,29.682 150.056,18.483 154.412,18.483 154.412,15.868 162.869,15.868 162.87,18.483 
						167.228,18.483 167.228,29.682 					"/>
						<path id="PortIndex5" fill="#888888" d="M162.37,16.368v1.611v1h1h3.357v10.2h-16.172V18.983h3.356h1v-1V16.37L162.37,16.368 M163.37,15.368
						L163.37,15.368h-9.458v2.611h-4.356v12.2h18.172V17.983h-4.357L163.37,15.368L163.37,15.368z"/>
					</g>
				</g>
				<g>
					<g>
						<polygon fill="#FFFFFF" points="154.413,51.415 154.413,48.802 150.057,48.802 150.057,37.602 167.228,37.602 167.228,48.802 
						162.871,48.802 162.871,51.415 					"/>
						<path id="PortIndex6" fill="#888888" d="M166.728,38.102v10.2h-3.356h-1v1v1.613h-7.458v-1.613v-1h-1h-3.356v-10.2H166.728 M167.728,37.102
						h-18.171v12.2h4.356v2.613h9.458v-2.613h4.356L167.728,37.102L167.728,37.102z"/>
					</g>
				</g>
				<text transform="matrix(1 0 0 1 156.7031 9.179)" fill="#444444" font-family="'Arial'" font-size="6.9716">5</text>
				<text transform="matrix(1 0 0 1 156.7031 62.8889)" fill="#444444" font-family="'Arial'" font-size="6.9716">6</text>
			</g>
			<g>
				<g>
					<g>
						<polygon fill="#FFFFFF" points="170.056,29.682 170.056,18.483 174.412,18.483 174.412,15.868 182.869,15.868 182.87,18.483 
						187.228,18.483 187.228,29.682 					"/>
						<path id="PortIndex7" fill="#888888" d="M182.37,16.368v1.611v1h1h3.357v10.2h-16.172V18.983h3.356h1v-1V16.37L182.37,16.368 M183.37,15.368
						L183.37,15.368h-9.458v2.611h-4.356v12.2h18.172V17.983h-4.357L183.37,15.368L183.37,15.368z"/>
					</g>
				</g>
				<g>
					<g>
						<polygon fill="#FFFFFF" points="174.413,51.415 174.413,48.802 170.057,48.802 170.057,37.602 187.228,37.602 187.228,48.802 
						182.871,48.802 182.871,51.415 					"/>
						<path id="PortIndex8" fill="#888888" d="M186.728,38.102v10.2h-3.356h-1v1v1.613h-7.458v-1.613v-1h-1h-3.356v-10.2H186.728 M187.728,37.102
						h-18.171v12.2h4.356v2.613h9.458v-2.613h4.356L187.728,37.102L187.728,37.102z"/>
					</g>
				</g>
				<text transform="matrix(1 0 0 1 176.7031 9.179)" fill="#444444" font-family="'Arial'" font-size="6.9716">7</text>
				<text transform="matrix(1 0 0 1 176.7031 62.8889)" fill="#444444" font-family="'Arial'" font-size="6.9716">8</text>
			</g>
			<g>
				<g>
					<g>
						<polygon fill="#FFFFFF" points="190.056,29.682 190.056,18.483 194.412,18.483 194.412,15.868 202.869,15.868 202.87,18.483 
						207.228,18.483 207.228,29.682 					"/>
						<path id="PortIndex9" fill="#888888" d="M202.37,16.368v1.611v1h1h3.357v10.2h-16.172V18.983h3.356h1v-1V16.37L202.37,16.368 M203.37,15.368
						L203.37,15.368h-9.458v2.611h-4.356v12.2h18.172V17.983h-4.357L203.37,15.368L203.37,15.368z"/>
					</g>
				</g>
				<g>
					<g>
						<polygon fill="#FFFFFF" points="194.413,51.415 194.413,48.802 190.057,48.802 190.057,37.602 207.228,37.602 207.228,48.802 
						202.871,48.802 202.871,51.415 					"/>
						<path id="PortIndex10" fill="#888888" d="M206.728,38.102v10.2h-3.356h-1v1v1.613h-7.458v-1.613v-1h-1h-3.356v-10.2H206.728 M207.728,37.102
						h-18.171v12.2h4.356v2.613h9.458v-2.613h4.356L207.728,37.102L207.728,37.102z"/>
					</g>
				</g>
				<text transform="matrix(1 0 0 1 196.7031 9.179)" fill="#444444" font-family="'Arial'" font-size="6.9716">9</text>
				<text transform="matrix(1 0 0 1 194.7646 62.8889)" fill="#444444" font-family="'Arial'" font-size="6.9716">10</text>
			</g>
			<g>
				<g>
					<g>
						<polygon fill="#FFFFFF" points="210.056,29.682 210.056,18.483 214.412,18.483 214.412,15.868 222.869,15.868 222.87,18.483 
						227.228,18.483 227.228,29.682 					"/>
						<path id="PortIndex11" fill="#888888" d="M222.37,16.368v1.611v1h1h3.357v10.2h-16.172V18.983h3.356h1v-1V16.37L222.37,16.368 M223.37,15.368
						L223.37,15.368h-9.458v2.611h-4.356v12.2h18.172V17.983h-4.357L223.37,15.368L223.37,15.368z"/>
					</g>
				</g>
				<g>
					<g>
						<polygon fill="#FFFFFF" points="214.413,51.415 214.413,48.802 210.057,48.802 210.057,37.602 227.228,37.602 227.228,48.802 
						222.871,48.802 222.871,51.415 					"/>
						<path id="PortIndex12" fill="#888888" d="M226.728,38.102v10.2h-3.356h-1v1v1.613h-7.458v-1.613v-1h-1h-3.356v-10.2H226.728 M227.728,37.102
						h-18.171v12.2h4.356v2.613h9.458v-2.613h4.356L227.728,37.102L227.728,37.102z"/>
					</g>
				</g>
				<text transform="matrix(1 0 0 1 214.7646 9.179)" fill="#444444" font-family="'Arial'" font-size="6.9716">11</text>
				<text transform="matrix(1 0 0 1 214.7646 62.8889)" fill="#444444" font-family="'Arial'" font-size="6.9716">12</text>
			</g>
			<g>
				<g>
					<g>
						<polygon fill="#FFFFFF" points="230.056,29.682 230.056,18.483 234.412,18.483 234.412,15.868 242.869,15.868 242.87,18.483 
						247.228,18.483 247.228,29.682 					"/>
						<path id="PortIndex13" fill="#888888" d="M242.37,16.368v1.611v1h1h3.357v10.2h-16.172V18.983h3.356h1v-1V16.37L242.37,16.368 M243.37,15.368
						L243.37,15.368h-9.458v2.611h-4.356v12.2h18.172V17.983h-4.357L243.37,15.368L243.37,15.368z"/>
					</g>
				</g>
				<g>
					<g>
						<polygon fill="#FFFFFF" points="234.413,51.415 234.413,48.802 230.057,48.802 230.057,37.602 247.228,37.602 247.228,48.802 
						242.871,48.802 242.871,51.415 					"/>
						<path id="PortIndex14" fill="#888888" d="M246.728,38.102v10.2h-3.356h-1v1v1.613h-7.458v-1.613v-1h-1h-3.356v-10.2H246.728 M247.728,37.102
						h-18.171v12.2h4.356v2.613h9.458v-2.613h4.356L247.728,37.102L247.728,37.102z"/>
					</g>
				</g>
				<text transform="matrix(1 0 0 1 234.7646 9.179)" fill="#444444" font-family="'Arial'" font-size="6.9716">13</text>
				<text transform="matrix(1 0 0 1 234.7646 62.8889)" fill="#444444" font-family="'Arial'" font-size="6.9716">14</text>
			</g>
			<g>
				<g>
					<g>
						<polygon fill="#FFFFFF" points="250.056,29.682 250.056,18.483 254.412,18.483 254.412,15.868 262.869,15.868 262.87,18.483 
						267.228,18.483 267.228,29.682 					"/>
						<path id="PortIndex15" fill="#888888" d="M262.37,16.368v1.611v1h1h3.357v10.2h-16.172V18.983h3.356h1v-1V16.37L262.37,16.368 M263.37,15.368
						L263.37,15.368h-9.458v2.611h-4.356v12.2h18.172V17.983h-4.357L263.37,15.368L263.37,15.368z"/>
					</g>
				</g>
				<g>
					<g>
						<polygon fill="#FFFFFF" points="254.413,51.415 254.413,48.802 250.057,48.802 250.057,37.602 267.228,37.602 267.228,48.802 
						262.871,48.802 262.871,51.415 					"/>
						<path id="PortIndex16" fill="#888888" d="M266.728,38.102v10.2h-3.356h-1v1v1.613h-7.458v-1.613v-1h-1h-3.356v-10.2H266.728 M267.728,37.102
						h-18.171v12.2h4.356v2.613h9.458v-2.613h4.356L267.728,37.102L267.728,37.102z"/>
					</g>
				</g>
				<text transform="matrix(1 0 0 1 254.7646 9.179)" fill="#444444" font-family="'Arial'" font-size="6.9716">15</text>
				<text transform="matrix(1 0 0 1 254.7646 62.8889)" fill="#444444" font-family="'Arial'" font-size="6.9716">16</text>
			</g>
		</g>
	</g>
	<g>
		<g>
			<path fill="#888888" d="M439.414,13.74v39.821H276.87V13.74H439.414 M440.414,12.74H275.87v41.821h164.544V12.74L440.414,12.74z"
			/>
		</g>
		<g>
			<g>
				<g>
					<g>
						<polygon fill="#FFFFFF" points="279.556,29.682 279.556,18.483 283.912,18.483 283.912,15.868 292.369,15.868 292.37,18.483 
						296.728,18.483 296.728,29.682 					"/>
						<path id="PortIndex17" fill="#888888" d="M291.87,16.368v1.611v1h1h3.357v10.2h-16.172V18.983h3.356h1v-1V16.37L291.87,16.368 M292.87,15.368
						L292.87,15.368h-9.458v2.611h-4.356v12.2h18.172V17.983h-4.357L292.87,15.368L292.87,15.368z"/>
					</g>
				</g>
				<g>
					<g>
						<polygon fill="#FFFFFF" points="283.913,51.415 283.913,48.802 279.557,48.802 279.557,37.602 296.728,37.602 296.728,48.802 
						292.371,48.802 292.371,51.415 					"/>
						<path id="PortIndex18" fill="#888888" d="M296.228,38.102v10.2h-3.356h-1v1v1.613h-7.458v-1.613v-1h-1h-3.356v-10.2H296.228 M297.228,37.102
						h-18.171v12.2h4.356v2.613h9.458v-2.613h4.356L297.228,37.102L297.228,37.102z"/>
					</g>
				</g>
				<text transform="matrix(1 0 0 1 284.2646 9.179)" fill="#444444" font-family="'Arial'" font-size="6.9716">17</text>
				<text transform="matrix(1 0 0 1 284.2646 62.8889)" fill="#444444" font-family="'Arial'" font-size="6.9716">18</text>
			</g>
			<g>
				<g>
					<g>
						<polygon fill="#FFFFFF" points="299.556,29.682 299.556,18.483 303.912,18.483 303.912,15.868 312.369,15.868 312.37,18.483 
						316.728,18.483 316.728,29.682 					"/>
						<path id="PortIndex19" fill="#888888" d="M311.87,16.368v1.611v1h1h3.356v10.2h-16.171V18.983h3.356h1v-1V16.37L311.87,16.368 M312.87,15.368
						L312.87,15.368h-9.458v2.611h-4.356v12.2h18.171V17.983h-4.356L312.87,15.368L312.87,15.368z"/>
					</g>
				</g>
				<g>
					<g>
						<polygon fill="#FFFFFF" points="303.913,51.415 303.913,48.802 299.557,48.802 299.557,37.602 316.728,37.602 316.728,48.802 
						312.371,48.802 312.371,51.415 					"/>
						<path id="PortIndex20" fill="#888888" d="M316.228,38.102v10.2h-3.355h-1v1v1.613h-7.458v-1.613v-1h-1h-3.356v-10.2H316.228 M317.228,37.102
						h-18.17v12.2h4.356v2.613h9.458v-2.613h4.355L317.228,37.102L317.228,37.102z"/>
					</g>
				</g>
				<text transform="matrix(1 0 0 1 304.2646 9.179)" fill="#444444" font-family="'Arial'" font-size="6.9716">19</text>
				<text transform="matrix(1 0 0 1 304.2646 62.8889)" fill="#444444" font-family="'Arial'" font-size="6.9716">20</text>
			</g>
			<g>
				<g>
					<g>
						<polygon fill="#FFFFFF" points="319.556,29.682 319.556,18.483 323.912,18.483 323.912,15.868 332.369,15.868 332.37,18.483 
						336.728,18.483 336.728,29.682 					"/>
						<path id="PortIndex21" fill="#888888" d="M331.87,16.368v1.611v1h1h3.356v10.2h-16.172V18.983h3.356h1v-1V16.37L331.87,16.368 M332.87,15.368
						L332.87,15.368h-9.458v2.611h-4.356v12.2h18.172V17.983h-4.356L332.87,15.368L332.87,15.368z"/>
					</g>
				</g>
				<g>
					<g>
						<polygon fill="#FFFFFF" points="323.913,51.415 323.913,48.802 319.557,48.802 319.557,37.602 336.728,37.602 336.728,48.802 
						332.371,48.802 332.371,51.415 					"/>
						<path id="PortIndex22" fill="#888888" d="M336.228,38.102v10.2h-3.355h-1v1v1.613h-7.458v-1.613v-1h-1h-3.356v-10.2H336.228 M337.228,37.102
						h-18.171v12.2h4.356v2.613h9.458v-2.613h4.355L337.228,37.102L337.228,37.102z"/>
					</g>
				</g>
				<text transform="matrix(1 0 0 1 324.2646 9.179)" fill="#444444" font-family="'Arial'" font-size="6.9716">21</text>
				<text transform="matrix(1 0 0 1 324.2646 62.8889)" fill="#444444" font-family="'Arial'" font-size="6.9716">22</text>
			</g>
			<g>
				<g>
					<g>
						<polygon fill="#FFFFFF" points="339.556,29.682 339.556,18.483 343.912,18.483 343.912,15.868 352.369,15.868 352.37,18.483 
						356.728,18.483 356.728,29.682 					"/>
						<path id="PortIndex23" fill="#888888" d="M351.87,16.368v1.611v1h1h3.356v10.2h-16.172V18.983h3.356h1v-1V16.37L351.87,16.368 M352.87,15.368
						L352.87,15.368h-9.458v2.611h-4.356v12.2h18.172V17.983h-4.356L352.87,15.368L352.87,15.368z"/>
					</g>
				</g>
				<g>
					<g>
						<polygon fill="#FFFFFF" points="343.913,51.415 343.913,48.802 339.557,48.802 339.557,37.602 356.728,37.602 356.728,48.802 
						352.371,48.802 352.371,51.415 					"/>
						<path id="PortIndex24" fill="#888888" d="M356.228,38.102v10.2h-3.355h-1v1v1.613h-7.458v-1.613v-1h-1h-3.356v-10.2H356.228 M357.228,37.102
						h-18.171v12.2h4.356v2.613h9.458v-2.613h4.355L357.228,37.102L357.228,37.102z"/>
					</g>
				</g>
				<text transform="matrix(1 0 0 1 344.2646 9.179)" fill="#444444" font-family="'Arial'" font-size="6.9716">23</text>
				<text transform="matrix(1 0 0 1 344.2646 62.8889)" fill="#444444" font-family="'Arial'" font-size="6.9716">24</text>
			</g>
			<g>
				<g>
					<g>
						<polygon id="PortIndex25" fill="#FFFFFF" points="359.556,29.682 359.556,18.483 363.912,18.483 363.912,15.868 372.369,15.868 372.37,18.483 
						376.728,18.483 376.728,29.682 					"/>
						<path fill="#888888" d="M371.87,16.368v1.611v1h1h3.356v10.2h-16.172V18.983h3.356h1v-1V16.37L371.87,16.368 M372.87,15.368
						L372.87,15.368h-9.458v2.611h-4.356v12.2h18.172V17.983h-4.356L372.87,15.368L372.87,15.368z"/>
					</g>
				</g>
				<g>
					<g>
						<polygon fill="#FFFFFF" points="363.913,51.415 363.913,48.802 359.557,48.802 359.557,37.602 376.728,37.602 376.728,48.802 
						372.371,48.802 372.371,51.415 					"/>
						<path id="PortIndex26" fill="#888888" d="M376.228,38.102v10.2h-3.355h-1v1v1.613h-7.458v-1.613v-1h-1h-3.356v-10.2H376.228 M377.228,37.102
						h-18.171v12.2h4.356v2.613h9.458v-2.613h4.355L377.228,37.102L377.228,37.102z"/>
					</g>
				</g>
				<text transform="matrix(1 0 0 1 364.2642 9.179)" fill="#444444" font-family="'Arial'" font-size="6.9716">25</text>
				<text transform="matrix(1 0 0 1 364.2642 62.8889)" fill="#444444" font-family="'Arial'" font-size="6.9716">26</text>
			</g>
			<g>
				<g>
					<g>
						<polygon fill="#FFFFFF" points="379.556,29.682 379.556,18.483 383.912,18.483 383.912,15.868 392.369,15.868 392.37,18.483 
						396.729,18.483 396.729,29.682 					"/>
						<path id="PortIndex27" fill="#888888" d="M391.87,16.368v1.611v1h1h3.355v10.2h-16.171V18.983h3.356h1v-1V16.37L391.87,16.368 M392.87,15.368
						L392.87,15.368h-9.458v2.611h-4.356v12.2h18.172V17.983h-4.356L392.87,15.368L392.87,15.368z"/>
					</g>
				</g>
				<g>
					<g>
						<polygon fill="#FFFFFF" points="383.913,51.415 383.913,48.802 379.557,48.802 379.557,37.602 396.729,37.602 396.729,48.802 
						392.371,48.802 392.371,51.415 					"/>
						<path id="PortIndex28" fill="#888888" d="M396.229,38.102v10.2h-3.355h-1v1v1.613h-7.458v-1.613v-1h-1h-3.356v-10.2H396.229 M397.229,37.102
						h-18.171v12.2h4.356v2.613h9.458v-2.613h4.354v-12.2H397.229z"/>
					</g>
				</g>
				<text transform="matrix(1 0 0 1 384.2637 9.179)" fill="#444444" font-family="'Arial'" font-size="6.9716">27</text>
				<text transform="matrix(1 0 0 1 384.2637 62.8889)" fill="#444444" font-family="'Arial'" font-size="6.9716">28</text>
			</g>
			<g>
				<g>
					<g>
						<polygon fill="#FFFFFF" points="399.557,29.682 399.557,18.483 403.912,18.483 403.912,15.868 412.369,15.868 412.37,18.483 
						416.729,18.483 416.729,29.682 					"/>
						<path id="PortIndex29" fill="#888888" d="M411.87,16.368v1.611v1h1h3.355v10.2h-16.172V18.983h3.356h1v-1V16.37L411.87,16.368 M412.87,15.368
						L412.87,15.368h-9.458v2.611h-4.355v12.2h18.172V17.983h-4.356L412.87,15.368L412.87,15.368z"/>
					</g>
				</g>
				<g>
					<g>
						<polygon fill="#FFFFFF" points="403.913,51.415 403.913,48.802 399.557,48.802 399.557,37.602 416.729,37.602 416.729,48.802 
						412.371,48.802 412.371,51.415 					"/>
						<path id="PortIndex30" fill="#888888" d="M416.229,38.102v10.2h-3.355h-1v1v1.613h-7.458v-1.613v-1h-1h-3.355v-10.2H416.229 M417.229,37.102
						h-18.172v12.2h4.356v2.613h9.458v-2.613h4.354v-12.2H417.229z"/>
					</g>
				</g>
				<text transform="matrix(1 0 0 1 404.2637 9.179)" fill="#444444" font-family="'Arial'" font-size="6.9716">29</text>
				<text transform="matrix(1 0 0 1 404.2637 62.8889)" fill="#444444" font-family="'Arial'" font-size="6.9716">30</text>
			</g>
			<g>
				<g>
					<g>
						<polygon fill="#FFFFFF" points="419.557,29.682 419.557,18.483 423.912,18.483 423.912,15.868 432.369,15.868 432.37,18.483 
						436.728,18.483 436.728,29.682 					"/>
						<path id="PortIndex31" fill="#888888" d="M431.87,16.368v1.611v1h1h3.355v10.2h-16.172V18.983h3.356h1v-1V16.37L431.87,16.368 M432.87,15.368
						L432.87,15.368h-9.458v2.611h-4.355v12.2h18.171V17.983h-4.355L432.87,15.368L432.87,15.368z"/>
					</g>
				</g>
				<g>
					<g>
						<polygon fill="#FFFFFF" points="423.913,51.415 423.913,48.802 419.557,48.802 419.557,37.602 436.728,37.602 436.728,48.802 
						432.371,48.802 432.371,51.415 					"/>
						<path id="PortIndex32" fill="#888888" d="M436.228,38.102v10.2h-3.354h-1v1v1.613h-7.458v-1.613v-1h-1h-3.355v-10.2H436.228 M437.228,37.102
						h-18.171v12.2h4.356v2.613h9.458v-2.613h4.354L437.228,37.102L437.228,37.102z"/>
					</g>
				</g>
				<text transform="matrix(1 0 0 1 424.2637 9.179)" fill="#444444" font-family="'Arial'" font-size="6.9716">31</text>
				<text transform="matrix(1 0 0 1 424.2637 62.8889)" fill="#444444" font-family="'Arial'" font-size="6.9716">32</text>
			</g>
		</g>
	</g>
	<g>
		<g>
			<path fill="#888888" d="M608.914,13.74v39.821H446.37V13.74H608.914 M609.914,12.74H445.37v41.821h164.544V12.74L609.914,12.74z"
			/>
		</g>
		<g>
			<g>
				<g>
					<g>
						<polygon fill="#FFFFFF" points="449.056,29.682 449.056,18.483 453.412,18.483 453.412,15.868 461.869,15.868 461.87,18.483 
						466.228,18.483 466.228,29.682 					"/>
						<path id="PortIndex33" fill="#888888" d="M461.37,16.368v1.611v1h1h3.355v10.2h-16.172V18.983h3.356h1v-1V16.37L461.37,16.368 M462.37,15.368
						L462.37,15.368h-9.458v2.611h-4.356v12.2h18.172V17.983h-4.355L462.37,15.368L462.37,15.368z"/>
					</g>
				</g>
				<g>
					<g>
						<polygon fill="#FFFFFF" points="453.413,51.415 453.413,48.802 449.057,48.802 449.057,37.602 466.228,37.602 466.228,48.802 
						461.871,48.802 461.871,51.415 					"/>
						<path id="PortIndex34" fill="#888888" d="M465.728,38.102v10.2h-3.354h-1v1v1.613h-7.458v-1.613v-1h-1h-3.356v-10.2H465.728 M466.728,37.102
						h-18.171v12.2h4.356v2.613h9.458v-2.613h4.354L466.728,37.102L466.728,37.102z"/>
					</g>
				</g>
				<text transform="matrix(1 0 0 1 453.7637 9.179)" fill="#444444" font-family="'Arial'" font-size="6.9716">33</text>
				<text transform="matrix(1 0 0 1 453.7637 62.8889)" fill="#444444" font-family="'Arial'" font-size="6.9716">34</text>
			</g>
			<g>
				<g>
					<g>
						<polygon fill="#FFFFFF" points="469.056,29.682 469.056,18.483 473.412,18.483 473.412,15.868 481.869,15.868 481.87,18.483 
						486.228,18.483 486.228,29.682 					"/>
						<path id="PortIndex35" fill="#888888" d="M481.37,16.368v1.611v1h1h3.355v10.2h-16.172V18.983h3.356h1v-1V16.37L481.37,16.368 M482.37,15.368
						L482.37,15.368h-9.458v2.611h-4.356v12.2h18.172V17.983h-4.355L482.37,15.368L482.37,15.368z"/>
					</g>
				</g>
				<g>
					<g>
						<polygon fill="#FFFFFF" points="473.413,51.415 473.413,48.802 469.057,48.802 469.057,37.602 486.228,37.602 486.228,48.802 
						481.871,48.802 481.871,51.415 					"/>
						<path id="PortIndex36" fill="#888888" d="M485.728,38.102v10.2h-3.354h-1v1v1.613h-7.458v-1.613v-1h-1h-3.356v-10.2H485.728 M486.728,37.102
						h-18.171v12.2h4.356v2.613h9.458v-2.613h4.354L486.728,37.102L486.728,37.102z"/>
					</g>
				</g>
				<text transform="matrix(1 0 0 1 473.7637 9.179)" fill="#444444" font-family="'Arial'" font-size="6.9716">35</text>
				<text transform="matrix(1 0 0 1 473.7637 62.8889)" fill="#444444" font-family="'Arial'" font-size="6.9716">36</text>
			</g>
			<g>
				<g>
					<g>
						<polygon fill="#FFFFFF" points="489.056,29.682 489.056,18.483 493.412,18.483 493.412,15.868 501.869,15.868 501.87,18.483 
						506.228,18.483 506.228,29.682 					"/>
						<path id="PortIndex37" fill="#888888" d="M501.37,16.368v1.611v1h1h3.355v10.2h-16.172V18.983h3.356h1v-1V16.37L501.37,16.368 M502.37,15.368
						L502.37,15.368h-9.458v2.611h-4.356v12.2h18.172V17.983h-4.355L502.37,15.368L502.37,15.368z"/>
					</g>
				</g>
				<g>
					<g>
						<polygon fill="#FFFFFF" points="493.413,51.415 493.413,48.802 489.057,48.802 489.057,37.602 506.228,37.602 506.228,48.802 
						501.871,48.802 501.871,51.415 					"/>
						<path id="PortIndex38" fill="#888888" d="M505.728,38.102v10.2h-3.354h-1v1v1.613h-7.458v-1.613v-1h-1h-3.356v-10.2H505.728 M506.728,37.102
						h-18.171v12.2h4.356v2.613h9.458v-2.613h4.354L506.728,37.102L506.728,37.102z"/>
					</g>
				</g>
				<text transform="matrix(1 0 0 1 493.7637 9.179)" fill="#444444" font-family="'Arial'" font-size="6.9716">37</text>
				<text transform="matrix(1 0 0 1 493.7637 62.8889)" fill="#444444" font-family="'Arial'" font-size="6.9716">38</text>
			</g>
			<g>
				<g>
					<g>
						<polygon fill="#FFFFFF" points="509.056,29.682 509.056,18.483 513.412,18.483 513.412,15.868 521.869,15.868 521.87,18.483 
						526.229,18.483 526.229,29.682 					"/>
						<path id="PortIndex39" fill="#888888" d="M521.37,16.368v1.611v1h1h3.355v10.2h-16.172V18.983h3.356h1v-1V16.37L521.37,16.368 M522.37,15.368
						L522.37,15.368h-9.458v2.611h-4.356v12.2h18.173V17.983h-4.356L522.37,15.368L522.37,15.368z"/>
					</g>
				</g>
				<g>
					<g>
						<polygon fill="#FFFFFF" points="513.413,51.415 513.413,48.802 509.057,48.802 509.057,37.602 526.229,37.602 526.229,48.802 
						521.871,48.802 521.871,51.415 					"/>
						<path id="PortIndex40" fill="#888888" d="M525.729,38.102v10.2h-3.355h-1v1v1.613h-7.458v-1.613v-1h-1h-3.356v-10.2H525.729 M526.729,37.102
						h-18.172v12.2h4.356v2.613h9.458v-2.613h4.355v-12.2H526.729z"/>
					</g>
				</g>
				<text transform="matrix(1 0 0 1 513.7637 9.179)" fill="#444444" font-family="'Arial'" font-size="6.9716">39</text>
				<text transform="matrix(1 0 0 1 513.7637 62.8889)" fill="#444444" font-family="'Arial'" font-size="6.9716">40</text>
			</g>
			<g>
				<g>
					<g>
						<polygon fill="#FFFFFF" points="529.056,29.682 529.056,18.483 533.412,18.483 533.412,15.868 541.869,15.868 541.87,18.483 
						546.229,18.483 546.229,29.682 					"/>
						<path id="PortIndex41" fill="#888888" d="M541.37,16.368v1.611v1h1h3.355v10.2h-16.172V18.983h3.356h1v-1V16.37L541.37,16.368 M542.37,15.368
						L542.37,15.368h-9.458v2.611h-4.356v12.2h18.172V17.983h-4.355L542.37,15.368L542.37,15.368z"/>
					</g>
				</g>
				<g>
					<g>
						<polygon fill="#FFFFFF" points="533.413,51.415 533.413,48.802 529.057,48.802 529.057,37.602 546.229,37.602 546.229,48.802 
						541.871,48.802 541.871,51.415 					"/>
						<path id="PortIndex42" fill="#888888" d="M545.729,38.102v10.2h-3.355h-1v1v1.613h-7.458v-1.613v-1h-1h-3.356v-10.2H545.729 M546.729,37.102
						h-18.172v12.2h4.356v2.613h9.458v-2.613h4.355v-12.2H546.729z"/>
					</g>
				</g>
				<text transform="matrix(1 0 0 1 533.7637 9.179)" fill="#444444" font-family="'Arial'" font-size="6.9716">41</text>
				<text transform="matrix(1 0 0 1 533.7637 62.8889)" fill="#444444" font-family="'Arial'" font-size="6.9716">42</text>
			</g>
			<g>
				<g>
					<g>
						<polygon fill="#FFFFFF" points="549.056,29.682 549.056,18.483 553.412,18.483 553.412,15.868 561.869,15.868 561.87,18.483 
						566.229,18.483 566.229,29.682 					"/>
						<path id="PortIndex43" fill="#888888" d="M561.37,16.368v1.611v1h1h3.355v10.2h-16.172V18.983h3.356h1v-1V16.37L561.37,16.368 M562.37,15.368
						L562.37,15.368h-9.458v2.611h-4.356v12.2h18.172V17.983h-4.355L562.37,15.368L562.37,15.368z"/>
					</g>
				</g>
				<g>
					<g>
						<polygon fill="#FFFFFF" points="553.413,51.415 553.413,48.802 549.057,48.802 549.057,37.602 566.229,37.602 566.229,48.802 
						561.871,48.802 561.871,51.415 					"/>
						<path id="PortIndex44" fill="#888888" d="M565.729,38.102v10.2h-3.355h-1v1v1.613h-7.458v-1.613v-1h-1h-3.356v-10.2H565.729 M566.729,37.102
						h-18.172v12.2h4.356v2.613h9.458v-2.613h4.355v-12.2H566.729z"/>
					</g>
				</g>
				<text transform="matrix(1 0 0 1 553.7637 9.179)" fill="#444444" font-family="'Arial'" font-size="6.9716">43</text>
				<text transform="matrix(1 0 0 1 553.7637 62.8889)" fill="#444444" font-family="'Arial'" font-size="6.9716">44</text>
			</g>
			<g>
				<g>
					<g>
						<polygon fill="#FFFFFF" points="569.056,29.682 569.056,18.483 573.412,18.483 573.412,15.868 581.869,15.868 581.87,18.483 
						586.229,18.483 586.229,29.682 					"/>
						<path id="PortIndex45" fill="#888888" d="M581.37,16.368v1.611v1h1h3.355v10.2h-16.172V18.983h3.356h1v-1V16.37L581.37,16.368 M582.37,15.368
						L582.37,15.368h-9.458v2.611h-4.356v12.2h18.172V17.983h-4.355L582.37,15.368L582.37,15.368z"/>
					</g>
				</g>
				<g>
					<g>
						<polygon fill="#FFFFFF" points="573.413,51.415 573.413,48.802 569.057,48.802 569.057,37.602 586.229,37.602 586.229,48.802 
						581.871,48.802 581.871,51.415 					"/>
						<path id="PortIndex46" fill="#888888" d="M585.729,38.102v10.2h-3.355h-1v1v1.613h-7.458v-1.613v-1h-1h-3.356v-10.2H585.729 M586.729,37.102
						h-18.172v12.2h4.356v2.613h9.458v-2.613h4.355v-12.2H586.729z"/>
					</g>
				</g>
				<rect x="682.013" y="2.543" fill="#FFF000" width="19.173" height="7.947" transform="matrix(1,0,0,1,-114,0)" xmlns="http://www.w3.org/2000/svg" />
				<text transform="matrix(1,0,0,1,570.0137,9.179)" fill="#444444" font-family="'Arial'" font-size="6.9716" xmlns="http://www.w3.org/2000/svg">
45T</text>
				<rect x="682.013" y="56.324" fill="#FFF000" width="19.173" height="7.947" transform="matrix(1,0,0,1,-114,0)" xmlns="http://www.w3.org/2000/svg" />
				<text transform="matrix(1,0,0,1,570.0137,62.8889)" fill="#444444" font-family="'Arial'" font-size="6.9716" xmlns="http://www.w3.org/2000/svg">
46T</text>
			</g>
			<g>
				<g>
					<g>
						<polygon fill="#FFFFFF" points="589.056,29.682 589.056,18.483 593.412,18.483 593.412,15.868 601.869,15.868 601.87,18.483 
						606.229,18.483 606.229,29.682 					"/>
						<path id="PortIndex47" fill="#888888" d="M601.37,16.368v1.611v1h1h3.355v10.2h-16.172V18.983h3.356h1v-1V16.37L601.37,16.368 M602.37,15.368
						L602.37,15.368h-9.458v2.611h-4.356v12.2h18.172V17.983h-4.355L602.37,15.368L602.37,15.368z"/>
					</g>
				</g>
				<g>
					<g>
						<polygon fill="#FFFFFF" points="593.413,51.415 593.413,48.802 589.057,48.802 589.057,37.602 606.229,37.602 606.229,48.802 
						601.871,48.802 601.871,51.415 					"/>
						<path id="PortIndex48" fill="#888888" d="M605.729,38.102v10.2h-3.355h-1v1v1.613h-7.458v-1.613v-1h-1h-3.356v-10.2H605.729 M606.729,37.102
						h-18.172v12.2h4.356v2.613h9.458v-2.613h4.355v-12.2H606.729z"/>
					</g>
				</g>
				<rect x="720.013" y="2.543" fill="#FFF000" width="19.173" height="7.947" transform="matrix(1,0,0,1,-131.25,0)" xmlns="http://www.w3.org/2000/svg" />
				<text transform="matrix(1,0,0,1,590.5137,9.179)" fill="#444444" font-family="'Arial'" font-size="6.9716" xmlns="http://www.w3.org/2000/svg">
47T</text>
				<rect x="720.013" y="56.324" fill="#FFF000" width="19.173" height="7.947" transform="matrix(1,0,0,1,-131.25,0)" xmlns="http://www.w3.org/2000/svg" />
				<text transform="matrix(1,0,0,1,590.5137,62.8889)" fill="#444444" font-family="'Arial'" font-size="6.9716" xmlns="http://www.w3.org/2000/svg">
48T</text>
			</g>
		</g>
	</g>
	<g>
		<path fill="#999999" d="M756.555,1C757.903,1,759,2.095,759,3.441v60.219c0,1.345-1.097,2.438-2.445,2.438H3.446
		C2.097,66.095,1,65.001,1,63.656V3.441C1,2.095,2.097,1,3.446,1H756.555 M756.555,0H3.446C1.543,0,0,1.541,0,3.441v60.219
		c0,1.896,1.543,3.438,3.446,3.438h753.108c1.903,0,3.445-1.539,3.445-3.438V3.441C760,1.541,758.458,0,756.555,0L756.555,0z"/>
	</g>
	<g>
		<text id="vendor" transform="matrix(1 0 0 1 10.0347 20.0898)" fill="#444444" font-family="'Arial'" font-size="14" style="font-weight:bold;">D-Link</text>
		<text id="moduleName" transform="matrix(1 0 0 1 10.0347 41.0137)" fill="#444444" font-family="'Arial'" font-size="11" xmlns="http://www.w3.org/2000/svg">
		</text>
		<text id="moduleName2" transform="matrix(1 0 0 1 10.0347 54.9434)" fill="#444444" font-family="'Arial'" font-size="11" xmlns="http://www.w3.org/2000/svg">
		</text>

	</g>
	<g transform="matrix(1,0,0,1,-26.75,0.25)" xmlns="http://www.w3.org/2000/svg">
		<g>
			<g>
				<g>
					<rect x="682.719" y="38.48" fill="#FFFFFF" width="20.639" height="13.815" />
					<path fill="#888888" d="M702.854,38.98v12.815h-19.637V38.98h6.545h6.546H702.854 M703.854,37.98h-7.546h-6.546h-7.545v14.815&#xD;
					h21.637V37.98L703.854,37.98z" />
				</g>
			</g>
			<g>
				<path fill="#888888" d="M704.608,37.238V53.54h-23.145V37.238H704.608 M705.608,36.238h-25.145V54.54h25.145V36.238&#xD;
				L705.608,36.238z" />
			</g>
		</g>
		<rect x="645.839" y="56.324" fill="#FFF000" width="19.173" height="7.942" transform="matrix(1,0,0,1,37.75,0)" />
		<text transform="matrix(1,0,0,1,686.0313,62.7542)" fill="#444444" font-family="'Arial'" font-size="6.9716">
48F</text>
		<g>
			<g>
				<g>
					<rect x="682.719" y="14.956" fill="#FFFFFF" width="20.639" height="13.813" />
					<path fill="#888888" d="M702.854 15.456L702.854 28.27L683.217 28.27L683.217 15.456L689.762 15.456L696.308 15.456L702.854 15.456M703.75 14.5L696.308 14.456L689.762 14.456L682.217 14.456L682.217 29.27L703.854 29.27L703.854 14.456L703.75 14.5Z" />
				</g>
			</g>
			<g>
				<path fill="#888888" d="M704.608,13.714v16.299h-23.145V13.714H704.608 M705.608,12.714h-25.145v18.299h25.145V12.714&#xD;
				L705.608,12.714z" />
			</g>
		</g>
		<rect x="645.839" y="2.543" fill="#FFF000" width="19.173" height="7.947" transform="matrix(1,0,0,1,37.25,0)" />

		<text transform="matrix(1,0,0,1,685.2813,9.0432)" fill="#444444" font-family="'Arial'" font-size="6.9716">
47F</text>
	</g>
	<g transform="matrix(1,0,0,1,-56.75,0.25)" xmlns="http://www.w3.org/2000/svg">
		<g>
			<g>
				<g>
					<rect x="682.719" y="38.48" fill="#FFFFFF" width="20.639" height="13.815" />
					<path fill="#888888" d="M702.854,38.98v12.815h-19.637V38.98h6.545h6.546H702.854 M703.854,37.98h-7.546h-6.546h-7.545v14.815&#xD;
					h21.637V37.98L703.854,37.98z" />
				</g>
			</g>
			<g>
				<path fill="#888888" d="M704.608,37.238V53.54h-23.145V37.238H704.608 M705.608,36.238h-25.145V54.54h25.145V36.238&#xD;
				L705.608,36.238z" />
			</g>
		</g>
		<rect x="645.839" y="56.324" fill="#FFF000" width="19.173" height="7.942" transform="matrix(1,0,0,1,37.75,0)" />
		<text transform="matrix(1,0,0,1,686.0313,62.7542)" fill="#444444" font-family="'Arial'" font-size="6.9716">
46F</text>
		<g>
			<g>
				<g>
					<rect x="682.719" y="14.956" fill="#FFFFFF" width="20.639" height="13.813" />
					<path fill="#888888" d="M702.854 15.456L702.854 28.27L683.217 28.27L683.217 15.456L689.762 15.456L696.308 15.456L702.854 15.456M703.75 14.5L696.308 14.456L689.762 14.456L682.217 14.456L682.217 29.27L703.854 29.27L703.854 14.456L703.75 14.5Z" />
				</g>
			</g>
			<g>
				<path fill="#888888" d="M704.608,13.714v16.299h-23.145V13.714H704.608 M705.608,12.714h-25.145v18.299h25.145V12.714&#xD;
				L705.608,12.714z" />
			</g>
		</g>
		<rect x="645.839" y="2.543" fill="#FFF000" width="19.173" height="7.947" transform="matrix(1,0,0,1,37.25,0)" />

		<text transform="matrix(1,0,0,1,685.2813,9.0432)" fill="#444444" font-family="'Arial'" font-size="6.9716">
45F</text>
	</g>
</svg>

