<svg version="1.1" id="_x31_" xmlns="http://www.w3.org/2000/svg" xmlns:xlink="http://www.w3.org/1999/xlink" x="0px" y="0px"
	 width="837px" height="523px" viewBox="0 0 837 523" enable-background="new 0 0 837 523" xml:space="preserve">
<g id="_x31__1_">
	<g id="_x31__2_">
		<g id="_x31__48_">
			<path fill="#F5F5F5" d="M4,522.5c-1.93,0-3.5-1.569-3.5-3.499V4c0-1.93,1.57-3.5,3.5-3.5h828.998c1.931,0,3.502,1.57,3.502,3.5
				v515.001c0,1.93-1.571,3.499-3.502,3.499H4z"/>
			<path fill="#999999" d="M832.998,1C834.653,1,836,2.346,836,4v515.001c0,1.653-1.347,2.999-3.002,2.999H4
				c-1.654,0-3-1.346-3-2.999V4c0-1.654,1.346-3,3-3H832.998 M832.998,0H4C1.79,0,0,1.791,0,4v515.001C0,521.21,1.791,523,4,523
				h828.998c2.209,0,4.002-1.79,4.002-3.999V4C837,1.791,835.207,0,832.998,0L832.998,0z"/>
		</g>
		<g id="_x31__47_">
			<path fill="#FFFFFF" d="M26.5,499c-1.93,0-3.5-1.57-3.5-3.5v-454c0-1.93,1.57-3.5,3.5-3.5h784c1.864,0,3.5,1.636,3.5,3.5v454
				c0,1.93-1.57,3.5-3.5,3.5H26.5z"/>
			<path fill="#999999" d="M810.5,38.5c1.598,0,3,1.402,3,3v454c0,1.654-1.346,3-3,3h-784c-1.654,0-3-1.346-3-3v-454
				c0-1.654,1.346-3,3-3H810.5 M810.5,37.5h-784c-2.21,0-4,1.79-4,4v454c0,2.21,1.791,4,4,4h784c2.211,0,4-1.79,4-4v-454
				C814.5,39.29,812.563,37.5,810.5,37.5L810.5,37.5z"/>
		</g>
		<line id="_x31__46_" fill="none" stroke="#999999" stroke-miterlimit="10" x1="22.488" y1="413.771" x2="792.488" y2="413.771"/>
		<line id="_x31__45_" fill="none" stroke="#999999" stroke-miterlimit="10" x1="22.488" y1="327.042" x2="792.488" y2="327.042"/>
		<line id="_x31__44_" fill="none" stroke="#999999" stroke-miterlimit="10" x1="22.488" y1="241.313" x2="792.488" y2="241.313"/>
		<g id="_x31__43_">
			<g>
				<rect x="22.988" y="130.358" fill="#F5F5F5" width="769" height="23.453"/>
			</g>
			<g>
				<path fill="#999999" d="M791.488,130.858v22.453h-768v-22.453H791.488 M792.488,129.858h-770v24.453h770V129.858
					L792.488,129.858z"/>
			</g>
		</g>
		<g id="_x31__42_">
			<g>
				<path fill="#F5F5F5" d="M792,499V38h18.5c1.93,0,3.5,1.57,3.5,3.5v454c0,1.93-1.57,3.5-3.5,3.5H792z"/>
			</g>
			<g>
				<path fill="#999999" d="M810.5,38.5c1.654,0,3,1.346,3,3v454c0,1.654-1.346,3-3,3h-18v-460H810.5 M810.5,37.5h-19v462h19
					c2.211,0,4-1.79,4-4v-454C814.5,39.29,812.711,37.5,810.5,37.5L810.5,37.5z"/>
			</g>
		</g>
		<g id="_x31__33_">
			<path id="_x31__41_" fill="#444444" d="M45.392,18.077h4.975c0.329,0,0.402,0.364,0.146,0.803l-0.987,1.646
				c-0.293,0.441-0.768,0.77-1.134,0.77h-4.974c-0.33,0-0.402-0.328-0.146-0.77l1.024-1.646
				C44.551,18.441,45.063,18.077,45.392,18.077"/>
			<path id="_x31__40_" fill="#444444" d="M69.094,10.358c1.827-0.147,3.985,1.28,2.925,3.144c-1.023,1.721-4.719,2.16-5.852,2.052
				c-0.329-0.039-0.914-0.259-0.914-0.842c0.036-0.402,0.256-1.794,1.023-2.893C67.082,10.761,68.252,10.431,69.094,10.358"/>
			<path id="_x31__39_" fill="#444444" d="M80.467,14.016c0.586-0.256,0.622,0.366,0.622,0.549v1.428c0,0.292,0.22,0.145,0.33,0.108
				c1.719-0.73,3.438-1.791,5.669-1.755c1.938,0.036,2.524,1.607,2.524,3.365v7.571c0,0.658,0.035,0.842,0.365,1.098
				c0.073,0.036,0.621,0.072,0.804,0.072c0.221,0,0.221,0.183,0.146,0.33l-0.438,1.172c-0.109,0.219-0.329,0.255-0.477,0.255h-4.426
				c-1.571-0.036-2.01-1.208-2.01-1.793V19.21c0-1.463-2.415-1.574-2.415,0.402v6.073c0.038,0.291-0.037,0.694,0.731,0.73
				c0.513,0,0.878-0.036,0.622,0.55l-0.402,0.988c-0.073,0.146-0.293,0.255-0.475,0.255h-7.353c-0.146,0-0.292-0.183-0.256-0.292
				l0.512-1.354c0.037-0.036,0.074-0.146,0.146-0.146c0.256,0,0.402-0.147,0.475-0.842v-7.863c0-0.658-0.584-0.586-1.023-0.586
				c-0.219,0-0.328-0.036-0.256-0.292l0.402-0.88c0.037-0.219,0.146-0.291,0.293-0.327C76.994,15.259,78.419,15.076,80.467,14.016"
				/>
			<path id="_x31__38_" fill="#444444" d="M110.241,12.222c0.109,0,0.219-0.036,0.293-0.036c0.072-0.036,0.109-0.072,0.146-0.147
				c0.073-0.036,0.073-0.108,0.073-0.181c0-0.11-0.037-0.183-0.109-0.255c-0.037-0.039-0.184-0.075-0.402-0.111v-0.22
				c0.293,0,0.475,0.073,0.622,0.184c0.109,0.072,0.183,0.22,0.183,0.402c0,0.145-0.073,0.292-0.183,0.403
				c-0.11,0.072-0.257,0.146-0.439,0.181c0.072,0.038,0.146,0.074,0.183,0.074c0.037,0.036,0.073,0.108,0.146,0.22
				c0.073,0.072,0.146,0.183,0.183,0.256l0.219,0.366h-0.328l-0.22-0.366c-0.146-0.256-0.256-0.403-0.365-0.476v-0.294H110.241z
				 M110.241,14.31c0.475-0.036,0.913-0.22,1.243-0.55c0.403-0.402,0.585-0.842,0.585-1.391c0-0.512-0.182-0.989-0.585-1.353
				c-0.33-0.367-0.769-0.55-1.243-0.55v0.22c0.438,0,0.805,0.183,1.097,0.475c0.329,0.33,0.512,0.769,0.512,1.208
				c0,0.475-0.183,0.877-0.512,1.207c-0.292,0.331-0.658,0.514-1.097,0.514V14.31z M109.692,11.491v0.73h0.256h0.293v0.294
				c-0.11-0.036-0.22-0.074-0.365-0.074h-0.184v0.916h-0.257v-2.086h0.806v0.22h-0.147H109.692z M110.241,10.467h-0.11
				c-0.512,0-0.986,0.183-1.354,0.55c-0.365,0.363-0.548,0.841-0.548,1.353c0,0.549,0.183,0.988,0.548,1.391
				c0.367,0.366,0.842,0.55,1.354,0.55h0.11v-0.22h-0.11c-0.476,0-0.878-0.147-1.206-0.514c-0.33-0.33-0.513-0.732-0.513-1.207
				c0-0.439,0.183-0.878,0.513-1.208c0.328-0.328,0.73-0.475,1.206-0.475h0.11V10.467z"/>
			<path id="_x31__37_" fill="#444444" d="M98.389,10.687c0.44-0.072,0.658,0.183,0.658,0.658v7.535
				c0.074,0.438,0.366,0.147,0.44,0.036l2.633-3.327c0.256-0.33,0.95-0.402,1.354-0.402h5.522h0.183c0.11,0,0.146,0.108,0.037,0.256
				l-0.732,0.988c-0.036,0.072-0.109,0.181-0.438,0.181h-0.293c-0.255,0.039-0.292,0.111-0.402,0.184l-2.926,3.257
				c-0.622,0.732-0.475,1.061,0.074,1.574l4.023,4.132c0.877,0.622,1.681,0.658,2.632,0.694c0.22,0.038,0.184,0.219,0.074,0.33
				l-1.025,1.172c-0.109,0.183-0.548,0.255-0.804,0.255h-3.987c-0.511,0-1.426-0.146-2.157-0.622
				c-1.427-1.171-2.341-2.671-3.767-3.987c-0.221-0.255-0.44-0.146-0.44,0.073v1.719c0,0.769,0.331,0.988,1.464,1.024
				c0.438,0.036,0.329,0.255,0.219,0.513l-0.365,0.988c-0.109,0.22-0.256,0.292-0.476,0.292h-8.23c-0.255,0-0.438-0.072-0.365-0.219
				l0.439-1.208c0.109-0.22,0.182-0.292,0.512-0.292c0.585-0.038,0.805-0.22,0.805-1.099V14.31c0-0.402-0.11-0.55-0.367-0.514
				l-1.061,0.146c-0.291,0.073-0.365-0.183-0.218-0.402l0.62-1.061c0.147-0.219,0.367-0.258,0.622-0.294
				c2.086-0.328,4.207-0.95,5.523-1.425C98.244,10.723,98.317,10.687,98.389,10.687"/>
			<path id="_x31__36_" fill="#444444" d="M71.874,15.15c0.255-0.11,0.585,0.108,0.511,0.658v9.766
				c0.147,0.694,0.366,0.878,0.988,0.952c0,0,0.402,0,0.292,0.292l-0.401,1.024c-0.146,0.33-0.257,0.366-0.623,0.366h-7.644
				c-0.219,0-0.292-0.146-0.219-0.366l0.365-0.952c0.073-0.145,0.109-0.292,0.366-0.328c0.768-0.183,0.804-0.294,0.804-1.316v-5.892
				c0-0.985-0.146-0.913-1.28-0.803c-0.182-0.074-0.182-0.255-0.146-0.33l0.549-1.061c0.183-0.33,0.365-0.33,0.365-0.33
				C67.996,16.687,70.155,16.137,71.874,15.15"/>
			<path id="_x31__35_" fill="#444444" d="M33.724,28.209c1.573,0.036,3.402,0,5.085-1.354c1.354-0.878,2.926-4.426,3.512-5.887
				c0.292-0.771,0.365-1.794,0-2.526c-1.024-2.305-2.487-4.865-3.438-5.89c-1.39-1.28-2.67-1.391-4.865-1.391h-0.293v3.367
				l2.634,4.607c0.257,0.549,0.184,0.805,0,1.171l-2.634,4.463L33.724,28.209L33.724,28.209z M33.286,28.209h0.438V24.77
				l-0.511,0.841c-0.366,0.55-0.55,0.438-1.024,0.478h-1.244V13.796c0-0.33,0.036-0.475,0.33-0.514h0.914
				c0.329,0,0.805-0.072,1.061,0.441l0.475,0.805v-3.367H24.8c-0.402,0-0.842,0.11-0.987,0.366l-0.658,1.244
				c-0.109,0.511,0.513,0.55,0.513,0.55h0.913c0.257,0,0.331,0.219,0.331,0.402v11.448c0,0.514-0.586,0.841-1.062,0.952
				c-0.183,0.036-0.513,0.108-0.659,0.328l-0.658,1.318c-0.109,0.256,0.074,0.438,0.293,0.438
				C26.483,28.209,29.628,28.245,33.286,28.209"/>
			<path id="_x31__34_" fill="#444444" d="M59.62,11.271c0.403,0,0.55,0.256,0.476,0.403l-0.841,1.499c0,0-0.109,0.292-0.805,0.292
				h-0.073c-0.476,0-0.841,0-0.878,0.952v10.864c0,0.476,0.184,0.842,0.769,0.878h1.098c1.828-0.036,1.792-1.902,2.193-3.549
				c0.111-0.255,0.184-0.438,0.477-0.585l1.645-0.548c0.184,0,0.403,0,0.439,0.33v5.484c0.073,0.514-0.401,0.991-1.023,0.916h-13.9
				c-0.513,0-0.622-0.146-0.513-0.475l0.513-1.136c0,0,0.146-0.291,0.621-0.291c1.025-0.037,1.683-0.075,1.646-1.646V14.492
				c0-0.66-0.146-1.063-0.805-1.063h-0.806c-0.511,0-0.804-0.184-0.657-0.476l0.695-1.315c0.182-0.331,0.329-0.367,0.584-0.367
				H59.62z"/>
		</g>
		<g id="_x31__28_">
			<g id="_x31__29_">
				<g>
					<path fill="#FFFFFF" d="M15.269,483.221H8.707c-2.33,0-4.219,1.923-4.219,4.295c0,2.371,1.889,4.296,4.219,4.296h6.563
						c2.33,0,4.219-1.925,4.219-4.296C19.488,485.144,17.599,483.221,15.269,483.221z M8.707,479.404h6.563
						c2.33,0,4.219-1.925,4.219-4.297c0-2.373-1.889-4.297-4.219-4.297H8.707c-2.33,0-4.219,1.924-4.219,4.297
						C4.488,477.479,6.376,479.404,8.707,479.404z"/>
				</g>
				<g>
					<path fill="none" stroke="#999999" stroke-miterlimit="10" d="M15.269,483.221H8.707c-2.33,0-4.219,1.923-4.219,4.295
						c0,2.371,1.889,4.296,4.219,4.296h6.563c2.33,0,4.219-1.925,4.219-4.296C19.488,485.144,17.599,483.221,15.269,483.221z
						 M8.707,479.404h6.563c2.33,0,4.219-1.925,4.219-4.297c0-2.373-1.889-4.297-4.219-4.297H8.707c-2.33,0-4.219,1.924-4.219,4.297
						C4.488,477.479,6.376,479.404,8.707,479.404z"/>
				</g>
			</g>
		</g>
		<g id="_x31__24_">
			<g>
				<path fill="#FFFFFF" d="M15.269,269.221H8.707c-2.33,0-4.219,1.924-4.219,4.295s1.889,4.297,4.219,4.297h6.563
					c2.33,0,4.219-1.926,4.219-4.297C19.488,271.145,17.599,269.221,15.269,269.221z M8.707,265.404h6.563
					c2.33,0,4.219-1.926,4.219-4.297c0-2.373-1.889-4.296-4.219-4.296H8.707c-2.33,0-4.219,1.923-4.219,4.296
					C4.488,263.479,6.376,265.404,8.707,265.404z"/>
			</g>
			<g>
				<path fill="none" stroke="#999999" stroke-miterlimit="10" d="M15.269,269.221H8.707c-2.33,0-4.219,1.924-4.219,4.295
					s1.889,4.297,4.219,4.297h6.563c2.33,0,4.219-1.926,4.219-4.297C19.488,271.145,17.599,269.221,15.269,269.221z M8.707,265.404
					h6.563c2.33,0,4.219-1.926,4.219-4.297c0-2.373-1.889-4.296-4.219-4.296H8.707c-2.33,0-4.219,1.923-4.219,4.296
					C4.488,263.479,6.376,265.404,8.707,265.404z"/>
			</g>
		</g>
		<g id="_x31__20_">
			<g>
				<path fill="#FFFFFF" d="M15.269,55.221H8.707c-2.33,0-4.219,1.923-4.219,4.295c0,2.371,1.889,4.296,4.219,4.296h6.563
					c2.33,0,4.219-1.925,4.219-4.296C19.488,57.144,17.599,55.221,15.269,55.221z M8.707,51.404h6.563
					c2.33,0,4.219-1.925,4.219-4.297c0-2.373-1.889-4.296-4.219-4.296H8.707c-2.33,0-4.219,1.923-4.219,4.296
					C4.488,49.479,6.376,51.404,8.707,51.404z"/>
			</g>
			<g>
				<path fill="none" stroke="#999999" stroke-miterlimit="10" d="M15.269,55.221H8.707c-2.33,0-4.219,1.923-4.219,4.295
					c0,2.371,1.889,4.296,4.219,4.296h6.563c2.33,0,4.219-1.925,4.219-4.296C19.488,57.144,17.599,55.221,15.269,55.221z
					 M8.707,51.404h6.563c2.33,0,4.219-1.925,4.219-4.297c0-2.373-1.889-4.296-4.219-4.296H8.707c-2.33,0-4.219,1.923-4.219,4.296
					C4.488,49.479,6.376,51.404,8.707,51.404z"/>
			</g>
		</g>
		<g id="_x31__16_">
			<g>
				<path fill="#FFFFFF" d="M828.27,483.221h-6.563c-2.33,0-4.219,1.923-4.219,4.295c0,2.371,1.889,4.296,4.219,4.296h6.563
					c2.33,0,4.22-1.925,4.22-4.296C832.488,485.144,830.6,483.221,828.27,483.221z M821.707,479.404h6.563
					c2.33,0,4.22-1.925,4.22-4.297c0-2.373-1.89-4.297-4.22-4.297h-6.563c-2.33,0-4.219,1.924-4.219,4.297
					C817.488,477.479,819.377,479.404,821.707,479.404z"/>
			</g>
			<g>
				<path fill="none" stroke="#999999" stroke-miterlimit="10" d="M828.27,483.221h-6.563c-2.33,0-4.219,1.923-4.219,4.295
					c0,2.371,1.889,4.296,4.219,4.296h6.563c2.33,0,4.22-1.925,4.22-4.296C832.488,485.144,830.6,483.221,828.27,483.221z
					 M821.707,479.404h6.563c2.33,0,4.22-1.925,4.22-4.297c0-2.373-1.89-4.297-4.22-4.297h-6.563c-2.33,0-4.219,1.924-4.219,4.297
					C817.488,477.479,819.377,479.404,821.707,479.404z"/>
			</g>
		</g>
		<g id="_x31__12_">
			<g>
				<path fill="#FFFFFF" d="M828.27,269.221h-6.563c-2.33,0-4.219,1.924-4.219,4.295s1.889,4.297,4.219,4.297h6.563
					c2.33,0,4.22-1.926,4.22-4.297C832.488,271.145,830.6,269.221,828.27,269.221z M821.707,265.404h6.563
					c2.33,0,4.22-1.926,4.22-4.297c0-2.373-1.89-4.296-4.22-4.296h-6.563c-2.33,0-4.219,1.923-4.219,4.296
					C817.488,263.479,819.377,265.404,821.707,265.404z"/>
			</g>
			<g>
				<path fill="none" stroke="#999999" stroke-miterlimit="10" d="M828.27,269.221h-6.563c-2.33,0-4.219,1.924-4.219,4.295
					s1.889,4.297,4.219,4.297h6.563c2.33,0,4.22-1.926,4.22-4.297C832.488,271.145,830.6,269.221,828.27,269.221z M821.707,265.404
					h6.563c2.33,0,4.22-1.926,4.22-4.297c0-2.373-1.89-4.296-4.22-4.296h-6.563c-2.33,0-4.219,1.923-4.219,4.296
					C817.488,263.479,819.377,265.404,821.707,265.404z"/>
			</g>
		</g>
		<g id="_x31__3_">
			<g>
				<path fill="#FFFFFF" d="M828.27,55.221h-6.563c-2.33,0-4.219,1.923-4.219,4.295c0,2.371,1.889,4.296,4.219,4.296h6.563
					c2.33,0,4.22-1.925,4.22-4.296C832.488,57.144,830.6,55.221,828.27,55.221z M821.707,51.404h6.563c2.33,0,4.22-1.925,4.22-4.297
					c0-2.373-1.89-4.296-4.22-4.296h-6.563c-2.33,0-4.219,1.923-4.219,4.296C817.488,49.479,819.377,51.404,821.707,51.404z"/>
			</g>
			<g>
				<path fill="none" stroke="#999999" stroke-miterlimit="10" d="M828.27,55.221h-6.563c-2.33,0-4.219,1.923-4.219,4.295
					c0,2.371,1.889,4.296,4.219,4.296h6.563c2.33,0,4.22-1.925,4.22-4.296C832.488,57.144,830.6,55.221,828.27,55.221z
					 M821.707,51.404h6.563c2.33,0,4.22-1.925,4.22-4.297c0-2.373-1.89-4.296-4.22-4.296h-6.563c-2.33,0-4.219,1.923-4.219,4.296
					C817.488,49.479,819.377,51.404,821.707,51.404z"/>
			</g>
		</g>
		<g id="_x31__4_">
			<g id="_x31__8_">
				<path fill="#FFF000" stroke="#999999" stroke-linejoin="round" stroke-miterlimit="10" d="M797.488,197.323l6.608,7.486
					c0,0,10.502-0.108,10.39,0.002c-0.088,0.088,0-14.902,0-14.978c0-0.051-10.39,0.002-10.39,0.002L797.488,197.323"/>
				
					<text transform="matrix(1 0 0 1 804.9785 200.8555)" fill="#444444" font-family="'Arial'" font-size="10" letter-spacing="1">1</text>
			</g>
			<g id="_x31__7_">
				<path fill="#4098F5" stroke="#999999" stroke-linejoin="round" stroke-miterlimit="10" d="M797.488,284.323l6.608,7.485
					c0,0,10.502-0.107,10.39,0.002c-0.088,0.088,0-14.901,0-14.978c0-0.051-10.39,0.002-10.39,0.002L797.488,284.323"/>
				
					<text transform="matrix(1 0 0 1 804.9785 287.8555)" fill="#FFFFFF" font-family="'Arial'" font-size="10" letter-spacing="1">2</text>
			</g>
			<g id="_x31__6_">
				<path fill="#4098F5" stroke="#999999" stroke-linejoin="round" stroke-miterlimit="10" d="M797.488,369.323l6.608,7.485
					c0,0,10.502-0.107,10.39,0.002c-0.088,0.088,0-14.901,0-14.978c0-0.051-10.39,0.002-10.39,0.002L797.488,369.323"/>
				
					<text transform="matrix(1 0 0 1 804.9785 372.8555)" fill="#FFFFFF" font-family="'Arial'" font-size="10" letter-spacing="1">3</text>
			</g>
			<g id="_x31__5_">
				<path fill="#4098F5" stroke="#999999" stroke-linejoin="round" stroke-miterlimit="10" d="M797.488,455.323l6.608,7.485
					c0,0,10.502-0.107,10.39,0.002c-0.088,0.089,0-14.901,0-14.978c0-0.051-10.39,0.002-10.39,0.002L797.488,455.323"/>
				
					<text transform="matrix(1 0 0 1 804.9785 458.8555)" fill="#FFFFFF" font-family="'Arial'" font-size="10" letter-spacing="1">4</text>
			</g>
		</g>
		<text transform="matrix(1 0 0 1 494.1289 145.9922)" fill="#231815" font-family="'Arial'" font-size="10">PW3</text>
		<text transform="matrix(1 0 0 1 300.7959 145.9922)" fill="#231815" font-family="'Arial'" font-size="10">PW2</text>
		<text transform="matrix(1 0 0 1 107.4629 145.9922)" fill="#231815" font-family="'Arial'" font-size="10">PW1</text>
		<text transform="matrix(1 0 0 1 687.4629 145.9922)" fill="#231815" font-family="'Arial'" font-size="10">PW4</text>
		<text transform="matrix(1 0 0 1 120.749 28.2168)" fill="#231815" font-family="'Arial'" font-size="15">DGS-6604</text>
	</g>
</g>
</svg>
