<svg version="1.1" id="_x31_" xmlns="http://www.w3.org/2000/svg" xmlns:xlink="http://www.w3.org/1999/xlink" x="0px" y="0px"
	 width="760px" height="77px" viewBox="0 0 760 77" enable-background="new 0 0 760 77" xml:space="preserve">
<g id="_x31__1_">
	<g id="_x31__67_">
		<g id="_x31__93_">
			<path fill="#888888" d="M301.367,16.431v45.375H93.821V16.431H301.367 M302.367,15.431H92.821v47.375h209.546V15.431
				L302.367,15.431z"/>
		</g>
		<g id="_x31__68_">
			<g id="_x31__90_">
				<g id="_x31__92_">
					<path fill="#888888" d="M241.374,19.371v1.961v1h1h3.917v11.82h-19.637v-11.82h3.917h1v-1v-1.961H241.374 M242.374,18.371
						h-11.803v2.961h-4.917v13.82h21.637v-13.82h-4.917V18.371L242.374,18.371z"/>
				</g>
				<g id="_x31__91_">
					<path fill="#888888" d="M246.289,43.989v11.818h-3.917h-1v1v1.96h-9.803v-1.96v-1h-1h-3.917V43.989H246.289 M247.289,42.989
						h-21.637v13.818h4.917v2.96h11.803v-2.96h4.917V42.989L247.289,42.989z"/>
				</g>
				<text transform="matrix(0.9963 0 0 1 231.2964 11.3628)" fill="#444444" font-family="'Arial'" font-size="7.8968">11</text>
				<text transform="matrix(0.9963 0 0 1 231.2944 72.1992)" fill="#444444" font-family="'Arial'" font-size="7.8968">12</text>
			</g>
			<g id="_x31__87_">
				<g id="_x31__89_">
					<path fill="#888888" d="M267.234,19.394v1.961v1h1h3.917v11.818h-19.637V22.355h3.918h1v-1v-1.961H267.234 M268.234,18.394
						h-11.802v2.961h-4.918v13.818h21.637V21.355h-4.917V18.394L268.234,18.394z"/>
				</g>
				<g id="_x31__88_">
					<path fill="#888888" d="M272.149,44.013v11.816h-3.917h-1v1v1.961h-9.802v-1.961v-1h-1h-3.918V44.013H272.149 M273.149,43.013
						h-21.637v13.816h4.918v2.961h11.802v-2.961h4.917V43.013L273.149,43.013z"/>
				</g>
				<text transform="matrix(0.9963 0 0 1 257.1582 11.3853)" fill="#444444" font-family="'Arial'" font-size="7.8968">13</text>
				<text transform="matrix(0.9963 0 0 1 257.1563 72.2217)" fill="#444444" font-family="'Arial'" font-size="7.8968">14</text>
			</g>
			<g id="_x31__84_">
				<g id="_x31__86_">
					<path fill="#888888" d="M293.09,19.371v1.961v1h1h3.917v11.82H278.37v-11.82h3.917h1v-1v-1.961H293.09 M294.09,18.371h-11.803
						v2.961h-4.917v13.82h21.637v-13.82h-4.917V18.371L294.09,18.371z"/>
				</g>
				<g id="_x31__85_">
					<path fill="#888888" d="M298.005,43.989v11.818h-3.917h-1v1v1.96h-9.803v-1.96v-1h-1h-3.917V43.989H298.005 M299.005,42.989
						h-21.637v13.818h4.917v2.96h11.803v-2.96h4.917V42.989L299.005,42.989z"/>
				</g>
				<text transform="matrix(0.9963 0 0 1 283.0122 11.3628)" fill="#444444" font-family="'Arial'" font-size="7.8968">15</text>
				<text transform="matrix(0.9963 0 0 1 283.0103 72.1992)" fill="#444444" font-family="'Arial'" font-size="7.8968">16</text>
			</g>
			<g id="_x31__81_">
				<g id="_x31__83_">
					<path fill="#888888" d="M215.457,19.371v1.961v1h1h3.918v11.82h-19.638v-11.82h3.918h1v-1v-1.961H215.457 M216.457,18.371
						h-11.802v2.961h-4.918v13.82h21.638v-13.82h-4.918V18.371L216.457,18.371z"/>
				</g>
				<g id="_x31__82_">
					<path fill="#888888" d="M220.427,43.989v11.818h-3.918h-1v1v1.96h-9.802v-1.96v-1h-1h-3.917V43.989H220.427 M221.427,42.989
						H199.79v13.818h4.917v2.96h11.802v-2.96h4.918V42.989L221.427,42.989z"/>
				</g>
				<text transform="matrix(0.9963 0 0 1 208.4102 11.3628)" fill="#444444" font-family="'Arial'" font-size="7.8968">9</text>
				<text transform="matrix(0.9963 0 0 1 205.7749 72.1992)" fill="#444444" font-family="'Arial'" font-size="7.8968">10</text>
			</g>
			<g id="_x31__78_">
				<g id="_x31__80_">
					<path fill="#888888" d="M189.567,19.371v1.961v1h1h3.918v11.82h-19.637v-11.82h3.917h1v-1v-1.961H189.567 M190.567,18.371
						h-11.802v2.961h-4.917v13.82h21.637v-13.82h-4.918V18.371L190.567,18.371z"/>
				</g>
				<g id="_x31__79_">
					<path fill="#888888" d="M194.537,43.989v11.818h-3.918h-1v1v1.96h-9.802v-1.96v-1h-1H174.9V43.989H194.537 M195.537,42.989
						H173.9v13.818h4.917v2.96h11.802v-2.96h4.918V42.989L195.537,42.989z"/>
				</g>
				<text transform="matrix(0.9963 0 0 1 182.521 11.3628)" fill="#444444" font-family="'Arial'" font-size="7.8968">7</text>
				<text transform="matrix(0.9963 0 0 1 182.4668 72.1992)" fill="#444444" font-family="'Arial'" font-size="7.8968">8</text>
			</g>
			<g id="_x31__75_">
				<g id="_x31__77_">
					<path fill="#888888" d="M163.68,19.371v1.961v1h1h3.918v11.82h-19.637v-11.82h3.917h1v-1v-1.961H163.68 M164.68,18.371h-11.802
						v2.961h-4.917v13.82h21.637v-13.82h-4.918V18.371L164.68,18.371z"/>
				</g>
				<g id="_x31__76_">
					<path fill="#888888" d="M168.649,43.989v11.818h-3.918h-1v1v1.96h-9.802v-1.96v-1h-1h-3.917V43.989H168.649 M169.649,42.989
						h-21.637v13.818h4.917v2.96h11.802v-2.96h4.918V42.989L169.649,42.989z"/>
				</g>
				<text transform="matrix(0.9963 0 0 1 156.6323 11.3628)" fill="#444444" font-family="'Arial'" font-size="7.8968">5</text>
				<text transform="matrix(0.9963 0 0 1 156.5781 72.1992)" fill="#444444" font-family="'Arial'" font-size="7.8968">6</text>
			</g>
			<g id="_x31__73_">
				<g id="_x31__74_">
					<path fill="#888888" d="M137.79,19.371v1.961v1h1h3.918v11.82h-19.637v-11.82h3.917h1v-1v-1.961H137.79 M138.79,18.371h-11.802
						v2.961h-4.917v13.82h21.637v-13.82h-4.918V18.371L138.79,18.371z"/>
				</g>
				<g id="_x31__72_">
					<path fill="#888888" d="M142.76,43.989v11.818h-3.918h-1v1v1.96h-9.802v-1.96v-1h-1h-3.917V43.989H142.76 M143.76,42.989
						h-21.637v13.818h4.917v2.96h11.802v-2.96h4.918V42.989L143.76,42.989z"/>
				</g>
				<text transform="matrix(0.9963 0 0 1 130.7432 11.3628)" fill="#444444" font-family="'Arial'" font-size="7.8968">3</text>
				<text transform="matrix(0.9963 0 0 1 130.6895 72.1992)" fill="#444444" font-family="'Arial'" font-size="7.8968">4</text>
			</g>
			<g id="_x31__69_">
				<g id="_x31__71_">
					<path fill="#888888" d="M111.902,19.371v1.961v1h1h3.918v11.82H97.184v-11.82h3.917h1v-1v-1.961H111.902 M112.902,18.371
						h-11.802v2.961h-4.917v13.82h21.637v-13.82h-4.918V18.371L112.902,18.371z"/>
				</g>
				<g id="_x31__70_">
					<path fill="#888888" d="M116.872,43.989v11.818h-3.918h-1v1v1.96h-9.802v-1.96v-1h-1h-3.917V43.989H116.872 M117.872,42.989
						H96.235v13.818h4.917v2.96h11.802v-2.96h4.918V42.989L117.872,42.989z"/>
				</g>
				<text transform="matrix(0.9963 0 0 1 104.854 11.3628)" fill="#444444" font-family="'Arial'" font-size="7.8968">1</text>
				<text transform="matrix(0.9963 0 0 1 104.8003 72.1992)" fill="#444444" font-family="'Arial'" font-size="7.8968">2</text>
			</g>
		</g>
	</g>
	<g id="_x31__40_">
		<g id="_x31__66_">
			<path fill="#888888" d="M523.168,16.455v45.374H315.621V16.455H523.168 M524.168,15.455H314.621v47.374h209.547V15.455
				L524.168,15.455z"/>
		</g>
		<g id="_x31__41_">
			<g id="_x31__63_">
				<g id="_x31__65_">
					<path fill="#888888" d="M463.173,19.394v1.961v1h1h3.917v11.818h-19.637V22.355h3.918h1v-1v-1.961H463.173 M464.173,18.394
						h-11.802v2.961h-4.918v13.818h21.637V21.355h-4.917V18.394L464.173,18.394z"/>
				</g>
				<g id="_x31__64_">
					<path fill="#888888" d="M468.088,44.013v11.816h-3.917h-1v1v1.961h-9.802v-1.961v-1h-1h-3.918V44.013H468.088 M469.088,43.013
						h-21.637v13.816h4.918v2.961h11.802v-2.961h4.917V43.013L469.088,43.013z"/>
				</g>
				<text transform="matrix(0.9963 0 0 1 453.0957 11.3853)" fill="#444444" font-family="'Arial'" font-size="7.8968">27</text>
				<text transform="matrix(0.9963 0 0 1 453.0938 72.2217)" fill="#444444" font-family="'Arial'" font-size="7.8968">28</text>
			</g>
			<g id="_x31__59_">
				<g id="_x31__62_">
					<path fill="#888888" d="M489.033,19.417v1.961v1h1h3.918v11.819h-19.637V22.377h3.918h1v-1v-1.961H489.033 M490.033,18.417
						h-11.801v2.961h-4.918v13.819h21.637V21.377h-4.918V18.417L490.033,18.417z"/>
				</g>
				<g id="_x31__61_">
					<path fill="#888888" d="M493.949,44.034v11.818h-3.918h-1v1v1.96h-9.801v-1.96v-1h-1h-3.918V44.034H493.949 M494.949,43.034
						h-21.637v13.818h4.918v2.96h11.801v-2.96h4.918V43.034L494.949,43.034z"/>
				</g>
				<text transform="matrix(0.9963 0 0 1 478.957 11.4077)" fill="#444444" font-family="'Arial'" font-size="7.8968">29</text>
				<text transform="matrix(0.9963 0 0 1 478.9551 72.2441)" fill="#444444" font-family="'Arial'" font-size="7.8968">30</text>
			</g>
			<g id="_x31__56_">
				<g id="_x31__60_">
					<path fill="#888888" d="M514.889,19.394v1.961v1h1h3.918v11.818H500.17V22.355h3.917h1v-1v-1.961H514.889 M515.889,18.394
						h-11.802v2.961h-4.917v13.818h21.637V21.355h-4.918V18.394L515.889,18.394z"/>
				</g>
				<g id="_x31__58_">
					<path fill="#888888" d="M519.805,44.013v11.816h-3.918h-1v1v1.961h-9.802v-1.961v-1h-1h-3.917V44.013H519.805 M520.805,43.013
						h-21.637v13.816h4.917v2.961h11.802v-2.961h4.918V43.013L520.805,43.013z"/>
				</g>
				<text transform="matrix(0.9963 0 0 1 504.8115 11.3853)" fill="#444444" font-family="'Arial'" font-size="7.8968">31</text>
				<text transform="matrix(0.9963 0 0 1 504.8096 72.2217)" fill="#444444" font-family="'Arial'" font-size="7.8968">32</text>
			</g>
			<g id="_x31__54_">
				<g id="_x31__57_">
					<path fill="#888888" d="M437.256,19.394v1.961v1h1h3.918v11.818h-19.637V22.355h3.918h1v-1v-1.961H437.256 M438.256,18.394
						h-11.801v2.961h-4.918v13.818h21.637V21.355h-4.918V18.394L438.256,18.394z"/>
				</g>
				<g id="_x31__55_">
					<path fill="#888888" d="M442.226,44.013v11.816h-3.917h-1v1v1.961h-9.803v-1.961v-1h-1h-3.917V44.013H442.226 M443.226,43.013
						h-21.637v13.816h4.917v2.961h11.803v-2.961h4.917V43.013L443.226,43.013z"/>
				</g>
				<text transform="matrix(0.9963 0 0 1 427.6279 11.3853)" fill="#444444" font-family="'Arial'" font-size="7.8968">25</text>
				<text transform="matrix(0.9963 0 0 1 427.5742 72.2217)" fill="#444444" font-family="'Arial'" font-size="7.8968">26</text>
			</g>
			<g id="_x31__51_">
				<g id="_x31__53_">
					<path fill="#888888" d="M411.367,19.394v1.961v1h1h3.917v11.818h-19.637V22.355h3.917h1v-1v-1.961H411.367 M412.367,18.394
						h-11.803v2.961h-4.917v13.818h21.637V21.355h-4.917V18.394L412.367,18.394z"/>
				</g>
				<g id="_x31__52_">
					<path fill="#888888" d="M416.336,44.013v11.816h-3.918h-1v1v1.961h-9.801v-1.961v-1h-1h-3.918V44.013H416.336 M417.336,43.013
						h-21.637v13.816h4.918v2.961h11.801v-2.961h4.918V43.013L417.336,43.013z"/>
				</g>
				<text transform="matrix(0.9963 0 0 1 401.7383 11.3853)" fill="#444444" font-family="'Arial'" font-size="7.8968">23</text>
				<text transform="matrix(0.9963 0 0 1 401.6855 72.2217)" fill="#444444" font-family="'Arial'" font-size="7.8968">24</text>
			</g>
			<g id="_x31__48_">
				<g id="_x31__50_">
					<path fill="#888888" d="M385.479,19.394v1.961v1h1h3.918v11.818H370.76V22.355h3.917h1v-1v-1.961H385.479 M386.479,18.394
						h-11.802v2.961h-4.917v13.818h21.637V21.355h-4.918V18.394L386.479,18.394z"/>
				</g>
				<g id="_x31__49_">
					<path fill="#888888" d="M390.448,44.013v11.816h-3.917h-1v1v1.961h-9.803v-1.961v-1h-1h-3.917V44.013H390.448 M391.448,43.013
						h-21.637v13.816h4.917v2.961h11.803v-2.961h4.917V43.013L391.448,43.013z"/>
				</g>
				<text transform="matrix(0.9963 0 0 1 375.8501 11.3853)" fill="#444444" font-family="'Arial'" font-size="7.8968">21</text>
				<text transform="matrix(0.9963 0 0 1 375.7964 72.2217)" fill="#444444" font-family="'Arial'" font-size="7.8968">22</text>
			</g>
			<g id="_x31__45_">
				<g id="_x31__47_">
					<path fill="#888888" d="M359.589,19.394v1.961v1h1h3.918v11.818H344.87V22.355h3.917h1v-1v-1.961H359.589 M360.589,18.394
						h-11.802v2.961h-4.917v13.818h21.637V21.355h-4.918V18.394L360.589,18.394z"/>
				</g>
				<g id="_x31__46_">
					<path fill="#888888" d="M364.559,44.013v11.816h-3.917h-1v1v1.961h-9.803v-1.961v-1h-1h-3.917V44.013H364.559 M365.559,43.013
						h-21.637v13.816h4.917v2.961h11.803v-2.961h4.917V43.013L365.559,43.013z"/>
				</g>
				<text transform="matrix(0.9963 0 0 1 349.9609 11.3853)" fill="#444444" font-family="'Arial'" font-size="7.8968">19</text>
				<text transform="matrix(0.9963 0 0 1 349.9072 72.2217)" fill="#444444" font-family="'Arial'" font-size="7.8968">20</text>
			</g>
			<g id="_x31__42_">
				<g id="_x31__44_">
					<path fill="#888888" d="M333.701,19.394v1.961v1h1h3.918v11.818h-19.637V22.355h3.917h1v-1v-1.961H333.701 M334.701,18.394
						h-11.802v2.961h-4.917v13.818h21.637V21.355h-4.918V18.394L334.701,18.394z"/>
				</g>
				<g id="_x31__43_">
					<path fill="#888888" d="M338.671,44.013v11.816h-3.917h-1v1v1.961h-9.803v-1.961v-1h-1h-3.917V44.013H338.671 M339.671,43.013
						h-21.637v13.816h4.917v2.961h11.803v-2.961h4.917V43.013L339.671,43.013z"/>
				</g>
				<text transform="matrix(0.9963 0 0 1 324.0718 11.3853)" fill="#444444" font-family="'Arial'" font-size="7.8968">17</text>
				<text transform="matrix(0.9963 0 0 1 324.0181 72.2217)" fill="#444444" font-family="'Arial'" font-size="7.8968">18</text>
			</g>
		</g>
	</g>
	<g id="_x31__13_">
		<g id="_x31__39_">
			<path fill="#888888" d="M742.457,16.477v45.375H534.912V16.477H742.457 M743.457,15.477H533.912v47.375h209.545V15.477
				L743.457,15.477z"/>
		</g>
		<g id="_x31__15_">
			<g id="_x31__36_">
				<g id="_x31__38_">
					<path fill="#888888" d="M682.465,19.417v1.961v1h1h3.918v11.819h-19.637V22.377h3.917h1v-1v-1.961H682.465 M683.465,18.417
						h-11.802v2.961h-4.917v13.819h21.637V21.377h-4.918V18.417L683.465,18.417z"/>
				</g>
				<g id="_x31__37_">
					<path fill="#888888" d="M687.381,44.034v11.818h-3.918h-1v1v1.96h-9.802v-1.96v-1h-1h-3.917V44.034H687.381 M688.381,43.034
						h-21.637v13.818h4.917v2.96h11.802v-2.96h4.918V43.034L688.381,43.034z"/>
				</g>
				<text transform="matrix(0.9963 0 0 1 672.3857 11.4077)" fill="#444444" font-family="'Arial'" font-size="7.8968">43</text>
				<text transform="matrix(0.9963 0 0 1 672.3838 72.2441)" fill="#444444" font-family="'Arial'" font-size="7.8968">44</text>
			</g>
			<g id="_x31__33_">
				<g id="_x31__35_">
					<path fill="#888888" d="M708.326,19.439v1.962v1h1h3.917v11.818h-19.638V22.401h3.918h1v-1v-1.962H708.326 M709.326,18.439
						h-11.803v2.962h-4.918v13.818h21.638V21.401h-4.917V18.439L709.326,18.439z"/>
				</g>
				<g id="_x31__34_">
					<path fill="#888888" d="M713.241,44.058v11.817h-3.917h-1v1v1.96h-9.803v-1.96v-1h-1h-3.917V44.058H713.241 M714.241,43.058
						h-21.637v13.817h4.917v2.96h11.803v-2.96h4.917V43.058L714.241,43.058z"/>
				</g>
				<text transform="matrix(0.9963 0 0 1 698.248 11.4302)" fill="#444444" font-family="'Arial'" font-size="7.8968">45</text>
				<text transform="matrix(0.9963 0 0 1 698.2461 72.2676)" fill="#444444" font-family="'Arial'" font-size="7.8968">46</text>
			</g>
			<g id="_x31__30_">
				<g id="_x31__32_">
					<path fill="#888888" d="M734.181,19.417v1.961v1h1h3.917v11.819h-19.637V22.377h3.918h1v-1v-1.961H734.181 M735.181,18.417
						h-11.802v2.961h-4.918v13.819h21.637V21.377h-4.917V18.417L735.181,18.417z"/>
				</g>
				<g id="_x31__31_">
					<path fill="#888888" d="M739.096,44.034v11.818h-3.917h-1v1v1.96h-9.802v-1.96v-1h-1h-3.918V44.034H739.096 M740.096,43.034
						h-21.637v13.818h4.918v2.96h11.802v-2.96h4.917V43.034L740.096,43.034z"/>
				</g>
				<text transform="matrix(0.9963 0 0 1 724.1016 11.4077)" fill="#444444" font-family="'Arial'" font-size="7.8968">47</text>
				<text transform="matrix(0.9963 0 0 1 724.0996 72.2441)" fill="#444444" font-family="'Arial'" font-size="7.8968">48</text>
			</g>
			<g id="_x31__27_">
				<g id="_x31__29_">
					<path fill="#888888" d="M656.549,19.417v1.961v1h1h3.917v11.819h-19.637V22.377h3.917h1v-1v-1.961H656.549 M657.549,18.417
						h-11.803v2.961h-4.917v13.819h21.637V21.377h-4.917V18.417L657.549,18.417z"/>
				</g>
				<g id="_x31__28_">
					<path fill="#888888" d="M661.518,44.034v11.818H657.6h-1v1v1.96h-9.801v-1.96v-1h-1h-3.918V44.034H661.518 M662.518,43.034
						h-21.637v13.818h4.918v2.96H657.6v-2.96h4.918V43.034L662.518,43.034z"/>
				</g>
				<text transform="matrix(0.9963 0 0 1 646.918 11.4077)" fill="#444444" font-family="'Arial'" font-size="7.8968">41</text>
				<text transform="matrix(0.9963 0 0 1 646.8652 72.2441)" fill="#444444" font-family="'Arial'" font-size="7.8968">42</text>
			</g>
			<g id="_x31__24_">
				<g id="_x31__26_">
					<path fill="#888888" d="M630.658,19.417v1.961v1h1h3.918v11.819h-19.637V22.377h3.918h1v-1v-1.961H630.658 M631.658,18.417
						h-11.801v2.961h-4.918v13.819h21.637V21.377h-4.918V18.417L631.658,18.417z"/>
				</g>
				<g id="_x31__25_">
					<path fill="#888888" d="M635.628,44.034v11.818h-3.917h-1v1v1.96h-9.803v-1.96v-1h-1h-3.918V44.034H635.628 M636.628,43.034
						H614.99v13.818h4.918v2.96h11.803v-2.96h4.917V43.034L636.628,43.034z"/>
				</g>
				<text transform="matrix(0.9963 0 0 1 621.0293 11.4077)" fill="#444444" font-family="'Arial'" font-size="7.8968">39</text>
				<text transform="matrix(0.9963 0 0 1 620.9756 72.2441)" fill="#444444" font-family="'Arial'" font-size="7.8968">40</text>
			</g>
			<g id="_x31__21_">
				<g id="_x31__23_">
					<path fill="#888888" d="M604.771,19.417v1.961v1h1h3.917v11.819h-19.637V22.377h3.918h1v-1v-1.961H604.771 M605.771,18.417
						h-11.802v2.961h-4.918v13.819h21.637V21.377h-4.917V18.417L605.771,18.417z"/>
				</g>
				<g id="_x31__22_">
					<path fill="#888888" d="M609.74,44.034v11.818h-3.918h-1v1v1.96h-9.802v-1.96v-1h-1h-3.917V44.034H609.74 M610.74,43.034
						h-21.637v13.818h4.917v2.96h11.802v-2.96h4.918V43.034L610.74,43.034z"/>
				</g>
				<text transform="matrix(0.9963 0 0 1 595.1406 11.4077)" fill="#444444" font-family="'Arial'" font-size="7.8968">37</text>
				<text transform="matrix(0.9963 0 0 1 595.0869 72.2441)" fill="#444444" font-family="'Arial'" font-size="7.8968">38</text>
			</g>
			<g id="_x31__18_">
				<g id="_x31__19_">
					<path fill="#888888" d="M578.881,19.417v1.961v1h1h3.918v11.819h-19.637V22.377h3.917h1v-1v-1.961H578.881 M579.881,18.417
						h-11.802v2.961h-4.917v13.819h21.637V21.377h-4.918V18.417L579.881,18.417z"/>
				</g>
				<g id="_x31__20_">
					<path fill="#888888" d="M583.85,44.034v11.818h-3.917h-1v1v1.96h-9.802v-1.96v-1h-1h-3.918V44.034H583.85 M584.85,43.034
						h-21.637v13.818h4.918v2.96h11.802v-2.96h4.917V43.034L584.85,43.034z"/>
				</g>
				<text transform="matrix(0.9963 0 0 1 569.252 11.4077)" fill="#444444" font-family="'Arial'" font-size="7.8968">35</text>
				<text transform="matrix(0.9963 0 0 1 569.1973 72.2441)" fill="#444444" font-family="'Arial'" font-size="7.8968">36</text>
			</g>
			<g id="_x31__14_">
				<g id="_x31__17_">
					<path fill="#888888" d="M552.993,19.417v1.961v1h1h3.917v11.819h-19.637V22.377h3.918h1v-1v-1.961H552.993 M553.993,18.417
						h-11.802v2.961h-4.918v13.819h21.637V21.377h-4.917V18.417L553.993,18.417z"/>
				</g>
				<g id="_x31__16_">
					<path fill="#888888" d="M557.963,44.034v11.818h-3.918h-1v1v1.96h-9.802v-1.96v-1h-1h-3.917V44.034H557.963 M558.963,43.034
						h-21.637v13.818h4.917v2.96h11.802v-2.96h4.918V43.034L558.963,43.034z"/>
				</g>
				<text transform="matrix(0.9963 0 0 1 543.3623 11.4077)" fill="#444444" font-family="'Arial'" font-size="7.8968">33</text>
				<text transform="matrix(0.9963 0 0 1 543.3086 72.2441)" fill="#444444" font-family="'Arial'" font-size="7.8968">34</text>
			</g>
		</g>
	</g>
	<g id="_x31__2_">
		<g id="_x31__12_">
			<path fill="#999999" d="M756.113,2C757.705,2,759,3.301,759,4.899v68.203C759,74.7,757.705,76,756.113,76H3.888
				C2.295,76,1,74.7,1,73.103V4.899C1,3.301,2.295,2,3.888,2H756.113 M756.113,1H3.888C1.74,1,0,2.747,0,4.899v68.203
				C0,75.255,1.74,77,3.888,77h752.226c2.146,0,3.887-1.745,3.887-3.897V4.899C760,2.747,758.26,1,756.113,1L756.113,1z"/>
		</g>
		<g id="_x31__3_">
			<path id="_x31__11_" fill="#444444" d="M28.091,15.277h3.965c0.261,0,0.32,0.292,0.115,0.643l-0.786,1.316
				c-0.233,0.352-0.612,0.615-0.904,0.615h-3.963c-0.263,0-0.32-0.264-0.117-0.615l0.816-1.316
				C27.421,15.569,27.83,15.277,28.091,15.277"/>
			<path id="_x31__9_" fill="#444444" d="M46.977,9.104c1.456-0.118,3.178,1.024,2.332,2.514c-0.816,1.377-3.761,1.728-4.663,1.639
				c-0.262-0.029-0.729-0.205-0.729-0.672c0.029-0.322,0.204-1.434,0.816-2.31C45.373,9.427,46.307,9.163,46.977,9.104"/>
			<path id="_x31__10_" fill="#444444" d="M56.04,12.029c0.467-0.205,0.495,0.294,0.495,0.439v1.141
				c0,0.234,0.175,0.117,0.264,0.088c1.369-0.585,2.739-1.434,4.518-1.404c1.544,0.03,2.011,1.287,2.011,2.691v6.055
				c0,0.525,0.029,0.672,0.29,0.878c0.06,0.029,0.496,0.058,0.642,0.058c0.175,0,0.175,0.146,0.117,0.264l-0.35,0.936
				c-0.088,0.176-0.263,0.205-0.38,0.205H60.12c-1.253-0.029-1.603-0.966-1.603-1.433v-5.763c0-1.171-1.923-1.258-1.923,0.322v4.854
				c0.029,0.235-0.03,0.557,0.582,0.586c0.409,0,0.699-0.029,0.496,0.438l-0.321,0.789c-0.058,0.117-0.232,0.205-0.378,0.205h-5.859
				c-0.115,0-0.232-0.146-0.203-0.234l0.407-1.082c0.03-0.029,0.06-0.116,0.117-0.116c0.203,0,0.32-0.118,0.378-0.673v-6.289
				c0-0.526-0.465-0.469-0.814-0.469c-0.175,0-0.263-0.028-0.205-0.232l0.32-0.703c0.031-0.176,0.117-0.234,0.234-0.264
				C53.271,13.025,54.409,12.877,56.04,12.029"/>
			<path id="_x31__8_" fill="#444444" d="M79.765,10.595c0.086,0,0.175-0.029,0.232-0.029c0.058-0.027,0.088-0.059,0.117-0.117
				c0.058-0.028,0.058-0.088,0.058-0.145c0-0.089-0.029-0.147-0.087-0.205c-0.03-0.029-0.146-0.059-0.32-0.088V9.836
				c0.232,0,0.378,0.059,0.495,0.146c0.087,0.059,0.146,0.175,0.146,0.322c0,0.116-0.06,0.234-0.146,0.32
				c-0.088,0.06-0.205,0.118-0.35,0.146c0.058,0.031,0.115,0.059,0.145,0.059c0.03,0.031,0.06,0.088,0.117,0.176
				c0.06,0.059,0.117,0.146,0.146,0.204l0.175,0.294h-0.261l-0.177-0.294c-0.115-0.204-0.204-0.321-0.29-0.38V10.595z
				 M79.765,12.263c0.378-0.029,0.728-0.176,0.991-0.438c0.32-0.321,0.465-0.673,0.465-1.111c0-0.409-0.145-0.79-0.465-1.082
				c-0.264-0.292-0.613-0.439-0.991-0.439v0.176c0.35,0,0.642,0.146,0.874,0.38c0.261,0.264,0.407,0.613,0.407,0.965
				c0,0.38-0.146,0.702-0.407,0.964c-0.232,0.264-0.524,0.41-0.874,0.41V12.263z M79.326,10.012v0.583h0.204h0.234v0.234
				c-0.089-0.027-0.175-0.059-0.292-0.059h-0.146v0.732h-0.203V9.836h0.642v0.176h-0.117H79.326z M79.765,9.192h-0.089
				c-0.407,0-0.785,0.147-1.077,0.439s-0.438,0.673-0.438,1.082c0,0.438,0.146,0.79,0.438,1.111c0.292,0.292,0.67,0.438,1.077,0.438
				h0.089v-0.176h-0.089c-0.378,0-0.699-0.117-0.96-0.41c-0.264-0.262-0.409-0.584-0.409-0.964c0-0.352,0.146-0.702,0.409-0.965
				c0.261-0.264,0.582-0.38,0.96-0.38h0.089V9.192z"/>
			<path id="_x31__7_" fill="#444444" d="M70.321,9.368c0.35-0.06,0.524,0.146,0.524,0.526v6.025
				c0.058,0.352,0.292,0.117,0.35,0.029l2.098-2.662c0.206-0.262,0.759-0.32,1.08-0.32h4.4h0.146c0.087,0,0.115,0.086,0.029,0.204
				l-0.584,0.789c-0.029,0.06-0.087,0.146-0.35,0.146h-0.232c-0.204,0.031-0.232,0.09-0.321,0.146l-2.331,2.604
				c-0.496,0.585-0.379,0.848,0.059,1.257l3.206,3.306c0.699,0.498,1.339,0.527,2.098,0.556c0.175,0.031,0.146,0.176,0.058,0.264
				l-0.816,0.936c-0.086,0.146-0.436,0.205-0.64,0.205h-3.177c-0.407,0-1.137-0.117-1.719-0.498
				c-1.138-0.935-1.865-2.135-3.003-3.188c-0.175-0.205-0.35-0.117-0.35,0.059v1.375c0,0.613,0.264,0.79,1.166,0.819
				c0.35,0.028,0.262,0.204,0.175,0.409l-0.292,0.789c-0.086,0.176-0.203,0.234-0.378,0.234h-6.559c-0.203,0-0.35-0.059-0.29-0.175
				l0.35-0.966c0.087-0.176,0.145-0.232,0.407-0.232c0.467-0.031,0.642-0.178,0.642-0.879v-8.863c0-0.322-0.088-0.438-0.292-0.409
				L64.93,11.97c-0.232,0.059-0.292-0.146-0.175-0.32l0.495-0.848c0.117-0.178,0.292-0.207,0.496-0.236
				c1.661-0.262,3.352-0.76,4.4-1.14C70.204,9.396,70.264,9.368,70.321,9.368"/>
			<path id="_x31__6_" fill="#444444" d="M49.191,12.937c0.204-0.089,0.467,0.088,0.407,0.525v7.811
				c0.117,0.555,0.292,0.701,0.788,0.76c0,0,0.32,0,0.232,0.234L50.3,23.085c-0.117,0.264-0.205,0.293-0.497,0.293h-6.089
				c-0.175,0-0.234-0.117-0.175-0.293l0.29-0.76c0.06-0.117,0.088-0.234,0.292-0.264c0.612-0.146,0.642-0.234,0.642-1.053V16.3
				c0-0.79-0.117-0.731-1.021-0.643c-0.146-0.059-0.146-0.205-0.117-0.264l0.438-0.848c0.146-0.266,0.29-0.266,0.29-0.266
				C46.103,14.165,47.822,13.726,49.191,12.937"/>
			<path id="_x31__5_" fill="#444444" d="M18.794,23.378c1.254,0.029,2.71,0,4.051-1.082c1.08-0.701,2.332-3.54,2.799-4.709
				c0.232-0.615,0.292-1.434,0-2.019c-0.816-1.843-1.982-3.892-2.739-4.71c-1.108-1.023-2.128-1.111-3.876-1.111h-0.234v2.691
				l2.1,3.685c0.203,0.439,0.146,0.646,0,0.937l-2.1,3.568V23.378z M18.444,23.378h0.35v-2.75L18.387,21.3
				c-0.292,0.439-0.438,0.352-0.816,0.382h-0.991v-9.828c0-0.264,0.028-0.38,0.263-0.409h0.729c0.263,0,0.642-0.059,0.845,0.351
				l0.379,0.644V9.748h-7.111c-0.32,0-0.67,0.088-0.785,0.293l-0.524,0.994c-0.089,0.41,0.407,0.439,0.407,0.439h0.728
				c0.206,0,0.264,0.176,0.264,0.321v9.155c0,0.409-0.467,0.673-0.846,0.76c-0.146,0.029-0.409,0.088-0.524,0.264l-0.524,1.053
				c-0.088,0.205,0.058,0.352,0.232,0.352C13.023,23.378,15.53,23.408,18.444,23.378"/>
			<path id="_x31__4_" fill="#444444" d="M39.428,9.836c0.321,0,0.438,0.205,0.379,0.321l-0.669,1.2c0,0-0.088,0.233-0.642,0.233
				h-0.06c-0.378,0-0.668,0-0.699,0.761v8.688c0,0.38,0.146,0.672,0.613,0.701h0.874c1.458-0.029,1.429-1.52,1.748-2.836
				c0.088-0.205,0.146-0.352,0.38-0.469l1.311-0.439c0.146,0,0.32,0,0.35,0.265v4.388c0.06,0.409-0.319,0.789-0.814,0.73H31.122
				c-0.407,0-0.495-0.117-0.407-0.38l0.407-0.907c0,0,0.117-0.234,0.495-0.234c0.816-0.029,1.341-0.059,1.313-1.316V12.41
				c0-0.527-0.117-0.848-0.642-0.848h-0.642c-0.407,0-0.64-0.146-0.524-0.381l0.555-1.052c0.145-0.264,0.262-0.293,0.465-0.293
				H39.428z"/>
		</g>
	</g>
</g>
</svg>
