<svg version="1.1" id="_x31_" xmlns="http://www.w3.org/2000/svg" xmlns:xlink="http://www.w3.org/1999/xlink" x="0px" y="0px"
	 width="760px" height="77px" viewBox="0 0 760 77" enable-background="new 0 0 760 77" xml:space="preserve">
<g id="_x31__15_">
	<g id="_x31__2_">
		<g id="_x31__1_">
			<path fill="#888888" d="M391.584,51.112v7h-128v-7H391.584 M392.584,50.112h-130v9h130V50.112L392.584,50.112z"/>
		</g>
		<text transform="matrix(0.9999 0 0 1 324.959 46.4121)" fill="#444444" font-family="'Arial'" font-size="8.0007">2</text>
	</g>
	<g id="_x31__4_">
		<g id="_x31__3_">
			<path fill="#888888" d="M221.584,51.112v7h-128v-7H221.584 M222.584,50.112h-130v9h130V50.112L222.584,50.112z"/>
		</g>
		<text transform="matrix(0.9999 0 0 1 155.7593 46.4121)" fill="#444444" font-family="'Arial'" font-size="8.0007">1</text>
	</g>
	<g id="_x31__5_">
		<path fill="#999999" d="M756.047,1C757.675,1,759,2.323,759,3.95v69.102c0,1.626-1.325,2.948-2.953,2.948H3.953
			C2.325,76,1,74.678,1,73.052V3.95C1,2.323,2.325,1,3.953,1H756.047 M756.047,0H3.953C1.77,0,0,1.769,0,3.95v69.102
			C0,75.233,1.77,77,3.953,77h752.094c2.184,0,3.953-1.767,3.953-3.948V3.95C760,1.769,758.23,0,756.047,0L756.047,0z"/>
	</g>
	<g id="_x31__14_">
		<path id="_x31__6_" fill="#444444" d="M28.563,14.464h4.03c0.267,0,0.326,0.296,0.118,0.651l-0.8,1.333
			c-0.237,0.356-0.622,0.623-0.919,0.623h-4.029c-0.268,0-0.326-0.267-0.119-0.623l0.83-1.333
			C27.881,14.76,28.296,14.464,28.563,14.464"/>
		<path id="_x31__7_" fill="#444444" d="M47.766,8.211c1.48-0.12,3.229,1.037,2.37,2.548c-0.829,1.394-3.823,1.749-4.741,1.66
			c-0.267-0.03-0.74-0.208-0.74-0.682c0.029-0.326,0.207-1.452,0.829-2.342C46.135,8.537,47.084,8.27,47.766,8.211"/>
		<path id="_x31__8_" fill="#444444" d="M56.98,11.174c0.475-0.208,0.504,0.297,0.504,0.444v1.156c0,0.237,0.178,0.118,0.268,0.089
			c1.393-0.593,2.785-1.452,4.593-1.423c1.57,0.03,2.045,1.304,2.045,2.727v6.134c0,0.533,0.029,0.682,0.296,0.89
			c0.06,0.029,0.504,0.059,0.651,0.059c0.179,0,0.179,0.148,0.119,0.267l-0.355,0.948c-0.089,0.178-0.267,0.208-0.386,0.208h-3.586
			c-1.273-0.03-1.629-0.979-1.629-1.452v-5.838c0-1.186-1.956-1.274-1.956,0.326v4.919c0.03,0.237-0.03,0.563,0.593,0.593
			c0.415,0,0.711-0.029,0.504,0.444l-0.326,0.8c-0.06,0.119-0.237,0.208-0.385,0.208h-5.957c-0.118,0-0.236-0.148-0.207-0.237
			l0.414-1.097c0.03-0.029,0.061-0.118,0.119-0.118c0.207,0,0.326-0.119,0.385-0.682v-6.372c0-0.534-0.474-0.475-0.829-0.475
			c-0.178,0-0.267-0.029-0.208-0.236l0.326-0.712c0.03-0.178,0.119-0.237,0.237-0.267C54.166,12.182,55.321,12.033,56.98,11.174"/>
		<path id="_x31__9_" fill="#444444" d="M81.103,9.722c0.089,0,0.178-0.029,0.237-0.029c0.059-0.029,0.089-0.06,0.118-0.119
			c0.06-0.029,0.06-0.089,0.06-0.147c0-0.089-0.03-0.148-0.089-0.207c-0.03-0.03-0.148-0.06-0.326-0.09V8.951
			c0.237,0,0.385,0.06,0.504,0.148c0.089,0.06,0.148,0.178,0.148,0.326c0,0.118-0.06,0.237-0.148,0.326
			c-0.089,0.059-0.208,0.118-0.355,0.147c0.059,0.03,0.118,0.06,0.147,0.06c0.03,0.03,0.06,0.089,0.119,0.178
			c0.06,0.06,0.118,0.148,0.147,0.207l0.178,0.297h-0.266l-0.179-0.297c-0.118-0.207-0.207-0.325-0.296-0.385V9.722z M81.103,11.411
			c0.385-0.029,0.74-0.178,1.008-0.444c0.326-0.326,0.474-0.682,0.474-1.126c0-0.415-0.147-0.801-0.474-1.097
			C81.843,8.448,81.487,8.3,81.103,8.3v0.178c0.355,0,0.652,0.148,0.889,0.385c0.267,0.267,0.415,0.622,0.415,0.979
			c0,0.385-0.148,0.711-0.415,0.978c-0.236,0.267-0.533,0.415-0.889,0.415V11.411z M80.658,9.129v0.593h0.207h0.237v0.237
			c-0.089-0.029-0.178-0.06-0.296-0.06h-0.148v0.741H80.45V8.951h0.652v0.178h-0.119H80.658z M81.103,8.3h-0.089
			c-0.415,0-0.8,0.148-1.097,0.444c-0.296,0.296-0.444,0.682-0.444,1.097c0,0.444,0.148,0.8,0.444,1.126
			c0.297,0.296,0.682,0.444,1.097,0.444h0.089v-0.178h-0.089c-0.386,0-0.712-0.119-0.978-0.415
			c-0.268-0.267-0.415-0.593-0.415-0.978c0-0.356,0.147-0.712,0.415-0.979c0.266-0.267,0.592-0.385,0.978-0.385h0.089V8.3z"/>
		<path id="_x31__10_" fill="#444444" d="M71.501,8.478c0.356-0.06,0.533,0.148,0.533,0.533v6.105
			c0.06,0.355,0.297,0.118,0.356,0.029l2.133-2.697c0.208-0.267,0.771-0.326,1.097-0.326h4.475h0.148
			c0.089,0,0.118,0.089,0.029,0.208l-0.593,0.8c-0.029,0.059-0.089,0.147-0.355,0.147h-0.237c-0.207,0.03-0.236,0.09-0.326,0.148
			l-2.37,2.638c-0.504,0.593-0.385,0.859,0.06,1.274l3.26,3.349c0.711,0.504,1.362,0.533,2.133,0.563
			c0.178,0.03,0.148,0.178,0.06,0.267l-0.83,0.948c-0.089,0.148-0.444,0.208-0.651,0.208h-3.23c-0.414,0-1.155-0.119-1.748-0.504
			c-1.156-0.948-1.896-2.163-3.052-3.231c-0.179-0.207-0.356-0.118-0.356,0.06v1.393c0,0.622,0.268,0.801,1.186,0.83
			c0.355,0.029,0.267,0.207,0.178,0.415l-0.296,0.8c-0.089,0.178-0.208,0.237-0.386,0.237h-6.667c-0.207,0-0.355-0.06-0.296-0.178
			l0.355-0.979c0.089-0.178,0.147-0.236,0.415-0.236c0.474-0.03,0.651-0.178,0.651-0.89v-8.979c0-0.326-0.089-0.444-0.297-0.415
			l-0.859,0.118c-0.236,0.06-0.296-0.147-0.177-0.325l0.503-0.859c0.119-0.178,0.297-0.208,0.504-0.237
			c1.689-0.267,3.408-0.771,4.475-1.155C71.383,8.507,71.442,8.478,71.501,8.478"/>
		<path id="_x31__11_" fill="#444444" d="M50.018,12.093c0.207-0.089,0.474,0.089,0.414,0.533v7.913
			c0.119,0.563,0.297,0.711,0.801,0.771c0,0,0.326,0,0.236,0.236l-0.325,0.83c-0.118,0.267-0.208,0.297-0.505,0.297h-6.192
			c-0.178,0-0.237-0.119-0.178-0.297l0.296-0.771c0.06-0.118,0.089-0.236,0.297-0.267c0.622-0.147,0.651-0.237,0.651-1.066V15.5
			c0-0.8-0.118-0.74-1.037-0.651c-0.147-0.06-0.147-0.207-0.118-0.267l0.444-0.86c0.148-0.268,0.296-0.268,0.296-0.268
			C46.876,13.337,48.625,12.893,50.018,12.093"/>
		<path id="_x31__12_" fill="#444444" d="M19.109,22.673c1.274,0.029,2.756,0,4.119-1.097c1.097-0.711,2.371-3.586,2.846-4.771
			c0.236-0.623,0.296-1.452,0-2.045c-0.83-1.868-2.016-3.942-2.786-4.772c-1.126-1.037-2.163-1.126-3.941-1.126h-0.237v2.727
			l2.134,3.734c0.208,0.444,0.148,0.652,0,0.948l-2.134,3.616V22.673z M18.754,22.673h0.355v-2.786l-0.414,0.682
			c-0.297,0.444-0.445,0.355-0.83,0.386h-1.008v-9.958c0-0.267,0.029-0.385,0.268-0.415h0.74c0.267,0,0.652-0.059,0.859,0.355
			l0.385,0.652V8.862h-7.23c-0.326,0-0.682,0.089-0.8,0.297l-0.533,1.007c-0.089,0.415,0.415,0.445,0.415,0.445h0.74
			c0.208,0,0.268,0.178,0.268,0.325v9.276c0,0.415-0.475,0.682-0.859,0.771c-0.148,0.029-0.416,0.089-0.534,0.267l-0.533,1.066
			c-0.089,0.208,0.06,0.356,0.237,0.356C13.242,22.673,15.791,22.702,18.754,22.673"/>
		<path id="_x31__13_" fill="#444444" d="M40.09,8.951c0.326,0,0.445,0.208,0.385,0.326l-0.681,1.215c0,0-0.089,0.237-0.652,0.237
			h-0.06c-0.385,0-0.681,0-0.711,0.771v8.802c0,0.386,0.148,0.682,0.623,0.711h0.889c1.481-0.029,1.452-1.54,1.777-2.875
			c0.09-0.207,0.148-0.355,0.386-0.475l1.333-0.444c0.148,0,0.326,0,0.355,0.268v4.445c0.06,0.415-0.325,0.801-0.829,0.741H31.645
			c-0.415,0-0.504-0.119-0.415-0.386l0.415-0.918c0,0,0.119-0.237,0.504-0.237c0.83-0.029,1.363-0.06,1.334-1.334V11.56
			c0-0.534-0.119-0.859-0.652-0.859h-0.652c-0.414,0-0.651-0.148-0.533-0.386l0.563-1.066c0.147-0.267,0.267-0.297,0.474-0.297
			H40.09z"/>
	</g>
</g>
</svg>
