<svg version="1.1" id="1" xmlns="http://www.w3.org/2000/svg" xmlns:xlink="http://www.w3.org/1999/xlink" x="0px" y="0px"
	 width="760px" height="77px" viewBox="0 0 760 77" enable-background="new 0 0 760 77" xml:space="preserve">
<g>
	<g>
		<path fill="#999999" d="M756.047,1C757.675,1,759,2.323,759,3.949v69.103c0,1.626-1.325,2.948-2.953,2.948H3.954
			C2.325,76,1,74.678,1,73.052V3.949C1,2.323,2.325,1,3.954,1H756.047 M756.047,0H3.954C1.77,0,0,1.769,0,3.949v69.103
			C0,75.232,1.77,77,3.954,77h752.093c2.184,0,3.953-1.768,3.953-3.948V3.949C760,1.769,758.23,0,756.047,0L756.047,0z"/>
	</g>
	<g>
		<path fill="#444444" d="M28.565,14.464h4.031c0.267,0,0.326,0.296,0.118,0.651l-0.8,1.333c-0.237,0.357-0.622,0.624-0.919,0.624
			h-4.029c-0.268,0-0.326-0.267-0.119-0.624l0.83-1.333C27.883,14.76,28.298,14.464,28.565,14.464"/>
		<path fill="#444444" d="M47.77,8.21C49.25,8.091,51,9.248,50.14,10.758c-0.829,1.395-3.824,1.75-4.742,1.661
			c-0.267-0.03-0.74-0.208-0.74-0.682c0.029-0.326,0.207-1.453,0.829-2.342C46.139,8.537,47.088,8.269,47.77,8.21"/>
		<path fill="#444444" d="M56.985,11.174c0.475-0.208,0.504,0.297,0.504,0.444v1.156c0,0.237,0.178,0.118,0.268,0.089
			c1.393-0.593,2.786-1.452,4.593-1.423c1.57,0.03,2.045,1.304,2.045,2.727v6.134c0,0.533,0.029,0.682,0.296,0.89
			c0.06,0.029,0.504,0.059,0.651,0.059c0.179,0,0.179,0.148,0.119,0.267l-0.355,0.949c-0.089,0.178-0.267,0.208-0.386,0.208h-3.586
			c-1.274-0.03-1.629-0.979-1.629-1.453v-5.838c0-1.186-1.956-1.274-1.956,0.326v4.919c0.03,0.237-0.03,0.563,0.593,0.593
			c0.415,0,0.711-0.029,0.504,0.444l-0.326,0.8c-0.06,0.119-0.237,0.208-0.385,0.208h-5.958c-0.118,0-0.236-0.148-0.207-0.237
			l0.414-1.098c0.03-0.029,0.061-0.118,0.119-0.118c0.207,0,0.326-0.119,0.385-0.682v-6.372c0-0.533-0.474-0.475-0.829-0.475
			c-0.178,0-0.267-0.029-0.208-0.236l0.326-0.712c0.03-0.178,0.119-0.237,0.237-0.267C54.17,12.182,55.326,12.033,56.985,11.174"/>
		<path fill="#444444" d="M81.109,9.721c0.089,0,0.178-0.029,0.237-0.029c0.059-0.029,0.089-0.06,0.118-0.119
			c0.06-0.029,0.06-0.089,0.06-0.147c0-0.089-0.03-0.148-0.089-0.207c-0.03-0.03-0.148-0.06-0.326-0.09V8.951
			c0.237,0,0.385,0.06,0.504,0.148c0.089,0.06,0.148,0.178,0.148,0.326c0,0.118-0.06,0.237-0.148,0.326
			c-0.089,0.059-0.208,0.118-0.355,0.147c0.059,0.03,0.118,0.06,0.147,0.06c0.03,0.03,0.06,0.089,0.119,0.178
			c0.06,0.06,0.118,0.148,0.147,0.207l0.178,0.297h-0.266l-0.179-0.297c-0.118-0.207-0.207-0.325-0.296-0.385V9.721z M81.109,11.411
			c0.385-0.029,0.74-0.178,1.008-0.444c0.326-0.327,0.474-0.683,0.474-1.127c0-0.415-0.147-0.8-0.474-1.096
			c-0.268-0.296-0.623-0.444-1.008-0.444v0.178c0.355,0,0.652,0.148,0.889,0.385c0.267,0.267,0.415,0.622,0.415,0.978
			c0,0.385-0.148,0.711-0.415,0.978c-0.236,0.268-0.533,0.416-0.889,0.416V11.411z M80.665,9.128v0.592h0.207h0.237v0.237
			c-0.089-0.029-0.178-0.06-0.296-0.06h-0.148v0.741h-0.208V8.951h0.652v0.178H80.99H80.665z M81.109,8.299h-0.089
			c-0.415,0-0.8,0.148-1.097,0.444c-0.296,0.296-0.444,0.682-0.444,1.096c0,0.444,0.148,0.8,0.444,1.127
			c0.297,0.296,0.682,0.444,1.097,0.444h0.089v-0.178h-0.089c-0.386,0-0.712-0.119-0.978-0.416
			c-0.268-0.267-0.415-0.593-0.415-0.978c0-0.356,0.147-0.711,0.415-0.978c0.266-0.267,0.592-0.385,0.978-0.385h0.089V8.299z"/>
		<path fill="#444444" d="M71.507,8.477c0.357-0.06,0.534,0.148,0.534,0.533v6.105c0.06,0.355,0.297,0.118,0.356,0.029l2.133-2.696
			c0.208-0.267,0.771-0.326,1.097-0.326h4.475h0.148c0.089,0,0.118,0.089,0.029,0.208l-0.593,0.8
			c-0.029,0.059-0.089,0.147-0.355,0.147h-0.237c-0.207,0.03-0.236,0.09-0.326,0.148l-2.371,2.637
			c-0.504,0.594-0.385,0.86,0.06,1.275l3.26,3.349c0.711,0.504,1.362,0.533,2.133,0.563c0.178,0.03,0.148,0.178,0.06,0.267
			l-0.83,0.949c-0.089,0.148-0.444,0.208-0.651,0.208h-3.231c-0.414,0-1.155-0.119-1.748-0.504c-1.156-0.948-1.896-2.163-3.052-3.23
			c-0.179-0.207-0.356-0.118-0.356,0.06v1.393c0,0.622,0.268,0.801,1.186,0.83c0.355,0.029,0.267,0.207,0.178,0.415l-0.296,0.801
			c-0.089,0.177-0.208,0.237-0.386,0.237h-6.667c-0.207,0-0.356-0.06-0.296-0.178l0.356-0.979c0.089-0.178,0.147-0.236,0.415-0.236
			c0.474-0.03,0.651-0.178,0.651-0.89v-8.979c0-0.326-0.089-0.444-0.297-0.415l-0.859,0.118c-0.237,0.06-0.296-0.147-0.177-0.326
			l0.503-0.859c0.119-0.178,0.297-0.208,0.504-0.237c1.689-0.266,3.408-0.77,4.475-1.155C71.389,8.506,71.448,8.477,71.507,8.477"/>
		<path fill="#444444" d="M50.022,12.093c0.207-0.089,0.474,0.089,0.414,0.533v7.913c0.119,0.563,0.297,0.711,0.801,0.771
			c0,0,0.326,0,0.236,0.236l-0.325,0.831c-0.118,0.266-0.208,0.296-0.505,0.296H44.45c-0.178,0-0.237-0.119-0.178-0.296l0.296-0.771
			c0.06-0.118,0.089-0.236,0.297-0.267c0.622-0.147,0.651-0.237,0.651-1.066V15.5c0-0.8-0.118-0.74-1.037-0.651
			c-0.147-0.06-0.147-0.207-0.118-0.267l0.444-0.859c0.148-0.268,0.296-0.268,0.296-0.268C46.88,13.337,48.629,12.893,50.022,12.093
			"/>
		<path fill="#444444" d="M19.111,22.673c1.275,0.029,2.756,0,4.12-1.097c1.097-0.711,2.372-3.586,2.846-4.771
			c0.236-0.624,0.296-1.453,0-2.045c-0.831-1.867-2.016-3.942-2.787-4.772c-1.126-1.037-2.163-1.125-3.942-1.125h-0.237v2.727
			l2.134,3.733c0.208,0.444,0.148,0.652,0,0.948l-2.134,3.616V22.673z M18.755,22.673h0.355v-2.787l-0.414,0.682
			c-0.297,0.444-0.445,0.355-0.83,0.386h-1.008v-9.958c0-0.268,0.029-0.386,0.268-0.416h0.74c0.267,0,0.652-0.059,0.859,0.356
			l0.385,0.652V8.862H11.88c-0.326,0-0.682,0.089-0.8,0.297l-0.533,1.006c-0.089,0.415,0.415,0.445,0.415,0.445h0.74
			c0.208,0,0.268,0.178,0.268,0.326v9.276c0,0.415-0.475,0.682-0.859,0.771c-0.148,0.029-0.416,0.089-0.534,0.267l-0.533,1.067
			c-0.089,0.208,0.06,0.356,0.237,0.356C13.243,22.673,15.792,22.702,18.755,22.673"/>
		<path fill="#444444" d="M40.093,8.951c0.326,0,0.445,0.208,0.385,0.326l-0.681,1.214c0,0-0.089,0.237-0.652,0.237h-0.06
			c-0.385,0-0.681,0-0.711,0.771v8.801c0,0.386,0.148,0.682,0.623,0.711h0.889c1.481-0.029,1.452-1.54,1.777-2.874
			c0.09-0.207,0.148-0.355,0.386-0.475l1.333-0.444c0.148,0,0.326,0,0.355,0.268v4.444c0.06,0.416-0.325,0.801-0.829,0.742H31.647
			c-0.416,0-0.504-0.119-0.416-0.385l0.416-0.919c0,0,0.119-0.237,0.504-0.237c0.83-0.029,1.363-0.06,1.334-1.334V11.56
			c0-0.534-0.119-0.86-0.652-0.86h-0.652c-0.414,0-0.651-0.148-0.533-0.386l0.563-1.066c0.147-0.267,0.267-0.297,0.474-0.297H40.093
			z"/>
	</g>
</g>
<g>
	<g>
		<g>
			<g>
				<rect x="333.553" y="43.996" fill-rule="evenodd" clip-rule="evenodd" fill="#FFFFFF" width="24.974" height="16.002"/>
				<path fill="#888888" d="M358.026,44.496v15.002h-23.974V44.496h7.658h8.658H358.026 M359.026,43.496h-8.658h-8.658h-8.658
					v17.002h25.974V43.496L359.026,43.496z"/>
			</g>
			<g>
				<path fill="#888888" d="M360.039,42.496v19.002h-27.997V42.496H360.039 M361.039,41.496h-29.997v21.002h29.997V41.496
					L361.039,41.496z"/>
			</g>
			<text transform="matrix(1.0001 0 0 1 343.834 71.9004)" fill="#444444" font-family="'Arial'" font-size="8">6</text>
		</g>
		<g>
			<g>
				<g>
					<rect x="333.553" y="17" fill-rule="evenodd" clip-rule="evenodd" fill="#FFFFFF" width="24.974" height="16.002"/>
					<path fill="#888888" d="M358.026,17.5v15.002h-23.974V17.5h7.658h8.658H358.026 M359.026,16.5h-8.658h-8.658h-8.658v17.002
						h25.974V16.5L359.026,16.5z"/>
				</g>
				<g>
					<path fill="#888888" d="M360.039,15.499v19.002h-27.997V15.499H360.039 M361.039,14.499h-29.997v21.002h29.997V14.499
						L361.039,14.499z"/>
				</g>
			</g>
			<text transform="matrix(1.0001 0 0 1 343.834 10.2725)" fill="#444444" font-family="'Arial'" font-size="8">5</text>
		</g>
	</g>
	<g>
		<g>
			<g>
				<rect x="300.729" y="43.996" fill-rule="evenodd" clip-rule="evenodd" fill="#FFFFFF" width="24.975" height="16.002"/>
				<path fill="#888888" d="M325.204,44.496v15.002h-23.975V44.496h7.658h8.658H325.204 M326.204,43.496h-8.659h-8.658h-8.658
					v17.002h25.975V43.496L326.204,43.496z"/>
			</g>
			<g>
				<path fill="#888888" d="M327.215,42.496v19.002h-27.998V42.496H327.215 M328.215,41.496h-29.998v21.002h29.998V41.496
					L328.215,41.496z"/>
			</g>
			<text transform="matrix(1.0001 0 0 1 311.0103 71.9004)" fill="#444444" font-family="'Arial'" font-size="8">4</text>
		</g>
		<g>
			<g>
				<g>
					<rect x="300.729" y="17" fill-rule="evenodd" clip-rule="evenodd" fill="#FFFFFF" width="24.975" height="16.002"/>
					<path fill="#888888" d="M325.204,17.5v15.002h-23.975V17.5h7.658h8.658H325.204 M326.204,16.5h-8.659h-8.658h-8.658v17.002
						h25.975V16.5L326.204,16.5z"/>
				</g>
				<g>
					<path fill="#888888" d="M327.215,15.499v19.002h-27.998V15.499H327.215 M328.215,14.499h-29.998v21.002h29.998V14.499
						L328.215,14.499z"/>
				</g>
			</g>
			<text transform="matrix(1.0001 0 0 1 311.0103 10.2725)" fill="#444444" font-family="'Arial'" font-size="8">3</text>
		</g>
	</g>
	<g>
		<g>
			<g>
				<rect x="267.905" y="43.996" fill-rule="evenodd" clip-rule="evenodd" fill="#FFFFFF" width="24.975" height="16.002"/>
				<path fill="#888888" d="M292.38,44.496v15.002h-23.975V44.496h7.657h8.659H292.38 M293.38,43.496h-8.659h-8.659h-8.657v17.002
					h25.975V43.496L293.38,43.496z"/>
			</g>
			<g>
				<path fill="#888888" d="M294.391,42.496v19.002h-27.998V42.496H294.391 M295.391,41.496h-29.998v21.002h29.998V41.496
					L295.391,41.496z"/>
			</g>
			<text transform="matrix(1.0001 0 0 1 278.186 71.9004)" fill="#444444" font-family="'Arial'" font-size="8">2</text>
		</g>
		<g>
			<g>
				<g>
					<rect x="267.905" y="17" fill-rule="evenodd" clip-rule="evenodd" fill="#FFFFFF" width="24.975" height="16.002"/>
					<path fill="#888888" d="M292.38,17.5v15.002h-23.975V17.5h7.657h8.659H292.38 M293.38,16.5h-8.659h-8.659h-8.657v17.002h25.975
						V16.5L293.38,16.5z"/>
				</g>
				<g>
					<path fill="#888888" d="M294.391,15.499v19.002h-27.998V15.499H294.391 M295.391,14.499h-29.998v21.002h29.998V14.499
						L295.391,14.499z"/>
				</g>
			</g>
			<text transform="matrix(1.0001 0 0 1 278.186 10.2725)" fill="#444444" font-family="'Arial'" font-size="8">1</text>
		</g>
	</g>
	<g>
		<g>
			<g>
				<rect x="366.435" y="43.996" fill-rule="evenodd" clip-rule="evenodd" fill="#FFFFFF" width="24.974" height="16.002"/>
				<path fill="#888888" d="M390.908,44.496v15.002h-23.974V44.496h7.658h8.658H390.908 M391.908,43.496h-8.658h-8.658h-8.658
					v17.002h25.974V43.496L391.908,43.496z"/>
			</g>
			<g>
				<path fill="#888888" d="M392.92,42.496v19.002h-27.997V42.496H392.92 M393.92,41.496h-29.997v21.002h29.997V41.496
					L393.92,41.496z"/>
			</g>
			<text transform="matrix(1.0001 0 0 1 376.7183 71.9004)" fill="#444444" font-family="'Arial'" font-size="8">8</text>
		</g>
		<g>
			<g>
				<g>
					<rect x="366.435" y="17" fill-rule="evenodd" clip-rule="evenodd" fill="#FFFFFF" width="24.974" height="16.002"/>
					<path fill="#888888" d="M390.908,17.5v15.002h-23.974V17.5h7.658h8.658H390.908 M391.908,16.5h-8.658h-8.658h-8.658v17.002
						h25.974V16.5L391.908,16.5z"/>
				</g>
				<g>
					<path fill="#888888" d="M392.92,15.499v19.002h-27.997V15.499H392.92 M393.92,14.499h-29.997v21.002h29.997V14.499
						L393.92,14.499z"/>
				</g>
			</g>
			<text transform="matrix(1.0001 0 0 1 376.7183 10.2725)" fill="#444444" font-family="'Arial'" font-size="8">7</text>
		</g>
	</g>
</g>
<g>
	<g>
		<g>
			<g>
				<rect x="472.032" y="43.98" fill-rule="evenodd" clip-rule="evenodd" fill="#FFFFFF" width="24.975" height="16.002"/>
				<path fill="#888888" d="M496.507,44.48v15.002h-23.975V44.48h7.657h8.658H496.507 M497.507,43.48h-8.659h-8.658h-8.657v17.002
					h25.975V43.48L497.507,43.48z"/>
			</g>
			<g>
				<path fill="#888888" d="M498.518,42.48v19.002h-27.997V42.48H498.518 M499.518,41.48h-29.997v21.002h29.997V41.48L499.518,41.48
					z"/>
			</g>
			<text transform="matrix(1.0001 0 0 1 479.6885 71.8848)" fill="#444444" font-family="'Arial'" font-size="8">14</text>
		</g>
		<g>
			<g>
				<g>
					<rect x="472.032" y="16.984" fill-rule="evenodd" clip-rule="evenodd" fill="#FFFFFF" width="24.975" height="16.002"/>
					<path fill="#888888" d="M496.507,17.484v15.002h-23.975V17.484h7.657h8.658H496.507 M497.507,16.484h-8.659h-8.658h-8.657
						v17.002h25.975V16.484L497.507,16.484z"/>
				</g>
				<g>
					<path fill="#888888" d="M498.518,15.483v19.002h-27.997V15.483H498.518 M499.518,14.483h-29.997v21.002h29.997V14.483
						L499.518,14.483z"/>
				</g>
			</g>
			<text transform="matrix(1.0001 0 0 1 479.6885 10.2568)" fill="#444444" font-family="'Arial'" font-size="8">13</text>
		</g>
	</g>
	<g>
		<g>
			<g>
				<rect x="439.209" y="43.98" fill-rule="evenodd" clip-rule="evenodd" fill="#FFFFFF" width="24.974" height="16.002"/>
				<path fill="#888888" d="M463.683,44.48v15.002h-23.974V44.48h7.657h8.659H463.683 M464.683,43.48h-8.657h-8.659h-8.657v17.002
					h25.974V43.48L464.683,43.48z"/>
			</g>
			<g>
				<path fill="#888888" d="M465.694,42.48v19.002h-27.997V42.48H465.694 M466.694,41.48h-29.997v21.002h29.997V41.48L466.694,41.48
					z"/>
			</g>
			<text transform="matrix(1.0001 0 0 1 446.8643 71.8848)" fill="#444444" font-family="'Arial'" font-size="8">12</text>
		</g>
		<g>
			<g>
				<g>
					<rect x="439.209" y="16.984" fill-rule="evenodd" clip-rule="evenodd" fill="#FFFFFF" width="24.974" height="16.002"/>
					<path fill="#888888" d="M463.683,17.484v15.002h-23.974V17.484h7.657h8.659H463.683 M464.683,16.484h-8.657h-8.659h-8.657
						v17.002h25.974V16.484L464.683,16.484z"/>
				</g>
				<g>
					<path fill="#888888" d="M465.694,15.483v19.002h-27.997V15.483H465.694 M466.694,14.483h-29.997v21.002h29.997V14.483
						L466.694,14.483z"/>
				</g>
			</g>
			<text transform="matrix(1.0001 0 0 1 446.8643 10.2568)" fill="#444444" font-family="'Arial'" font-size="8">11</text>
		</g>
	</g>
	<g>
		<g>
			<g>
				<rect x="406.385" y="43.98" fill-rule="evenodd" clip-rule="evenodd" fill="#FFFFFF" width="24.974" height="16.002"/>
				<path fill="#888888" d="M430.858,44.48v15.002h-23.974V44.48h7.658h8.658H430.858 M431.858,43.48h-8.657h-8.658h-8.658v17.002
					h25.974V43.48L431.858,43.48z"/>
			</g>
			<g>
				<path fill="#888888" d="M432.871,42.48v19.002h-27.997V42.48H432.871 M433.871,41.48h-29.997v21.002h29.997V41.48L433.871,41.48
					z"/>
			</g>
			<text transform="matrix(1.0001 0 0 1 414.04 71.8848)" fill="#444444" font-family="'Arial'" font-size="8">10</text>
		</g>
		<g>
			<g>
				<g>
					<rect x="406.385" y="16.984" fill-rule="evenodd" clip-rule="evenodd" fill="#FFFFFF" width="24.974" height="16.002"/>
					<path fill="#888888" d="M430.858,17.484v15.002h-23.974V17.484h7.658h8.658H430.858 M431.858,16.484h-8.657h-8.658h-8.658
						v17.002h25.974V16.484L431.858,16.484z"/>
				</g>
				<g>
					<path fill="#888888" d="M432.871,15.483v19.002h-27.997V15.483H432.871 M433.871,14.483h-29.997v21.002h29.997V14.483
						L433.871,14.483z"/>
				</g>
			</g>
			<text transform="matrix(1.0001 0 0 1 416.665 10.2568)" fill="#444444" font-family="'Arial'" font-size="8">9</text>
		</g>
	</g>
	<g>
		<g>
			<g>
				<rect x="504.914" y="43.98" fill-rule="evenodd" clip-rule="evenodd" fill="#FFFFFF" width="24.975" height="16.002"/>
				<path fill="#888888" d="M529.389,44.48v15.002h-23.975V44.48h7.657h8.658H529.389 M530.389,43.48h-8.659h-8.658h-8.657v17.002
					h25.975V43.48L530.389,43.48z"/>
			</g>
			<g>
				<path fill="#888888" d="M531.399,42.48v19.002h-27.997V42.48H531.399 M532.399,41.48h-29.997v21.002h29.997V41.48L532.399,41.48
					z"/>
			</g>
			<text transform="matrix(1.0001 0 0 1 512.5732 71.8848)" fill="#444444" font-family="'Arial'" font-size="8">16</text>
		</g>
		<g>
			<g>
				<g>
					<rect x="504.914" y="16.984" fill-rule="evenodd" clip-rule="evenodd" fill="#FFFFFF" width="24.975" height="16.002"/>
					<path fill="#888888" d="M529.389,17.484v15.002h-23.975V17.484h7.657h8.658H529.389 M530.389,16.484h-8.659h-8.658h-8.657
						v17.002h25.975V16.484L530.389,16.484z"/>
				</g>
				<g>
					<path fill="#888888" d="M531.399,15.483v19.002h-27.997V15.483H531.399 M532.399,14.483h-29.997v21.002h29.997V14.483
						L532.399,14.483z"/>
				</g>
			</g>
			<text transform="matrix(1.0001 0 0 1 512.5732 10.2568)" fill="#444444" font-family="'Arial'" font-size="8">15</text>
		</g>
	</g>
</g>
<g>
	<g>
		<g>
			<g>
				<rect x="610.48" y="43.98" fill-rule="evenodd" clip-rule="evenodd" fill="#FFFFFF" width="24.974" height="16.002"/>
				<path fill="#888888" d="M634.954,44.48v15.002H610.98V44.48h7.658h8.657H634.954 M635.954,43.48h-8.658h-8.657h-8.658v17.002
					h25.974V43.48L635.954,43.48z"/>
			</g>
			<g>
				<path fill="#888888" d="M636.966,42.48v19.002H608.97V42.48H636.966 M637.966,41.48H607.97v21.002h29.996V41.48L637.966,41.48z"
					/>
			</g>
			<text transform="matrix(1.0001 0 0 1 618.1348 71.8848)" fill="#444444" font-family="'Arial'" font-size="8">22</text>
		</g>
		<g>
			<g>
				<g>
					<rect x="610.48" y="16.984" fill-rule="evenodd" clip-rule="evenodd" fill="#FFFFFF" width="24.974" height="16.002"/>
					<path fill="#888888" d="M634.954,17.484v15.002H610.98V17.484h7.658h8.657H634.954 M635.954,16.484h-8.658h-8.657h-8.658
						v17.002h25.974V16.484L635.954,16.484z"/>
				</g>
				<g>
					<path fill="#888888" d="M636.966,15.483v19.002H608.97V15.483H636.966 M637.966,14.483H607.97v21.002h29.996V14.483
						L637.966,14.483z"/>
				</g>
			</g>
			<text transform="matrix(1.0001 0 0 1 618.1348 10.2568)" fill="#444444" font-family="'Arial'" font-size="8">21</text>
		</g>
	</g>
	<g>
		<g>
			<g>
				<rect x="577.656" y="43.98" fill-rule="evenodd" clip-rule="evenodd" fill="#FFFFFF" width="24.975" height="16.002"/>
				<path fill="#888888" d="M602.131,44.48v15.002h-23.975V44.48h7.658h8.658H602.131 M603.131,43.48h-8.658h-8.658h-8.658v17.002
					h25.975V43.48L603.131,43.48z"/>
			</g>
			<g>
				<path fill="#888888" d="M604.144,42.48v19.002h-27.998V42.48H604.144 M605.144,41.48h-29.998v21.002h29.998V41.48L605.144,41.48
					z"/>
			</g>
			<text transform="matrix(1.0001 0 0 1 585.3115 71.8848)" fill="#444444" font-family="'Arial'" font-size="8">20</text>
		</g>
		<g>
			<g>
				<g>
					<rect x="577.656" y="16.984" fill-rule="evenodd" clip-rule="evenodd" fill="#FFFFFF" width="24.975" height="16.002"/>
					<path fill="#888888" d="M602.131,17.484v15.002h-23.975V17.484h7.658h8.658H602.131 M603.131,16.484h-8.658h-8.658h-8.658
						v17.002h25.975V16.484L603.131,16.484z"/>
				</g>
				<g>
					<path fill="#888888" d="M604.144,15.483v19.002h-27.998V15.483H604.144 M605.144,14.483h-29.998v21.002h29.998V14.483
						L605.144,14.483z"/>
				</g>
			</g>
			<text transform="matrix(1.0001 0 0 1 585.3115 10.2568)" fill="#444444" font-family="'Arial'" font-size="8">19</text>
		</g>
	</g>
	<g>
		<g>
			<g>
				<rect x="544.833" y="43.98" fill-rule="evenodd" clip-rule="evenodd" fill="#FFFFFF" width="24.975" height="16.002"/>
				<path fill="#888888" d="M569.308,44.48v15.002h-23.975V44.48h7.657h8.659H569.308 M570.308,43.48h-8.658h-8.659h-8.657v17.002
					h25.975V43.48L570.308,43.48z"/>
			</g>
			<g>
				<path fill="#888888" d="M571.319,42.48v19.002h-27.998V42.48H571.319 M572.319,41.48h-29.998v21.002h29.998V41.48L572.319,41.48
					z"/>
			</g>
			<text transform="matrix(1.0001 0 0 1 552.4883 71.8848)" fill="#444444" font-family="'Arial'" font-size="8">18</text>
		</g>
		<g>
			<g>
				<g>
					<rect x="544.833" y="16.984" fill-rule="evenodd" clip-rule="evenodd" fill="#FFFFFF" width="24.975" height="16.002"/>
					<path fill="#888888" d="M569.308,17.484v15.002h-23.975V17.484h7.657h8.659H569.308 M570.308,16.484h-8.658h-8.659h-8.657
						v17.002h25.975V16.484L570.308,16.484z"/>
				</g>
				<g>
					<path fill="#888888" d="M571.319,15.483v19.002h-27.998V15.483H571.319 M572.319,14.483h-29.998v21.002h29.998V14.483
						L572.319,14.483z"/>
				</g>
			</g>
			<text transform="matrix(1.0001 0 0 1 552.4883 10.2568)" fill="#444444" font-family="'Arial'" font-size="8">17</text>
		</g>
	</g>
	<g>
		<g>
			<g>
				<rect x="643.362" y="43.98" fill-rule="evenodd" clip-rule="evenodd" fill="#FFFFFF" width="24.974" height="16.002"/>
				<path fill="#888888" d="M667.836,44.48v15.002h-23.974V44.48h7.658h8.657H667.836 M668.836,43.48h-8.658h-8.657h-8.658v17.002
					h25.974V43.48L668.836,43.48z"/>
			</g>
			<g>
				<path fill="#888888" d="M669.848,42.48v19.002h-27.996V42.48H669.848 M670.848,41.48h-29.996v21.002h29.996V41.48L670.848,41.48
					z"/>
			</g>
			<text transform="matrix(1.0001 0 0 1 651.0195 71.8848)" fill="#444444" font-family="'Arial'" font-size="8">24</text>
		</g>
		<g>
			<g>
				<g>
					<rect x="643.362" y="16.984" fill-rule="evenodd" clip-rule="evenodd" fill="#FFFFFF" width="24.974" height="16.002"/>
					<path fill="#888888" d="M667.836,17.484v15.002h-23.974V17.484h7.658h8.657H667.836 M668.836,16.484h-8.658h-8.657h-8.658
						v17.002h25.974V16.484L668.836,16.484z"/>
				</g>
				<g>
					<path fill="#888888" d="M669.848,15.483v19.002h-27.996V15.483H669.848 M670.848,14.483h-29.996v21.002h29.996V14.483
						L670.848,14.483z"/>
				</g>
			</g>
			<text transform="matrix(1.0001 0 0 1 651.0195 10.2568)" fill="#444444" font-family="'Arial'" font-size="8">23</text>
		</g>
	</g>
</g>
<g>
	<g>
		<g>
			<g>
				<rect x="684.53" y="43.996" fill-rule="evenodd" clip-rule="evenodd" fill="#FFFFFF" width="24.976" height="16.002"/>
				<path fill="#888888" d="M709.006,44.496v15.002H685.03V44.496h7.657h8.659H709.006 M710.006,43.496h-8.659h-8.659h-8.657v17.002
					h25.976V43.496L710.006,43.496z"/>
			</g>
			<g>
				<path fill="#888888" d="M711.017,42.496v19.002h-27.998V42.496H711.017 M712.017,41.496h-29.998v21.002h29.998V41.496
					L712.017,41.496z"/>
			</g>
			<text transform="matrix(1.0001 0 0 1 692.1855 71.9004)" fill="#444444" font-family="'Arial'" font-size="8">26</text>
		</g>
		<g>
			<g>
				<g>
					<rect x="684.53" y="17" fill-rule="evenodd" clip-rule="evenodd" fill="#FFFFFF" width="24.976" height="16.002"/>
					<path fill="#888888" d="M709.006,17.5v15.002H685.03V17.5h7.657h8.659H709.006 M710.006,16.5h-8.659h-8.659h-8.657v17.002
						h25.976V16.5L710.006,16.5z"/>
				</g>
				<g>
					<path fill="#888888" d="M711.017,15.499v19.002h-27.998V15.499H711.017 M712.017,14.499h-29.998v21.002h29.998V14.499
						L712.017,14.499z"/>
				</g>
			</g>
			<text transform="matrix(1.0001 0 0 1 692.1855 10.2725)" fill="#444444" font-family="'Arial'" font-size="8">25</text>
		</g>
	</g>
	<g>
		<g>
			<g>
				<rect x="719.357" y="43.996" fill-rule="evenodd" clip-rule="evenodd" fill="#FFFFFF" width="24.976" height="16.002"/>
				<path fill="#888888" d="M743.833,44.496v15.002h-23.976V44.496h7.657h8.659H743.833 M744.833,43.496h-8.659h-8.659h-8.657
					v17.002h25.976V43.496L744.833,43.496z"/>
			</g>
			<g>
				<path fill="#888888" d="M745.844,42.496v19.002h-27.998V42.496H745.844 M746.844,41.496h-29.998v21.002h29.998V41.496
					L746.844,41.496z"/>
			</g>
			<text transform="matrix(1.0001 0 0 1 727.0107 71.9004)" fill="#444444" font-family="'Arial'" font-size="8">28</text>
		</g>
		<g>
			<g>
				<g>
					<rect x="719.357" y="17" fill-rule="evenodd" clip-rule="evenodd" fill="#FFFFFF" width="24.976" height="16.002"/>
					<path fill="#888888" d="M743.833,17.5v15.002h-23.976V17.5h7.657h8.659H743.833 M744.833,16.5h-8.659h-8.659h-8.657v17.002
						h25.976V16.5L744.833,16.5z"/>
				</g>
				<g>
					<path fill="#888888" d="M745.844,15.499v19.002h-27.998V15.499H745.844 M746.844,14.499h-29.998v21.002h29.998V14.499
						L746.844,14.499z"/>
				</g>
			</g>
			<text transform="matrix(1.0001 0 0 1 727.0107 10.2725)" fill="#444444" font-family="'Arial'" font-size="8">27</text>
		</g>
	</g>
</g>
</svg>
