<svg version="1.1" id="1" xmlns="http://www.w3.org/2000/svg" xmlns:xlink="http://www.w3.org/1999/xlink" x="0px" y="0px"
	 width="760px" height="69px" viewBox="0 0 760 69" enable-background="new 0 0 760 69" xml:space="preserve">
<g>
	<g>
		<g>
			<g>
				<rect x="690.695" y="39.558" fill-rule="evenodd" clip-rule="evenodd" fill="#FFFFFF" width="22.313" height="14.237"/>
				<path fill="#888888" d="M712.508,40.058v13.237h-21.313V40.058h6.77h7.771H712.508 M713.508,39.058h-7.771h-7.771h-7.77v15.237
					h23.313V39.058L713.508,39.058z"/>
			</g>
			<g>
				<path fill="#888888" d="M714.313,38.267v16.819H689.39V38.267H714.313 M715.313,37.267H688.39v18.819h26.923V37.267
					L715.313,37.267z"/>
			</g>
			<text transform="matrix(1.0014 0 0 1 697.3594 64.5352)" fill="#444444" font-family="'Arial'" font-size="7.1696">50</text>
		</g>
		<g>
			<g>
				<rect x="690.695" y="15.366" fill-rule="evenodd" clip-rule="evenodd" fill="#FFFFFF" width="22.313" height="14.235"/>
				<path fill="#888888" d="M712.508,15.866v13.235h-21.313V15.866h6.77h7.771H712.508 M713.508,14.866h-7.771h-7.771h-7.77v15.235
					h23.313V14.866L713.508,14.866z"/>
			</g>
			<g>
				<path fill="#888888" d="M714.313,14.074v16.819H689.39V14.074H714.313 M715.313,13.074H688.39v18.819h26.923V13.074
					L715.313,13.074z"/>
			</g>
			<text transform="matrix(1.0014 0 0 1 697.4082 9.2983)" fill="#444444" font-family="'Arial'" font-size="7.1696">49</text>
		</g>
	</g>
	<g>
		<g>
			<g>
				<rect x="722.436" y="39.547" fill-rule="evenodd" clip-rule="evenodd" fill="#FFFFFF" width="22.313" height="14.237"/>
				<path fill="#888888" d="M744.249,40.047v13.237h-21.313V40.047h6.771h7.771H744.249 M745.249,39.047h-7.771h-7.771h-7.771
					v15.237h23.313V39.047L745.249,39.047z"/>
			</g>
			<g>
				<path fill="#888888" d="M746.055,38.256v16.819h-24.924V38.256H746.055 M747.055,37.256h-26.924v18.819h26.924V37.256
					L747.055,37.256z"/>
			</g>
			<text transform="matrix(1.0014 0 0 1 729.1006 64.5244)" fill="#444444" font-family="'Arial'" font-size="7.1696">52</text>
		</g>
		<g>
			<g>
				<rect x="722.436" y="15.355" fill-rule="evenodd" clip-rule="evenodd" fill="#FFFFFF" width="22.313" height="14.235"/>
				<path fill="#888888" d="M744.249,15.855v13.235h-21.313V15.855h6.771h7.771H744.249 M745.249,14.855h-7.771h-7.771h-7.771
					v15.235h23.313V14.855L745.249,14.855z"/>
			</g>
			<g>
				<path fill="#888888" d="M746.055,14.063v16.819h-24.924V14.063H746.055 M747.055,13.063h-26.924v18.819h26.924V13.063
					L747.055,13.063z"/>
			</g>
			<text transform="matrix(1.0014 0 0 1 729.1494 9.2876)" fill="#444444" font-family="'Arial'" font-size="7.1696">51</text>
		</g>
	</g>
	<g>
		<g>
			<path fill="#888888" d="M678.455,14.102v41.013H489.373V14.102H678.455 M679.455,13.102H488.373v43.013h191.082V13.102
				L679.455,13.102z"/>
		</g>
		<g>
			<g>
				<g>
					<polygon fill-rule="evenodd" clip-rule="evenodd" fill="#FFFFFF" points="657.372,30.506 657.372,18.959 661.859,18.959 
						661.859,16.271 671.629,16.271 671.629,18.959 676.115,18.959 676.115,30.506 					"/>
					<path fill="#888888" d="M671.129,16.771v1.688v1h1h3.486v10.547h-17.743V19.459h3.487h1v-1v-1.688H671.129 M672.129,15.771
						h-10.77v2.688h-4.487v12.547h19.743V18.459h-4.486V15.771L672.129,15.771z"/>
				</g>
				<g>
					<polygon fill-rule="evenodd" clip-rule="evenodd" fill="#FFFFFF" points="661.857,52.855 661.857,50.168 657.37,50.168 
						657.37,38.623 676.114,38.623 676.114,50.168 671.627,50.168 671.627,52.855 					"/>
					<path fill="#888888" d="M675.614,39.123v10.545h-3.487h-1v1v1.688h-8.77v-1.688v-1h-1h-3.487V39.123H675.614 M676.614,38.123
						H656.87v12.545h4.487v2.688h10.77v-2.688h4.487V38.123L676.614,38.123z"/>
				</g>
				<text transform="matrix(1.0014 0 0 1 662.0332 9.4385)" fill="#444444" font-family="'Arial'" font-size="7.1696">47</text>
				<text transform="matrix(1.0014 0 0 1 662.0322 64.6738)" fill="#444444" font-family="'Arial'" font-size="7.1696">48</text>
			</g>
			<g>
				<g>
					<polygon fill-rule="evenodd" clip-rule="evenodd" fill="#FFFFFF" points="633.686,30.506 633.686,18.959 638.173,18.959 
						638.173,16.271 647.942,16.271 647.942,18.959 652.43,18.959 652.43,30.506 					"/>
					<path fill="#888888" d="M647.442,16.771v1.688v1h1h3.487v10.547h-17.744V19.459h3.487h1v-1v-1.688H647.442 M648.442,15.771
						h-10.77v2.688h-4.487v12.547h19.744V18.459h-4.487V15.771L648.442,15.771z"/>
				</g>
				<g>
					<polygon fill-rule="evenodd" clip-rule="evenodd" fill="#FFFFFF" points="638.221,52.855 638.221,50.168 633.732,50.168 
						633.732,38.623 652.477,38.623 652.477,50.168 647.99,50.168 647.99,52.855 					"/>
					<path fill="#888888" d="M651.977,39.123v10.545h-3.486h-1v1v1.688h-8.77v-1.688v-1h-1h-3.488V39.123H651.977 M652.977,38.123
						h-19.744v12.545h4.488v2.688h10.77v-2.688h4.486V38.123L652.977,38.123z"/>
				</g>
				<text transform="matrix(1.0014 0 0 1 638.7568 9.4385)" fill="#444444" font-family="'Arial'" font-size="7.1696">45</text>
				<text transform="matrix(1.0014 0 0 1 638.708 64.6738)" fill="#444444" font-family="'Arial'" font-size="7.1696">46</text>
			</g>
			<g>
				<g>
					<polygon fill-rule="evenodd" clip-rule="evenodd" fill="#FFFFFF" points="610.023,30.506 610.023,18.959 614.511,18.959 
						614.511,16.271 624.28,16.271 624.28,18.959 628.768,18.959 628.768,30.506 					"/>
					<path fill="#888888" d="M623.78,16.771v1.688v1h1h3.487v10.547h-17.744V19.459h3.487h1v-1v-1.688H623.78 M624.78,15.771h-10.77
						v2.688h-4.487v12.547h19.744V18.459h-4.487V15.771L624.78,15.771z"/>
				</g>
				<g>
					<polygon fill-rule="evenodd" clip-rule="evenodd" fill="#FFFFFF" points="614.559,52.855 614.559,50.168 610.07,50.168 
						610.07,38.623 628.814,38.623 628.814,50.168 624.328,50.168 624.328,52.855 					"/>
					<path fill="#888888" d="M628.314,39.123v10.545h-3.486h-1v1v1.688h-8.77v-1.688v-1h-1h-3.488V39.123H628.314 M629.314,38.123
						H609.57v12.545h4.488v2.688h10.77v-2.688h4.486V38.123L629.314,38.123z"/>
				</g>
				<text transform="matrix(1.0014 0 0 1 615.0947 9.4385)" fill="#444444" font-family="'Arial'" font-size="7.1696">43</text>
				<text transform="matrix(1.0014 0 0 1 615.0459 64.6738)" fill="#444444" font-family="'Arial'" font-size="7.1696">44</text>
			</g>
			<g>
				<g>
					<polygon fill-rule="evenodd" clip-rule="evenodd" fill="#FFFFFF" points="586.361,30.506 586.361,18.959 590.849,18.959 
						590.849,16.271 600.618,16.271 600.618,18.959 605.105,18.959 605.105,30.506 					"/>
					<path fill="#888888" d="M600.118,16.771v1.688v1h1h3.487v10.547h-17.744V19.459h3.487h1v-1v-1.688H600.118 M601.118,15.771
						h-10.77v2.688h-4.487v12.547h19.744V18.459h-4.487V15.771L601.118,15.771z"/>
				</g>
				<g>
					<polygon fill-rule="evenodd" clip-rule="evenodd" fill="#FFFFFF" points="590.896,52.855 590.896,50.168 586.409,50.168 
						586.409,38.623 605.152,38.623 605.152,50.168 600.666,50.168 600.666,52.855 					"/>
					<path fill="#888888" d="M604.652,39.123v10.545h-3.486h-1v1v1.688h-8.77v-1.688v-1h-1h-3.487V39.123H604.652 M605.652,38.123
						h-19.743v12.545h4.487v2.688h10.77v-2.688h4.486V38.123L605.652,38.123z"/>
				</g>
				<text transform="matrix(1.0014 0 0 1 591.4326 9.4385)" fill="#444444" font-family="'Arial'" font-size="7.1696">41</text>
				<text transform="matrix(1.0014 0 0 1 591.3838 64.6738)" fill="#444444" font-family="'Arial'" font-size="7.1696">42</text>
			</g>
			<g>
				<g>
					<polygon fill-rule="evenodd" clip-rule="evenodd" fill="#FFFFFF" points="562.699,30.506 562.699,18.959 567.187,18.959 
						567.187,16.271 576.956,16.271 576.956,18.959 581.443,18.959 581.443,30.506 					"/>
					<path fill="#888888" d="M576.456,16.771v1.688v1h1h3.487v10.547h-17.744V19.459h3.487h1v-1v-1.688H576.456 M577.456,15.771
						h-10.77v2.688h-4.487v12.547h19.744V18.459h-4.487V15.771L577.456,15.771z"/>
				</g>
				<g>
					<polygon fill-rule="evenodd" clip-rule="evenodd" fill="#FFFFFF" points="567.234,52.855 567.234,50.168 562.746,50.168 
						562.746,38.623 581.49,38.623 581.49,50.168 577.004,50.168 577.004,52.855 					"/>
					<path fill="#888888" d="M580.99,39.123v10.545h-3.486h-1v1v1.688h-8.77v-1.688v-1h-1h-3.488V39.123H580.99 M581.99,38.123
						h-19.744v12.545h4.488v2.688h10.77v-2.688h4.486V38.123L581.99,38.123z"/>
				</g>
				<text transform="matrix(1.0014 0 0 1 567.7705 9.4385)" fill="#444444" font-family="'Arial'" font-size="7.1696">39</text>
				<text transform="matrix(1.0014 0 0 1 567.7217 64.6738)" fill="#444444" font-family="'Arial'" font-size="7.1696">40</text>
			</g>
			<g>
				<g>
					<polygon fill-rule="evenodd" clip-rule="evenodd" fill="#FFFFFF" points="539.037,30.506 539.037,18.959 543.525,18.959 
						543.525,16.271 553.294,16.271 553.294,18.959 557.781,18.959 557.781,30.506 					"/>
					<path fill="#888888" d="M552.794,16.771v1.688v1h1h3.487v10.547h-17.744V19.459h3.488h1v-1v-1.688H552.794 M553.794,15.771
						h-10.769v2.688h-4.488v12.547h19.744V18.459h-4.487V15.771L553.794,15.771z"/>
				</g>
				<g>
					<polygon fill-rule="evenodd" clip-rule="evenodd" fill="#FFFFFF" points="543.572,52.855 543.572,50.168 539.085,50.168 
						539.085,38.623 557.828,38.623 557.828,50.168 553.342,50.168 553.342,52.855 					"/>
					<path fill="#888888" d="M557.328,39.123v10.545h-3.486h-1v1v1.688h-8.77v-1.688v-1h-1h-3.487V39.123H557.328 M558.328,38.123
						h-19.743v12.545h4.487v2.688h10.77v-2.688h4.486V38.123L558.328,38.123z"/>
				</g>
				<text transform="matrix(1.0014 0 0 1 544.1074 9.4385)" fill="#444444" font-family="'Arial'" font-size="7.1696">37</text>
				<text transform="matrix(1.0014 0 0 1 544.0586 64.6738)" fill="#444444" font-family="'Arial'" font-size="7.1696">38</text>
			</g>
			<g>
				<g>
					<polygon fill-rule="evenodd" clip-rule="evenodd" fill="#FFFFFF" points="515.375,30.506 515.375,18.959 519.863,18.959 
						519.863,16.271 529.633,16.271 529.633,18.959 534.119,18.959 534.119,30.506 					"/>
					<path fill="#888888" d="M529.133,16.771v1.688v1h1h3.486v10.547h-17.744V19.459h3.488h1v-1v-1.688H529.133 M530.133,15.771
						h-10.77v2.688h-4.488v12.547h19.744V18.459h-4.486V15.771L530.133,15.771z"/>
				</g>
				<g>
					<polygon fill-rule="evenodd" clip-rule="evenodd" fill="#FFFFFF" points="519.91,52.855 519.91,50.168 515.423,50.168 
						515.423,38.623 534.167,38.623 534.167,50.168 529.68,50.168 529.68,52.855 					"/>
					<path fill="#888888" d="M533.667,39.123v10.545h-3.487h-1v1v1.688h-8.77v-1.688v-1h-1h-3.487V39.123H533.667 M534.667,38.123
						h-19.744v12.545h4.487v2.688h10.77v-2.688h4.487V38.123L534.667,38.123z"/>
				</g>
				<text transform="matrix(1.0014 0 0 1 520.4453 9.4385)" fill="#444444" font-family="'Arial'" font-size="7.1696">35</text>
				<text transform="matrix(1.0014 0 0 1 520.3965 64.6738)" fill="#444444" font-family="'Arial'" font-size="7.1696">36</text>
			</g>
			<g>
				<g>
					<polygon fill-rule="evenodd" clip-rule="evenodd" fill="#FFFFFF" points="491.715,30.506 491.715,18.959 496.201,18.959 
						496.201,16.271 505.971,16.271 505.971,18.959 510.458,18.959 510.458,30.506 					"/>
					<path fill="#888888" d="M505.471,16.771v1.688v1h1h3.487v10.547h-17.743V19.459h3.486h1v-1v-1.688H505.471 M506.471,15.771
						h-10.77v2.688h-4.486v12.547h19.743V18.459h-4.487V15.771L506.471,15.771z"/>
				</g>
				<g>
					<polygon fill-rule="evenodd" clip-rule="evenodd" fill="#FFFFFF" points="496.249,52.855 496.249,50.168 491.762,50.168 
						491.762,38.623 510.506,38.623 510.506,50.168 506.019,50.168 506.019,52.855 					"/>
					<path fill="#888888" d="M510.006,39.123v10.545h-3.487h-1v1v1.688h-8.77v-1.688v-1h-1h-3.487V39.123H510.006 M511.006,38.123
						h-19.744v12.545h4.487v2.688h10.77v-2.688h4.487V38.123L511.006,38.123z"/>
				</g>
				<text transform="matrix(1.0014 0 0 1 496.7832 9.4385)" fill="#444444" font-family="'Arial'" font-size="7.1696">33</text>
				<text transform="matrix(1.0014 0 0 1 496.7344 64.6738)" fill="#444444" font-family="'Arial'" font-size="7.1696">34</text>
			</g>
		</g>
	</g>
	<g>
		<g>
			<path fill="#888888" d="M478.513,14.102v41.013H289.432V14.102H478.513 M479.513,13.102H288.432v43.013h191.081V13.102
				L479.513,13.102z"/>
		</g>
		<g>
			<g>
				<g>
					<polygon fill-rule="evenodd" clip-rule="evenodd" fill="#FFFFFF" points="457.43,30.506 457.43,18.959 461.916,18.959 
						461.916,16.271 471.686,16.271 471.686,18.959 476.174,18.959 476.174,30.506 					"/>
					<path fill="#888888" d="M471.186,16.771v1.688v1h1h3.488v10.547H457.93V19.459h3.486h1v-1v-1.688H471.186 M472.186,15.771
						h-10.77v2.688h-4.486v12.547h19.744V18.459h-4.488V15.771L472.186,15.771z"/>
				</g>
				<g>
					<polygon fill-rule="evenodd" clip-rule="evenodd" fill="#FFFFFF" points="461.915,52.855 461.915,50.168 457.428,50.168 
						457.428,38.623 476.172,38.623 476.172,50.168 471.685,50.168 471.685,52.855 					"/>
					<path fill="#888888" d="M475.672,39.123v10.545h-3.487h-1v1v1.688h-8.77v-1.688v-1h-1h-3.487V39.123H475.672 M476.672,38.123
						h-19.744v12.545h4.487v2.688h10.77v-2.688h4.487V38.123L476.672,38.123z"/>
				</g>
				<text transform="matrix(1.0014 0 0 1 462.0918 9.4385)" fill="#444444" font-family="'Arial'" font-size="7.1696">31</text>
				<text transform="matrix(1.0014 0 0 1 462.0889 64.6738)" fill="#444444" font-family="'Arial'" font-size="7.1696">32</text>
			</g>
			<g>
				<g>
					<polygon fill-rule="evenodd" clip-rule="evenodd" fill="#FFFFFF" points="433.742,30.506 433.742,18.959 438.23,18.959 
						438.23,16.271 448,16.271 448,18.959 452.486,18.959 452.486,30.506 					"/>
					<path fill="#888888" d="M447.5,16.771v1.688v1h1h3.486v10.547h-17.744V19.459h3.488h1v-1v-1.688H447.5 M448.5,15.771h-10.77
						v2.688h-4.488v12.547h19.744V18.459H448.5V15.771L448.5,15.771z"/>
				</g>
				<g>
					<polygon fill-rule="evenodd" clip-rule="evenodd" fill="#FFFFFF" points="438.277,52.855 438.277,50.168 433.79,50.168 
						433.79,38.623 452.534,38.623 452.534,50.168 448.047,50.168 448.047,52.855 					"/>
					<path fill="#888888" d="M452.034,39.123v10.545h-3.487h-1v1v1.688h-8.77v-1.688v-1h-1h-3.487V39.123H452.034 M453.034,38.123
						H433.29v12.545h4.487v2.688h10.77v-2.688h4.487V38.123L453.034,38.123z"/>
				</g>
				<text transform="matrix(1.0014 0 0 1 438.8145 9.4385)" fill="#444444" font-family="'Arial'" font-size="7.1696">29</text>
				<text transform="matrix(1.0014 0 0 1 438.7656 64.6738)" fill="#444444" font-family="'Arial'" font-size="7.1696">30</text>
			</g>
			<g>
				<g>
					<polygon fill-rule="evenodd" clip-rule="evenodd" fill="#FFFFFF" points="410.08,30.506 410.08,18.959 414.568,18.959 
						414.568,16.271 424.338,16.271 424.338,18.959 428.824,18.959 428.824,30.506 					"/>
					<path fill="#888888" d="M423.838,16.771v1.688v1h1h3.486v10.547H410.58V19.459h3.488h1v-1v-1.688H423.838 M424.838,15.771
						h-10.77v2.688h-4.488v12.547h19.744V18.459h-4.486V15.771L424.838,15.771z"/>
				</g>
				<g>
					<polygon fill-rule="evenodd" clip-rule="evenodd" fill="#FFFFFF" points="414.615,52.855 414.615,50.168 410.128,50.168 
						410.128,38.623 428.872,38.623 428.872,50.168 424.385,50.168 424.385,52.855 					"/>
					<path fill="#888888" d="M428.372,39.123v10.545h-3.487h-1v1v1.688h-8.77v-1.688v-1h-1h-3.487V39.123H428.372 M429.372,38.123
						h-19.744v12.545h4.487v2.688h10.77v-2.688h4.487V38.123L429.372,38.123z"/>
				</g>
				<text transform="matrix(1.0014 0 0 1 415.1523 9.4385)" fill="#444444" font-family="'Arial'" font-size="7.1696">27</text>
				<text transform="matrix(1.0014 0 0 1 415.1035 64.6738)" fill="#444444" font-family="'Arial'" font-size="7.1696">28</text>
			</g>
			<g>
				<g>
					<polygon fill-rule="evenodd" clip-rule="evenodd" fill="#FFFFFF" points="386.419,30.506 386.419,18.959 390.906,18.959 
						390.906,16.271 400.676,16.271 400.676,18.959 405.163,18.959 405.163,30.506 					"/>
					<path fill="#888888" d="M400.176,16.771v1.688v1h1h3.487v10.547h-17.744V19.459h3.487h1v-1v-1.688H400.176 M401.176,15.771
						h-10.77v2.688h-4.487v12.547h19.744V18.459h-4.487V15.771L401.176,15.771z"/>
				</g>
				<g>
					<polygon fill-rule="evenodd" clip-rule="evenodd" fill="#FFFFFF" points="390.953,52.855 390.953,50.168 386.467,50.168 
						386.467,38.623 405.211,38.623 405.211,50.168 400.723,50.168 400.723,52.855 					"/>
					<path fill="#888888" d="M404.711,39.123v10.545h-3.488h-1v1v1.688h-8.77v-1.688v-1h-1h-3.486V39.123H404.711 M405.711,38.123
						h-19.744v12.545h4.486v2.688h10.77v-2.688h4.488V38.123L405.711,38.123z"/>
				</g>
				<text transform="matrix(1.0014 0 0 1 391.4902 9.4385)" fill="#444444" font-family="'Arial'" font-size="7.1696">25</text>
				<text transform="matrix(1.0014 0 0 1 391.4414 64.6738)" fill="#444444" font-family="'Arial'" font-size="7.1696">26</text>
			</g>
			<g>
				<g>
					<polygon fill-rule="evenodd" clip-rule="evenodd" fill="#FFFFFF" points="362.757,30.506 362.757,18.959 367.244,18.959 
						367.244,16.271 377.014,16.271 377.014,18.959 381.5,18.959 381.5,30.506 					"/>
					<path fill="#888888" d="M376.514,16.771v1.688v1h1H381v10.547h-17.743V19.459h3.487h1v-1v-1.688H376.514 M377.514,15.771
						h-10.77v2.688h-4.487v12.547H382V18.459h-4.486V15.771L377.514,15.771z"/>
				</g>
				<g>
					<polygon fill-rule="evenodd" clip-rule="evenodd" fill="#FFFFFF" points="367.291,52.855 367.291,50.168 362.805,50.168 
						362.805,38.623 381.548,38.623 381.548,50.168 377.061,50.168 377.061,52.855 					"/>
					<path fill="#888888" d="M381.048,39.123v10.545h-3.487h-1v1v1.688h-8.77v-1.688v-1h-1h-3.486V39.123H381.048 M382.048,38.123
						h-19.743v12.545h4.486v2.688h10.77v-2.688h4.487V38.123L382.048,38.123z"/>
				</g>
				<text transform="matrix(1.0014 0 0 1 367.8276 9.4385)" fill="#444444" font-family="'Arial'" font-size="7.1696">23</text>
				<text transform="matrix(1.0014 0 0 1 367.7788 64.6738)" fill="#444444" font-family="'Arial'" font-size="7.1696">24</text>
			</g>
			<g>
				<g>
					<polygon fill-rule="evenodd" clip-rule="evenodd" fill="#FFFFFF" points="339.095,30.506 339.095,18.959 343.582,18.959 
						343.582,16.271 353.352,16.271 353.352,18.959 357.839,18.959 357.839,30.506 					"/>
					<path fill="#888888" d="M352.852,16.771v1.688v1h1h3.487v10.547h-17.744V19.459h3.487h1v-1v-1.688H352.852 M353.852,15.771
						h-10.77v2.688h-4.487v12.547h19.744V18.459h-4.487V15.771L353.852,15.771z"/>
				</g>
				<g>
					<polygon fill-rule="evenodd" clip-rule="evenodd" fill="#FFFFFF" points="343.629,52.855 343.629,50.168 339.143,50.168 
						339.143,38.623 357.886,38.623 357.886,50.168 353.398,50.168 353.398,52.855 					"/>
					<path fill="#888888" d="M357.386,39.123v10.545h-3.487h-1v1v1.688h-8.77v-1.688v-1h-1h-3.486V39.123H357.386 M358.386,38.123
						h-19.743v12.545h4.486v2.688h10.77v-2.688h4.487V38.123L358.386,38.123z"/>
				</g>
				<text transform="matrix(1.0014 0 0 1 344.1646 9.4385)" fill="#444444" font-family="'Arial'" font-size="7.1696">21</text>
				<text transform="matrix(1.0014 0 0 1 344.1157 64.6738)" fill="#444444" font-family="'Arial'" font-size="7.1696">22</text>
			</g>
			<g>
				<g>
					<polygon fill-rule="evenodd" clip-rule="evenodd" fill="#FFFFFF" points="315.433,30.506 315.433,18.959 319.92,18.959 
						319.92,16.271 329.689,16.271 329.689,18.959 334.177,18.959 334.177,30.506 					"/>
					<path fill="#888888" d="M329.189,16.771v1.688v1h1h3.487v10.547h-17.744V19.459h3.487h1v-1v-1.688H329.189 M330.189,15.771
						h-10.77v2.688h-4.487v12.547h19.744V18.459h-4.487V15.771L330.189,15.771z"/>
				</g>
				<g>
					<polygon fill-rule="evenodd" clip-rule="evenodd" fill="#FFFFFF" points="319.967,52.855 319.967,50.168 315.48,50.168 
						315.48,38.623 334.225,38.623 334.225,50.168 329.736,50.168 329.736,52.855 					"/>
					<path fill="#888888" d="M333.725,39.123v10.545h-3.488h-1v1v1.688h-8.77v-1.688v-1h-1h-3.486V39.123H333.725 M334.725,38.123
						H314.98v12.545h4.486v2.688h10.77v-2.688h4.488V38.123L334.725,38.123z"/>
				</g>
				<text transform="matrix(1.0014 0 0 1 320.5034 9.4385)" fill="#444444" font-family="'Arial'" font-size="7.1696">19</text>
				<text transform="matrix(1.0014 0 0 1 320.4536 64.6738)" fill="#444444" font-family="'Arial'" font-size="7.1696">20</text>
			</g>
			<g>
				<g>
					<polygon fill-rule="evenodd" clip-rule="evenodd" fill="#FFFFFF" points="291.771,30.506 291.771,18.959 296.259,18.959 
						296.259,16.271 306.028,16.271 306.028,18.959 310.516,18.959 310.516,30.506 					"/>
					<path fill="#888888" d="M305.528,16.771v1.688v1h1h3.487v10.547h-17.744V19.459h3.487h1v-1v-1.688H305.528 M306.528,15.771
						h-10.77v2.688h-4.487v12.547h19.744V18.459h-4.487V15.771L306.528,15.771z"/>
				</g>
				<g>
					<polygon fill-rule="evenodd" clip-rule="evenodd" fill="#FFFFFF" points="296.307,52.855 296.307,50.168 291.818,50.168 
						291.818,38.623 310.563,38.623 310.563,50.168 306.076,50.168 306.076,52.855 					"/>
					<path fill="#888888" d="M310.063,39.123v10.545h-3.486h-1v1v1.688h-8.77v-1.688v-1h-1h-3.488V39.123H310.063 M311.063,38.123
						h-19.744v12.545h4.488v2.688h10.77v-2.688h4.486V38.123L311.063,38.123z"/>
				</g>
				<text transform="matrix(1.0014 0 0 1 296.8413 9.4385)" fill="#444444" font-family="'Arial'" font-size="7.1696">17</text>
				<text transform="matrix(1.0014 0 0 1 296.7925 64.6738)" fill="#444444" font-family="'Arial'" font-size="7.1696">18</text>
			</g>
		</g>
	</g>
	<g>
		<g>
			<path fill="#888888" d="M278.568,14.102v41.013H89.487V14.102H278.568 M279.568,13.102H88.487v43.013h191.081V13.102
				L279.568,13.102z"/>
		</g>
		<g>
			<g>
				<g>
					<polygon fill-rule="evenodd" clip-rule="evenodd" fill="#FFFFFF" points="257.485,30.506 257.485,18.959 261.973,18.959 
						261.973,16.271 271.742,16.271 271.742,18.959 276.229,18.959 276.229,30.506 					"/>
					<path fill="#888888" d="M271.242,16.771v1.688v1h1h3.487v10.547h-17.744V19.459h3.487h1v-1v-1.688H271.242 M272.242,15.771
						h-10.77v2.688h-4.487v12.547h19.744V18.459h-4.487V15.771L272.242,15.771z"/>
				</g>
				<g>
					<polygon fill-rule="evenodd" clip-rule="evenodd" fill="#FFFFFF" points="261.971,52.855 261.971,50.168 257.483,50.168 
						257.483,38.623 276.228,38.623 276.228,50.168 271.74,50.168 271.74,52.855 					"/>
					<path fill="#888888" d="M275.728,39.123v10.545h-3.487h-1v1v1.688h-8.77v-1.688v-1h-1h-3.487V39.123H275.728 M276.728,38.123
						h-19.744v12.545h4.487v2.688h10.77v-2.688h4.487V38.123L276.728,38.123z"/>
				</g>
				<text transform="matrix(1.0014 0 0 1 262.147 9.4385)" fill="#444444" font-family="'Arial'" font-size="7.1696">15</text>
				<text transform="matrix(1.0014 0 0 1 262.145 64.6738)" fill="#444444" font-family="'Arial'" font-size="7.1696">16</text>
			</g>
			<g>
				<g>
					<polygon fill-rule="evenodd" clip-rule="evenodd" fill="#FFFFFF" points="233.799,30.506 233.799,18.959 238.286,18.959 
						238.286,16.271 248.055,16.271 248.055,18.959 252.543,18.959 252.543,30.506 					"/>
					<path fill="#888888" d="M247.555,16.771v1.688v1h1h3.488v10.547h-17.744V19.459h3.487h1v-1v-1.688H247.555 M248.555,15.771
						h-10.769v2.688h-4.487v12.547h19.744V18.459h-4.488V15.771L248.555,15.771z"/>
				</g>
				<g>
					<polygon fill-rule="evenodd" clip-rule="evenodd" fill="#FFFFFF" points="238.333,52.855 238.333,50.168 233.846,50.168 
						233.846,38.623 252.59,38.623 252.59,50.168 248.103,50.168 248.103,52.855 					"/>
					<path fill="#888888" d="M252.09,39.123v10.545h-3.487h-1v1v1.688h-8.77v-1.688v-1h-1h-3.487V39.123H252.09 M253.09,38.123
						h-19.744v12.545h4.487v2.688h10.77v-2.688h4.487V38.123L253.09,38.123z"/>
				</g>
				<text transform="matrix(1.0014 0 0 1 238.8706 9.4385)" fill="#444444" font-family="'Arial'" font-size="7.1696">13</text>
				<text transform="matrix(1.0014 0 0 1 238.8208 64.6738)" fill="#444444" font-family="'Arial'" font-size="7.1696">14</text>
			</g>
			<g>
				<g>
					<polygon fill-rule="evenodd" clip-rule="evenodd" fill="#FFFFFF" points="210.137,30.506 210.137,18.959 214.624,18.959 
						214.624,16.271 224.394,16.271 224.394,18.959 228.881,18.959 228.881,30.506 					"/>
					<path fill="#888888" d="M223.894,16.771v1.688v1h1h3.487v10.547h-17.744V19.459h3.487h1v-1v-1.688H223.894 M224.894,15.771
						h-10.77v2.688h-4.487v12.547h19.744V18.459h-4.487V15.771L224.894,15.771z"/>
				</g>
				<g>
					<polygon fill-rule="evenodd" clip-rule="evenodd" fill="#FFFFFF" points="214.672,52.855 214.672,50.168 210.184,50.168 
						210.184,38.623 228.928,38.623 228.928,50.168 224.441,50.168 224.441,52.855 					"/>
					<path fill="#888888" d="M228.428,39.123v10.545h-3.486h-1v1v1.688h-8.77v-1.688v-1h-1h-3.488V39.123H228.428 M229.428,38.123
						h-19.744v12.545h4.488v2.688h10.77v-2.688h4.486V38.123L229.428,38.123z"/>
				</g>
				<text transform="matrix(1.0014 0 0 1 215.2085 9.4385)" fill="#444444" font-family="'Arial'" font-size="7.1696">11</text>
				<text transform="matrix(1.0014 0 0 1 215.1597 64.6738)" fill="#444444" font-family="'Arial'" font-size="7.1696">12</text>
			</g>
			<g>
				<g>
					<polygon fill-rule="evenodd" clip-rule="evenodd" fill="#FFFFFF" points="186.475,30.506 186.475,18.959 190.962,18.959 
						190.962,16.271 200.731,16.271 200.731,18.959 205.219,18.959 205.219,30.506 					"/>
					<path fill="#888888" d="M200.231,16.771v1.688v1h1h3.487v10.547h-17.744V19.459h3.487h1v-1v-1.688H200.231 M201.231,15.771
						h-10.77v2.688h-4.487v12.547h19.744V18.459h-4.487V15.771L201.231,15.771z"/>
				</g>
				<g>
					<polygon fill-rule="evenodd" clip-rule="evenodd" fill="#FFFFFF" points="191.01,52.855 191.01,50.168 186.521,50.168 
						186.521,38.623 205.266,38.623 205.266,50.168 200.779,50.168 200.779,52.855 					"/>
					<path fill="#888888" d="M204.766,39.123v10.545h-3.486h-1v1v1.688h-8.77v-1.688v-1h-1h-3.488V39.123H204.766 M205.766,38.123
						h-19.744v12.545h4.488v2.688h10.77v-2.688h4.486V38.123L205.766,38.123z"/>
				</g>
				<text transform="matrix(1.0014 0 0 1 193.9019 9.4385)" fill="#444444" font-family="'Arial'" font-size="7.1696">9</text>
				<text transform="matrix(1.0014 0 0 1 191.4976 64.6738)" fill="#444444" font-family="'Arial'" font-size="7.1696">10</text>
			</g>
			<g>
				<g>
					<polygon fill-rule="evenodd" clip-rule="evenodd" fill="#FFFFFF" points="162.813,30.506 162.813,18.959 167.301,18.959 
						167.301,16.271 177.07,16.271 177.07,18.959 181.557,18.959 181.557,30.506 					"/>
					<path fill="#888888" d="M176.57,16.771v1.688v1h1h3.486v10.547h-17.744V19.459h3.488h1v-1v-1.688H176.57 M177.57,15.771h-10.77
						v2.688h-4.488v12.547h19.744V18.459h-4.486V15.771L177.57,15.771z"/>
				</g>
				<g>
					<polygon fill-rule="evenodd" clip-rule="evenodd" fill="#FFFFFF" points="167.348,52.855 167.348,50.168 162.86,50.168 
						162.86,38.623 181.604,38.623 181.604,50.168 177.117,50.168 177.117,52.855 					"/>
					<path fill="#888888" d="M181.104,39.123v10.545h-3.487h-1v1v1.688h-8.77v-1.688v-1h-1h-3.487V39.123H181.104 M182.104,38.123
						H162.36v12.545h4.487v2.688h10.77v-2.688h4.487V38.123L182.104,38.123z"/>
				</g>
				<text transform="matrix(1.0014 0 0 1 170.2397 9.4385)" fill="#444444" font-family="'Arial'" font-size="7.1696">7</text>
				<text transform="matrix(1.0014 0 0 1 170.1909 64.6738)" fill="#444444" font-family="'Arial'" font-size="7.1696">8</text>
			</g>
			<g>
				<g>
					<polygon fill-rule="evenodd" clip-rule="evenodd" fill="#FFFFFF" points="139.15,30.506 139.15,18.959 143.638,18.959 
						143.638,16.271 153.407,16.271 153.407,18.959 157.895,18.959 157.895,30.506 					"/>
					<path fill="#888888" d="M152.907,16.771v1.688v1h1h3.487v10.547H139.65V19.459h3.487h1v-1v-1.688H152.907 M153.907,15.771
						h-10.77v2.688h-4.487v12.547h19.744V18.459h-4.487V15.771L153.907,15.771z"/>
				</g>
				<g>
					<polygon fill-rule="evenodd" clip-rule="evenodd" fill="#FFFFFF" points="143.686,52.855 143.686,50.168 139.198,50.168 
						139.198,38.623 157.941,38.623 157.941,50.168 153.455,50.168 153.455,52.855 					"/>
					<path fill="#888888" d="M157.441,39.123v10.545h-3.486h-1v1v1.688h-8.77v-1.688v-1h-1h-3.487V39.123H157.441 M158.441,38.123
						h-19.743v12.545h4.487v2.688h10.77v-2.688h4.486V38.123L158.441,38.123z"/>
				</g>
				<text transform="matrix(1.0014 0 0 1 146.5767 9.4385)" fill="#444444" font-family="'Arial'" font-size="7.1696">5</text>
				<text transform="matrix(1.0014 0 0 1 146.5278 64.6738)" fill="#444444" font-family="'Arial'" font-size="7.1696">6</text>
			</g>
			<g>
				<g>
					<polygon fill-rule="evenodd" clip-rule="evenodd" fill="#FFFFFF" points="115.488,30.506 115.488,18.959 119.977,18.959 
						119.977,16.271 129.746,16.271 129.746,18.959 134.232,18.959 134.232,30.506 					"/>
					<path fill="#888888" d="M129.246,16.771v1.688v1h1h3.486v10.547h-17.744V19.459h3.488h1v-1v-1.688H129.246 M130.246,15.771
						h-10.77v2.688h-4.488v12.547h19.744V18.459h-4.486V15.771L130.246,15.771z"/>
				</g>
				<g>
					<polygon fill-rule="evenodd" clip-rule="evenodd" fill="#FFFFFF" points="120.023,52.855 120.023,50.168 115.536,50.168 
						115.536,38.623 134.279,38.623 134.279,50.168 129.793,50.168 129.793,52.855 					"/>
					<path fill="#888888" d="M133.779,39.123v10.545h-3.486h-1v1v1.688h-8.77v-1.688v-1h-1h-3.487V39.123H133.779 M134.779,38.123
						h-19.743v12.545h4.487v2.688h10.77v-2.688h4.486V38.123L134.779,38.123z"/>
				</g>
				<text transform="matrix(1.0014 0 0 1 122.9146 9.4385)" fill="#444444" font-family="'Arial'" font-size="7.1696">3</text>
				<text transform="matrix(1.0014 0 0 1 122.8657 64.6738)" fill="#444444" font-family="'Arial'" font-size="7.1696">4</text>
			</g>
			<g>
				<g>
					<polygon fill-rule="evenodd" clip-rule="evenodd" fill="#FFFFFF" points="91.828,30.506 91.828,18.959 96.314,18.959 
						96.314,16.271 106.084,16.271 106.084,18.959 110.572,18.959 110.572,30.506 					"/>
					<path fill="#888888" d="M105.584,16.771v1.688v1h1h3.488v10.547H92.328V19.459h3.486h1v-1v-1.688H105.584 M106.584,15.771
						h-10.77v2.688h-4.486v12.547h19.744V18.459h-4.488V15.771L106.584,15.771z"/>
				</g>
				<g>
					<polygon fill-rule="evenodd" clip-rule="evenodd" fill="#FFFFFF" points="96.362,52.855 96.362,50.168 91.875,50.168 
						91.875,38.623 110.619,38.623 110.619,50.168 106.132,50.168 106.132,52.855 					"/>
					<path fill="#888888" d="M110.119,39.123v10.545h-3.487h-1v1v1.688h-8.77v-1.688v-1h-1h-3.487V39.123H110.119 M111.119,38.123
						H91.375v12.545h4.487v2.688h10.77v-2.688h4.487V38.123L111.119,38.123z"/>
				</g>
				<text transform="matrix(1.0014 0 0 1 99.2534 9.4385)" fill="#444444" font-family="'Arial'" font-size="7.1696">1</text>
				<text transform="matrix(1.0014 0 0 1 99.2036 64.6738)" fill="#444444" font-family="'Arial'" font-size="7.1696">2</text>
			</g>
		</g>
	</g>
	<g>
		<g>
			<path fill="#999999" d="M756.452,1C757.857,1,759,2.139,759,3.539v61.925c0,1.398-1.143,2.536-2.548,2.536H3.549
				C2.144,68,1,66.862,1,65.464V3.539C1,2.139,2.144,1,3.549,1H756.452 M756.452,0H3.549C1.589,0,0,1.584,0,3.539v61.925
				C0,67.417,1.589,69,3.549,69h752.903c1.96,0,3.548-1.583,3.548-3.536V3.539C760,1.584,758.412,0,756.452,0L756.452,0z"/>
		</g>
		<g>
			<path fill="#444444" d="M25.635,12.961h3.616c0.239,0,0.292,0.266,0.106,0.584l-0.719,1.195
				c-0.213,0.319-0.558,0.558-0.824,0.558h-3.617c-0.238,0-0.291-0.238-0.105-0.558l0.744-1.195
				C25.022,13.227,25.395,12.961,25.635,12.961"/>
			<path fill="#444444" d="M42.867,7.357c1.33-0.107,2.898,0.93,2.127,2.284c-0.744,1.248-3.43,1.566-4.254,1.487
				c-0.24-0.026-0.665-0.187-0.665-0.611c0.026-0.293,0.187-1.301,0.745-2.099C41.404,7.65,42.256,7.41,42.867,7.357"/>
			<path fill="#444444" d="M51.139,10.013c0.426-0.186,0.451,0.267,0.451,0.398v1.036c0,0.213,0.16,0.105,0.24,0.08
				c1.25-0.532,2.499-1.303,4.121-1.275c1.41,0.027,1.836,1.168,1.836,2.444v5.496c0,0.478,0.026,0.61,0.266,0.798
				c0.054,0.025,0.452,0.052,0.584,0.052c0.161,0,0.161,0.133,0.107,0.238l-0.318,0.851c-0.08,0.16-0.24,0.188-0.347,0.188h-3.218
				c-1.144-0.027-1.463-0.878-1.463-1.303v-5.231c0-1.063-1.755-1.142-1.755,0.293v4.407c0.026,0.213-0.026,0.506,0.532,0.531
				c0.372,0,0.638-0.025,0.451,0.399l-0.292,0.716c-0.054,0.107-0.213,0.188-0.346,0.188h-5.346c-0.106,0-0.212-0.134-0.187-0.214
				l0.373-0.982c0.026-0.027,0.053-0.106,0.105-0.106c0.188,0,0.293-0.106,0.346-0.611v-5.708c0-0.479-0.425-0.426-0.744-0.426
				c-0.159,0-0.238-0.027-0.186-0.213l0.292-0.638c0.027-0.159,0.106-0.212,0.213-0.238C48.612,10.916,49.648,10.782,51.139,10.013"
				/>
			<path fill="#444444" d="M72.787,8.711c0.079,0,0.158-0.026,0.212-0.026c0.053-0.026,0.079-0.054,0.106-0.106
				c0.053-0.026,0.053-0.079,0.053-0.132c0-0.08-0.026-0.133-0.08-0.186c-0.026-0.027-0.133-0.053-0.291-0.08v-0.16
				c0.212,0,0.345,0.054,0.451,0.133c0.08,0.055,0.133,0.16,0.133,0.293c0,0.105-0.053,0.212-0.133,0.292
				c-0.08,0.053-0.187,0.106-0.318,0.133c0.052,0.027,0.105,0.053,0.132,0.053c0.026,0.027,0.054,0.08,0.106,0.16
				c0.055,0.053,0.106,0.133,0.133,0.185l0.159,0.266h-0.237l-0.161-0.266c-0.106-0.185-0.186-0.291-0.265-0.345V8.711z
				 M72.787,10.225c0.345-0.025,0.663-0.158,0.904-0.397c0.292-0.293,0.424-0.61,0.424-1.009c0-0.372-0.132-0.718-0.424-0.982
				c-0.241-0.266-0.56-0.398-0.904-0.398v0.158c0.318,0,0.584,0.135,0.797,0.345c0.238,0.24,0.373,0.559,0.373,0.878
				c0,0.346-0.135,0.637-0.373,0.876c-0.213,0.239-0.479,0.372-0.797,0.372V10.225z M72.387,8.181v0.53h0.187h0.214v0.213
				c-0.081-0.025-0.16-0.053-0.266-0.053h-0.135v0.663h-0.186V8.021h0.586v0.16H72.68H72.387z M72.787,7.438h-0.081
				c-0.372,0-0.718,0.133-0.983,0.398c-0.266,0.265-0.398,0.61-0.398,0.982c0,0.398,0.133,0.716,0.398,1.009
				c0.266,0.265,0.611,0.397,0.983,0.397h0.081v-0.158h-0.081c-0.346,0-0.639-0.107-0.877-0.372
				c-0.239-0.239-0.372-0.53-0.372-0.876c0-0.319,0.133-0.638,0.372-0.878c0.238-0.237,0.531-0.345,0.877-0.345h0.081V7.438z"/>
			<path fill="#444444" d="M64.17,7.596c0.318-0.053,0.478,0.135,0.478,0.479v5.471c0.054,0.319,0.267,0.105,0.32,0.026l1.914-2.416
				c0.187-0.239,0.691-0.293,0.984-0.293h4.016h0.133c0.08,0,0.106,0.08,0.026,0.187l-0.531,0.717
				c-0.027,0.053-0.08,0.133-0.32,0.133h-0.212c-0.187,0.027-0.212,0.08-0.293,0.132l-2.128,2.364
				c-0.451,0.531-0.345,0.771,0.055,1.143l2.925,3c0.638,0.453,1.224,0.479,1.914,0.505c0.159,0.027,0.134,0.159,0.054,0.238
				l-0.744,0.851c-0.08,0.133-0.399,0.188-0.586,0.188h-2.898c-0.372,0-1.037-0.107-1.568-0.453
				c-1.038-0.85-1.703-1.938-2.739-2.895c-0.16-0.185-0.32-0.105-0.32,0.053v1.249c0,0.558,0.241,0.718,1.064,0.743
				c0.319,0.026,0.239,0.186,0.159,0.372l-0.266,0.717c-0.08,0.159-0.187,0.214-0.346,0.214h-5.983c-0.187,0-0.319-0.055-0.266-0.16
				l0.319-0.878c0.079-0.158,0.132-0.211,0.372-0.211c0.425-0.027,0.585-0.159,0.585-0.797v-8.048c0-0.291-0.08-0.397-0.268-0.371
				l-0.771,0.105c-0.212,0.054-0.266-0.132-0.159-0.29l0.452-0.771c0.106-0.16,0.267-0.188,0.452-0.214
				c1.516-0.238,3.059-0.69,4.016-1.034C64.063,7.623,64.117,7.596,64.17,7.596"/>
			<path fill="#444444" d="M44.889,10.837c0.186-0.08,0.426,0.079,0.372,0.478v7.09c0.106,0.505,0.267,0.638,0.719,0.69
				c0,0,0.292,0,0.212,0.213l-0.292,0.743c-0.106,0.24-0.187,0.268-0.452,0.268h-5.559c-0.159,0-0.213-0.107-0.159-0.268l0.266-0.69
				c0.054-0.105,0.079-0.211,0.267-0.238c0.559-0.132,0.584-0.213,0.584-0.955V13.89c0-0.716-0.106-0.663-0.931-0.583
				c-0.133-0.054-0.133-0.186-0.106-0.239l0.399-0.771c0.134-0.24,0.266-0.24,0.266-0.24C42.07,11.951,43.639,11.553,44.889,10.837"
				/>
			<path fill="#444444" d="M17.15,20.318c1.144,0.025,2.474,0,3.697-0.983c0.983-0.638,2.127-3.214,2.553-4.275
				c0.213-0.559,0.266-1.302,0-1.833c-0.744-1.674-1.809-3.532-2.5-4.276c-1.01-0.93-1.941-1.01-3.537-1.01H17.15v2.444l1.915,3.347
				c0.187,0.397,0.133,0.583,0,0.849l-1.915,3.239V20.318z M16.832,20.318h0.318v-2.499l-0.372,0.612
				c-0.267,0.398-0.399,0.318-0.745,0.346h-0.904V9.854c0-0.239,0.027-0.345,0.24-0.372h0.664c0.24,0,0.586-0.053,0.771,0.318
				l0.346,0.585V7.94h-6.488c-0.293,0-0.612,0.08-0.719,0.268L9.465,9.11c-0.08,0.371,0.373,0.398,0.373,0.398h0.664
				c0.187,0,0.24,0.16,0.24,0.291v8.313c0,0.372-0.426,0.611-0.771,0.69c-0.133,0.027-0.373,0.08-0.479,0.239l-0.479,0.956
				c-0.079,0.187,0.054,0.32,0.213,0.32C11.885,20.318,14.172,20.344,16.832,20.318"/>
			<path fill="#444444" d="M35.979,8.021c0.293,0,0.4,0.188,0.346,0.293l-0.61,1.088c0,0-0.08,0.213-0.586,0.213h-0.053
				c-0.346,0-0.611,0-0.638,0.69v7.888c0,0.345,0.133,0.61,0.559,0.638h0.797c1.33-0.027,1.304-1.381,1.596-2.577
				c0.08-0.185,0.133-0.317,0.346-0.425l1.197-0.397c0.133,0,0.292,0,0.318,0.239v3.983c0.053,0.372-0.292,0.718-0.744,0.665H28.4
				c-0.373,0-0.453-0.107-0.373-0.348l0.373-0.821c0,0,0.105-0.213,0.452-0.213c0.744-0.026,1.224-0.054,1.196-1.196v-7.381
				c0-0.479-0.105-0.771-0.585-0.771h-0.585c-0.373,0-0.585-0.134-0.479-0.347l0.506-0.955c0.133-0.239,0.238-0.267,0.424-0.267
				H35.979z"/>
		</g>
	</g>
</g>
</svg>
