<svg version="1.1" id="1" xmlns="http://www.w3.org/2000/svg" xmlns:xlink="http://www.w3.org/1999/xlink" x="0px" y="0px"
	 width="760px" height="77px" viewBox="0 0 760 77" enable-background="new 0 0 760 77" xml:space="preserve">
<g>
	<g>
		<path fill="#999999" d="M756.047,1C757.675,1,759,2.323,759,3.95v69.102c0,1.626-1.325,2.948-2.953,2.948H3.953
			C2.325,76,1,74.678,1,73.052V3.95C1,2.323,2.325,1,3.953,1H756.047 M756.047,0H3.953C1.77,0,0,1.769,0,3.95v69.102
			C0,75.232,1.77,77,3.953,77h752.094c2.184,0,3.953-1.768,3.953-3.948V3.95C760,1.769,758.23,0,756.047,0L756.047,0z"/>
	</g>
	<g>
		<path fill="#444444" d="M28.563,14.464h4.03c0.267,0,0.326,0.296,0.118,0.651l-0.8,1.333c-0.237,0.356-0.622,0.623-0.919,0.623
			h-4.029c-0.268,0-0.326-0.267-0.119-0.623l0.83-1.333C27.881,14.76,28.296,14.464,28.563,14.464"/>
		<path fill="#444444" d="M47.766,8.21c1.48-0.119,3.229,1.038,2.37,2.548c-0.829,1.394-3.823,1.749-4.741,1.66
			c-0.267-0.03-0.74-0.208-0.74-0.682c0.029-0.326,0.207-1.452,0.829-2.342C46.135,8.537,47.084,8.27,47.766,8.21"/>
		<path fill="#444444" d="M56.98,11.174c0.475-0.208,0.504,0.297,0.504,0.444v1.156c0,0.237,0.178,0.118,0.268,0.089
			c1.393-0.593,2.785-1.452,4.593-1.423c1.57,0.03,2.045,1.304,2.045,2.727v6.134c0,0.533,0.029,0.682,0.296,0.89
			c0.06,0.029,0.504,0.059,0.651,0.059c0.179,0,0.179,0.148,0.119,0.267l-0.355,0.948c-0.089,0.178-0.267,0.208-0.386,0.208h-3.586
			c-1.273-0.03-1.629-0.979-1.629-1.452v-5.838c0-1.186-1.956-1.274-1.956,0.326v4.919c0.03,0.237-0.03,0.563,0.593,0.593
			c0.415,0,0.711-0.029,0.504,0.444l-0.326,0.8c-0.06,0.119-0.237,0.208-0.385,0.208h-5.957c-0.118,0-0.236-0.148-0.207-0.237
			l0.414-1.097c0.03-0.029,0.061-0.118,0.119-0.118c0.207,0,0.326-0.119,0.385-0.682v-6.372c0-0.534-0.474-0.475-0.829-0.475
			c-0.178,0-0.267-0.029-0.208-0.236l0.326-0.712c0.03-0.178,0.119-0.237,0.237-0.267C54.166,12.182,55.321,12.033,56.98,11.174"/>
		<path fill="#444444" d="M81.103,9.722c0.089,0,0.178-0.029,0.237-0.029c0.059-0.029,0.089-0.06,0.118-0.119
			c0.06-0.029,0.06-0.089,0.06-0.147c0-0.089-0.03-0.148-0.089-0.207c-0.03-0.03-0.148-0.06-0.326-0.09V8.951
			c0.237,0,0.385,0.06,0.504,0.148c0.089,0.06,0.148,0.178,0.148,0.326c0,0.118-0.06,0.237-0.148,0.326
			c-0.089,0.059-0.208,0.118-0.355,0.147c0.059,0.03,0.118,0.06,0.147,0.06c0.03,0.03,0.06,0.089,0.119,0.178
			c0.06,0.06,0.118,0.148,0.147,0.207l0.178,0.297h-0.266l-0.179-0.297c-0.118-0.207-0.207-0.325-0.296-0.385V9.722z M81.103,11.411
			c0.385-0.029,0.74-0.178,1.008-0.444c0.326-0.326,0.474-0.682,0.474-1.126c0-0.415-0.147-0.801-0.474-1.097
			C81.843,8.448,81.487,8.3,81.103,8.3v0.178c0.355,0,0.652,0.148,0.889,0.385c0.267,0.267,0.415,0.622,0.415,0.979
			c0,0.385-0.148,0.711-0.415,0.978c-0.236,0.267-0.533,0.415-0.889,0.415V11.411z M80.658,9.129v0.593h0.207h0.237v0.237
			c-0.089-0.029-0.178-0.06-0.296-0.06h-0.148v0.741H80.45V8.951h0.652v0.178h-0.119H80.658z M81.103,8.3h-0.089
			c-0.415,0-0.8,0.148-1.097,0.444c-0.296,0.296-0.444,0.682-0.444,1.097c0,0.444,0.148,0.8,0.444,1.126
			c0.297,0.296,0.682,0.444,1.097,0.444h0.089v-0.178h-0.089c-0.386,0-0.712-0.119-0.978-0.415
			c-0.268-0.267-0.415-0.593-0.415-0.978c0-0.356,0.147-0.712,0.415-0.979c0.266-0.267,0.592-0.385,0.978-0.385h0.089V8.3z"/>
		<path fill="#444444" d="M71.501,8.478c0.356-0.06,0.533,0.148,0.533,0.533v6.105c0.06,0.355,0.297,0.118,0.356,0.029l2.133-2.697
			c0.208-0.267,0.771-0.326,1.097-0.326h4.475h0.148c0.089,0,0.118,0.089,0.029,0.208l-0.593,0.8
			c-0.029,0.059-0.089,0.147-0.355,0.147h-0.237c-0.207,0.03-0.236,0.09-0.326,0.148l-2.37,2.638
			c-0.504,0.593-0.385,0.859,0.06,1.274l3.26,3.349c0.711,0.504,1.362,0.533,2.133,0.563c0.178,0.03,0.148,0.178,0.06,0.267
			l-0.83,0.948c-0.089,0.148-0.444,0.208-0.651,0.208h-3.23c-0.414,0-1.155-0.119-1.748-0.504c-1.156-0.948-1.896-2.163-3.052-3.231
			c-0.179-0.207-0.356-0.118-0.356,0.06v1.393c0,0.622,0.268,0.801,1.186,0.83c0.355,0.029,0.267,0.207,0.178,0.415l-0.296,0.8
			c-0.089,0.178-0.208,0.237-0.386,0.237h-6.667c-0.207,0-0.355-0.06-0.296-0.178l0.355-0.979c0.089-0.178,0.147-0.236,0.415-0.236
			c0.474-0.03,0.651-0.178,0.651-0.89v-8.979c0-0.326-0.089-0.444-0.297-0.415l-0.859,0.118c-0.236,0.06-0.296-0.147-0.177-0.325
			l0.503-0.859c0.119-0.178,0.297-0.208,0.504-0.237c1.689-0.267,3.408-0.771,4.475-1.155C71.383,8.507,71.442,8.478,71.501,8.478"
			/>
		<path fill="#444444" d="M50.018,12.093c0.207-0.089,0.474,0.089,0.414,0.533v7.913c0.119,0.563,0.297,0.711,0.801,0.771
			c0,0,0.326,0,0.236,0.236l-0.325,0.83c-0.118,0.267-0.208,0.297-0.505,0.297h-6.192c-0.178,0-0.237-0.119-0.178-0.297l0.296-0.771
			c0.06-0.118,0.089-0.236,0.297-0.267c0.622-0.147,0.651-0.237,0.651-1.066V15.5c0-0.8-0.118-0.74-1.037-0.651
			c-0.147-0.06-0.147-0.207-0.118-0.267l0.444-0.86c0.148-0.268,0.296-0.268,0.296-0.268C46.876,13.337,48.625,12.893,50.018,12.093
			"/>
		<path fill="#444444" d="M19.109,22.673c1.274,0.029,2.756,0,4.119-1.097c1.097-0.711,2.371-3.586,2.846-4.771
			c0.236-0.623,0.296-1.452,0-2.045c-0.83-1.868-2.016-3.942-2.786-4.772c-1.126-1.037-2.163-1.126-3.941-1.126h-0.237v2.727
			l2.134,3.734c0.208,0.444,0.148,0.652,0,0.948l-2.134,3.616V22.673z M18.754,22.673h0.355v-2.786l-0.414,0.682
			c-0.297,0.444-0.445,0.355-0.83,0.386h-1.008v-9.958c0-0.267,0.029-0.385,0.268-0.415h0.74c0.267,0,0.652-0.059,0.859,0.355
			l0.385,0.652V8.862h-7.23c-0.326,0-0.682,0.089-0.8,0.297l-0.533,1.007c-0.089,0.415,0.415,0.445,0.415,0.445h0.74
			c0.208,0,0.268,0.178,0.268,0.325v9.276c0,0.415-0.475,0.682-0.859,0.771c-0.148,0.029-0.416,0.089-0.534,0.267l-0.533,1.066
			c-0.089,0.208,0.06,0.356,0.237,0.356C13.242,22.673,15.791,22.702,18.754,22.673"/>
		<path fill="#444444" d="M40.09,8.951c0.326,0,0.445,0.208,0.385,0.326l-0.681,1.215c0,0-0.089,0.237-0.652,0.237h-0.06
			c-0.385,0-0.681,0-0.711,0.771v8.802c0,0.386,0.148,0.682,0.623,0.711h0.889c1.481-0.029,1.452-1.54,1.777-2.875
			c0.09-0.207,0.148-0.355,0.386-0.475l1.333-0.444c0.148,0,0.326,0,0.355,0.268v4.445c0.06,0.415-0.325,0.801-0.829,0.741H31.645
			c-0.415,0-0.504-0.119-0.415-0.386l0.415-0.918c0,0,0.119-0.237,0.504-0.237c0.83-0.029,1.363-0.06,1.334-1.334V11.56
			c0-0.534-0.119-0.859-0.652-0.859h-0.652c-0.414,0-0.651-0.148-0.533-0.386l0.563-1.066c0.147-0.267,0.267-0.297,0.474-0.297
			H40.09z"/>
	</g>
</g>
<g>
	<g>
		<g>
			<rect x="697.324" y="44.114" fill-rule="evenodd" clip-rule="evenodd" fill="#FFFFFF" width="24.971" height="15.999"/>
			<path fill="#888888" d="M721.795,44.614v14.999h-23.971V44.614h7.656h8.658H721.795 M722.795,43.614h-8.656h-8.658h-8.656v16.999
				h25.971V43.614L722.795,43.614z"/>
		</g>
		<g>
			<path fill="#888888" d="M723.811,42.613v19.001h-28V42.613H723.811 M724.811,41.613h-30v21.001h30V41.613L724.811,41.613z"/>
		</g>
		<text transform="matrix(0.9999 0 0 1 704.8135 72.043)" fill="#444444" font-family="'Arial'" font-size="8.0007">10</text>
	</g>
	<g>
		<g>
			<rect x="697.324" y="17.118" fill-rule="evenodd" clip-rule="evenodd" fill="#FFFFFF" width="24.971" height="15.999"/>
			<path fill="#888888" d="M721.795,17.618v14.999h-23.971V17.618h7.656h8.658H721.795 M722.795,16.618h-8.656h-8.658h-8.656v16.999
				h25.971V16.618L722.795,16.618z"/>
		</g>
		<g>
			<path fill="#888888" d="M723.811,15.617v19.001h-28V15.617H723.811 M724.811,14.617h-30v21.001h30V14.617L724.811,14.617z"/>
		</g>
		<text transform="matrix(0.9999 0 0 1 707.4932 10.4043)" fill="#444444" font-family="'Arial'" font-size="8.0007">9</text>
	</g>
</g>
<g>
	<g>
		<g>
			<path fill="#888888" d="M563.568,40.595l104.224,0.037v20.81l-104.224-0.038V40.595 M562.568,39.595v22.809l106.224,0.038v-22.81
				L562.568,39.595L562.568,39.595z"/>
		</g>
		<g>
			<g>
				<g>
					<text transform="matrix(1.0001 0 0 1 651.9482 72.3115)" fill="#444444" font-family="'Arial'" font-size="8">8</text>
				</g>
				<g>
					<text transform="matrix(1.0001 0 0 1 626.3438 72.3115)" fill="#444444" font-family="'Arial'" font-size="8">7</text>
				</g>
				<g>
					<text transform="matrix(1.0001 0 0 1 600.7334 72.3115)" fill="#444444" font-family="'Arial'" font-size="8">6</text>
				</g>
				<g>
					<text transform="matrix(1.0001 0 0 1 575.1221 72.3115)" fill="#444444" font-family="'Arial'" font-size="8">5</text>
				</g>
			</g>
			<g>
				<g>
					<g>
						<polygon fill-rule="evenodd" clip-rule="evenodd" fill="#FFFFFF" points="571.813,59.038 571.813,56.037 566.813,56.037 
							566.813,43.036 587.812,43.036 587.812,56.037 582.812,56.037 582.812,59.038 						"/>
						<path fill="#888888" d="M587.312,43.536v12.001h-4h-1v1v2.001h-9.998v-2.001v-1h-1h-4V43.536H587.312 M588.312,42.536h-21.998
							v14.001h5v3.001h11.998v-3.001h5V42.536L588.312,42.536z"/>
					</g>
				</g>
				<g>
					<g>
						<polygon fill-rule="evenodd" clip-rule="evenodd" fill="#FFFFFF" points="597.415,59.038 597.415,56.037 592.414,56.037 
							592.414,43.036 613.412,43.036 613.412,56.037 608.414,56.037 608.414,59.038 						"/>
						<path fill="#888888" d="M612.912,43.536v12.001h-3.998h-1v1v2.001h-9.999v-2.001v-1h-1h-4.001V43.536H612.912 M613.912,42.536
							h-21.998v14.001h5.001v3.001h11.999v-3.001h4.998V42.536L613.912,42.536z"/>
					</g>
				</g>
				<g>
					<g>
						<polygon fill-rule="evenodd" clip-rule="evenodd" fill="#FFFFFF" points="623.023,59.038 623.023,56.037 618.024,56.037 
							618.024,43.036 639.021,43.036 639.021,56.037 634.022,56.037 634.022,59.038 						"/>
						<path fill="#888888" d="M638.521,43.536v12.001h-3.999h-1v1v2.001h-9.999v-2.001v-1h-1h-3.999V43.536H638.521 M639.521,42.536
							h-21.997v14.001h4.999v3.001h11.999v-3.001h4.999V42.536L639.521,42.536z"/>
					</g>
				</g>
				<g>
					<g>
						<polygon fill-rule="evenodd" clip-rule="evenodd" fill="#FFFFFF" points="648.634,59.038 648.634,56.037 643.636,56.037 
							643.636,43.036 664.634,43.036 664.634,56.037 659.633,56.037 659.633,59.038 						"/>
						<path fill="#888888" d="M664.134,43.536v12.001h-4.001h-1v1v2.001h-9.999v-2.001v-1h-1h-3.998V43.536H664.134 M665.134,42.536
							h-21.998v14.001h4.998v3.001h11.999v-3.001h5.001V42.536L665.134,42.536z"/>
					</g>
				</g>
			</g>
		</g>
	</g>
</g>
<g>
	<g>
		<g>
			<path fill="#888888" d="M433.568,40.595l104.224,0.037v20.81l-104.224-0.038V40.595 M432.568,39.595v22.809l106.224,0.038v-22.81
				L432.568,39.595L432.568,39.595z"/>
		</g>
		<g>
			<g>
				<g>
					<text transform="matrix(1.0001 0 0 1 521.9482 72.3115)" fill="#444444" font-family="'Arial'" font-size="8">4</text>
				</g>
				<g>
					<text transform="matrix(1.0001 0 0 1 496.3438 72.3115)" fill="#444444" font-family="'Arial'" font-size="8">3</text>
				</g>
				<g>
					<text transform="matrix(1.0001 0 0 1 470.7334 72.3115)" fill="#444444" font-family="'Arial'" font-size="8">2</text>
				</g>
				<g>
					<text transform="matrix(1.0001 0 0 1 445.1221 72.3115)" fill="#444444" font-family="'Arial'" font-size="8">1</text>
				</g>
			</g>
			<g>
				<g>
					<g>
						<polygon fill-rule="evenodd" clip-rule="evenodd" fill="#FFFFFF" points="441.813,59.038 441.813,56.037 436.813,56.037 
							436.813,43.036 457.812,43.036 457.812,56.037 452.812,56.037 452.812,59.038 						"/>
						<path fill="#888888" d="M457.312,43.536v12.001h-4h-1v1v2.001h-9.998v-2.001v-1h-1h-4V43.536H457.312 M458.312,42.536h-21.998
							v14.001h5v3.001h11.998v-3.001h5V42.536L458.312,42.536z"/>
					</g>
				</g>
				<g>
					<g>
						<polygon fill-rule="evenodd" clip-rule="evenodd" fill="#FFFFFF" points="467.415,59.038 467.415,56.037 462.414,56.037 
							462.414,43.036 483.412,43.036 483.412,56.037 478.414,56.037 478.414,59.038 						"/>
						<path fill="#888888" d="M482.912,43.536v12.001h-3.998h-1v1v2.001h-9.999v-2.001v-1h-1h-4.001V43.536H482.912 M483.912,42.536
							h-21.998v14.001h5.001v3.001h11.999v-3.001h4.998V42.536L483.912,42.536z"/>
					</g>
				</g>
				<g>
					<g>
						<polygon fill-rule="evenodd" clip-rule="evenodd" fill="#FFFFFF" points="493.023,59.038 493.023,56.037 488.024,56.037 
							488.024,43.036 509.021,43.036 509.021,56.037 504.022,56.037 504.022,59.038 						"/>
						<path fill="#888888" d="M508.521,43.536v12.001h-3.999h-1v1v2.001h-9.999v-2.001v-1h-1h-3.999V43.536H508.521 M509.521,42.536
							h-21.997v14.001h4.999v3.001h11.999v-3.001h4.999V42.536L509.521,42.536z"/>
					</g>
				</g>
				<g>
					<g>
						<polygon fill-rule="evenodd" clip-rule="evenodd" fill="#FFFFFF" points="518.634,59.038 518.634,56.037 513.636,56.037 
							513.636,43.036 534.634,43.036 534.634,56.037 529.633,56.037 529.633,59.038 						"/>
						<path fill="#888888" d="M534.134,43.536v12.001h-4.001h-1v1v2.001h-9.999v-2.001v-1h-1h-3.998V43.536H534.134 M535.134,42.536
							h-21.998v14.001h4.998v3.001h11.999v-3.001h5.001V42.536L535.134,42.536z"/>
					</g>
				</g>
			</g>
		</g>
	</g>
</g>
</svg>
